<?xml version="1.0" encoding="UTF-8"?>
<svg width="48px" height="48px" viewBox="0 0 48 48" version="1.1" xmlns="http://www.w3.org/2000/svg" xmlns:xlink="http://www.w3.org/1999/xlink">
    <title>客户端</title>
    <defs>
        <path d="M0,0 L40,0 C44.418278,-8.11624501e-16 48,3.581722 48,8 L48,48 L48,48 L0,48 L0,0 Z" id="path-1"></path>
        <linearGradient x1="60.7055664%" y1="38.5904948%" x2="50%" y2="50%" id="linearGradient-3">
            <stop stop-color="#FFFFFF" stop-opacity="0" offset="0%"></stop>
            <stop stop-color="#834EFF" offset="100%"></stop>
        </linearGradient>
    </defs>
    <g id="页面-1" stroke="none" stroke-width="1" fill="none" fill-rule="evenodd">
        <g id="网页版登录注册/03扫码登录-01首页" transform="translate(-1705.000000, -324.000000)">
            <g id="编组-3" transform="translate(1273.000000, 324.000000)">
                <g id="二维码-+-矩形蒙版" transform="translate(432.000000, 0.000000)">
                    <mask id="mask-2" fill="white">
                        <use xlink:href="#path-1"></use>
                    </mask>
                    <g id="蒙版" fill-rule="nonzero"></g>
                    <g id="二维码" mask="url(#mask-2)">
                        <g transform="translate(24.000000, 24.000000) scale(-1, 1) translate(-24.000000, -24.000000) ">
                            <path d="M8,0 L48,0 L48,0 L48,48 L0,48 L0,8 C-5.41083001e-16,3.581722 3.581722,8.11624501e-16 8,0 Z" id="矩形" fill-rule="nonzero"></path>
                            <g id="电脑" stroke-width="1" fill-rule="evenodd" transform="translate(6.000000, 9.000000)"></g>
                        </g>
                    </g>
                    <path d="M38.9037,9.33112667 C40.4240533,9.33112667 41.6612333,10.56812 41.6612333,12.08866 L41.6612333,31.5201933 C41.6612333,33.04078 40.4240533,34.27796 38.9037,34.27796 L34.277,34.277 L31.839,31.839 L38.9037,31.8396267 C39.07954,31.8396267 39.2229,31.6962667 39.2229,31.5201933 L39.2227667,29.9551267 L29.955,29.955 L27.516,27.516 L39.2227667,27.5161267 L39.2229,12.08866 C39.2229,11.9125867 39.07954,11.76946 38.9037,11.76946 L11.769,11.769 L9.331,9.331 L38.9037,9.33112667 Z" id="形状结合" fill="#2C2C2C" fill-rule="nonzero" mask="url(#mask-2)"></path>
                    <polygon id="矩形" fill="url(#linearGradient-3)" fill-rule="nonzero" opacity="0.200000003" mask="url(#mask-2)" points="0 0 48 48 48 26.2921875 22.6359375 0"></polygon>
                </g>
            </g>
        </g>
    </g>
</svg>