<?xml version="1.0" encoding="UTF-8"?>
<svg width="48px" height="48px" viewBox="0 0 48 48" version="1.1" xmlns="http://www.w3.org/2000/svg" xmlns:xlink="http://www.w3.org/1999/xlink">
    <title>登录切换/二维码</title>
    <defs>
        <path d="M0,0 L40,0 C44.418278,-8.11624501e-16 48,3.581722 48,8 L48,48 L48,48 L0,48 L0,0 Z" id="path-1"></path>
        <linearGradient x1="60.7055664%" y1="38.5904948%" x2="50%" y2="50%" id="linearGradient-3">
            <stop stop-color="#FFFFFF" stop-opacity="0" offset="0%"></stop>
            <stop stop-color="#834EFF" offset="100%"></stop>
        </linearGradient>
    </defs>
    <g id="页面-1" stroke="none" stroke-width="1" fill="none" fill-rule="evenodd">
        <g id="切图汇总" transform="translate(-749.000000, -452.000000)">
            <g id="二维码-+-矩形蒙版" transform="translate(749.000000, 452.000000)">
                <mask id="mask-2" fill="white">
                    <use xlink:href="#path-1"></use>
                </mask>
                <use id="蒙版" fill="#FDFCFF" fill-rule="nonzero" xlink:href="#path-1"></use>
                <g id="二维码" mask="url(#mask-2)" fill-rule="nonzero">
                    <g transform="translate(24.000000, 24.000000) scale(-1, 1) translate(-24.000000, -24.000000) ">
                        <path d="M8,0 L48,0 L48,0 L48,48 L0,48 L0,8 C-5.41083001e-16,3.581722 3.581722,8.11624501e-16 8,0 Z" id="矩形" fill="#FDFCFF"></path>
                        <path d="M8.3578125,25.3546875 L8.3578125,22.528125 L5.53125,22.528125 L5.53125,25.3546875 L8.3578125,25.3546875 Z M9.2953125,38.671875 L14.98125,38.671875 L14.98125,32.925 L9.2953125,32.925 L9.2953125,38.671875 Z M25.378125,13.115625 L22.5328125,13.115625 L22.5328125,15.9328125 L25.378125,15.9328125 L25.378125,13.115625 Z M14.9859375,9.3140625 L9.2953125,9.3140625 L9.2953125,15.0609375 L14.98125,15.0609375 L14.98125,9.3140625 L14.9859375,9.3140625 Z M31.9734375,29.1609375 L29.1515625,29.1609375 L29.1515625,31.978125 L37.6359375,31.978125 L37.6359375,29.1609375 L34.8234375,29.1609375 L34.8234375,26.30625 L31.978125,26.30625 L31.978125,29.1609375 L31.9734375,29.1609375 Z M25.378125,5.521875 L22.5328125,5.521875 L22.5328125,11.203125 L25.378125,11.203125 L25.378125,5.521875 Z M25.3640625,27.2671875 L28.209375,27.2671875 L28.209375,24.4640625 L31.040625,24.4640625 L31.040625,21.5859375 L28.1953125,21.5859375 L28.1953125,24.4171875 L25.3640625,24.4171875 L25.3640625,27.2671875 Z M34.8234375,36.7125 L34.8234375,33.890625 L31.978125,33.890625 L31.978125,36.7078125 L34.8234375,36.7078125 L34.8234375,36.7125 Z M37.6546875,23.475 L34.809375,23.475 L34.809375,26.2921875 L37.6546875,26.2921875 L37.6546875,23.475 Z M19.6921875,4.603125 L4.5796875,4.603125 L4.5796875,19.6875 L19.6921875,19.6875 L19.6921875,4.603125 Z M17.821875,17.8125 L6.4828125,17.8125 L6.4828125,6.50625 L17.821875,6.50625 L17.821875,17.8125 Z M39.5296875,25.35 L42.375,25.35 L42.375,22.5890625 L39.5296875,22.5890625 L39.5296875,25.35 Z M39.5296875,39.5296875 L37.6546875,39.5296875 L37.6546875,36.7265625 L34.809375,36.7265625 L34.809375,39.5296875 L31.9734375,39.5296875 L31.9734375,42.4078125 L42.375,42.4078125 L42.375,39.6328125 L42.3796875,39.6328125 L42.3796875,33.8625 L39.534375,33.8625 L39.534375,39.5296875 L39.5296875,39.5296875 Z M39.5296875,31.959375 L42.375,31.959375 L42.375,29.1421875 L39.5296875,29.1421875 L39.5296875,31.959375 Z M38.596875,9.3140625 L32.90625,9.3140625 L32.90625,15.0609375 L38.5921875,15.0609375 L38.5921875,9.3140625 L38.596875,9.3140625 Z M28.2046875,4.603125 L28.2046875,19.6875 L43.3171875,19.6875 L43.3171875,4.603125 L28.2046875,4.603125 Z M41.41875,17.8125 L30.0796875,17.8125 L30.0796875,6.50625 L41.41875,6.50625 L41.41875,17.8125 Z M25.378125,33.8484375 L28.209375,33.8484375 L28.209375,31.0875 L25.378125,31.0875 L25.378125,27.271875 L22.5328125,27.271875 L22.5328125,42.3375 L25.3640625,42.3375 L25.3640625,42.375 L28.209375,42.375 L28.209375,39.5578125 L25.378125,39.5578125 L25.378125,33.8484375 L25.378125,33.8484375 Z M11.1984375,25.3875 L20.653125,25.3875 L20.653125,22.528125 L11.1984375,22.528125 L11.1984375,25.3875 Z M25.378125,17.8265625 L22.51875,17.8265625 L22.51875,20.64375 L25.378125,20.64375 L25.378125,17.8265625 Z M28.1953125,39.515625 L31.040625,39.515625 L31.040625,36.6984375 L28.1953125,36.6984375 L28.1953125,39.515625 Z M4.575,43.3171875 L19.6875,43.3171875 L19.6875,28.2328125 L4.575,28.2328125 L4.575,43.3171875 L4.575,43.3171875 Z M6.4828125,30.1359375 L17.821875,30.1359375 L17.821875,41.4421875 L6.4828125,41.4421875 L6.4828125,30.1359375 L6.4828125,30.1359375 Z" id="形状" fill="#000000"></path>
                    </g>
                </g>
                <polygon id="矩形" fill="#FFFFFF" fill-rule="nonzero" mask="url(#mask-2)" points="0 0 48 48 0 48"></polygon>
                <polygon id="矩形" fill="url(#linearGradient-3)" fill-rule="nonzero" opacity="0.200000003" mask="url(#mask-2)" points="0 0 48 48 48 26.2921875 22.6359375 0"></polygon>
            </g>
        </g>
    </g>
</svg>