<?xml version="1.0" encoding="UTF-8"?>
<svg width="52px" height="52px" viewBox="0 0 52 52" version="1.1" xmlns="http://www.w3.org/2000/svg" xmlns:xlink="http://www.w3.org/1999/xlink">
    <title>编组 10</title>
    <g id="我的账单" stroke="none" stroke-width="1" fill="none" fill-rule="evenodd">
        <g id="我的账单-未对账" transform="translate(-991.000000, -143.000000)">
            <g id="筛选展开" transform="translate(176.000000, 74.000000)">
                <g id="编组-3" transform="translate(20.000000, 69.000000)">
                    <g id="编组-10" transform="translate(795.000000, 0.000000)">
                        <circle id="椭圆形备份-3" fill="#E9FBED" cx="26" cy="26" r="26"></circle>
                        <g id="编组-9" transform="translate(16.000000, 16.000000)">
                            <path d="M15,0.75 C15.8974627,0.75 16.7099627,1.11376864 17.298097,1.70190296 C17.8862314,2.29003728 18.25,3.10253728 18.25,4 L18.25,4 L18.25,17.8137972 L15.7235711,16.6659473 L13.2193382,18.6765539 L10.6384317,16.6146299 L7.44484416,18.7784332 L4.83693499,16.6150601 L2.49603879,18.0474201 L1.75005359,3.98113688 C1.75511162,3.09115582 2.11789191,2.28591401 2.70190296,1.70190296 C3.29003728,1.11376864 4.10253728,0.75 5,0.75 L5,0.75 Z" id="矩形" stroke="#4EBC65" stroke-width="1.5"></path>
                            <path d="M7.25,8.74533189 C6.83578644,8.74533189 6.5,8.40954545 6.5,7.99533189 C6.5,7.58111833 6.83578644,7.24533189 7.25,7.24533189 L8.57260658,7.24471443 L6.48209071,4.7538226 C6.21583936,4.4365166 6.25722733,3.96344991 6.57453333,3.69719856 C6.89183933,3.43094721 7.36490603,3.47233519 7.63115737,3.78964119 L10.0026066,6.61571443 L12.374635,3.78964119 C12.6166816,3.50118119 13.0296501,3.44075261 13.3411316,3.63218815 L13.431259,3.69719856 C13.748565,3.96344991 13.789953,4.4365166 13.5237016,4.7538226 L13.5237016,4.7538226 L11.4326066,7.24471443 L12.75,7.24533189 C13.1642136,7.24533189 13.5,7.58111833 13.5,7.99533189 C13.5,8.40954545 13.1642136,8.74533189 12.75,8.74533189 L10.75,8.74533189 L10.75,8.74533189 L10.7496066,10.2447144 L12.75,10.2453319 C13.1642136,10.2453319 13.5,10.5811183 13.5,10.9953319 C13.5,11.4095455 13.1642136,11.7453319 12.75,11.7453319 L10.7496066,11.7447144 L10.75,13.2453319 C10.75,13.6595455 10.4142136,13.9953319 10,13.9953319 C9.58578644,13.9953319 9.25,13.6595455 9.25,13.2453319 L9.24960658,11.7447144 L7.25,11.7453319 C6.83578644,11.7453319 6.5,11.4095455 6.5,10.9953319 C6.5,10.5811183 6.83578644,10.2453319 7.25,10.2453319 L9.24960658,10.2447144 L9.25,8.74533189 L7.25,8.74533189 Z" id="形状结合" fill="#4EBC65"></path>
                        </g>
                    </g>
                </g>
            </g>
        </g>
    </g>
</svg>