<?xml version="1.0" encoding="utf-8"?>
<!-- Generator: Adobe Illustrator 22.0.0, SVG Export Plug-In . SVG Version: 6.00 Build 0)  -->
<svg version="1.1" id="图层_1" xmlns="http://www.w3.org/2000/svg" xmlns:xlink="http://www.w3.org/1999/xlink" x="0px" y="0px"
	 viewBox="0 0 297 39" style="enable-background:new 0 0 297 39;" xml:space="preserve">
<style type="text/css">
	.st0{fill:#FFFFFF;}
</style>
<title>kye-logo</title>
<desc>Created with Sketch.</desc>
<g>
	<polygon class="st0" points="55.6,28.1 53.7,28.1 51.1,31.5 51.1,28.1 49.4,28.1 49.4,35.9 51.1,35.9 51.1,32 53.8,35.9 55.8,35.9 
		52.7,31.6 	"/>
	<path class="st0" d="M62.3,32.4c0.1,1.7-0.4,2.5-1.7,2.5c-1.3,0.1-1.8-0.8-1.7-2.5v-4.3h-1.7V33c0.1,1.9,1.2,2.9,3.4,3
		c2.2-0.1,3.3-1.1,3.4-3v-4.9h-1.7V32.4z"/>
	<path class="st0" d="M68.3,28.1l-2.8,7.8H67l0.6-1.6h3.1l0.6,1.6h1.7l-2.7-7.8H68.3z M68,33l1.1-3.3h0l1,3.3H68z"/>
	<polygon class="st0" points="77.3,31.7 75.7,28.1 73.8,28.1 76.4,33.4 76.4,35.9 78,35.9 78,33.4 80.6,28.1 78.9,28.1 	"/>
	<path class="st0" d="M87.2,32.4c0.1,1.7-0.4,2.5-1.7,2.5c-1.3,0.1-1.8-0.8-1.7-2.5v-4.3h-1.7V33c0.1,1.9,1.2,2.9,3.4,3
		c2.2-0.1,3.3-1.1,3.4-3v-4.9h-1.7V32.4z"/>
	<polygon class="st0" points="92.6,32.6 95.8,32.6 95.8,31.3 92.6,31.3 92.6,29.5 96.1,29.5 96.1,28.1 90.9,28.1 90.9,35.9 
		96.2,35.9 96.2,34.6 92.6,34.6 	"/>
	<rect x="97.9" y="32.7" class="st0" width="5.2" height="1.3"/>
	<polygon class="st0" points="106.5,32.6 109.8,32.6 109.8,31.3 106.5,31.3 106.5,29.5 110.1,29.5 110.1,28.1 104.9,28.1 
		104.9,35.9 110.2,35.9 110.2,34.6 106.5,34.6 	"/>
	<polygon class="st0" points="118.8,28.1 117,28.1 115.4,30.8 113.8,28.1 111.7,28.1 114.3,31.9 111.5,35.9 113.3,35.9 115.2,33 
		116.9,35.9 119,35.9 116.2,31.9 	"/>
	<path class="st0" d="M122.8,28.1h-2.4v7.8h1.6v-3h1.2c1.7-0.1,2.6-0.9,2.7-2.4C125.9,28.9,124.9,28.1,122.8,28.1z M122.5,31.6
		c-0.2,0-0.4,0-0.5,0v-2.2c0.1,0,0.3,0,0.5,0c1.1,0,1.6,0.3,1.6,1.1C124.2,31.4,123.6,31.8,122.5,31.6z"/>
	<path class="st0" d="M133.2,33.8c-0.2-1.1-0.6-1.6-1.4-1.7v0c1-0.3,1.6-0.9,1.6-1.9c0-1.3-0.9-2-2.7-2h-3.3v7.8h1.7v-3.1h1.8
		c0.4,0,0.7,0.3,0.7,1c0,0.7,0.1,1.4,0.3,2.1h1.8c-0.2-0.3-0.3-0.9-0.4-1.9C133.3,34,133.2,34,133.2,33.8z M130.5,31.5h-1.4v-2.1
		h1.4c0.8,0,1.2,0.3,1.2,1C131.7,31.2,131.3,31.5,130.5,31.5z"/>
	<polygon class="st0" points="136.8,32.6 140.1,32.6 140.1,31.3 136.8,31.3 136.8,29.5 140.4,29.5 140.4,28.1 135.2,28.1 
		135.2,35.9 140.5,35.9 140.5,34.6 136.8,34.6 	"/>
	<path class="st0" d="M145.6,31.4c-0.1,0-0.2,0-0.2,0c-0.1,0-0.1,0-0.2,0c-0.8-0.2-1.2-0.5-1.2-1.1c0-0.6,0.4-1,1.3-1
		c0.8,0,1.2,0.4,1.3,1.2h1.6c-0.1-1.5-1-2.3-2.6-2.4c-2.1,0.1-3.1,1-3.2,2.6c0,1,0.9,1.8,2.6,2.2c0.1,0,0.2,0.1,0.3,0.1
		c1,0.2,1.5,0.6,1.5,1.1c0,0.6-0.5,1-1.6,1c-0.9-0.1-1.3-0.5-1.3-1.4H142c0,1.7,1,2.6,3,2.6c2.2-0.1,3.3-0.9,3.3-2.5
		C148.3,32.4,147.5,31.7,145.6,31.4z"/>
	<path class="st0" d="M153.4,31.4c-0.1,0-0.2,0-0.2,0c-0.1,0-0.1,0-0.2,0c-0.8-0.2-1.2-0.5-1.2-1.1c0-0.6,0.4-1,1.3-1
		c0.8,0,1.2,0.4,1.3,1.2h1.6c-0.1-1.5-1-2.3-2.6-2.4c-2.1,0.1-3.1,1-3.2,2.6c0,1,0.9,1.8,2.6,2.2c0.1,0,0.2,0.1,0.3,0.1
		c1,0.2,1.5,0.6,1.5,1.1c0,0.6-0.5,1-1.6,1c-0.9-0.1-1.3-0.5-1.3-1.4h-1.7c0,1.7,1,2.6,3,2.6c2.2-0.1,3.3-0.9,3.3-2.5
		C156.1,32.4,155.2,31.7,153.4,31.4z"/>
	<path class="st0" d="M140.7,11.7c0.3,0.2,0.5,0.3,0.7,0.3c0.1,0,0.2,0,0.6,0l2.4-0.4c-0.1,0.8-0.4,1.6-0.8,2.3
		c-0.4,0.7-1.1,1.4-2.1,1.8c-0.1,0-0.2,0.1-0.3,0.1c-0.2,0-0.3,0.2-0.4,0.3c-0.1,0.2,0,0.3,0,0.5c0.1,0.3,0.2,0.6,0.3,0.8
		c0.2,0.3,0.4,0.6,0.8,0.9c0.1,0.1,0.2,0.1,0.3,0.1c0.1,0,0.1,0,0.2-0.1l0.6-0.3c1-0.5,2-0.9,2.9-1.3c0.8-0.3,1.7-0.6,2.6-0.9
		c0,0.1,0.1,0.2,0.2,0.4c0.2,0.4,0.3,0.7,0.5,1l0.2,0.5c0.1,0.1,0.3,0.6,0.8,0.6c0.1,0,0.2,0,0.2,0c0.2-0.1,0.4-0.3,0.7-0.6
		c0,0,0-0.1,0.1-0.1c0.4-1.1,0.2-2.1-0.6-3.1c-0.7-0.9-1.6-1.6-2.6-2c-0.1-0.1-0.2-0.1-0.3-0.1c-0.2,0-0.3,0.1-0.4,0.2
		c0,0.1-0.1,0.3,0,0.5c0,0.1,0.1,0.2,0.1,0.3l0.7,1.3l-3.7,0.7c0.2-0.3,0.4-0.6,0.6-0.9c0.3-0.5,0.8-1,1.3-1.4c0,0,0,0,0.1-0.1
		c0.2-0.3,0.5-0.7,0.3-1.1c0-0.1-0.1-0.3-0.3-0.5l5.8-0.8c0.6-0.1,0.7-0.5,0.7-0.7c0-0.2,0-0.5-0.4-0.8c-0.5-0.3-0.9-0.6-1.3-0.7
		c-0.4-0.1-1-0.1-1.8,0.2c-1.2,0.4-2.6,0.8-4.1,1.1c-1.5,0.3-3,0.6-4.5,0.8c-0.1,0-0.1,0-0.2,0.1c-0.4,0.3-0.4,0.6-0.3,0.9
		C140.4,11.5,140.5,11.6,140.7,11.7z"/>
	<path class="st0" d="M57.5,17.7c-0.1-0.2-0.2-0.3-0.4-0.3c-0.1,0-0.2,0.1-0.4,0.2l-2.4,1.2v-2.1c0,0,0,0,0,0c0,0,0,0,0.1,0l1.5-0.2
		c0,0,0.1,0,0.1,0c0.7-0.3,0.7-0.7,0.7-0.9c0-0.2-0.1-0.3-0.2-0.4l0.1,0c0,0,0,0,0.1,0c1.1-0.7,2-1.5,2.7-2.4c0,0.2,0.2,0.4,0.5,0.6
		c0.1,0.1,0.2,0.1,0.3,0.1c0.5,0,1.1,0,1.7-0.2c0.5-0.1,1-0.2,1.3-0.3c0,0,0.1,0,0.1,0c0.3-0.1,0.9-0.4,0.8-1c0-0.1-0.1-0.6-0.7-0.6
		c-0.2,0-0.3-0.1-0.5-0.1c-0.2-0.1-0.5,0-0.8,0.1c-0.3,0-0.8,0.1-1.6,0.3c-0.1,0-0.3,0.1-0.4,0.1c0.5-0.7,0.9-1.5,1.2-2.3
		C61.2,9,61.3,9,61.3,9C61.4,9,61.6,9,62,9.4c0.9,0.9,1.7,1.9,2.4,2.7c0.8,1,1.8,1.6,2.9,2c0.1,0,0.1,0,0.2,0c0.6,0,1.1-0.1,1.6-0.1
		c0.5,0,1.1-0.1,1.6-0.2c0.3-0.1,0.4-0.1,0.4-0.1c0.2-0.1,0.3-0.3,0.3-0.5c0-0.3-0.4-0.4-0.6-0.5c-1.4-0.4-2.8-1-4-1.6
		c-1.1-0.5-2.2-1.4-3.4-2.5c0.4-0.1,0.9-0.2,1.3-0.2c0.6-0.1,1.2-0.2,1.9-0.4c0,0,0.1,0,0.1-0.1c0.1-0.1,0.5-0.3,0.5-0.7
		c0-0.4-0.4-0.6-0.6-0.6c-0.4-0.2-0.8-0.2-1.3-0.2c-0.4,0.1-0.7,0.1-1,0.2l-2.5,0.6c0.1-0.3,0.2-0.7,0.3-1c0.1-0.4,0.3-0.8,0.5-1.2
		c0.5-0.8,0.3-1.2,0-1.4c-0.2-0.2-0.5-0.4-0.9-0.5c-0.2-0.1-0.5-0.2-0.8-0.2c-0.5-0.1-0.9,0.2-1,0.6c0,0,0,0.1,0,0.1v0.4
		c0,0,0,0,0,0.1c0.1,0.7,0.1,1.3,0.1,2c0,0.6-0.1,1.1-0.3,1.7c-0.3,0.1-0.7,0.2-1,0.2c-0.4,0.1-0.8,0.1-1.3,0.2c0,0,0,0-0.1,0
		c0,0,0,0-0.1,0C57.3,8,57.2,8,57.1,8c-0.4-0.4-0.9-0.7-1.4-0.9C55,6.7,54.5,6.8,54,7.1c-0.7,0.3-1.4,0.5-2.1,0.6
		c-0.7,0-1.4,0.1-2.2,0.1c-0.2,0-0.3,0.1-0.4,0.2c-0.1,0.1-0.1,0.3,0,0.5l0.2,0.3c0.4,0.7,0.7,1.4,0.9,2c0.2,0.7,0.3,1.4,0.5,2.1
		c0,0,0,0,0,0.1c0.2,0.4,0.3,0.7,0.6,0.7c0.1,0,0.2,0,0.7-0.3c0,0,0,0,0,0c0.2,1,0.3,1.9,0.3,2.8c0.1,0.9,0.1,2,0,3
		c0,0.3,0,0.4,0,0.4L51.6,20l0.2-2.8c0.1-0.4,0.1-1-0.5-1.6c-0.4-0.4-0.9-0.6-1.3-0.7c-0.3-0.1-0.6,0.1-0.7,0.3
		c-0.1,0.2-0.1,0.4,0,0.6c0.2,0.8,0.4,1.5,0.5,2.2c0.1,0.7,0.2,1.5,0.2,2.2c0,0.1,0,0.2,0,0.2c0,0-0.1,0-0.1,0
		c-0.4,0.1-0.7,0.3-0.8,0.5c-0.1,0.3-0.1,0.6,0,1c0.2,0.5,0.6,0.8,1.2,0.8c0.1,0,0.3,0,0.4-0.1c0,0,0.1,0,0.1,0
		c1.1-0.6,2.1-1.3,3.1-2c1-0.7,2-1.4,3.1-2.3c0.1-0.1,0.2-0.2,0.4-0.3C57.5,18.1,57.6,17.9,57.5,17.7z M53.3,11.2
		c-0.3,0.1-0.5,0.2-0.8,0.2l0,0c-0.1-0.4-0.1-0.7-0.2-1L52,9.2l2.3-0.4c0,0.1,0,0.2,0,0.3c-0.1,0.5-0.1,0.9-0.1,1.1L54,10.9
		C53.8,11,53.5,11.1,53.3,11.2z M54.6,12.5c0.3-0.1,0.7-0.2,1.1-0.3c0.1,0,0.3-0.1,0.4-0.1c0.2-0.1,0.3-0.2,0.3-0.4
		c0-0.3-0.3-0.5-0.4-0.6c0,0-0.1,0-0.1-0.1c0,0,0,0,0,0c0.1-0.3,0.2-0.6,0.4-0.9c0.2-0.3,0.4-0.6,0.7-0.8c0.1,0.1,0.3,0.1,0.3,0.2
		c0.5,0.2,1,0.3,1.4,0.2c0.1,0,0.3-0.1,0.4-0.1c-0.3,0.7-0.7,1.4-1.1,2.1c-0.5,0.8-1.2,1.7-2.1,2.6l-0.3,0.3
		c-0.1,0.1-0.2,0.2-0.2,0.4L54.3,15c0-0.2,0.1-0.4,0.1-0.6c0-0.2,0.1-0.5,0.2-0.7c0-0.1,0-0.3-0.1-0.4L54,12.7
		C54.3,12.6,54.5,12.5,54.6,12.5z"/>
	<path class="st0" d="M88.6,11.4c0.1,0.7,0.2,1.4,0.3,2c0,0.7,0,1.4,0,2.1c-0.1,0.2-0.1,0.5-0.2,0.7c-0.1,0.2-0.2,0.5-0.3,0.8
		c-0.4,0.4-0.4,0.8-0.1,1.3c0.2,0.3,0.3,0.6,0.5,0.8c0.1,0.2,0.3,0.3,0.4,0.3c0.3,0,0.5-0.3,0.6-0.4c0.1-0.2,0.2-0.3,0.2-0.3
		c0,0,0,0,0,0l0.7-1c0.4-0.4,0.8-0.8,1-1.2c0.3-0.4,0.6-0.8,0.9-1.2c0,0,0-0.1,0.1-0.1c0,0,0-0.1,0-0.1l0.3,0.9
		c-0.2,0.4-0.4,0.8-0.7,1.2c-0.4,0.5-0.8,0.9-1.3,1.4c-0.1,0.1-0.4,0.3-0.3,0.6c0.1,0.2,0.2,0.3,0.4,0.3c0.1,0,0.2,0,0.3-0.1
		c0.4-0.2,0.9-0.4,1.3-0.8c0.4-0.3,0.8-0.7,1.2-1.1c0.4,0.6,0.8,1.1,1.3,1.6c0.5,0.5,1.1,1.1,1.8,1.5c0.2,0.1,0.3,0.2,0.3,0.2
		c0.1,0.1,0.2,0.1,0.3,0.1c0.4,0,0.5-0.5,0.6-0.8c0.1-0.6,0.2-1.2,0.2-1.6c0-0.5,0.1-1,0.1-1.6c0-0.3,0-0.4,0-0.5
		c-0.1-0.2-0.2-0.4-0.5-0.4c-0.4,0-0.5,0.4-0.5,0.6c-0.1,0.3-0.2,0.5-0.3,0.7c-0.1,0.2-0.2,0.4-0.3,0.6c-0.1,0-0.2-0.1-0.3-0.2
		c-0.3-0.3-0.6-0.5-0.8-0.7L95,16.1l1.4-2.7c0.4-0.7,0.2-1.2,0.1-1.5c-0.2-0.4-0.6-0.6-1-0.8c-0.3-0.2-0.6-0.2-0.8,0
		c-0.3,0.2-0.3,0.6-0.3,0.7c0,0.5-0.1,1-0.2,1.5c-0.1,0.3-0.2,0.5-0.3,0.8c-0.1-0.3-0.2-0.6-0.3-0.9c-0.1-0.5-0.3-1-0.5-1.6
		c0-0.1,0-0.2,0-0.3l2.4-0.8c0.2,0,0.5-0.1,0.6-0.3c0.1-0.2,0.1-0.4,0-0.5c-0.1-0.2-0.3-0.4-0.6-0.5c-0.3-0.2-0.6-0.2-0.9-0.1
		C94.3,9,94.2,9,94,9.1c0,0,0,0-0.1,0l-1.2,0.4c0,0,0,0,0,0c-0.1-0.6-0.2-1.3-0.3-1.9c-0.1-0.6-0.1-1.3,0-2c0.1-0.9-0.4-1.3-0.7-1.6
		c-0.4-0.3-0.9-0.4-1.3-0.4c-0.2,0-0.5,0-0.6,0.1c-0.1,0.1-0.3,0.3-0.3,0.7c0,0.1,0,0.1,0,0.2l0.1,0.2c0.4,1,0.7,1.9,1,2.7
		c0.3,0.8,0.5,1.7,0.6,2.7c0,0,0,0,0,0c-0.1,0-0.2,0.1-0.5,0.2c-0.5,0.1-0.8,0.2-1,0.2c-0.1,0-0.1,0-0.1,0c0,0,0,0-0.1,0l-0.5,0
		c-0.2,0-0.3,0.1-0.4,0.2c-0.1,0.2-0.2,0.4-0.1,0.5C88.5,11.2,88.5,11.3,88.6,11.4z M90.6,14.3c0-0.7,0-1.3,0-2.1c0,0,0-0.1,0-0.1
		c0-0.1,0-0.1,0-0.1l0.9-0.3l1,2.8c-0.1-0.1-0.2-0.1-0.3-0.1c-0.1,0-0.2,0-0.2,0.1c-0.1,0.1-0.3,0.2-0.3,0.3l-1.1,0.8
		C90.5,15.2,90.6,14.7,90.6,14.3z"/>
	<path class="st0" d="M136,5.6L136,5.6L136,5.6c0.4,0.7,0.8,1.2,1.1,1.5c0.3,0.4,0.7,0.8,1.2,1.2c0.1,0.1,0.2,0.1,0.3,0.1
		c0.1,0,0.1,0,0.2,0c0.6-0.3,0.9-0.7,1-1.2c0.1-0.5-0.1-0.9-0.5-1.4c0,0,0,0-0.1-0.1c-0.4-0.3-0.8-0.6-1.2-0.7
		c-0.4-0.1-0.7-0.2-1-0.3c-0.2,0-0.4-0.1-0.5-0.1c-0.3,0-0.5,0.1-0.5,0.3c-0.1,0.1-0.1,0.2-0.1,0.3C135.9,5.4,135.9,5.4,136,5.6
		C135.9,5.5,136,5.5,136,5.6z"/>
	<path class="st0" d="M110.5,9.3c0.3,0.3,0.7,0.5,1,0.5c0.4,0,0.9-0.2,1.1-1.2c0-0.1,0-0.2,0-0.3c-0.1-0.3-0.2-0.5-0.3-0.7
		c-0.1-0.3-0.4-0.5-0.8-0.7c-0.4-0.2-0.8-0.3-1.1-0.4c-0.3-0.1-0.7-0.1-1.1-0.2c-0.3,0-0.4,0-0.5,0c-0.2,0-0.3,0.1-0.3,0.3
		c-0.1,0.3,0.1,0.5,0.2,0.7C109.3,8,109.9,8.7,110.5,9.3z"/>
	<path class="st0" d="M95,8.6c0.3,0.2,0.5,0.3,0.8,0.3c0.2,0,0.4-0.1,0.6-0.3c0.2-0.2,0.3-0.6,0.2-1.2c0,0,0-0.1,0-0.1
		c-0.3-0.6-0.8-1-1.4-1.2c-0.5-0.2-0.9-0.2-1.3-0.2c-0.3-0.1-0.5,0-0.6,0.1c-0.1,0.1-0.3,0.4,0,0.8C93.6,7.5,94.2,8.2,95,8.6z"/>
	<path class="st0" d="M117,23.5c1.2,0.5,2.4,1,3.8,1.4c0,0,0.1,0,0.1,0c0,0,0,0,0,0c1.1-0.1,2.2-0.3,3.2-0.6c1-0.3,2.1-0.7,3.3-1.4
		l0.2-0.1c0.2-0.1,0.2-0.3,0.2-0.5c-0.1-0.2-0.2-0.3-0.4-0.3l-0.2,0c-2.7,0.2-5.2,0.1-7.6-0.2c-0.3,0-0.6-0.1-0.9-0.2
		c0.4-1.1,0.6-2.2,0.5-3.3c0-0.7,0-1.4,0-2l0.3,0.3c0.7,0.7,1.3,1.3,2,1.8c0.6,0.5,1.4,0.8,2.1,1.1c0.1,0,0.3,0,0.4,0
		c0.1-0.1,0.2-0.2,0.2-0.3l0.1-0.6c0,0,0-0.1,0-0.1c0-0.5-0.2-0.9-0.4-1.3c-0.3-0.4-0.6-0.7-1.1-1c0,0,0,0-0.1,0
		c-0.5-0.2-1-0.4-1.5-0.5c-0.5-0.1-1-0.2-1.5-0.1c-0.1,0-0.1,0-0.2,0c-0.2,0-0.3,0-0.4,0.1c0-0.2,0-0.4,0-0.6v-0.2c0,0,0,0,0.1,0
		l3-0.5c0.2,0,0.3,0,0.4-0.1c0.1,0,0.3-0.2,0.3-0.3c0.1-0.3-0.1-0.6-0.1-0.7c0,0,0,0,0-0.1c0,0,0,0-0.1-0.1c0,0,0,0,0-0.1
		c0,0,0,0,0-0.1c0.1-0.2,0.2-0.4,0.4-0.6c0.2-0.2,0.3-0.3,0.6-0.5c0.3-0.2,0.3-0.2,0.4-0.3c0.3-0.3,0.1-0.6-0.1-0.9c0,0,0,0,0,0
		c-0.3-0.4-0.7-0.7-1.1-0.9c-0.5-0.3-0.9-0.3-1.4,0l-2.3,0.6l0-1c0-0.1,0-0.1,0-0.2c0,0,0,0,0,0c0.5-0.1,0.9-0.2,1.4-0.3
		c0.4-0.1,0.8-0.3,1.3-0.4c0,0,0.1,0,0.1,0c0.4-0.2,0.6-0.4,0.6-0.7c0.1-0.3,0-0.6-0.6-0.9c-0.2-0.1-0.3-0.1-0.4-0.2
		c-0.2-0.1-0.5,0-0.8,0.1l-1.5,0.5l0.2-2.2c0.1-0.9-0.2-1.3-0.6-1.5c-0.4-0.2-0.8-0.4-1.3-0.4c-0.2,0-0.4,0-0.6,0.1
		c-0.1,0.1-0.4,0.3-0.2,0.9c0.2,0.5,0.4,1.1,0.6,1.6c0.1,0.5,0.2,1.1,0.2,1.6c0,0.1,0,0.2,0,0.2c-0.1,0-0.2,0-0.3,0.1l-2,0.5
		c-0.2,0-0.5,0.1-0.6,0.3c-0.1,0.1-0.1,0.3,0,0.5c0.1,0.2,0.3,0.4,0.6,0.6c0.5,0.2,0.9,0.2,1.4,0.1c0.3-0.1,0.6-0.1,1-0.2v1.3
		c0,0,0,0,0,0c-0.7,0.2-1.3,0.2-1.9,0.3c-0.6,0-1.2,0-1.9-0.1c-0.1,0-0.1,0-0.2,0c-0.1,0-0.2,0.1-0.3,0.1c-0.1,0.1-0.3,0.2-0.3,0.3
		c-0.1,0.3,0.1,0.5,0.2,0.6c0.4,0.6,0.7,1.1,0.9,1.6c0.2,0.5,0.5,1.1,0.8,1.7c0.1,0.1,0.3,0.5,0.7,0.5c0.1,0,0.2,0,0.2,0
		c0.2-0.1,0.4-0.2,0.4-0.6l0.8-0.1c-0.5,0.8-1.2,1.6-1.8,2.2c-0.8,0.8-1.7,1.5-2.6,2.1c-0.2,0.1-0.5,0.2-0.4,0.6
		c-0.2-0.1-0.4-0.1-0.6-0.2c0,0,0,0,0,0c0,0,0-0.1,0-0.1c0.1-0.5,0-1-0.1-1.4c-0.1-0.4-0.2-0.8-0.3-1.2c0,0,0-0.1,0-0.1
		c-0.3-0.6-0.3-1.1-0.3-1.4c0.1-0.4,0.4-0.8,0.8-1.4c0.4-0.4,0.5-0.5,0.5-0.6c0.3-0.4-0.1-0.8-0.3-1c0,0,0,0-0.1-0.1
		c-0.3-0.2-0.6-0.4-1-0.6c-0.5-0.3-1-0.3-1.4,0.1l-0.2,0.1c-0.5,0.3-0.9,0.5-1.3,0.6c-0.4,0.1-0.8,0.2-1.3,0.3c0,0-0.1,0-0.1,0
		c-0.7,0.2-0.6,0.7-0.6,0.8c0.1,0.3,0.3,0.5,0.6,0.6c0.5,0.2,1,0.3,1.4,0.2c0.3-0.1,0.7-0.2,1.1-0.4l-0.2,0.9c0,0.1,0,0.1,0,0.2
		c0.2,0.7,0.3,1.4,0.6,2.1c0.2,0.6,0.4,1.2,0.5,1.9c0,0.1,0,0.2,0,0.3l-3.4,0.5c-0.5,0.1-0.6,0.5-0.6,0.7c0,0.2,0.1,0.3,0.3,0.5
		c0,0,0,0,0,0c0.2,0.2,0.4,0.3,0.7,0.4c0.3,0.1,0.6,0.2,0.8,0.2c0.1,0,0.1,0,0.2,0c1-0.5,1.9-0.7,2.6-0.6c0.8,0.1,1.7,0.4,2.8,0.8
		C114.7,22.5,115.9,23,117,23.5z M121,11.5C121,11.5,121,11.6,121,11.5c0,0.3-0.1,0.5-0.1,0.8c0,0.2-0.1,0.3-0.1,0.5
		c-0.3,0.1-0.5,0.2-0.8,0.2c-0.3,0-0.5,0.1-0.8,0.1V12c0-0.1,0-0.1,0-0.1L121,11.5z M116.6,13.6c-0.2,0-0.4,0-0.6,0.1
		c-0.1-0.1-0.1-0.3-0.1-0.4c0-0.2-0.1-0.5-0.2-0.7l1.7-0.4h0c0,0,0,0.1,0,0.1c0,0.4,0,0.8,0,1.1c0,0,0,0,0,0
		C117.2,13.5,116.9,13.6,116.6,13.6z M115.5,19c0.7-0.4,1.3-0.9,2-1.6l-0.2,2.9c0,0.3,0,0.6,0.1,0.8c0,0.1,0.1,0.2,0.1,0.3
		c-1.5-0.3-3-0.7-4.5-1.1C113.9,19.9,114.7,19.5,115.5,19z"/>
	<path class="st0" d="M99.6,22.9c0.2-0.1,0.3-0.3,0.3-0.5c0-0.2-0.2-0.4-0.4-0.4L99.1,22c-2.2-0.2-4.3-0.4-6.2-0.7
		c-1.9-0.3-3.9-1-5.9-2l-1.4-0.9v-1.9l0,0c0.3,0,0.6,0,0.9-0.1c0.3,0,0.6-0.1,1-0.2c0,0,0.1,0,0.1,0c0.4-0.2,0.7-0.4,0.7-0.7
		c0-0.5-0.5-0.7-0.8-0.8c-0.5-0.2-0.9-0.2-1.3,0c-0.2,0.1-0.4,0.1-0.6,0.2l0.1-0.5c0.1-0.2,0.2-0.4,0.2-0.7c0,0,0-0.1-0.1-0.1l2-0.4
		c0.1,0,0.1,0,0.2-0.1c0.1,0,0.3-0.2,0.4-0.5c0-0.1,0-0.3-0.1-0.5c-0.1-0.1-0.2-0.2-0.4-0.3c-0.5-0.3-1.1-0.4-1.5-0.2
		c-0.3,0.1-0.6,0.1-0.9,0.2l0.1-1.4c0.1,0,0.3,0,0.4-0.1l1-0.1c0,0,0.1,0,0.1,0c0.3-0.1,0.6-0.3,0.7-0.6c0.1-0.2,0-0.4,0-0.6
		c-0.2-0.3-0.5-0.5-1-0.7c-0.1,0-0.1,0-0.2,0l-0.9,0.2L86,6.2c0.2-0.7,0-1.3-0.5-1.7C85,4.2,84.5,4,84.1,4c-0.2,0-0.5,0-0.7,0.1
		c-0.2,0.2-0.3,0.4-0.2,0.7c0,0,0,0.1,0,0.1c0.3,0.6,0.5,1.2,0.5,1.8c0.1,0.6,0.1,1.3,0.1,1.9c0,0.1,0,0.1,0,0.2
		c-0.1,0-0.2,0-0.3,0.1l-2.3,0.4c-0.2,0-0.4,0.1-0.5,0.2c-0.1,0.1-0.1,0.3-0.1,0.5c0.1,0.2,0.2,0.4,0.5,0.6c0.5,0.3,1,0.4,1.6,0.3
		c0.4,0,0.8-0.1,1.2-0.1l0,1.2c0,0.1,0,0.2,0,0.3c0,0,0,0-0.1,0c-1,0.2-1.9,0.4-2.7,0.5c-0.9,0.1-1.8,0.3-2.7,0.4
		c-0.4,0-0.6,0.2-0.7,0.3c-0.1,0.1-0.4,0.5,0.2,1c0,0,0,0,0,0c0.2,0.2,0.5,0.3,0.6,0.4c0.3,0.1,0.6,0.1,1,0c0.8-0.2,1.5-0.3,2.2-0.5
		c0.6-0.1,1.3-0.3,2.1-0.4v3.5c-0.2-0.1-0.3-0.2-0.5-0.2c-0.2-0.1-0.4-0.2-0.6-0.3c0,0,0,0,0,0c0.1-0.2,0.2-0.4,0.2-0.5
		c0.5-0.7,0.3-1.1,0.1-1.2c-0.1-0.1-0.3-0.3-0.6-0.5c0,0-0.1,0-0.1,0c-0.3-0.1-0.5-0.2-0.8-0.3c-0.1,0-0.1,0-0.2,0
		c-0.1,0-0.7,0-0.7,0.8c-0.1,1.1-0.4,2-0.9,2.9c-0.5,0.9-1.3,1.9-2.3,3l-0.4,0.4c-0.1,0.1-0.3,0.3-0.2,0.6c0.1,0.2,0.2,0.3,0.4,0.3
		c0.1,0,0.2-0.1,0.3-0.1c0,0,0.1,0,0.1,0c0.1,0,0.1,0,0.2-0.1c0.8-0.5,1.5-1.1,2.2-1.7c0.7-0.6,1.3-1.4,1.8-2.2c0,0,0,0,0,0
		c0,0,0,0,0,0c0,0,0,0,0,0c2,1,3.8,2.1,5.6,3.2c1.8,1.2,3.7,2.1,5.6,2.8c0,0,0.1,0,0.1,0c0,0,0,0,0.1,0c1-0.1,2-0.3,2.8-0.5
		c0.9-0.2,1.8-0.5,2.8-0.9L99.6,22.9z"/>
	<path class="st0" d="M143.5,7.4c0.3,0.2,0.6,0.3,1,0.3c0.1,0,0.2,0,0.2,0c0.3,0,0.6-0.1,0.9-0.2c0.7-0.1,1.3-0.3,1.9-0.4
		c0.6-0.2,1.2-0.4,1.8-0.6c0,0,0.1,0,0.1-0.1c0.3-0.2,0.5-0.5,0.5-0.8c0.1-0.5-0.4-0.8-0.5-0.9c0,0,0,0-0.1,0
		c-0.3-0.1-0.5-0.2-0.8-0.3c-0.3-0.1-0.7,0-1,0.1l-0.1,0c0,0-0.1,0-0.1,0c-0.3,0.2-1,0.4-2.5,0.8c-1.1,0.3-1.6,0.6-1.8,1
		C143.1,6.7,143.1,7,143.5,7.4C143.5,7.4,143.5,7.4,143.5,7.4z"/>
	<path class="st0" d="M64.7,16.8C64.7,16.8,64.6,16.8,64.7,16.8c-0.3-0.2-0.4-0.3-0.6-0.3L64,16.4c-0.3-0.2-0.6-0.2-0.9-0.1L60.6,17
		c0.1-0.1,0.1-0.3,0.1-0.4c0.1-0.2,0.2-0.4,0.2-0.6l2.6-0.3l2.3-0.4c0,0,0.1,0,0.1,0c0.5-0.2,0.6-0.6,0.6-0.8c0-0.4-0.4-0.7-0.6-0.8
		c0,0,0,0-0.1,0c-0.4-0.2-0.7-0.3-0.9-0.3c-0.3-0.1-0.6-0.1-1,0c0,0,0,0,0,0l-0.2,0.1c-1.1,0.3-2.1,0.5-3.1,0.6
		c-0.9,0.1-1.9,0.3-3,0.4c-0.3,0-0.6,0.1-0.8,0.4c-0.2,0.3,0,0.7,0.5,1c0,0,0,0,0,0c0.4,0.2,0.8,0.2,1.1,0.2c0.2,0,0.4-0.1,0.6-0.1
		c-0.1,0.2-0.1,0.4-0.2,0.6c-0.1,0.3-0.4,0.5-0.7,0.7c-0.7,0.3-0.7,0.8-0.6,1c0.1,0.3,0.2,0.5,0.4,0.9c0.2,0.3,0.6,0.3,0.9,0.1
		c0.1-0.1,0.2-0.1,0.2-0.1c0,0,0.1,0,0.1,0c0.6-0.4,1.3-0.7,1.9-0.8c0.5-0.1,1-0.1,1.6,0c0.1,0.2,0.1,0.5,0.1,0.8
		c0,0.4-0.1,0.8-0.2,1.2c-0.1,0.3-0.2,0.6-0.4,0.9c-0.1,0.2-0.3,0.5-0.5,0.7L60,21.9c-0.1,0-0.2,0-0.3-0.1c-0.1,0-0.1,0-0.2,0
		c-0.2,0-0.4,0.1-0.4,0.3c-0.1,0.3,0.1,0.6,0.3,0.8l2.1,2.2c0.1,0.1,0.2,0.1,0.3,0.1c0,0,0,0,0,0c0.6-0.1,1.1-0.3,1.5-0.8
		c0.4-0.4,0.6-0.9,0.8-1.4c0.2-0.8,0.4-1.6,0.5-2.3c0.1-0.6,0.3-1.3,0.5-2c0.3-0.5,0.3-0.9,0.2-1.2C65.3,17.5,65.2,17.3,64.7,16.8z"
		/>
	<path class="st0" d="M156,20.3c-0.1,0-0.2,0-0.2,0c-3,0.3-5.8,0.3-8.4-0.1c-2.6-0.4-5.4-1.1-8.3-2.2c-0.1,0-0.1,0-0.2,0
		c0,0,0,0,0-0.1c0-0.5,0-1-0.1-1.4c-0.1-0.4-0.2-0.9-0.4-1.3c0,0,0-0.1-0.1-0.1c-0.3-0.3-0.3-0.7-0.1-1.2c0.2-0.5,0.5-1,1-1.2
		c0.4-0.2,0.4-0.2,0.5-0.3v0c0.1-0.1,0.1-0.2,0.2-0.3c0-0.2-0.1-0.4-0.3-0.7c0,0,0,0-0.1-0.1l-1.2-0.9c-0.3-0.2-0.6-0.1-0.8,0.1
		c0,0-0.1,0.1-0.1,0.1c-0.3,0.3-0.9,0.5-1.6,0.8c-0.6,0.2-1.1,0.4-1.2,0.9c0,0.2,0,0.4,0.4,0.7c0,0,0.1,0,0.1,0
		c0.4,0.1,0.8,0.2,1.1,0.2c0.2,0,0.4,0,0.6-0.1c0,0.1,0,0.2-0.1,0.4c-0.1,0.3-0.2,0.7-0.4,1.1c-0.1,0.1-0.1,0.3,0,0.4
		c0.3,0.5,0.5,0.9,0.6,1.3c0.1,0.4,0.3,0.8,0.4,1.3c0,0.2,0,0.3,0,0.4c0,0,0,0,0,0c-0.4,0.1-0.8,0.2-1.2,0.2
		c-0.4,0.1-0.8,0.1-1.2,0.2c-0.8,0.1-0.9,0.6-0.9,0.8c0,0.3,0.2,0.6,0.5,1c0,0,0,0,0.1,0.1c0.2,0.1,0.2,0.2,0.2,0.2
		c0.2,0.3,0.5,0.3,1,0.1l2.2-1.1c1.6,0.3,3.1,0.8,4.5,1.3c1.5,0.6,3,1.2,4.7,1.8l1.6,0.5c0.5,0.1,1,0.3,1.6,0.5c0,0,0.1,0,0.1,0
		c0,0,0.1,0,0.1,0c1-0.2,1.9-0.5,2.8-0.8c0.9-0.3,1.8-0.8,2.9-1.5c0.2-0.2,0.3-0.3,0.4-0.4c0-0.1,0-0.3-0.1-0.4
		C156.3,20.4,156.1,20.3,156,20.3z"/>
	<path class="st0" d="M0.4,7.4l4.9,1.9c5.3-3.8,14-5.2,19.4-4.3c5.7,0.9,8.6,1.6,15.2,4.3C29.9-0.9,12.5-3.3,0.4,7.4z"/>
	<path class="st0" d="M15.6,34.3C9.9,33.5,7,32.7,0.4,30c9.9,10.3,27.3,12.6,39.5,1.9L35,30C29.7,33.8,21,35.2,15.6,34.3z"/>
	<polygon class="st0" points="3.3,12.3 3.3,27 6.6,27 6.6,21.6 6.9,21.2 9.9,27 13.7,27 9,18.3 13.7,12.3 9.6,12.3 6.6,16.4 
		6.6,12.3 	"/>
	<polygon class="st0" points="22.2,27 22.2,20.5 26.1,12.3 22.6,12.3 20.5,16.9 18.4,12.3 14.9,12.3 18.9,20.5 18.9,27 	"/>
	<polygon class="st0" points="37.4,15.4 37.4,12.3 28.6,12.3 28.6,27 37.8,27 37.8,23.9 31.9,23.9 31.9,20.9 37,20.9 37,17.8 
		31.9,17.8 31.9,15.4 	"/>
	<rect x="170.5" y="5.8" class="st0" width="1.3" height="29.7"/>
	<path class="st0" d="M206.1,6.7h-17.8v18.6c0,0.2,0,0.5,0,0.7c-0.3,3.7-0.6,5.4-2.5,7l4.7,2.5c1.8-1.4,3-4.1,3.1-8.5h9.3v8.3h5.4
		V8.9C208.3,7.7,207.3,6.7,206.1,6.7z M202.9,22.4h-9.3v-3h9.3V22.4z M202.9,14.7h-9.3v-3h9.3V14.7z"/>
	<path class="st0" d="M236.9,22.5h-11.3v12.7h13.5V24.7C239.1,23.5,238.1,22.5,236.9,22.5z M233.9,30.5h-3.1v-3.3h3.1V30.5z"/>
	<polygon class="st0" points="234.4,5.8 229.6,5.8 229.6,9.8 224.4,9.8 224.4,14.1 220.9,12.8 219.5,15.9 218.6,15.4 222.2,7.1 
		218.2,5.6 212.8,17.4 217.7,19.9 216,23.7 213.4,24.5 214.6,28.7 224.5,25.7 223.4,21.5 221.2,22.2 224.7,14.2 224.6,14.2 
		229.6,14.2 229.6,16.4 225.3,16.4 225.3,21 238.9,21 238.9,16.4 234.4,16.4 234.4,14.2 239.6,14.2 239.6,9.8 234.4,9.8 	"/>
	<polygon class="st0" points="213.8,30.7 215.1,35.1 225.3,31.6 223.9,27.2 	"/>
	<path class="st0" d="M254.1,8c0-0.9-0.7-1.6-1.6-1.6h-8.8v23.9l-1.8,0.1v4.7l13.4-1.1v-4.6l-1.1,0.1V8z M249.7,29.9l-1.6,0.1v-4
		h1.6V29.9z M249.7,22h-1.6v-3.7h1.6V22z M249.7,14.5h-1.6v-3.7h1.6V14.5z"/>
	<path class="st0" d="M266.1,10.5h-4.3l0.2-4.7h-4.8l-0.2,4.7h-2.1v4.7h2L256.1,35l4.8,0.2l0.8-20h1.4v15.9c0,1.2-0.3,2-0.7,2.7
		l3.4,2.1c1.2-0.5,2-1.3,2-3.3V12C267.6,11.2,266.9,10.5,266.1,10.5z"/>
	<path class="st0" d="M286.6,21.4v-2.5h8.2v-4.6h-8.2v-2.6l7.8-0.3l-0.2-4.5l-20.4,0.7l0.2,4.5l7.4-0.2v2.4h-8.6v4.6h8.6v2.5h-10.6
		v4.7h10.6v0.1l0,0c-0.3,3-0.9,5.4-2.5,6.8l4.7,2.5c1.8-1.4,3-4.1,3.1-8.5v-0.9h10.2v-4.7H286.6z"/>
</g>
</svg>
