<?xml version="1.0" encoding="UTF-8"?>
<svg width="24px" height="24px" viewBox="0 0 24 24" version="1.1" xmlns="http://www.w3.org/2000/svg" xmlns:xlink="http://www.w3.org/1999/xlink">
    <!-- Generator: Sketch 63.1 (92452) - https://sketch.com -->
    <title>-mockplus-dup-|8DE8B1BF-8C23-4B00-9A39-2378DDA38B9C|优惠金额</title>
    <desc>Created with Sketch.</desc>
    <g id="页面-1" stroke="none" stroke-width="1" fill="none" fill-rule="evenodd">
        <g id="1、业务概况" transform="translate(-773.000000, -842.000000)">
            <g id="编组-73备份-7" transform="translate(540.000000, 690.000000)">
                <g id="编组-29备份" transform="translate(209.000000, 84.000000)">
                    <g id="-mockplus-dup-|8DE8B1BF-8C23-4B00-9A39-2378DDA38B9C|优惠金额" transform="translate(24.000000, 68.000000)">
                        <g id="优惠金额">
                            <g>
                                <rect id="矩形" fill="#F6F8FB" x="0" y="0" width="24" height="24" rx="12"></rect>
                                <path d="M17.5,7 C18.3284271,7 19,7.67157288 19,8.5 L19,10 C17.8954305,10 17,10.8954305 17,12 C17,13.1045695 17.8954305,14 19,14 L19,15.5 C19,16.3284271 18.3284271,17 17.5,17 L6.5,17 C5.67157288,17 5,16.3284271 5,15.5 L5,14 C6.1045695,14 7,13.1045695 7,12 C7,10.8954305 6.1045695,10 5,10 L5,8.5 C5,7.67157288 5.67157288,7 6.5,7 L17.5,7 Z M14.5559859,8.96955901 L8.89913162,14.6264133 L9.6062384,15.33352 L15.2630926,9.67666579 L14.5559859,8.96955901 Z M14.5811121,13.1515395 C14.0288274,13.1515395 13.5811121,13.5992548 13.5811121,14.1515395 C13.5811121,14.7038243 14.0288274,15.1515395 14.5811121,15.1515395 C15.1333969,15.1515395 15.5811121,14.7038243 15.5811121,14.1515395 C15.5811121,13.5992548 15.1333969,13.1515395 14.5811121,13.1515395 Z M9.58111213,9.15153952 C9.02882738,9.15153952 8.58111213,9.59925477 8.58111213,10.1515395 C8.58111213,10.7038243 9.02882738,11.1515395 9.58111213,11.1515395 C10.1333969,11.1515395 10.5811121,10.7038243 10.5811121,10.1515395 C10.5811121,9.59925477 10.1333969,9.15153952 9.58111213,9.15153952 Z" id="形状结合" fill="#FF7899"></path>
                            </g>
                        </g>
                    </g>
                </g>
            </g>
        </g>
    </g>
</svg>