<?xml version="1.0" encoding="UTF-8"?>
<svg width="24px" height="22px" viewBox="0 0 24 22" version="1.1" xmlns="http://www.w3.org/2000/svg" xmlns:xlink="http://www.w3.org/1999/xlink">
    <!-- Generator: Sketch 63.1 (92452) - https://sketch.com -->
    <title>编组</title>
    <desc>Created with Sketch.</desc>
    <g id="页面-1" stroke="none" stroke-width="1" fill="none" fill-rule="evenodd">
        <g id="2、服务质量1" transform="translate(-32.000000, -16.000000)" fill="#FFFFFF">
            <g id="-mockplus-dup-|1AAE4AC5-1A2D-459A-87E1-7C0E0E3F2A4C|头部">
                <g id="头部">
                    <g id="编组-10">
                        <g>
                            <g>
                                <g>
                                    <g id="LOGO">
                                        <g id="pic-logo-white">
                                            <g id="-mockplus-dup-|8B2B5A67-2F7C-4C85-8CBD-20FB8A4D90EE|Back" transform="translate(32.000000, 15.000000)">
                                                <g id="Back" transform="translate(-1.000000, 1.000000)">
                                                    <g id="编组" transform="translate(0.945699, 0.000000)">
                                                        <path d="M12.7530483,0.746951673 C13.3388348,1.33273811 13.3388348,2.28248558 12.7530483,2.86827202 L6.121,9.49961184 L21.5543008,9.5 C22.382728,9.5 23.0543008,10.1715729 23.0543008,11 C23.0543008,11.8284271 22.382728,12.5 21.5543008,12.5 L6.121,12.4996118 L12.7530483,19.131728 C13.3388348,19.7175144 13.3388348,20.6672619 12.7530483,21.2530483 C12.1672619,21.8388348 11.2175144,21.8388348 10.631728,21.2530483 L1.43933983,12.0606602 C0.853553391,11.4748737 0.853553391,10.5251263 1.43933983,9.93933983 L10.631728,0.746951673 C11.2175144,0.161165235 12.1672619,0.161165235 12.7530483,0.746951673 Z" id="形状结合"></path>
                                                    </g>
                                                </g>
                                            </g>
                                        </g>
                                    </g>
                                </g>
                            </g>
                        </g>
                    </g>
                </g>
            </g>
        </g>
    </g>
</svg>