<?xml version="1.0" encoding="UTF-8"?>
<svg width="24px" height="24px" viewBox="0 0 24 24" version="1.1" xmlns="http://www.w3.org/2000/svg" xmlns:xlink="http://www.w3.org/1999/xlink">
    <!-- Generator: Sketch 63.1 (92452) - https://sketch.com -->
    <title>-mockplus-dup-|F78B32B8-9EF6-4C4F-8A77-6E9EC284AE93|增值费用</title>
    <desc>Created with Sketch.</desc>
    <g id="页面-1" stroke="none" stroke-width="1" fill="none" fill-rule="evenodd">
        <g id="1、业务概况" transform="translate(-773.000000, -810.000000)">
            <g id="编组-73备份-7" transform="translate(540.000000, 690.000000)">
                <g id="编组-29备份" transform="translate(209.000000, 84.000000)">
                    <g id="-mockplus-dup-|F78B32B8-9EF6-4C4F-8A77-6E9EC284AE93|增值费用" transform="translate(24.000000, 36.000000)">
                        <g id="增值费用">
                            <g>
                                <rect id="矩形" fill="#F6F8FB" x="0" y="0" width="24" height="24" rx="12"></rect>
                                <path d="M12,5 C15.8659932,5 19,8.13400675 19,12 C19,15.8659932 15.8659932,19 12,19 C8.13400675,19 5,15.8659932 5,12 C5,8.13400675 8.13400675,5 12,5 Z M13.3003509,8.44228177 L12.1252234,10.4762818 L10.9505497,8.44228177 L10.0532688,8.96032715 L11.2612234,11.0522818 L9.53522342,11.0529618 L9.53522342,12.0890525 L11.6072234,12.0882818 L11.6072234,12.9772818 L9.53522342,12.9780313 L9.53522342,14.014122 L11.6072234,14.0132818 L11.6074049,15.4422818 L12.6434957,15.4422818 L12.6432234,14.0132818 L14.7156772,14.014122 L14.7156772,12.9780313 L12.6432234,12.9772818 L12.6432234,12.0882818 L14.7156772,12.0890525 L14.7156772,11.0529618 L12.9892234,11.0522818 L14.1976318,8.96032715 L13.3003509,8.44228177 Z" id="形状结合" fill="#FFAB39" fill-rule="nonzero"></path>
                            </g>
                        </g>
                    </g>
                </g>
            </g>
        </g>
    </g>
</svg>