<?xml version="1.0" encoding="UTF-8"?>
<svg width="24px" height="24px" viewBox="0 0 24 24" version="1.1" xmlns="http://www.w3.org/2000/svg" xmlns:xlink="http://www.w3.org/1999/xlink">
    <!-- Generator: Sketch 63.1 (92452) - https://sketch.com -->
    <title>-mockplus-dup-|F3DE34AC-547E-499B-842F-57D003F9F1C8|运输费</title>
    <desc>Created with Sketch.</desc>
    <g id="页面-1" stroke="none" stroke-width="1" fill="none" fill-rule="evenodd">
        <g id="1、业务概况" transform="translate(-773.000000, -778.000000)">
            <g id="编组-73备份-7" transform="translate(540.000000, 690.000000)">
                <g id="编组-29备份" transform="translate(209.000000, 84.000000)">
                    <g id="-mockplus-dup-|F3DE34AC-547E-499B-842F-57D003F9F1C8|运输费" transform="translate(24.000000, 4.000000)">
                        <g id="运输费">
                            <g>
                                <rect id="矩形" fill="#F6F8FB" x="0" y="0" width="24" height="24" rx="12"></rect>
                                <path d="M14.4142152,6 C14.7171829,6 14.9627866,6.24560379 14.9627866,6.54857143 C14.9627866,6.56014332 14.9624205,6.57171232 14.9616887,6.58326105 L14.89,7.707 L18.1711297,7.70728322 L19,11.8333333 L19,15.5 C19,16.0522847 18.5522847,16.5 18,16.5 L17.416,16.5 L17.4166913,16.505815 C17.4166913,17.5689631 16.5548394,18.430815 15.4916913,18.430815 C14.4285431,18.430815 13.5666913,17.5689631 13.5666913,16.505815 L13.5666978,16.5007539 L10.4385276,16.5 L10.4385276,16.5 C10.4385276,17.5631481 9.57667573,18.425 8.51352759,18.425 C7.50100555,18.425 6.67106517,17.643275 6.5943192,16.6504376 L6.58852759,16.5 L6.06536854,16.5 C5.51308379,16.5 5.06536854,16.0522847 5.06536854,15.5 C5.06536854,15.4789054 5.06603601,15.4578161 5.06736995,15.4367637 L5.60019033,7.02776361 C5.63680396,6.44992526 6.11614018,6 6.69513734,6 L14.4142152,6 Z M15.4898304,15.46163 C14.9099314,15.46163 14.4398304,15.931731 14.4398304,16.51163 C14.4398304,17.091529 14.9099314,17.56163 15.4898304,17.56163 C16.0697293,17.56163 16.5398304,17.091529 16.5398304,16.51163 C16.5398304,15.931731 16.0697293,15.46163 15.4898304,15.46163 Z M8.51166667,15.455815 C7.93176768,15.455815 7.46166667,15.925916 7.46166667,16.505815 C7.46166667,17.085714 7.93176768,17.555815 8.51166667,17.555815 C9.09156565,17.555815 9.56166667,17.085714 9.56166667,16.505815 C9.56166667,15.925916 9.09156565,15.455815 8.51166667,15.455815 Z M10.6893768,8 L9.85,9.453 L9.01094736,8 L8.37003241,8.37003241 L9.233,9.864 L8,9.86477143 L8,10.6048363 L9.48,10.604 L9.48,11.239 L8,11.2398211 L8,11.9798859 L9.48,11.979 L9.48012966,13 L10.2201945,13 L10.22,11.979 L11.7003241,11.9798859 L11.7003241,11.2398211 L10.22,11.239 L10.22,10.604 L11.7003241,10.6048363 L11.7003241,9.86477143 L10.467,9.864 L11.3302917,8.37003241 L10.6893768,8 Z M17.5540257,9.00852402 L14.808,9.008 L14.629,11.833 L18.0870597,11.8333333 L17.5540257,9.00852402 Z" id="形状结合" fill="#5795FF" fill-rule="nonzero"></path>
                            </g>
                        </g>
                    </g>
                </g>
            </g>
        </g>
    </g>
</svg>