<?xml version="1.0" encoding="UTF-8"?>
<svg width="17px" height="27px" viewBox="0 0 17 27" version="1.1" xmlns="http://www.w3.org/2000/svg" xmlns:xlink="http://www.w3.org/1999/xlink">
    <!-- Generator: Sketch 63.1 (92452) - https://sketch.com -->
    <title>-mockplus-dup-|1A064E03-9F78-43F7-A8CD-A56341FF6A77|定位</title>
    <desc>Created with Sketch.</desc>
    <defs>
        <filter x="-85.7%" y="-120.0%" width="271.4%" height="340.0%" filterUnits="objectBoundingBox" id="filter-1">
            <feGaussianBlur stdDeviation="2" in="SourceGraphic"></feGaussianBlur>
        </filter>
        <linearGradient x1="50%" y1="0%" x2="50%" y2="100%" id="linearGradient-2">
            <stop stop-color="#A48EFF" offset="0%"></stop>
            <stop stop-color="#8B60F0" offset="100%"></stop>
        </linearGradient>
    </defs>
    <g id="页面-1" stroke="none" stroke-width="1" fill="none" fill-rule="evenodd">
        <g id="2、服务质量1" transform="translate(-1382.000000, -627.000000)">
            <g id="编组-6" transform="translate(540.000000, 226.000000)">
                <g id="编组-3备份">
                    <g id="位图">
                        <g id="-mockplus-dup-|1A064E03-9F78-43F7-A8CD-A56341FF6A77|定位" transform="translate(842.800000, 401.000000)">
                            <g id="定位">
                                <g>
                                    <path d="M8.00688722,22.0386963 C9.93988384,22.0386963 11.5068872,20.9194082 11.5068872,19.5386963 C11.5068872,18.1579844 9.93988384,17.0386963 8.00688722,17.0386963 C6.07389059,17.0386963 4.50688722,18.1579844 4.50688722,19.5386963 C4.50688722,20.9194082 6.07389059,22.0386963 8.00688722,22.0386963 Z" id="椭圆形" fill="#9370F5" opacity="0.746233259" filter="url(#filter-1)"></path>
                                    <path d="M13.557627,2.53308254 L13.5576268,2.53308233 C10.5916472,-0.535233742 5.69989703,-0.618178691 2.63158096,2.34778691 C2.56877271,2.40850031 2.50699854,2.47027448 2.44628514,2.53308273 L2.44628525,2.53308262 C-0.617905814,5.70221866 -0.617905814,10.7300333 2.44628503,13.8991492 L8.00195878,19.5882587 L13.5576325,13.8991492 L13.5576326,13.8991491 C16.6218237,10.730013 16.6218237,5.70219837 13.5576324,2.53308255 L13.557627,2.53308254 Z" id="形状结合" fill="url(#linearGradient-2)" fill-rule="nonzero"></path>
                                    <path d="M8.00197345,5.03187655 L8.00197361,5.03187655 C6.21324414,5.03462372 4.76538161,6.48687532 4.76810754,8.27560075 C4.7708238,10.0643302 6.2230754,11.5121927 8.01180083,11.5094668 C9.8005303,11.5067506 11.2483928,10.054499 11.2456669,8.26577353 C11.2443613,7.40729532 10.9022807,6.5844519 10.2945926,5.97807418 L10.2945926,5.97807416 C9.68772151,5.36869974 8.86197643,5.0279157 8.00195944,5.03187655 L8.00197345,5.03187655 Z" id="形状" fill="#FFFFFF" fill-rule="nonzero"></path>
                                </g>
                            </g>
                        </g>
                    </g>
                </g>
            </g>
        </g>
    </g>
</svg>