<?xml version="1.0" encoding="UTF-8"?>
<svg width="11px" height="14px" viewBox="0 0 11 14" version="1.1" xmlns="http://www.w3.org/2000/svg" xmlns:xlink="http://www.w3.org/1999/xlink">
    <!-- Generator: Sketch 63.1 (92452) - https://sketch.com -->
    <title>-mockplus-dup-|0A194B4F-4942-418A-A1DF-16A8BC1A6A6B|目的城市</title>
    <desc>Created with Sketch.</desc>
    <defs>
        <linearGradient x1="50%" y1="0%" x2="50%" y2="100%" id="linearGradient-1">
            <stop stop-color="#FFAC6F" offset="0%"></stop>
            <stop stop-color="#FE743C" offset="100%"></stop>
        </linearGradient>
    </defs>
    <g id="页面-1" stroke="none" stroke-width="1" fill="none" fill-rule="evenodd">
        <g id="2、服务质量1" transform="translate(-1555.000000, -544.000000)" fill="#FFFFFF">
            <g id="悬浮窗-2-copy-2备份" transform="translate(1543.000000, 536.000000)">
                <g id="悬浮窗">
                    <g id="-mockplus-dup-|0A194B4F-4942-418A-A1DF-16A8BC1A6A6B|目的城市" transform="translate(12.000000, 8.000000)">
                        <g id="目的城市">
                            <g id="定位">
                                <g>
                                    <path d="M4.08943329,4.24618677 C3.69800522,4.67115822 3.5023282,5.21122265 3.50232819,5.75128646 C3.50232819,6.30640886 3.70906986,6.86153148 4.12255677,7.29171303 L5.5,8.70223961 L6.87743852,7.29171786 C7.29092741,6.86152997 7.49767196,6.30640256 7.49767196,5.75127578 C7.49767196,5.1940771 7.28938083,4.63687822 6.87279499,4.20602758 C6.51204449,3.83283067 6.03436025,3.64044611 5.54749127,3.64044611 C5.02880864,3.64044612 4.51298904,3.85440212 4.08943329,4.24618677 Z" id="形状结合" stroke="url(#linearGradient-1)" stroke-width="7"></path>
                                    <path d="M3.23629609,5.79292052 C3.23820552,7.04503115 4.25478164,8.05853492 5.50688944,8.05663749 C6.75900006,8.05472539 7.77250384,7.03814927 7.77060373,5.78604147 C7.76968174,5.18510673 7.53022532,4.60911633 7.1048437,4.18465192 C6.68003392,3.75808982 6.10201236,3.51954099 5.50000046,3.52231359 C4.24789975,3.52423661 3.23439598,4.54081272 3.23629609,5.79292052 Z" id="形状" fill-rule="nonzero"></path>
                                </g>
                            </g>
                        </g>
                    </g>
                </g>
            </g>
        </g>
    </g>
</svg>