<?xml version="1.0" encoding="UTF-8"?>
<svg width="24px" height="24px" viewBox="0 0 24 24" version="1.1" xmlns="http://www.w3.org/2000/svg" xmlns:xlink="http://www.w3.org/1999/xlink">
    <!-- Generator: Sketch 63.1 (92452) - https://sketch.com -->
    <title>-mockplus-dup-|FB9C8888-40C0-4D05-AB71-B7BFB4A72374|税费</title>
    <desc>Created with Sketch.</desc>
    <g id="页面-1" stroke="none" stroke-width="1" fill="none" fill-rule="evenodd">
        <g id="1、业务概况2" transform="translate(-773.000000, -862.000000)">
            <g id="编组-73备份-7" transform="translate(540.000000, 690.000000)">
                <g id="编组-29备份" transform="translate(209.000000, 72.000000)">
                    <g id="-mockplus-dup-|FB9C8888-40C0-4D05-AB71-B7BFB4A72374|税费" transform="translate(24.000000, 100.000000)">
                        <g id="税费">
                            <g id="编组">
                                <g>
                                    <rect id="矩形" fill="#F6F8FB" x="0" y="0" width="24" height="24" rx="12"></rect>
                                    <rect id="矩形" fill="#67CAA1" x="5" y="5" width="14" height="14" rx="2"></rect>
                                    <path d="M11.5787598,16.4988623 C12.7087598,15.7088623 13.3287598,14.4288623 13.4287598,12.6688623 L14.1387598,12.6688623 L14.1387598,15.3388623 C14.1387598,15.9888623 14.4087598,16.3188623 14.9487598,16.3188623 L15.7587598,16.3188623 C16.0587598,16.3188623 16.2887598,16.2288623 16.4387598,16.0488623 C16.5987598,15.8488623 16.7087598,15.2688623 16.7687598,14.2888623 L15.9387598,14.0288623 C15.9187598,14.7188623 15.8787598,15.1288623 15.8187598,15.2688623 C15.7787598,15.3888623 15.6987598,15.4588623 15.5987598,15.4588623 L15.2287598,15.4588623 C15.0887598,15.4588623 15.0187598,15.3488623 15.0187598,15.1488623 L15.0187598,12.6688623 L16.0687598,12.6688623 L16.0687598,9.2988623 L14.9887598,9.2988623 C15.2887598,8.7588623 15.5687598,8.1588623 15.8187598,7.4888623 L14.9087598,7.1688623 C14.6487598,7.9288623 14.3587598,8.6388623 14.0187598,9.2988623 L12.8987598,9.2988623 L13.5487598,8.9688623 C13.2687598,8.3488623 12.9787598,7.7888623 12.6787598,7.2788623 L11.9087598,7.6488623 C12.1987598,8.1288623 12.4687598,8.6788623 12.7287598,9.2988623 L11.6587598,9.2988623 L11.6587598,12.6688623 L12.5487598,12.6688623 C12.4587598,14.0788623 11.9687598,15.0788623 11.0787598,15.6688623 L11.5787598,16.4988623 Z M10.0587598,16.3788623 L10.0587598,12.2688623 C10.2987598,12.6288623 10.5787598,13.0788623 10.9087598,13.6388623 L11.4387598,12.8388623 C10.9687598,12.2588623 10.5087598,11.7388623 10.0587598,11.2788623 L10.0587598,10.7588623 L11.2087598,10.7588623 L11.2087598,9.8488623 L10.0587598,9.8488623 L10.0587598,8.4788623 C10.4787598,8.3888623 10.8887598,8.2888623 11.2787598,8.1888623 L10.9487598,7.3088623 C10.0087598,7.5988623 8.93875977,7.7988623 7.73875977,7.8988623 L7.92875977,8.7788623 C8.33875977,8.7388623 8.73875977,8.6888623 9.13875977,8.6288623 L9.13875977,9.8488623 L7.77875977,9.8488623 L7.77875977,10.7588623 L9.05875977,10.7588623 C8.73875977,11.7588623 8.21875977,12.6688623 7.50875977,13.4688623 L7.93875977,14.5688623 C8.41875977,13.8888623 8.81875977,13.1488623 9.13875977,12.3388623 L9.13875977,16.3788623 L10.0587598,16.3788623 Z M15.2087598,11.8288623 L12.5287598,11.8288623 L12.5287598,10.1388623 L15.2087598,10.1388623 L15.2087598,11.8288623 Z" id="税" fill="#FFFFFF" fill-rule="nonzero"></path>
                                </g>
                            </g>
                        </g>
                    </g>
                </g>
            </g>
        </g>
    </g>
</svg>