<?xml version="1.0" encoding="UTF-8"?>
<svg width="7px" height="11px" viewBox="0 0 7 11" version="1.1" xmlns="http://www.w3.org/2000/svg" xmlns:xlink="http://www.w3.org/1999/xlink">
    <title>形状结合备份 12</title>
    <g id="正式" stroke="none" stroke-width="1" fill="none" fill-rule="evenodd">
        <g id="01报表统计" transform="translate(-975.000000, -2209.000000)" fill="#41C381" fill-rule="nonzero">
            <g id="编组-21" transform="translate(188.000000, 2107.000000)">
                <g id="编组-64" transform="translate(20.000000, 78.000000)">
                    <g id="编组-71" transform="translate(695.000000, 24.000000)">
                        <g id="形状结合备份-12" transform="translate(72.000000, 0.000000)">
                            <path d="M3.73862002,1.07345396 C3.7699546,1.09674714 3.79771,1.12450254 3.82100318,1.15583712 L6.90032129,5.29821525 C7.03211609,5.47550902 6.9952319,5.72607482 6.81793812,5.85786962 C6.74894666,5.90915578 6.66526816,5.93685086 6.57930252,5.93685086 L4.791,5.936 L4.79167748,10.6 C4.79167748,10.8209139 4.61259137,11 4.39167747,11 L2.60829135,11 C2.38737745,11 2.20829134,10.8209139 2.20829134,10.6 L2.208,5.936 L0.420666303,5.93685086 C0.1997524,5.93685086 0.0206662971,5.75776476 0.0206662971,5.53685085 C0.0206662971,5.45088521 0.0483613718,5.36720671 0.0996475312,5.29821525 L3.17896564,1.15583712 C3.31076044,0.978543352 3.56132624,0.941659153 3.73862002,1.07345396 Z" id="形状结合备份-11"></path>
                        </g>
                    </g>
                </g>
            </g>
        </g>
    </g>
</svg>