<?xml version="1.0" encoding="UTF-8"?>
<svg width="7px" height="11px" viewBox="0 0 7 11" version="1.1" xmlns="http://www.w3.org/2000/svg" xmlns:xlink="http://www.w3.org/1999/xlink">
    <title>形状结合备份 26</title>
    <g id="正式" stroke="none" stroke-width="1" fill="none" fill-rule="evenodd">
        <g id="01报表统计" transform="translate(-663.000000, -2266.000000)" fill="#41C381" fill-rule="nonzero">
            <g id="编组-21" transform="translate(188.000000, 2107.000000)">
                <g id="编组-64" transform="translate(20.000000, 78.000000)">
                    <g id="编组-69" transform="translate(383.000000, 24.000000)">
                        <g id="形状结合备份-26" transform="translate(72.000000, 57.000000)">
                            <path d="M3.73862002,0.073453959 C3.7699546,0.0967471384 3.79771,0.124502538 3.82100318,0.155837124 L6.90032129,4.29821525 C7.03211609,4.47550902 6.9952319,4.72607482 6.81793812,4.85786962 C6.74894666,4.90915578 6.66526816,4.93685086 6.57930252,4.93685086 L4.791,4.936 L4.79167748,9.59999999 C4.79167748,9.8209139 4.61259137,10 4.39167747,10 L2.60829135,10 C2.38737745,10 2.20829134,9.8209139 2.20829134,9.59999999 L2.208,4.936 L0.420666303,4.93685086 C0.1997524,4.93685086 0.0206662971,4.75776476 0.0206662971,4.53685085 C0.0206662971,4.45088521 0.0483613718,4.36720671 0.0996475312,4.29821525 L3.17896564,0.155837124 C3.31076044,-0.0214566481 3.56132624,-0.0583408475 3.73862002,0.073453959 Z" id="形状结合备份-21" transform="translate(3.500000, 5.000000) scale(1, -1) translate(-3.500000, -5.000000) "></path>
                        </g>
                    </g>
                </g>
            </g>
        </g>
    </g>
</svg>