<?xml version="1.0" encoding="UTF-8"?>
<svg width="42px" height="37px" viewBox="0 0 42 37" version="1.1" xmlns="http://www.w3.org/2000/svg" xmlns:xlink="http://www.w3.org/1999/xlink">
    <title>矩形 4@1x</title>
    <defs>
        <rect id="path-1" x="0" y="0.0649399588" width="42" height="36.93506" rx="3.84"></rect>
    </defs>
    <g id="页面-1" stroke="none" stroke-width="1" fill="none" fill-rule="evenodd">
        <g id="下单寄件-单票下单-长屏-气泡提示样式/第三方付款" transform="translate(-430.000000, -682.000000)">
            <g id="内容卡片备份-5" transform="translate(176.000000, 644.000000)">
                <g id="编组-13" transform="translate(19.000000, 38.000000)">
                    <g id="矩形-4" transform="translate(235.000000, 0.000000)">
                        <mask id="mask-2" fill="white">
                            <use xlink:href="#path-1"></use>
                        </mask>
                        <use id="矩形" fill-opacity="0" fill="#FFFFFF" xlink:href="#path-1"></use>
                        <g id="失败" mask="url(#mask-2)" fill="#FDE8E3" fill-rule="nonzero">
                            <g transform="translate(21.000000, 16.000000) rotate(-30.000000) translate(-21.000000, -16.000000) translate(0.000000, -5.000000)" id="形状">
                                <path d="M21,0 C32.5979797,0 42,9.40202025 42,21 C42,32.5979797 32.5979797,42 21,42 C9.40202025,42 5.45696821e-12,32.5979797 5.45696821e-12,21 C5.45696821e-12,9.40202025 9.40202025,0 21,0 Z M21,1.5 C10.2304474,1.5 1.5,10.2304474 1.5,21 C1.5,31.7695526 10.2304474,40.5 21,40.5 C31.7695526,40.5 40.5,31.7695526 40.5,21 C40.5,10.2304474 31.7695526,1.5 21,1.5 Z M6.70768783,29.2504868 C9.56068482,34.1820796 14.8928715,37.5 21,37.5 C27.1071285,37.5 32.4393152,34.1820796 35.2923122,29.2504868 L36.1525309,29.2508198 C33.2268094,34.6125036 27.5381961,38.25 21,38.25 C14.4618039,38.25 8.77319065,34.6125036 5.84746907,29.2508198 L6.70768783,29.2504868 Z M20.6018288,26.2963494 L21.8223144,27.5317363 L20.6018288,28.7671233 L19.3813431,27.5317363 L20.6018288,26.2963494 Z M27.9037808,27.1448886 C28.0401163,27.1448886 28.1543256,27.2396215 28.1841745,27.3668529 L28.1917808,27.4392556 C28.1917808,27.5983136 28.0628388,27.7272556 27.9037808,27.7272556 L23.3016986,27.7272556 C23.1653632,27.7272556 23.0511538,27.6325227 23.0213049,27.5052914 L23.0136986,27.4328886 C23.0136986,27.2738306 23.1426406,27.1448886 23.3016986,27.1448886 L27.9037808,27.1448886 Z M18.1229589,27.1448886 C18.2592943,27.1448886 18.3735037,27.2396215 18.4033526,27.3668529 L18.4109589,27.4392556 C18.4109589,27.5983136 18.2820169,27.7272556 18.1229589,27.7272556 L13.5208767,27.7272556 C13.3845413,27.7272556 13.2703319,27.6325227 13.240483,27.5052914 L13.2328767,27.4328886 C13.2328767,27.2738306 13.3618187,27.1448886 13.5208767,27.1448886 L18.1229589,27.1448886 Z M29.6980608,16.3426369 L30.5427072,16.4504641 C30.4753152,16.8143809 30.3978144,17.1580801 30.306414,17.4891433 L30.21024,17.8162753 L31.8006912,17.8162753 L31.4053248,17.6006209 C31.6281677,17.3130817 31.8165059,16.9967886 31.97494,16.6425403 L32.0882304,16.3695937 L32.7980928,16.6211905 C32.6471347,16.9806145 32.4731735,17.3112846 32.2762092,17.6039995 L32.1241728,17.8162753 L33.3821568,17.8162753 L33.3821568,18.5710657 L29.9316864,18.5710657 C29.8478208,18.7567681 29.7599616,18.9384769 29.6681088,19.1161921 L29.5273344,19.3797697 L33.8763648,19.3797697 L33.8763648,20.1525313 L32.1062016,20.1525313 C32.5024666,20.6296667 33.1025249,21.063132 33.8998262,21.4594779 L34.1728896,21.5902273 L33.6157824,22.2821185 C33.1665024,22.0215361 32.771136,21.7519681 32.4296832,21.4734145 C32.4027264,22.1922625 32.3577984,22.7763265 32.3038848,23.2435777 C32.232,23.7647425 32.1062016,24.1241665 31.9354752,24.3308353 C31.7891383,24.5002781 31.5701831,24.6103058 31.2842681,24.6496015 L31.1357568,24.6633025 L29.6980608,24.6633025 L29.4734208,23.8635841 L30.1215072,23.8882945 C30.3292992,23.8950337 30.5292288,23.8995265 30.7224192,23.8995265 C31.063872,23.8995265 31.2795264,23.7737281 31.3873536,23.5401025 C31.4843981,23.3136654 31.5596076,22.8688782 31.599881,22.1926399 L31.6119936,21.9586369 L29.581248,21.9586369 C29.401536,22.5966145 29.1589248,23.1087937 28.8624,23.4861889 C28.5243168,23.8950337 28.041762,24.2626009 27.4147356,24.5949102 L27.1371648,24.7351873 L26.5980288,24.0612673 C27.2809344,23.7647425 27.7931136,23.4412609 28.1525376,23.0908225 C28.3771776,22.8512065 28.5581376,22.5491905 28.7006176,22.1847745 L28.7815296,21.9586369 L27.6583296,21.9586369 L27.6583296,21.4913857 C27.3132826,21.750171 26.9509832,21.9802024 26.5622302,22.1860804 L26.2655616,22.3360321 L25.7983104,21.6171841 C26.5531008,21.2948257 27.1978176,20.8830325 27.7384805,20.3757849 L27.96384,20.1525313 L26.0948352,20.1525313 L26.0948352,19.3797697 L28.5838464,19.3797697 C28.697664,19.2060481 28.8034944,19.0283329 28.9013376,18.8466241 L29.042112,18.5710657 L26.5890432,18.5710657 L26.5890432,17.8162753 L27.8919552,17.8162753 C27.7436928,17.4860545 27.5853216,17.1861601 27.4244232,16.9128013 L27.2629632,16.6481473 L27.9997824,16.4055361 C28.1750016,16.6885825 28.3350576,16.9817377 28.4799504,17.2887925 L28.6197888,17.6006209 L28.1525376,17.8162753 L29.3476224,17.8162753 C29.4621888,17.4658369 29.5565376,17.1052897 29.6306688,16.7270521 L29.6980608,16.3426369 Z M23.156544,16.4324929 L23.1632832,17.0176801 L23.1632832,17.0176801 L23.1835008,17.6096065 L23.9113344,17.6096065 C23.8214784,17.4179137 23.7236352,17.2302145 23.6178048,17.0518337 L23.4530688,16.7919169 L24.1359744,16.6840897 C24.2505408,16.8930049 24.3600528,17.1170833 24.4683012,17.3601157 L24.5762688,17.6096065 L24.9806208,17.6096065 L24.9806208,18.3913537 L23.2194432,18.3913537 C23.2434048,18.8526145 23.2753536,19.3178689 23.317952,19.7897793 L23.3901696,20.5029697 L23.4890112,21.2667457 C23.7136512,20.7126337 23.9008512,20.1023617 24.0506112,19.4255297 L24.1359744,19.0113601 L24.8548224,19.3168705 C24.5762688,20.5928257 24.1988736,21.6531265 23.7316224,22.5157441 C23.7765504,22.7134273 23.830464,22.8841537 23.8843776,23.0369089 C24.0640896,23.5221313 24.2258304,23.7737281 24.3785856,23.8006849 C24.4360934,23.7934965 24.4763489,23.4700149 24.4993521,22.8348408 L24.5133696,22.3000897 L25.2052608,22.6145857 C25.2052608,23.9624257 24.9446784,24.6363457 24.4324992,24.6363457 C24.100032,24.6363457 23.7945216,24.3847489 23.5249536,23.8905409 C23.4350976,23.7288001 23.3452416,23.5221313 23.2553856,23.2705345 C22.8856923,23.7634589 22.4763891,24.1705616 22.0274759,24.486184 L21.7997184,24.6363457 L21.2965248,23.9803969 C21.9614592,23.5850305 22.5185664,23.0279233 22.9678464,22.2911041 C22.886976,21.9496513 22.8061056,21.5722561 22.7342208,21.1589185 C22.6120166,20.4760129 22.5243172,19.7471011 22.4665218,18.9767835 L22.4287104,18.3913537 L20.0834688,18.3913537 L20.0834688,20.8534081 C20.0500937,22.3385994 19.7532938,23.5526182 19.1930692,24.4954644 L19.0591104,24.7082305 L18.4301184,24.1511233 C18.9526656,23.4212161 19.2455217,22.4309924 19.3086868,21.1733847 L19.3196928,20.8534081 L19.3196928,17.6096065 L22.392768,17.6096065 C22.3807872,17.3460289 22.3767936,17.0864449 22.3754624,16.8255297 L22.3747968,16.4324929 L23.156544,16.4324929 Z M16.0758912,18.7238209 L16.0758912,19.5145537 L14.3416704,19.5145537 L14.3416704,20.2963009 L15.8512512,20.2963009 L15.8512512,23.7467713 C15.8512512,24.2859073 15.6139038,24.5800395 15.1462763,24.6221005 L15.024576,24.6273601 L14.2967424,24.6273601 L14.0900736,23.8815553 L14.7819648,23.9174977 C14.9549376,23.9174977 15.0591144,23.8280629 15.0824559,23.655213 L15.0874752,23.5760449 L15.0874752,21.0331201 L14.3416704,21.0331201 L14.3147136,21.4464577 C14.4831936,21.6688513 14.656728,21.9114625 14.831526,22.1705005 L15.0066048,22.4348737 L14.6292096,23.0009665 L14.4443219,22.5820219 C14.3567662,22.3892269 14.2769741,22.2210165 14.2068864,22.0754497 C14.0653632,22.7044417 13.8068868,23.2921561 13.4314572,23.8385929 L13.2633984,24.0702529 L12.7062912,23.5850305 C13.2372585,22.8988574 13.5380162,22.1384232 13.6085643,21.2902258 L13.6228224,21.0331201 L12.6164352,21.0331201 L12.5894784,21.3116737 C12.7392384,21.4913857 12.8889984,21.6830785 13.0414208,21.8867521 L13.272384,22.2012481 L12.8860032,22.7673409 L12.6220422,22.2271267 C12.5689912,22.1200183 12.5193907,22.0215361 12.4726656,21.9316801 C12.3453696,22.4258881 12.1494336,22.8888961 11.8796576,23.3207041 L11.7088896,23.5760449 L11.1877248,23.1177793 L11.1877248,24.6812737 L10.4239488,24.6812737 L10.4239488,20.2963009 L11.9335296,20.2963009 L11.9335296,19.5145537 L10.1184384,19.5145537 L10.1184384,18.7238209 L16.0758912,18.7238209 Z M9.3366912,21.0960193 L10.082496,21.3835585 C9.77339136,22.303684 9.4355328,23.1835539 9.06431969,24.0185678 L8.779584,24.6363457 L7.9798656,24.2859073 C8.39679744,23.4520437 8.77347379,22.6066784 9.1006934,21.745211 L9.3366912,21.0960193 Z M18.1875072,20.4400705 L18.9243264,20.7365953 C18.6224102,21.8004904 18.2974909,22.8126284 17.9449679,23.7776099 L17.675328,24.4925761 L16.8845952,24.1421377 C17.2871501,23.1788814 17.6436987,22.192622 17.9588417,21.1925606 L18.1875072,20.4400705 Z M22.2400128,20.2603585 L22.2400128,23.0548801 L20.4698496,23.0548801 L20.4698496,20.2603585 L22.2400128,20.2603585 Z M11.9155584,21.0331201 L11.1877248,21.0331201 L11.1877248,23.0369089 C11.5572576,22.5101281 11.7891984,21.9351901 11.8835472,21.3060753 L11.9155584,21.0331201 Z M21.628992,20.8893505 L21.0808704,20.8893505 L21.0808704,22.4258881 L21.628992,22.4258881 L21.628992,20.8893505 Z M31.2166272,20.1525313 L29.0061696,20.1525313 C28.7905152,20.4288385 28.5546432,20.6899825 28.3061352,20.9321725 L28.053696,21.1679041 L32.0792448,21.1679041 C31.7917056,20.9019304 31.5501727,20.6302058 31.354646,20.3573311 L31.2166272,20.1525313 Z M8.4291456,18.6788929 C8.9308416,19.0532929 9.3701376,19.4214529 9.7418336,19.7937729 L9.9566976,20.0177473 L9.3456768,20.6287681 C9.0311808,20.2592353 8.6066112,19.8690637 8.0599287,19.4522337 L7.8181248,19.2719425 L8.4291456,18.6788929 Z M13.631808,19.5145537 L12.6344064,19.5145537 L12.6344064,20.2963009 L13.631808,20.2963009 L13.631808,19.5145537 Z M22.1591424,18.9933889 L22.1591424,19.7212225 L20.4518784,19.7212225 L20.4518784,18.9933889 L22.1591424,18.9933889 Z M17.6124288,16.7469889 C18.068448,17.4231553 18.4350324,18.0305257 18.7061624,18.5630805 L18.8164992,18.7867201 L18.1335936,19.2539713 C17.8717275,18.7302392 17.5372432,18.1470921 17.1244819,17.5101886 L16.911552,17.1872833 L17.6124288,16.7469889 Z M8.6537856,16.4864065 C9.1180416,16.8608065 9.5198976,17.2289665 9.8593536,17.6012865 L10.0555392,17.8252609 L9.4445184,18.4452673 C9.15954651,18.083276 8.77554965,17.694878 8.2925278,17.285732 L8.0427648,17.0794561 L8.6537856,16.4864065 Z M12.4367232,16.4594497 L12.4367232,17.0974273 L13.7576064,17.0974273 L13.7576064,16.4594497 L14.5842816,16.4594497 L14.5842816,17.0974273 L15.9411072,17.0974273 L15.9411072,17.9061313 L14.5842816,17.9061313 L14.5842816,18.4362817 L13.7576064,18.4362817 L13.7576064,17.9061313 L12.4367232,17.9061313 L12.4367232,18.4452673 L11.6010624,18.4452673 L11.6010624,17.9061313 L10.3340928,17.9061313 L10.3340928,17.0974273 L11.6010624,17.0974273 L11.6010624,16.4594497 L12.4367232,16.4594497 Z M20.7123288,10.3561644 L22.7464716,12.4151426 L20.7123288,14.4741208 L18.678186,12.4151426 L20.7123288,10.3561644 Z M26.2683271,12.003347 L27.4888128,13.2387339 L26.2683271,14.4741208 L25.0478414,13.2387339 L26.2683271,12.003347 Z M15.1563304,12.003347 L16.3768161,13.2387339 L15.1563304,14.4741208 L13.9358448,13.2387339 L15.1563304,12.003347 Z M21,3.75 C28.1316514,3.75 34.2524916,8.07779718 36.8794928,14.2503637 L36.0606752,14.2501163 C33.4808829,8.5028028 27.7078938,4.5 21,4.5 C14.2921062,4.5 8.51911712,8.5028028 5.93932481,14.2501163 L5.12050722,14.2503637 C7.74750838,8.07779718 13.8683486,3.75 21,3.75 Z"></path>
                            </g>
                        </g>
                    </g>
                </g>
            </g>
        </g>
    </g>
</svg>