<?xml version="1.0" encoding="UTF-8"?>
<svg width="25px" height="20px" viewBox="0 0 25 20" version="1.1" xmlns="http://www.w3.org/2000/svg" xmlns:xlink="http://www.w3.org/1999/xlink">
    <title>优惠券/小图标</title>
    <defs>
        <linearGradient x1="0%" y1="22.4357531%" x2="100%" y2="103.828496%" id="linearGradient-1">
            <stop stop-color="#D9DCE0" offset="0%"></stop>
            <stop stop-color="#A6ACB5" offset="100%"></stop>
            <stop stop-color="#FEA500" offset="100%"></stop>
        </linearGradient>
    </defs>
    <g id="优惠券" stroke="none" stroke-width="1" fill="none" fill-rule="evenodd">
        <g id="下单寄件-批量填写-有数据-寄方信息变化优惠券提示" transform="translate(-527.000000, -471.000000)">
            <g id="内容卡片备份-4" transform="translate(176.000000, 290.000000)">
                <g id="编组-2" transform="translate(20.000000, 51.000000)">
                    <g id="分组-5备份-6" transform="translate(0.000000, 113.000000)">
                        <g id="编组" transform="translate(330.999982, 17.000000)">
                            <path d="M22.6470764,0 C23.94657,-2.38713089e-16 25.0000176,1.05344765 25.0000176,2.35294118 L24.9999658,7.19348753 C23.8067258,7.56828695 22.9411941,8.68306559 22.9411941,10 C22.9411941,11.3169344 23.8067258,12.4317131 24.9999658,12.8065125 L25.0000176,17.6470588 C25.0000176,18.9465524 23.94657,20 22.6470764,20 L2.35295878,20 C1.05346525,20 1.76005251e-05,18.9465524 1.76005251e-05,17.6470588 L3.96432887e-13,12.8823459 C1.34250308,12.6098407 2.35295878,11.4229226 2.35295878,10 C2.35295878,8.57707736 1.34250308,7.3901593 3.96238597e-13,7.11765414 L1.76005251e-05,2.35294118 C1.76005251e-05,1.05344765 1.05346525,2.38713089e-16 2.35295878,0 L22.6470764,0 Z" id="形状结合" fill="url(#linearGradient-1)"></path>
                            <path d="M17.2184176,5.5408182 C17.5502356,5.21104843 18.0865585,5.21270888 18.4163282,5.5445269 C18.7279702,5.85810454 18.7474478,6.35241554 18.4747611,6.68858485 L18.4163282,6.75360974 L16.6138992,8.56723401 C16.3469071,8.83260085 15.9548728,8.88559912 15.6394275,8.73057327 C15.3508058,8.87266193 14.9974189,8.83994467 14.7377686,8.63199976 L14.6656893,8.56723401 L12.8632602,6.75360974 C12.5308421,6.41912693 12.5308421,5.87900971 12.8632602,5.5445269 C13.1724194,5.2334475 13.6631193,5.21254567 13.9966588,5.48287001 L14.0648796,5.5445269 L14.0648796,5.5445269 L15.6394294,7.12882353 L17.2184176,5.5408182 Z M12.6196742,7.85896967 L18.5568316,7.85896967 C19.0290079,7.85896967 19.4117823,8.24174413 19.4117823,8.71392035 C19.4117823,9.18609657 19.0290079,9.56887103 18.5568316,9.56887103 L12.6196742,9.56887103 C12.1474979,9.56887103 11.7647235,9.18609657 11.7647235,8.71392035 C11.7647235,8.24174413 12.1474979,7.85896967 12.6196742,7.85896967 Z M12.6196742,10.8518615 L18.5568316,10.8518615 C19.0290079,10.8518615 19.4117823,11.2346359 19.4117823,11.7068121 C19.4117823,12.1789884 19.0290079,12.5617628 18.5568316,12.5617628 L12.6196742,12.5617628 C12.1474979,12.5617628 11.7647235,12.1789884 11.7647235,11.7068121 C11.7647235,11.2346359 12.1474979,10.8518615 12.6196742,10.8518615 Z M16.4379261,9.13611822 L16.4379261,14.2763772 C16.4379261,14.7456388 16.0575144,15.1260504 15.5882529,15.1260504 C15.1189913,15.1260504 14.7385797,14.7456388 14.7385797,14.2763772 L14.7385797,9.13611822 C14.7385797,8.66685666 15.1189913,8.28644501 15.5882529,8.28644501 C16.0575144,8.28644501 16.4379261,8.66685666 16.4379261,9.13611822 Z" id="形状" fill="#FFFFFF" fill-rule="nonzero"></path>
                            <path d="M6.58825289,0 L6.58825289,1.76470588 L8.11766466,1.76470588 L8.11766466,0 L6.58825289,0 Z M6.58825289,3.52941176 L6.58825289,5.29411765 L8.11766466,5.29411765 L8.11766466,3.52941176 L6.58825289,3.52941176 Z M6.58825289,7.05882353 L6.58825289,8.82352941 L8.11766466,8.82352941 L8.11766466,7.05882353 L6.58825289,7.05882353 Z M6.58825289,10.5882353 L6.58825289,12.3529412 L8.11766466,12.3529412 L8.11766466,10.5882353 L6.58825289,10.5882353 Z M6.58825289,14.1176471 L6.58825289,15.8823529 L8.11766466,15.8823529 L8.11766466,14.1176471 L6.58825289,14.1176471 Z M6.58825289,17.6470588 L6.58825289,19.4117647 L8.11766466,19.4117647 L8.11766466,17.6470588 L6.58825289,17.6470588 Z" id="路径-2" fill="#FFFFFF" fill-rule="nonzero"></path>
                        </g>
                    </g>
                </g>
            </g>
        </g>
    </g>
</svg>