<?xml version="1.0" encoding="UTF-8"?>
<svg width="310px" height="269px" viewBox="0 0 310 269" version="1.1" xmlns="http://www.w3.org/2000/svg" xmlns:xlink="http://www.w3.org/1999/xlink">
    <!-- Generator: Sketch 54.1 (76490) - https://sketchapp.com -->
    <title>浏览器版本过低</title>
    <desc>Created with Sketch.</desc>
    <defs>
        <linearGradient x1="53.0580168%" y1="0%" x2="53.0580168%" y2="105.777428%" id="linearGradient-1">
            <stop stop-color="#E8E6EB" offset="0%"></stop>
            <stop stop-color="#F7F8FA" stop-opacity="0" offset="100%"></stop>
        </linearGradient>
        <linearGradient x1="41.9455552%" y1="106.921706%" x2="41.9455552%" y2="-75.8363411%" id="linearGradient-2">
            <stop stop-color="#E8E6EB" offset="0%"></stop>
            <stop stop-color="#F7F8FA" stop-opacity="0" offset="100%"></stop>
        </linearGradient>
        <linearGradient x1="53.0580168%" y1="0%" x2="53.0580168%" y2="100%" id="linearGradient-3">
            <stop stop-color="#E8E6EB" offset="0%"></stop>
            <stop stop-color="#F7F8FA" stop-opacity="0" offset="100%"></stop>
        </linearGradient>
        <linearGradient x1="87.8377622%" y1="68.0493143%" x2="20.1517011%" y2="23.555306%" id="linearGradient-4">
            <stop stop-color="#E8E6EB" offset="0%"></stop>
            <stop stop-color="#F7F8FA" stop-opacity="0" offset="100%"></stop>
        </linearGradient>
        <linearGradient x1="33.2267085%" y1="18.1440201%" x2="66.931118%" y2="81.8559799%" id="linearGradient-5">
            <stop stop-color="#E8E6EB" offset="0%"></stop>
            <stop stop-color="#F7F8FA" stop-opacity="0" offset="100%"></stop>
        </linearGradient>
        <linearGradient x1="61.732895%" y1="10.9608681%" x2="31.6082926%" y2="100%" id="linearGradient-6">
            <stop stop-color="#E8E6EB" offset="0%"></stop>
            <stop stop-color="#F7F8FA" stop-opacity="0" offset="100%"></stop>
        </linearGradient>
        <linearGradient x1="77.0440554%" y1="74.7155013%" x2="28.6663111%" y2="13.7884378%" id="linearGradient-7">
            <stop stop-color="#E8E6EB" offset="0%"></stop>
            <stop stop-color="#F7F8FA" stop-opacity="0" offset="100%"></stop>
        </linearGradient>
        <linearGradient x1="53.0580168%" y1="0%" x2="53.0580168%" y2="105.777428%" id="linearGradient-8">
            <stop stop-color="#BFA3D9" offset="0%"></stop>
            <stop stop-color="#DABEED" offset="100%"></stop>
        </linearGradient>
        <linearGradient x1="53.0580168%" y1="0%" x2="53.0580168%" y2="100%" id="linearGradient-9">
            <stop stop-color="#E8E6EB" offset="0%"></stop>
            <stop stop-color="#F7F8FA" stop-opacity="0" offset="100%"></stop>
        </linearGradient>
        <linearGradient x1="50%" y1="-9.74194651%" x2="50%" y2="100%" id="linearGradient-10">
            <stop stop-color="#4B5173" offset="0%"></stop>
            <stop stop-color="#262833" offset="100%"></stop>
        </linearGradient>
        <linearGradient x1="50%" y1="-13.8754255%" x2="50%" y2="100%" id="linearGradient-11">
            <stop stop-color="#9B52CC" offset="0%"></stop>
            <stop stop-color="#6D3D99" offset="100%"></stop>
        </linearGradient>
        <path d="M13.1035568,28.6669496 C13.3037906,28.0068693 13.5061398,27.5319598 13.7106041,27.2422211 C14.3658856,26.3136463 15.3429685,25.0208476 15.2361331,24.330811 C15.0753281,23.2921915 15.0632226,22.5281353 15.1998168,22.0386426 C16.1718487,22.1965354 16.973163,22.2666413 17.6037595,22.2489603 C18.5496544,22.2224388 19.5266082,21.3072643 19.652434,19.8690696 C19.7092394,19.2197804 20.1792004,17.0150917 20.7476908,15.7967648 C20.9793284,15.3003443 21.3512042,15.1636936 21.4526117,14.7244491 C21.5540193,14.2852046 21.1774901,13.4013683 21.2389728,12.6986178 C21.4583047,10.1916432 21.6462324,5.92123222 20.188919,4.50175625 C18.7316055,3.08228028 8.92591286,-1.96353084 5.57004695,2.9746746 C2.21418103,7.91288005 2.72526456,9.44697146 3.18582441,11.4787965 C3.64638426,13.5106215 5.48594808,20.6801597 1.55124592,24.0056907 C3.62568448,25.0667357 7.47645476,26.6204887 13.1035568,28.6669496 Z" id="path-12"></path>
        <linearGradient x1="8.88043958%" y1="36.0198804%" x2="50%" y2="55.1574939%" id="linearGradient-14">
            <stop stop-color="#AD7ACF" offset="0%"></stop>
            <stop stop-color="#7642A6" offset="100%"></stop>
        </linearGradient>
        <linearGradient x1="50%" y1="0%" x2="66.1306298%" y2="112.001133%" id="linearGradient-15">
            <stop stop-color="#A366CC" offset="0%"></stop>
            <stop stop-color="#7240A1" offset="100%"></stop>
        </linearGradient>
        <path d="M23.8667945,0.2 C26.5332262,0.126373361 29.4160552,0.941545824 32.5152815,2.64551739 L32.5152867,2.64550799 C32.9861694,2.90440186 33.3330635,3.34189033 33.4778012,3.85939157 L33.7958846,4.99667971 L44.4178232,4.99667971 L49.0363636,17.1403903 C43.5263255,19.7315117 40.7081437,21.7595472 40.5818182,23.224497 C40.5818182,27.6520033 40.3573557,37.2882821 39.9084308,52.1333333 L10.5908934,52.1333333 L7.53507256,28.4400894 L8.170592,33.2 L0.327129153,31.4362986 L1.09765209,21.0815247 C1.529168,15.2825414 5.07295135,10.174214 10.3535845,7.73919297 L15.7662316,5.24329729 L17.8419575,1.71709561 C18.0836426,1.30652607 18.4639527,0.995717349 18.9144239,0.840621599 C19.9751537,0.475415848 21.6259439,0.261875315 23.8667945,0.2 Z" id="path-16"></path>
    </defs>
    <g id="电子运单" stroke="none" stroke-width="1" fill="none" fill-rule="evenodd">
        <g id="9-4、浏览器过低" transform="translate(-915.000000, -345.000000)">
            <g id="分组-6" transform="translate(470.000000, 118.000000)">
                <g id="浏览器版本过低" transform="translate(445.000000, 227.000000)">
                    <g id="矩形" transform="translate(58.836364, 146.045804)" fill="#FFFFFF" fill-rule="nonzero">
                        <g id="本子">
                            <path d="M0.163636364,0.127272727 L18.1636364,0.127272727 L18.1636364,18.1272727 L0.163636364,18.1272727 L0.163636364,0.127272727 Z M22.1636364,0.127272727 L40.1636364,0.127272727 L40.1636364,7.12727273 L22.1636364,7.12727273 L22.1636364,0.127272727 Z M22.1636364,11.1272727 L72.1636364,11.1272727 L72.1636364,18.1272727 L22.1636364,18.1272727 L22.1636364,11.1272727 Z" id="合并形状"></path>
                            <path d="M0.163636364,32.1272727 L18.1636364,32.1272727 L18.1636364,50.1272727 L0.163636364,50.1272727 L0.163636364,32.1272727 Z M22.1636364,32.1272727 L40.1636364,32.1272727 L40.1636364,39.1272727 L22.1636364,39.1272727 L22.1636364,32.1272727 Z M22.1636364,43.1272727 L72.1636364,43.1272727 L72.1636364,50.1272727 L22.1636364,50.1272727 L22.1636364,43.1272727 Z" id="合并形状"></path>
                        </g>
                    </g>
                    <path d="M70.7636364,102.581818 L261.218182,102.581818 C262.322751,102.581818 263.218182,103.477249 263.218182,104.581818 L263.218182,235.854545 C263.218182,236.959115 262.322751,237.854545 261.218182,237.854545 L70.7636364,237.854545 C69.6590669,237.854545 68.7636364,236.959115 68.7636364,235.854545 L68.7636364,104.581818 C68.7636364,103.477249 69.6590669,102.581818 70.7636364,102.581818 Z M139.5,171.345455 C143.391097,171.345455 146.545455,168.191097 146.545455,164.3 C146.545455,160.408903 143.391097,157.254545 139.5,157.254545 C135.608903,157.254545 132.454545,160.408903 132.454545,164.3 C132.454545,168.191097 135.608903,171.345455 139.5,171.345455 Z M191.354545,171.345455 C195.245643,171.345455 198.4,168.191097 198.4,164.3 C198.4,160.408903 195.245643,157.254545 191.354545,157.254545 C187.463448,157.254545 184.309091,160.408903 184.309091,164.3 C184.309091,168.191097 187.463448,171.345455 191.354545,171.345455 Z M188.600493,200.860581 C182.982159,191.092976 174.767122,185.254545 165.730058,185.254545 C156.668054,185.254545 148.433448,191.125143 142.8147,200.938861 C141.991465,202.376724 142.489721,204.209706 143.927584,205.03294 C145.365447,205.856175 147.198429,205.35792 148.021664,203.920057 C152.657535,195.823032 159.065689,191.254545 165.730058,191.254545 C172.37522,191.254545 178.76575,195.796299 183.399507,203.852192 C184.225618,205.288405 186.059593,205.782991 187.495806,204.95688 C188.932019,204.130769 189.426604,202.296793 188.600493,200.860581 Z M130.752259,143.857754 C128.506399,150.233001 124.888559,153.127273 119.490909,153.127273 C117.834055,153.127273 116.490909,154.470418 116.490909,156.127273 C116.490909,157.784127 117.834055,159.127273 119.490909,159.127273 C127.586292,159.127273 133.362391,154.506393 136.411378,145.851337 C136.96189,144.288615 136.141332,142.575499 134.57861,142.024986 C133.015887,141.474473 131.302772,142.295031 130.752259,143.857754 Z M201.230377,143.857754 C200.679864,142.295031 198.966748,141.474473 197.404026,142.024986 C195.841303,142.575499 195.020745,144.288615 195.571258,145.851337 C198.620245,154.506393 204.396344,159.127273 212.491727,159.127273 C214.148581,159.127273 215.491727,157.784127 215.491727,156.127273 C215.491727,154.470418 214.148581,153.127273 212.491727,153.127273 C207.094076,153.127273 203.476237,150.233001 201.230377,143.857754 Z" id="形状结合" fill="url(#linearGradient-1)" fill-rule="nonzero"></path>
                    <path d="M70.7636364,102.581818 L261.218182,102.581818 C262.322751,102.581818 263.218182,103.477249 263.218182,104.581818 L263.218182,130.763636 L68.7636364,130.763636 L68.7636364,104.581818 C68.7636364,103.477249 69.6590669,102.581818 70.7636364,102.581818 Z" id="矩形" fill="url(#linearGradient-2)" fill-rule="nonzero"></path>
                    <path d="M5,248.537716 C28.85451,226.442261 48.85451,217.091085 65,220.484188 C89.2182351,225.573843 96.2696406,254.966416 143.914548,220.484188 C191.559456,186.00196 203.594784,246.257379 241.594784,245.345244 C251.209425,245.114459 262.189412,230.377666 275.189412,231.671341 C288.189412,232.965016 298.663097,250.173077 306.667184,250.173077 C312.003243,250.173077 211.447515,249.627957 5,248.537716 Z" id="路径-3" fill="url(#linearGradient-3)" fill-rule="nonzero"></path>
                    <path d="M218.280953,59.7454545 C221.37359,69.5523318 227.056048,75.2612161 235.328327,76.8721075 C228.161613,81.8356365 223.988657,87.9314983 220.283803,87.9314983 C216.57895,87.9314983 206.00192,79.2024645 202.345455,67.7454545 C204.393889,66.4668556 209.705721,63.800189 218.280953,59.7454545 Z" id="路径-11" fill="url(#linearGradient-4)" fill-rule="nonzero"></path>
                    <path d="M256.454545,49.592412 C258.325039,57.592412 260.127409,61.592412 261.861653,61.592412 C263.595897,61.592412 267.272406,61.592412 272.891181,61.592412 C269.579669,58.499499 267.923913,54.1262708 267.923913,48.4727273 C263.882406,48.4727273 260.059284,48.8459555 256.454545,49.592412 Z" id="路径-12" fill="url(#linearGradient-5)" fill-rule="nonzero"></path>
                    <path d="M163.550485,30.4363636 C159.728949,33.955351 157.818182,38.6220176 157.818182,44.4363636 C159.537468,44.8594911 162.403152,45.5261578 166.415235,46.4363636 C166.708528,40.0671485 168.439335,36.1626569 171.607653,34.7228889 C169.319216,33.3832907 166.633493,31.954449 163.550485,30.4363636 Z" id="路径-17" fill="url(#linearGradient-6)" fill-rule="nonzero"></path>
                    <path d="M49.6,63.0142506 C66.8529865,68.6907807 75.4794797,75.9336819 75.4794797,84.7429541 C78.5539556,77.0280875 89.2361367,66.8637436 86.4869183,58.0142506 C84.6541061,52.1145887 75.2284302,46.3037778 58.2098908,40.5818182 L49.6,63.0142506 Z" id="路径-18" fill="url(#linearGradient-7)" fill-rule="nonzero"></path>
                    <path d="M76.3392053,67.6349109 L77.6195482,69.3877149 C75.897948,70.6381072 74.7617089,71.4716896 74.2107969,71.888487 C72.9712447,72.8610144 72.144889,73.764062 71.731705,74.5976568 C70.9742009,75.6396504 70.5954545,76.5774306 70.5954545,77.4110255 C70.5954545,78.5224853 71.2152213,79.4602655 72.4547735,80.2243941 C73.4877336,80.8495903 74.7272671,81.1621837 76.1734113,81.1621837 C78.3770596,81.1621837 80.029771,80.5369969 81.1315951,79.2866046 C82.3711472,78.1751447 82.990914,76.5774452 82.990914,74.493458 C83.109839,71.9741924 80.8926221,69.6880268 76.3392053,67.6349109 L76.3392053,67.6349109 Z M76.5487278,67.3780313 C75.9203864,67.1013371 75.2494986,66.8289081 74.5360643,66.5607442 L75.6699341,64.3663622 C82.4731868,67.0135664 85.8060435,70.3225221 85.668604,74.2933285 C85.7373238,77.0798593 84.9470588,79.2742193 83.2977854,80.8764745 C81.5797923,82.2697399 79.3464347,82.9663622 76.5976458,82.9663622 C74.536054,82.9663622 72.7837274,82.6877133 71.3406131,82.1304071 C69.62262,81.0854581 68.7636364,79.518058 68.7636364,77.4281599 C68.7636364,75.7562415 69.7256981,73.7360369 71.6498504,71.3674858 C72.989164,69.8061274 74.6221076,68.4763219 76.5487278,67.3780313 L76.5487278,67.3780313 Z M91.0406288,64.278748 L93.5427833,65.1032674 C92.9172415,66.6148941 91.7704322,68.8822999 90.1023209,71.9055532 C89.4767791,73.3484695 89.1640129,74.8600734 89.1640129,76.4404103 C89.1640129,77.4023545 89.2682683,78.1581565 89.4767822,78.7078389 C89.7548008,79.5323625 90.3455814,79.9446181 91.2491417,79.9446181 C92.7782437,79.9446181 94.4115782,78.9139791 96.1491942,76.85267 C97.1222592,75.6845949 98.5123311,73.6576715 100.319452,70.7718389 C101.987563,68.1608475 103.134372,66.6492435 103.759914,66.2369817 C103.968428,66.2369817 104.176939,66.3400456 104.385453,66.5461765 C104.94149,67.0271486 105.254256,67.5424682 105.323761,68.0921506 C105.323761,68.4357021 105.184753,69.947306 104.906735,72.6270077 C104.906735,72.9018489 104.871983,73.2110406 104.802479,73.5545921 C104.802479,74.0355642 104.767727,74.3791106 104.698222,74.5852415 C104.628717,75.615896 104.524462,76.8526628 104.385453,78.2955791 C104.315948,79.3949439 104.246445,80.047682 104.17694,80.2538129 L102.300324,80.047683 C102.230819,79.4980006 102.196068,78.5704255 102.196068,77.2649298 L102.196068,76.0281506 C102.126563,73.8981313 102.126563,72.3865273 102.196068,71.4932934 C101.292507,72.7987891 100.458464,74.0699106 99.6939131,75.306696 C98.164811,77.4367153 96.8094909,79.0857378 95.627912,80.2538129 C93.8902961,81.6280189 92.2569615,82.3151116 90.7278595,82.3151116 C89.3377667,82.3151116 88.3647164,81.6280189 87.8086792,80.2538129 C87.461156,79.360579 87.2873971,78.0894575 87.2873971,76.4404103 C87.2873971,74.5165219 87.5654114,72.5239531 88.1214486,70.4626441 C88.8859996,68.0577836 89.8590499,65.9965055 91.0406288,64.278748 Z M124.56128,63.7576781 L125.077947,65.9213145 C122.11571,66.745561 119.187961,67.1576781 116.294613,67.1576781 L116.19128,67.2607084 C115.709055,69.5960736 115.399059,71.1415127 115.26128,71.8970721 C114.916834,73.820314 114.744613,75.4687824 114.744613,76.8425266 C114.744613,78.4223325 115.330163,80.0364577 116.50128,81.6849508 L114.33128,82.406163 C113.297942,81.444542 112.643504,80.1738476 112.367947,78.5940417 C112.367947,76.3273637 112.712388,73.6486027 113.40128,70.5576781 C113.40128,70.4889909 113.435724,70.3859616 113.504613,70.2485872 C113.504613,69.9051511 113.64239,69.2869755 113.917947,68.3940417 C113.917947,68.2566673 113.952391,68.0849519 114.02128,67.8788902 C114.02128,67.7415158 114.055724,67.5698004 114.124613,67.3637387 L114.02128,67.2607084 C110.921265,67.0546468 108.406845,66.3334419 106.477947,65.0970721 L107.82128,63.2425266 C110.50796,64.2728348 113.917926,64.7536381 118.05128,64.6849508 C120.117957,64.6849508 122.287935,64.375863 124.56128,63.7576781 Z M131.546,82.6236933 L132.375258,80.7528072 C134.241098,81.5150239 135.865045,81.9307722 137.247149,82.0000646 C138.974779,81.7921873 139.873133,80.6142337 139.942238,78.4661686 C139.734922,75.4173018 138.180079,73.1999775 135.277661,71.8141289 L135.277661,71.0865621 C140.875181,69.1463742 143.881212,67.3794438 144.295843,65.785718 C144.226738,64.8849165 143.328384,64.4345225 141.600754,64.4345225 C137.178022,64.6423998 133.377294,65.2313766 130.198455,66.2014705 L128.954568,64.2266463 C133.51551,63.1872599 137.558103,62.6329288 141.082468,62.5636364 C145.021463,62.6329288 146.990932,63.6030082 146.990932,65.4739037 C146.783616,67.6912613 144.054002,69.8046486 138.802008,71.8141289 C141.082479,73.6850244 142.222698,75.9369945 142.222698,78.5701067 C142.222698,82.034728 140.667854,83.836304 137.558121,83.9748889 C136.314227,84.0441813 134.310207,83.5937873 131.546,82.6236933 Z M162.4949,73.4972333 L162.4949,73.057322 C162.568219,71.8842193 163.154762,71.1510411 164.254546,70.8577654 C164.987735,70.8577654 165.537619,70.9677422 165.904213,71.1876989 C166.637402,71.7742503 167.003991,72.4341106 167.003991,73.1672998 C167.003991,73.6805322 166.820697,74.0837802 166.454102,74.3770559 C166.014189,74.9636073 165.244352,75.2935374 164.144568,75.3668564 C163.191422,74.9269428 162.641538,74.3037414 162.4949,73.4972333 Z M171.62093,73.4043609 L171.62093,72.9662306 C171.752446,71.7978774 172.31138,71.0676676 173.297748,70.7755793 C173.758054,70.7025572 174.251231,70.8485992 174.777294,71.2137096 C175.303357,71.7248641 175.566385,72.3455424 175.566385,73.0757632 C175.500627,73.805984 175.336235,74.2441099 175.073203,74.390154 C174.810171,74.8282865 174.251237,75.1203704 173.396385,75.2664145 C172.410016,75.0473483 171.818204,74.42667 171.62093,73.4043609 Z M155.393917,75.3263891 C154.22438,75.0371971 153.566525,74.4588219 153.420333,73.5912461 C153.347237,72.8682662 153.566522,72.2175941 154.078194,71.6392102 C154.736059,70.7716344 155.649746,70.5908922 156.819283,71.0969781 C157.477147,71.6753619 157.842622,72.3260341 157.915718,73.0490139 C157.842622,74.4949736 157.00203,75.2540911 155.393917,75.3263891 Z" id="OUT了…" fill="url(#linearGradient-8)" fill-rule="nonzero"></path>
                    <path d="M174.571714,250.024055 C191.906191,234.801626 203.978836,227.923281 210.789649,229.389019 C221.005869,231.587626 232.299847,245.389019 242.026327,243.389019 C251.752808,241.389019 259.896799,222.992564 277.230889,226.65359 C294.56498,230.314617 293.170616,249.024055 307.866114,250.024055 C303.230795,249.708631 258.799328,249.708631 174.571714,250.024055 Z" id="路径-19" fill="url(#linearGradient-9)" fill-rule="nonzero"></path>
                    <g id="人物" transform="translate(256.136364, 171.689433) scale(-1, 1) translate(-256.136364, -171.689433) translate(227.636364, 84.189433)">
                        <path d="M21.9933768,168.045978 C23.1010104,168.572157 23.8667945,169.70113 23.8667945,171.008961 L23.8667945,173.287442 C23.8667945,173.839726 23.4190793,174.287442 22.8667945,174.287442 L10.8161616,174.287442 C10.2638769,174.287442 9.81616162,173.839726 9.81616162,173.287442 L9.81616162,171.008961 C9.81616162,169.198306 11.2839876,167.73048 13.0946426,167.73048 L14.4997059,167.73048 L14.4997059,163.983644 L21.9933768,163.983644 L21.9933768,168.045978 Z" id="合并形状" fill="url(#linearGradient-10)" fill-rule="nonzero" transform="translate(16.841478, 169.135543) scale(-1, 1) translate(-16.841478, -169.135543) "></path>
                        <path d="M40.9554021,168.159902 C42.0630357,168.686081 42.8288198,169.815054 42.8288198,171.122885 L42.8288198,173.401366 C42.8288198,173.95365 42.3811046,174.401366 41.8288198,174.401366 L29.7781869,174.401366 C29.2259022,174.401366 28.7781869,173.95365 28.7781869,173.401366 L28.7781869,171.122885 C28.7781869,169.31223 30.2460129,167.844404 32.0566679,167.844404 L33.4617312,167.844404 L33.4617312,164.097568 L40.9554021,164.097568 L40.9554021,168.159902 Z" id="合并形状" fill="url(#linearGradient-10)" fill-rule="nonzero" transform="translate(35.803503, 169.249467) scale(-1, 1) translate(-35.803503, -169.249467) "></path>
                        <path d="M26.5025189,164.363986 L26.5025189,94.9018019 L23.6923923,94.9018019 L23.6923923,164.363986 L8.70505051,164.363986 L10.5952771,82.0947552 L40.0299767,82.0947552 L41.4898606,164.363986 L26.5025189,164.363986 Z" id="合并形状" fill="url(#linearGradient-11)" fill-rule="nonzero"></path>
                        <path d="M4.34186672,58.351345 C3.71773271,65.0208143 3.38788769,70.0967444 3.35233165,73.5791352 C3.31677562,77.061526 4.7753645,83.2304053 7.72809829,92.0857731 L9.08927564,84.8356422 L12.7080745,61.9874454 L4.34186672,58.351345 Z" id="路径-23" fill="#FBE7D3" fill-rule="nonzero" transform="translate(8.029886, 75.218559) rotate(-9.000000) translate(-8.029886, -75.218559) "></path>
                        <g id="头" transform="translate(27.506942, 18.091351) rotate(-8.000000) translate(-27.506942, -18.091351) translate(14.506942, 2.091351)">
                            <path d="M24.5887849,6.45934896 C23.9825076,8.54115481 22.0450379,9.41141616 18.7763758,9.07013302 C15.5077138,8.72884987 12.9779549,7.07224954 11.1870992,4.10033203 L24.5887849,6.45934896 Z" id="路径-22" fill="#5C3780" fill-rule="nonzero" transform="translate(17.887942, 6.621284) rotate(-14.000000) translate(-17.887942, -6.621284) "></path>
                            <g id="路径-25" transform="translate(0.009697, 1.519192)">
                                <mask id="mask-13" fill="white">
                                    <use xlink:href="#path-12"></use>
                                </mask>
                                <use id="Mask" fill="#FBE7D3" fill-rule="nonzero" transform="translate(11.510650, 14.760804) rotate(-5.000000) translate(-11.510650, -14.760804) " xlink:href="#path-12"></use>
                                <path d="M14.4390136,11.5594013 C14.5533387,11.7704742 15.4624745,14.7605221 17.5333607,16.6141426 C18.3958606,17.3861538 20.2516698,18.3044176 23.1007884,19.3689337 L16.8761066,22.8650568 C14.7164726,23.0765892 12.0613136,22.7995925 8.91062958,22.0340668 C5.75994561,21.268541 2.98966862,20.4510495 0.599798611,19.5815921 C9.58824542,13.7946171 14.2013171,11.1205535 14.4390136,11.5594013 Z" id="路径-31" fill="#F0DDC9" fill-rule="nonzero" mask="url(#mask-13)"></path>
                                <path d="M3.75648171,19.9610437 C2.3897347,13.8805576 1.54494184,10.2222029 2.13959394,7.50448566 C2.53602867,5.69267415 3.59264608,4.56597219 5.30944616,4.12437977 C6.19735891,0.532352902 9.06105971,-0.995476127 13.9005485,-0.459107322 C21.1597818,0.345445887 25.5904137,-0.851611055 23.6770428,5.78200021 C21.9182049,5.78200021 22.8934304,4.51272025 19.8410336,6.12390898 C17.8061023,7.19803479 17.6294366,9.45081192 19.3110365,12.8822403 L18.326636,13.3896226 C17.5632025,11.1418913 16.5556479,10.3009419 15.3039723,10.8667745 C14.0522967,11.4326072 13.7677705,12.8070168 14.4503936,14.9900036 C13.1206389,17.3362778 12.0278863,18.8323605 11.172136,19.4782518 C9.88851046,20.4470887 9.12884278,20.7668152 7.20816139,20.7668152 C6.57594792,20.7668152 5.42538803,20.4982247 3.75648171,19.9610437 Z" id="Hair" fill="#393939" mask="url(#mask-13)"></path>
                            </g>
                            <path d="M2.21653006,6.13783231 C2.95003591,4.29607721 5.12756328,2.6676333 8.25231001,1.40768379 C11.3770567,0.14773428 15.4493502,0.105610455 16.7340591,1.0268284 C18.0187681,1.94804634 19.0748356,4.02829487 20.4534534,4.21647598 C21.3725319,4.34193005 22.6715693,4.55079756 24.3505656,4.84307852 C23.0010557,6.51438995 21.5404381,7.45522468 19.968713,7.66558272 C18.3969879,7.87594075 17.3829136,8.04356025 16.92649,8.16844122 L3.02224599,13.9980809 C2.70894853,13.1238723 2.47858592,12.3757724 2.33115816,11.7537813 C1.70796793,9.1245697 1.82349392,7.12470421 2.21653006,6.13783231 Z" id="路径-21" fill="url(#linearGradient-14)" fill-rule="nonzero"></path>
                        </g>
                        <path d="M35.0125435,36.7696507 L30.4072165,33.3513087 C42.8336436,22.8869317 49.8647462,17.6547433 51.5005241,17.6547433 C52.6968055,17.38148 54.1390943,16.6870237 55.1660588,15.7214992 C56.2909125,14.7483109 56.6586248,13.6383776 55.1660588,13.4458335 C55.1660588,11.7161643 52.0776907,11.3715866 51.5005241,11.5785013 C50.7627812,11.8429827 50.1562809,11.8345015 48.560207,13.4458335 C46.0102986,15.3549133 21.3485042,27.6373185 19.7066415,33.3513087 C18.6120664,37.1606354 24.0606202,42.4359072 36.052303,49.1771239 L35.0125435,36.7696507 Z" id="路径-44" fill="#FBE7D3" fill-rule="nonzero" transform="translate(37.860849, 30.350992) scale(-1, 1) translate(-37.860849, -30.350992) "></path>
                        <g id="路径-5" transform="translate(0.000000, 27.961422)">
                            <mask id="mask-17" fill="white">
                                <use xlink:href="#path-16"></use>
                            </mask>
                            <use id="Mask" fill="url(#linearGradient-15)" fill-rule="nonzero" xlink:href="#path-16"></use>
                            <path d="M15.629049,5.25165526 C19.0490698,5.0925935 21.3358467,4.9296204 22.4893797,4.76273596 C25.262948,4.36147703 27.1469761,4.20743281 28.9313735,4.31111111 C31.828973,4.47946945 33.4504767,4.70799232 33.7958846,4.99667971 L34.9023138,1.17306269 L17.7581081,-1.08888889 L15.629049,5.25165526 Z" id="路径-37" fill="#F8F8FE" fill-rule="nonzero" mask="url(#mask-17)"></path>
                        </g>
                    </g>
                    <circle id="椭圆形" fill="#FFFFFF" fill-rule="nonzero" cx="86.8" cy="117.236364" r="5.63636364"></circle>
                    <circle id="椭圆形复制" fill="#FFFFFF" fill-rule="nonzero" cx="105.4" cy="117.236364" r="5.63636364"></circle>
                    <circle id="椭圆形复制-2" fill="#FFFFFF" fill-rule="nonzero" cx="124" cy="117.236364" r="5.63636364"></circle>
                    <path d="M289.301176,81.4649618 L289.442085,83.8604164 L287.892085,83.8604164 C286.013288,83.6725366 284.979965,82.498306 284.792085,80.3376891 C284.792085,78.7407114 285.449654,76.4861885 286.764812,73.5740527 C287.89209,71.1316163 288.50269,69.4407241 288.59663,68.5013255 C288.59663,68.0316261 288.220876,67.7498108 287.469358,67.6558709 C286.999658,67.4679912 286.342089,67.3740527 285.49663,67.3740527 C284.463292,67.3740527 283.664815,67.5619296 283.101176,67.9376891 C282.443597,68.5013283 282.302689,69.2528359 282.678448,70.1922346 L280.001176,70.7558709 C279.343597,70.1922317 278.920874,69.205878 278.732994,67.79678 C278.732994,66.5755618 279.531471,65.5422388 281.128448,64.69678 C282.443607,64.1331408 283.664806,63.8513255 284.792085,63.8513255 C286.389062,63.8513255 287.845109,64.3210177 289.160267,65.2604164 C290.475425,66.3876947 291.132994,67.8437408 291.132994,69.6285982 C291.132994,71.0376961 290.475425,73.0573729 289.160267,75.6876891 C288.032988,78.3180053 287.469358,79.9149618 287.469358,80.4785982 C287.469358,81.1361772 288.079957,81.4649618 289.301176,81.4649618 Z M285.637539,84.7058709 C287.422397,84.8937506 288.408751,86.0210121 288.59663,88.0876891 C288.50269,89.8725465 287.516337,90.8119311 285.637539,90.9058709 C283.852682,90.8119311 282.866328,89.7786081 282.678448,87.8058709 C282.866328,85.9270736 283.852682,84.8937506 285.637539,84.7058709 Z" id="?" fill="#DBCAEA" fill-rule="nonzero" transform="translate(284.932994, 77.378598) rotate(-330.000000) translate(-284.932994, -77.378598) "></path>
                </g>
            </g>
        </g>
    </g>
</svg>