<svg width="16" height="16" xmlns="http://www.w3.org/2000/svg"><path d="M13 0a2 2 0 012 2v12a2 2 0 01-2 2H3a2 2 0 01-2-2V2a2 2 0 012-2h10zm0 1H3a1 1 0 00-.993.883L2 2v2h1.5a.5.5 0 010 1H2v2.5h1.5a.5.5 0 010 1H2V11h1.5a.5.5 0 110 1H2v2a1 1 0 00.883.993L3 15h10a1 1 0 00.993-.883L14 14V2a1 1 0 00-.883-.993L13 1zM8.487 4.5a2.997 2.997 0 012.09.858c.29.272.507.585.648.933.152.328.225.663.275 1.167a3.83 3.83 0 01-.392 1.63c-.188.38-.465.767-.833 1.185A6.262 6.262 0 018.9 11.39a.788.788 0 01-.401.11.817.817 0 01-.168-.015.625.625 0 01-.253-.106l-.015-.012-.1-.058a6.17 6.17 0 01-.88-.678l-.18-.173-.177-.183a4.956 4.956 0 01-.84-1.2C5.63 8.52 5.5 8 5.5 7.458c0-.383.08-.774.238-1.16a3.22 3.22 0 01.641-.924c.261-.268.588-.486.93-.628.36-.17.746-.246 1.178-.246zm0 1a1.74 1.74 0 00-.772.16c-.241.1-.454.242-.619.411a2.24 2.24 0 00-.437.617c-.104.256-.159.52-.159.77 0 .387.095.766.289 1.186.16.326.384.646.67.95.232.251.49.477.724.653l.17.122.145.095.177-.116a5.6 5.6 0 00.533-.426l.18-.17.145-.15c.307-.348.535-.667.675-.95.19-.4.292-.815.295-1.142-.037-.353-.09-.591-.195-.822a1.662 1.662 0 00-.415-.6A1.999 1.999 0 008.487 5.5zm-.004 1.013c.56 0 1 .44 1 1s-.44 1-1 1-1-.44-1-1 .44-1 1-1z" fill="#7C57DF"/></svg>