<svg width="36" height="36" xmlns="http://www.w3.org/2000/svg"><g fill="none" fill-rule="evenodd"><path fill-opacity=".004" fill="#FFF" d="M0 0h36v36H0z"/><path d="M26.563 12.053c.2.06.403.18.608.363.855.76 1.644 1.473 2.365 2.14a501.66 501.66 0 012.139 1.99c.178.164.314.363.408.596a2.028 2.028 0 01.033 1.434c-.08.229-.205.425-.374.59a151.492 151.492 0 01-2.34 2.29 151.351 151.351 0 01-2.339 2.209 1.207 1.207 0 01-.527.302.91.91 0 01-.508-.007.703.703 0 01-.374-.28c-.094-.138-.14-.316-.14-.536v-3.237c0-.686-.003-1.4-.007-2.14a365.36 365.36 0 01-.007-1.59v-3.335c0-.22.049-.4.147-.542a.658.658 0 01.381-.275.987.987 0 01.535.028zM19.5 16.5a1.5 1.5 0 110 3 1.5 1.5 0 010-3zm-7.5 0a1.5 1.5 0 110 3 1.5 1.5 0 010-3zm-7.5 0a1.5 1.5 0 110 3 1.5 1.5 0 010-3z" fill="#7C57DF" fill-rule="nonzero"/></g></svg>