<?xml version="1.0" encoding="UTF-8"?>
<svg width="16px" height="16px" viewBox="0 0 16 16" version="1.1" xmlns="http://www.w3.org/2000/svg" xmlns:xlink="http://www.w3.org/1999/xlink">
<g id="授权名单" stroke="none" stroke-width="1" fill="none" fill-rule="evenodd">
        <g id="设置中心-确认授权列表-主副授权人-授权审批列表-待审批" transform="translate(-1328.000000, -129.000000)" fill="#8365F6" fill-rule="nonzero">
            <g id="编组-9" transform="translate(175.000000, 73.000000)">
                <g id="标题" transform="translate(21.000000, 0.000000)">
                    <g id="导出运单" transform="translate(1132.000000, 56.000000)">
                        <path d="M13,0 C14.1045695,0 15,0.8954305 15,2 L15,5.80185842 C15,6.07800079 14.7761424,6.30185842 14.5,6.30185842 C14.2545401,6.30185842 14.0503916,6.12498326 14.0080557,5.89173405 L14,5.80185842 L14,2 C14,1.48716416 13.6139598,1.06449284 13.1166211,1.00672773 L13,1 L3,1 C2.48716416,1 2.06449284,1.38604019 2.00672773,1.88337887 L2,2 L2,14 C2,14.5128358 2.38604019,14.9355072 2.88337887,14.9932723 L3,15 L5.89149299,15 C6.16763537,15 6.39149299,15.2238576 6.39149299,15.5 C6.39149299,15.7454599 6.21461783,15.9496084 5.98136862,15.9919443 L5.89149299,16 L3,16 C1.8954305,16 1,15.1045695 1,14 L1,2 C1,0.8954305 1.8954305,0 3,0 L13,0 Z M15.3971143,9.25 C16.639755,11.4023168 15.9023168,14.1544736 13.75,15.3971143 C11.5976832,16.639755 8.84552637,15.9023168 7.60288568,13.75 C6.360245,11.5976832 7.09768319,8.84552637 9.25,7.60288568 C11.4023168,6.360245 14.1544736,7.09768319 15.3971143,9.25 Z M9.75,8.46891109 C8.07597582,9.4354094 7.50241277,11.5759758 8.46891109,13.25 C9.4354094,14.9240242 11.5759758,15.4975872 13.25,14.5310889 C14.9240242,13.5645906 15.4975872,11.4240242 14.5310889,9.75 C13.5645906,8.07597582 11.4240242,7.50241277 9.75,8.46891109 Z M13.6666558,11.0242465 C13.9427841,11.0214648 14.1688854,11.243056 14.1716671,11.5191844 C14.1810123,12.4468318 13.6950605,13.3174036 12.8765986,13.7899428 C11.9766245,14.3095431 10.8656815,14.2374373 10.0436747,13.6313321 C9.82141838,13.4674518 9.77409527,13.1544263 9.93797555,12.93217 C10.1018558,12.7099137 10.4148814,12.6625905 10.6371377,12.8264708 C11.1419925,13.1987246 11.8239534,13.2429873 12.3765986,12.9239174 C12.8793633,12.6336461 13.1774636,12.099606 13.1717179,11.5292579 C13.1689362,11.2531295 13.3905274,11.0270282 13.6666558,11.0242465 Z M12.8600835,9.24745487 C13.0978268,9.38792808 13.1766798,9.69453317 13.0362066,9.93227649 C12.8957334,10.1700198 12.5891283,10.2488728 12.351385,10.1083996 C11.8603218,9.81824963 11.2487794,9.80939199 10.7460147,10.0996633 C10.1933695,10.4187332 9.89072166,11.0314599 9.9606755,11.654804 C9.99147184,11.9292237 9.79397605,12.1766502 9.5195563,12.2074466 C9.24513656,12.2382429 8.99771003,12.0407471 8.96691369,11.7663274 C8.85301456,10.751396 9.34604066,9.75323817 10.2460147,9.2336379 C11.0644766,8.7610987 12.0613898,8.77553808 12.8600835,9.24745487 Z M6.5,7.5 C6.77614237,7.5 7,7.72385763 7,8 C7,8.27614237 6.77614237,8.5 6.5,8.5 L4.5,8.5 C4.22385763,8.5 4,8.27614237 4,8 C4,7.72385763 4.22385763,7.5 4.5,7.5 L6.5,7.5 Z M10.5,4 C10.7761424,4 11,4.22385763 11,4.5 C11,4.77614237 10.7761424,5 10.5,5 L4.5,5 C4.22385763,5 4,4.77614237 4,4.5 C4,4.22385763 4.22385763,4 4.5,4 L10.5,4 Z" id="形状结合"></path>
                    </g>
                </g>
            </g>
        </g>
    </g>
</svg>