<?xml version="1.0" encoding="UTF-8"?>
<svg width="42px" height="42px" viewBox="0 0 42 42" version="1.1" xmlns="http://www.w3.org/2000/svg" xmlns:xlink="http://www.w3.org/1999/xlink">
    <title>形状结合 2</title>
    <g id="消息通知" stroke="none" stroke-width="1" fill="none" fill-rule="evenodd">
        <g id="弹窗规范-活动弹窗" transform="translate(-455.000000, -755.000000)" fill="#FFFFFF" fill-rule="nonzero">
            <g id="编组-4" transform="translate(46.000000, 218.500000)">
                <g id="形状结合-2" transform="translate(409.000000, 536.500000)">
                    <path d="M21,0 C32.5979797,0 42,9.40202025 42,21 C42,32.5979797 32.5979797,42 21,42 C9.40202025,42 0,32.5979797 0,21 C0,9.40202025 9.40202025,0 21,0 Z M21,2 C10.5065898,2 2,10.5065898 2,21 C2,31.4934102 10.5065898,40 21,40 C31.4934102,40 40,31.4934102 40,21 C40,10.5065898 31.4934102,2 21,2 Z M14.636039,13.2218254 L20.9999322,19.5849322 L27.363961,13.2218254 C27.7544853,12.8313011 28.3876503,12.8313011 28.7781746,13.2218254 C29.1686989,13.6123497 29.1686989,14.2455147 28.7781746,14.636039 L22.4139322,20.9999322 L28.7781746,27.363961 C29.1686989,27.7544853 29.1686989,28.3876503 28.7781746,28.7781746 C28.3876503,29.1686989 27.7544853,29.1686989 27.363961,28.7781746 L20.9999322,22.4139322 L14.636039,28.7781746 C14.2455147,29.1686989 13.6123497,29.1686989 13.2218254,28.7781746 C12.8313011,28.3876503 12.8313011,27.7544853 13.2218254,27.363961 L19.5849322,20.9999322 L13.2218254,14.636039 C12.8313011,14.2455147 12.8313011,13.6123497 13.2218254,13.2218254 C13.6123497,12.8313011 14.2455147,12.8313011 14.636039,13.2218254 Z" id="形状结合"></path>
                </g>
            </g>
        </g>
    </g>
</svg>