<?xml version="1.0" encoding="UTF-8"?>
<svg width="14px" height="14px" viewBox="0 0 14 14" version="1.1" xmlns="http://www.w3.org/2000/svg" xmlns:xlink="http://www.w3.org/1999/xlink">
    <title>编组 3备份</title>
    <g id="网点查询" stroke="none" stroke-width="1" fill="none" fill-rule="evenodd">
        <g id="服务查询-查询有网点" transform="translate(-210.000000, -370.000000)" fill-rule="nonzero" stroke="#999999">
            <g id="编组-4" transform="translate(210.000000, 298.000000)">
                <g id="编组-3备份" transform="translate(0.000000, 72.000000)">
                    <path d="M3.58556945,1.50006723 L3.72366968,1.50758819 C3.99662536,1.53996728 4.25730265,1.67585312 4.44164689,1.90741893 L4.44164689,1.90741893 L5.6617822,3.4421306 C5.84281539,3.65455784 5.92537698,3.91907191 5.9123261,4.17878118 C5.89937453,4.43651419 5.79226008,4.68951537 5.59377662,4.88218193 L5.59377662,4.88218193 L6.1,5.421 L5.57577723,4.90197569 L4.90346233,5.65780385 L5.14031704,6.03857669 C5.87707629,7.19524128 6.85795508,8.17672401 8.01804325,8.9166428 L8.01804325,8.9166428 L8.39816436,9.15421925 L9.13073688,8.42098041 C9.31661685,8.22957639 9.55859394,8.12314494 9.80611377,8.10362401 C10.0537816,8.0840914 10.3073962,8.15140449 10.506558,8.30268595 L10.506558,8.30268595 L12.0940073,9.56477186 L12.1065078,9.5759374 L12.2129821,9.68313413 C12.4106617,9.89070963 12.5054597,10.1587149 12.4997568,10.4237379 C12.4940683,10.6880895 12.3883918,10.949869 12.1748402,11.1534467 L12.1748402,11.1534467 L11.1118348,12.2165914 C10.9106797,12.4100104 10.6451446,12.4936391 10.3389267,12.4996482 C9.93635166,12.5075482 9.47199065,12.3875719 8.96293693,12.1700499 C7.80734848,11.6762594 6.45191494,10.6850403 5.07914841,9.34567162 L5.07914841,9.34567162 L4.87383358,9.14201702 C3.44902346,7.7178597 2.38940783,6.30252037 1.85837795,5.09665048 C1.62411364,4.56467988 1.49367559,4.07962588 1.50022513,3.66055049 C1.50518187,3.34339148 1.59280479,3.06925124 1.79807755,2.86397772 L1.79807755,2.86397772 L2.85013663,1.81087289 L2.874,1.77 L2.92727177,1.7321136 C3.1226876,1.57807393 3.35467959,1.50221496 3.58556945,1.50006723 Z" id="路径"></path>
                </g>
            </g>
        </g>
    </g>
</svg>