<svg width="16" height="16" xmlns="http://www.w3.org/2000/svg"><path d="M13.354 3.819a.503.503 0 01.674.47v8.81a2.265 2.265 0 01-2.265 2.265H4.967a.504.504 0 11.025-1.007h6.512a1.51 1.51 0 001.51-1.51V4.322a.503.503 0 01.34-.503zm-2.32-2.517c.555 0 1.006.45 1.006 1.007v10.068c0 .556-.45 1.007-1.007 1.007H2.98a1.007 1.007 0 01-1.007-1.007V2.309c0-.556.45-1.007 1.007-1.007zm-.399 1.007H3.376a.503.503 0 00-.503.503v9.061a.503.503 0 00.503.504h7.252a.503.503 0 00.503-.504l.008-9.06a.503.503 0 00-.504-.504zm-1.07 7.318c.087 0 .157.193.157.43 0 .238-.07.431-.157.431H4.067c-.087 0-.157-.193-.157-.43 0-.238.07-.431.157-.431h5.498zm.42-2.584c.092 0 .168.193.168.431s-.076.43-.169.43H4.078c-.093 0-.168-.192-.168-.43s.075-.43.168-.43h5.906zm-.42-2.583c.087 0 .157.193.157.43 0 .238-.07.431-.157.431H4.067c-.087 0-.157-.193-.157-.43 0-.238.07-.431.157-.431h5.498z" fill="#7C57DF"/></svg>