<svg width="72" height="72" xmlns="http://www.w3.org/2000/svg" xmlns:xlink="http://www.w3.org/1999/xlink"><defs><rect id="a" x="0" y="0" width="72" height="72" rx="4"/></defs><g fill="none" fill-rule="evenodd"><mask id="b" fill="#fff"><use xlink:href="#a"/></mask><use fill-opacity="0" fill="#D8D8D8" xlink:href="#a"/><path d="M19.043 6.5C36.74-3.717 59.369 2.346 69.586 20.043 79.803 37.74 73.74 60.369 56.043 70.586 38.346 80.803 15.717 74.74 5.5 57.043-4.717 39.346 1.346 16.717 19.043 6.5zm1.536 3C4.795 18.613-.613 38.795 8.5 54.579c9.113 15.783 29.295 21.191 45.079 12.079 15.783-9.113 21.191-29.296 12.079-45.08C56.545 5.796 36.362.389 20.578 9.5zm.718 48.506c8.144 7.198 20.287 8.762 30.22 3.027 9.932-5.734 14.65-17.032 12.488-27.685l1.635-.944c2.467 11.553-2.608 23.868-13.391 30.093-10.783 6.226-23.986 4.464-32.757-3.45l1.805-1.041zm7.414-33.922l3.189-1.337a48.66 48.66 0 011.418 4.7l.18.767 5.591-3.228-1.827.046c.229-1.66.225-3.361-.013-5.162l-.08-.544 3.006-.558c.222 1.763.268 3.458.111 5.039l-.06.522 4.424-2.554 1.529 2.648-12.132 7.005c.091.924.155 1.841.19 2.75l.026.908 15.291-8.828 1.566 2.71-6.224 3.594c2.508.924 5.725 1.208 9.64.895l.538-.046-.557 3.558c-2.107-.002-4.044-.145-5.808-.43l.526 1.008a88.833 88.833 0 012.617 5.459c.803 1.974 1.089 3.49.907 4.562-.186.97-.818 1.87-1.9 2.63l-.238.16-5.055 2.918-2.41-2.35 1.354-.711a93.459 93.459 0 003.11-1.698c1.2-.693 1.704-1.572 1.61-2.61-.125-1.058-.841-2.937-2.236-5.66l-.177-.345-7.14 4.122c.66 2.603.844 4.893.566 6.819-.39 2.296-1.474 4.766-3.236 7.437l-.3.447-3.26-1.27c1.8-2.427 2.946-4.601 3.5-6.56.339-1.445.33-3.052 0-4.835l-.082-.414-3.95 2.28-.946-1.64a33.646 33.646 0 01-2.768 5.165l-.418.626-3.099-1.574c2.16-2.874 3.658-5.854 4.505-8.98l.142-.554-6.571 3.794-1.565-2.711L30.945 37a28.91 28.91 0 00.019-3.016l-.045-.751-8.625 4.98-1.529-2.649 4.581-2.645a37.625 37.625 0 00-4.09-2.562l-.487-.26 2.099-2.346a35.763 35.763 0 013.96 2.464l.64.47-1.206 1.705 4.202-2.426a37.283 37.283 0 00-1.473-5.136l-.28-.745zm-14.801 23.8a.551.551 0 01.224.071l.068.046 1.503 1.075c.038.02.1.045.155.051a.323.323 0 00.115-.006l.047-.017 1.677-.696a.575.575 0 01.3-.049c.19.022.363.135.466.307a.678.678 0 01.11.467l-.02.098-.473 1.82a.378.378 0 00.032.269l.04.058 1.148 1.462a.715.715 0 01.093.717.654.654 0 01-.46.383l-.104.014-1.794.068a.335.335 0 00-.236.106l-.043.055-.949 1.605a.624.624 0 01-.611.307.65.65 0 01-.496-.341l-.045-.1-.63-1.789a.365.365 0 00-.18-.197l-.063-.024-1.742-.48a.687.687 0 01-.478-.527.686.686 0 01.162-.614l.07-.065 1.401-1.157a.379.379 0 00.129-.234l.003-.07-.133-1.898a.67.67 0 01.194-.533.647.647 0 01.52-.183zm45-26a.551.551 0 01.224.071l.068.046 1.503 1.075c.038.02.1.045.155.051a.323.323 0 00.115-.006l.047-.017 1.677-.696a.575.575 0 01.3-.049c.19.022.363.135.466.307a.678.678 0 01.11.467l-.02.098-.473 1.82a.378.378 0 00.032.269l.04.058 1.148 1.462a.715.715 0 01.093.717.654.654 0 01-.46.383l-.104.014-1.794.068a.335.335 0 00-.236.106l-.043.055-.949 1.605a.624.624 0 01-.611.307.65.65 0 01-.496-.341l-.045-.1-.63-1.789a.365.365 0 00-.18-.197l-.063-.024-1.742-.48a.687.687 0 01-.478-.527.686.686 0 01.162-.614l.07-.065 1.401-1.157a.379.379 0 00.129-.234l.003-.07-.133-1.898a.67.67 0 01.194-.533.647.647 0 01.52-.183zM41.887 33.885l-7.608 4.393a30.877 30.877 0 01-1.07 4.708l-.209.649 13.856-8c-1.72-.382-3.25-.907-4.577-1.553l-.392-.197zM24.25 14c10.547-6.09 23.41-4.537 32.175 2.94l-1.888 1.09c-8.105-6.334-19.564-7.489-29.02-2.03-9.455 5.459-14.184 15.96-12.752 26.146l-2.057 1.189C8.615 32.005 13.7 20.09 24.249 14z" fill="#979797" fill-rule="nonzero" opacity=".15" mask="url(#b)"/></g></svg>