<svg width="72" height="72" xmlns="http://www.w3.org/2000/svg" xmlns:xlink="http://www.w3.org/1999/xlink"><defs><rect id="a" x="0" y="0" width="72" height="72" rx="4"/></defs><g fill="none" fill-rule="evenodd"><mask id="b" fill="#fff"><use xlink:href="#a"/></mask><use fill-opacity="0" fill="#D8D8D8" xlink:href="#a"/><path d="M19.043 6.5C36.74-3.717 59.369 2.346 69.586 20.043 79.803 37.74 73.74 60.369 56.043 70.586 38.346 80.803 15.717 74.74 5.5 57.043-4.717 39.346 1.346 16.717 19.043 6.5zm2 3.464C5.259 19.077-.15 39.26 8.964 55.043c9.113 15.784 29.295 21.191 45.079 12.079 15.784-9.113 21.191-29.295 12.079-45.08C57.009 6.26 36.827.853 21.042 9.965zm3.495 51.098c7.78 4.483 17.67 4.81 26.005-.002 8.334-4.812 12.997-13.542 13.004-22.52l1.978-1.142c.404 10.064-4.653 20.008-13.982 25.394-9.329 5.386-20.468 4.793-28.983-.588l1.978-1.142zm20.95-9.646c.084.01.156.033.225.073l.068.045 1.503 1.075a.48.48 0 00.155.052.323.323 0 00.115-.007l.047-.017 1.677-.695a.575.575 0 01.3-.05c.19.023.362.135.466.307a.678.678 0 01.11.467l-.02.098-.473 1.82a.378.378 0 00.032.269l.04.059 1.148 1.462a.715.715 0 01.092.717.654.654 0 01-.46.382l-.103.014-1.795.069a.335.335 0 00-.235.105l-.043.056-.949 1.604a.624.624 0 01-.611.307.65.65 0 01-.496-.34l-.045-.101-.63-1.789a.365.365 0 00-.18-.197l-.063-.024-1.743-.48a.687.687 0 01-.477-.527.686.686 0 01.162-.614l.07-.065 1.4-1.157a.379.379 0 00.13-.234l.003-.07-.133-1.898a.67.67 0 01.194-.532.647.647 0 01.52-.184zm6.565-32.22l1.964-.719c.274.73.527 1.425.75 2.107l.16.51 4.573-2.64 1.02 1.766-1.282.74c1.361 2.678 2.072 5.27 2.133 7.775 1.64.833 3.264 1.297 4.888 1.382l.375.013-.171 2.224c-1.735-.084-3.476-.58-5.214-1.47-.262 1.835-.885 3.623-1.863 5.378l-.252.438-1.982-1.072c1.267-1.886 2-3.857 2.175-5.874a26.596 26.596 0 01-3.341-2.667c0 .45-.015.896-.043 1.327l-.031.424-1.936-.753c.102-2.412-.46-5.216-1.727-8.408l-.196-.481zM33.768 29.845l1.66 2.875 5.595-3.23 1.02 1.767-5.595 3.23.41.71c.317.612.598 1.214.844 1.807l.178.443 6.929-4 1.01 1.75-6.097 3.52c2.014 1.672 4.99 2.206 8.913 1.611l.409-.065-.075 2.19c-4.399.462-7.83-.282-10.287-2.258.19 1.09.245 2.145.16 3.118-.244 2.217-1.38 4.463-3.406 6.777l-.281.316-1.878-.971c2.182-2.46 3.341-4.654 3.486-6.562a11.17 11.17 0 00-.114-1.948l-.062-.398-6.062 3.5-1.01-1.75 6.495-3.75a19.087 19.087 0 00-.759-1.812l-.229-.458-.41-.71-3.689 2.13c-.028 1.107-.149 2.144-.388 3.095l-.11.402-2.321-.46c.7-2.1.835-4.365.388-6.822l-.091-.463 2.087-.305c.104.599.19 1.168.263 1.716l.07.54 2.771-1.6-1.66-2.875 1.836-1.06zm17.853-.677l1.977-.218c.278 1.202.454 2.348.528 3.436a37.7 37.7 0 012.441.698l.597.204-.444 2.15a46.776 46.776 0 00-2.596-.856 13.911 13.911 0 01-1.611 5.447l-.216.388-2.076-.995A12.148 12.148 0 0052.01 34a37.814 37.814 0 00-2.395-.535l-.583-.102.386-1.932c.886.135 1.755.28 2.6.463a16.644 16.644 0 00-.282-2.176l-.116-.551zm-29.658 8.51l4.28 7.412-10.687 6.17 2.67 4.625c.336.582.787.735 1.352.46l.123-.065 8.608-4.97c.278-.16.477-.414.6-.762.088-.327-.219-1.191-.885-2.582l-.363-.739 2.087-.465.251.568c.876 2.017 1.249 3.296 1.133 3.829-.176.559-.56 1.05-1.125 1.46l-.195.133-9.63 5.56c-1.433.827-2.576.527-3.462-.884l-.105-.174-5.18-8.972 1.8-1.04 1.32 2.286 8.852-5.11-2.28-3.949-11.38 6.57-1-1.732 13.216-7.63zM57.575 21.92l-2.096 1.21.221 1.142a26.489 26.489 0 003.597 3.19c-.175-1.67-.68-3.364-1.508-5.106l-.214-.436zm-10.947 5.558l1.999-.138c.157 1.821.12 3.53-.126 5.136l-.09.531-2.055-.199a17.1 17.1 0 00.315-4.809l-.043-.52zm3.342-2.091c.887.144 2.003.447 3.367.916l.378.131-.515 1.868a28.68 28.68 0 00-3.057-1.039l-.644-.172.47-1.704zm-3.358-3.096c.434.304.876.647 1.331 1.039l.345.303 3.17-1.83 1.01 1.75-8.176 4.72-1.01-1.75 3.222-1.86c-.4-.272-.788-.524-1.184-.755l-.399-.225 1.691-1.392zm-23.07-7.997c9.33-5.385 20.468-4.794 28.983.587l-1.979 1.142c-7.779-4.482-17.67-4.808-26.003.003-8.334 4.812-12.996 13.54-13.004 22.518L9.56 39.687c-.403-10.064 4.654-20.007 13.982-25.393zm2.947 4.213a.57.57 0 01.224.073l.068.045 1.503 1.075a.48.48 0 00.155.052.323.323 0 00.115-.007l.047-.017 1.677-.695a.575.575 0 01.3-.05c.19.023.362.135.466.307a.678.678 0 01.11.467l-.02.098-.473 1.82a.378.378 0 00.032.269l.04.059 1.148 1.462a.715.715 0 01.092.717.654.654 0 01-.46.382l-.103.014-1.795.069a.335.335 0 00-.235.105l-.043.056-.949 1.604a.624.624 0 01-.611.307.65.65 0 01-.496-.34l-.045-.101-.63-1.788a.365.365 0 00-.18-.198l-.063-.024-1.743-.48a.687.687 0 01-.477-.527.686.686 0 01.162-.614l.07-.065 1.4-1.157a.379.379 0 00.13-.234l.003-.07-.133-1.898a.67.67 0 01.194-.532.647.647 0 01.52-.184z" fill="#979797" fill-rule="nonzero" opacity=".3" mask="url(#b)"/></g></svg>