<svg width="72" height="72" xmlns="http://www.w3.org/2000/svg" xmlns:xlink="http://www.w3.org/1999/xlink"><defs><rect id="a" x="0" y="0" width="72" height="72" rx="4"/></defs><g fill="none" fill-rule="evenodd"><mask id="b" fill="#fff"><use xlink:href="#a"/></mask><use fill-opacity="0" fill="#D8D8D8" xlink:href="#a"/><path d="M19.043 6.5C36.74-3.717 59.369 2.346 69.586 20.043 79.803 37.74 73.74 60.369 56.043 70.586 38.346 80.803 15.717 74.74 5.5 57.043-4.717 39.346 1.346 16.717 19.043 6.5zm1.536 3C4.795 18.613-.613 38.795 8.5 54.579c9.113 15.783 29.295 21.191 45.079 12.079 15.783-9.113 21.191-29.296 12.079-45.08C56.545 5.796 36.362.389 20.578 9.5zm4.76 51.435c7.804 4.578 17.781 4.946 26.178.098 8.396-4.847 13.066-13.672 13.003-22.72l1.719-.992c.322 9.99-4.729 19.83-13.99 25.176-9.262 5.348-20.308 4.802-28.799-.472l1.888-1.09zm20.57-9.052c.084.01.156.032.225.072l.068.046 1.503 1.075c.038.02.1.045.155.051a.323.323 0 00.115-.006l.047-.017 1.677-.696a.575.575 0 01.3-.049c.19.022.363.135.466.307a.678.678 0 01.11.467l-.02.098-.473 1.82a.378.378 0 00.032.269l.04.058 1.148 1.462a.715.715 0 01.093.717.654.654 0 01-.46.383l-.104.014-1.794.068a.335.335 0 00-.236.106l-.043.055-.949 1.605a.624.624 0 01-.611.307.65.65 0 01-.496-.341l-.045-.1-.63-1.789a.365.365 0 00-.18-.197l-.063-.024-1.742-.48a.687.687 0 01-.478-.527.686.686 0 01.162-.614l.07-.065 1.401-1.157a.379.379 0 00.129-.234l.003-.07-.133-1.898a.67.67 0 01.194-.533.647.647 0 01.52-.183zm19.73-19.479c.072.333.136.665.195.999l-.482-.833.288-.166zm-29.025-4.368l.91 1.577 4.607-2.66.99 1.714-4.607 2.66.72 1.247 3.966-2.29 3.04 5.266-4.053 2.34c.641 1.43 1.019 2.645 1.098 3.661 1.942-.108 3.921-.64 5.915-1.601l.427-.213.567 1.982c-2.41 1.184-4.784 1.793-7.111 1.843-.426 1.332-1.456 2.646-3.068 3.946l-.31.244-1.729-1.196c1.472-1.01 2.44-2.055 2.886-3.12a16.303 16.303 0 01-3.387-.788l-.47-.173.836-1.753c1.09.41 2.191.675 3.29.78-.07-.657-.29-1.411-.63-2.246l-.133-.316-3.724 2.15-3.04-5.266 3.811-2.2-.72-1.247-4.26 2.46-.99-1.714 4.26-2.46-.91-1.577 1.819-1.05zm-7.92 4.365l2.175-.194a23.22 23.22 0 01.536 4.117l.016.6 6.72 11.639-1.818 1.05-5.16-8.938c-.085.603-.19 1.193-.316 1.787l-.133.597-1.699-1.583c.492-2.762.433-5.594-.196-8.525l-.124-.55zm29.153-15.908l7.55 13.077c.738 1.278.49 2.32-.736 3.1l-.165.1-1.992 1.15-1.505-1.487a21.83 21.83 0 001.965-.996c.485-.28.585-.74.287-1.335l-.07-.13-1.39-2.407-4.122 2.38 2.82 4.884-1.836 1.06-2.82-4.884-3.898 2.25c.956 2.143 1.365 4.193 1.213 6.12l-.035.359-2.106-.447c.172-1.931-.31-3.96-1.43-6.092l-.204-.378-4.95-8.574 13.424-7.75zM22.4 37.258l4.28 7.414-10.686 6.17 2.67 4.624c.336.582.787.736 1.352.461l.123-.065 8.608-4.97c.277-.16.477-.414.6-.762.092-.346-.254-1.29-1-2.819l-.248-.502 2.087-.466.367.839c.792 1.861 1.127 3.05 1.017 3.558-.176.559-.56 1.05-1.125 1.46l-.195.134-9.63 5.56c-1.433.827-2.577.526-3.463-.884l-.105-.175-5.18-8.972 1.802-1.04 1.32 2.287 8.85-5.11-2.28-3.95-11.38 6.57-1-1.732 13.216-7.63zm31.033-10.41l-3.81 2.2 1.44 2.494 3.81-2.2-1.44-2.494zm5.958-3.44l-4.122 2.38 1.44 2.494 4.122-2.38-1.44-2.494zm-16.958 9.467l-2.27 1.31 1.18 2.044 2.27-1.31-1.18-2.044zm-4.088 2.36l-2.113 1.22 1.18 2.044 2.113-1.22-1.18-2.044zM57.031 19.32l-4.122 2.38 1.4 2.425 4.122-2.38-1.4-2.425zm-5.958 3.44l-3.81 2.2 1.4 2.425 3.81-2.2-1.4-2.425zM24.249 14c9.395-5.424 20.626-4.785 29.164.703l-2.068 1.194c-7.752-4.387-17.557-4.673-25.828.103-8.272 4.776-12.927 13.41-13.004 22.317l-2.237 1.292C9.79 29.47 14.854 19.424 24.249 14zm2.66 4.883c.084.01.156.032.225.072l.068.046 1.503 1.075c.038.02.1.045.155.051a.323.323 0 00.115-.006l.047-.017 1.677-.696a.575.575 0 01.3-.049c.19.022.363.135.466.307a.678.678 0 01.11.467l-.02.098-.473 1.82a.378.378 0 00.032.269l.04.058 1.148 1.462a.715.715 0 01.093.717.654.654 0 01-.46.383l-.104.014-1.794.068a.335.335 0 00-.236.106l-.043.055-.949 1.605a.624.624 0 01-.611.307.65.65 0 01-.496-.341l-.045-.1-.63-1.789a.365.365 0 00-.18-.197l-.063-.024-1.742-.48a.687.687 0 01-.478-.527.686.686 0 01.162-.614l.07-.065 1.401-1.157a.379.379 0 00.129-.234l.003-.07-.133-1.898a.67.67 0 01.194-.533.647.647 0 01.52-.183z" fill="#979797" fill-rule="nonzero" opacity=".3" mask="url(#b)"/></g></svg>