<svg width="16" height="16" xmlns="http://www.w3.org/2000/svg"><path d="M8 1a7 7 0 017 7 7 7 0 01-7 7 7 7 0 01-7-7 7 7 0 017-7zm-.074 9.692a.67.67 0 00-.492.187.578.578 0 00-.195.462c0 .186.057.34.195.472a.716.716 0 00.492.187.717.717 0 00.492-.187.595.595 0 00.206-.472.617.617 0 00-.195-.462.696.696 0 00-.503-.187zM8.097 4c-.824 0-1.464.242-1.922.725-.458.462-.675 1.077-.675 1.846h.904c0-.538.126-.956.377-1.263.275-.363.698-.539 1.27-.539.481 0 .859.121 1.122.385.251.242.389.582.389 1.022 0 .308-.115.593-.343.868-.07.088-.206.22-.39.396-.617.527-.995.945-1.155 1.274a2.112 2.112 0 00-.206.956v.253h.915V9.67c0-.296.069-.56.218-.802.114-.198.286-.395.537-.604.504-.429.813-.715.927-.846.286-.363.435-.792.435-1.286 0-.66-.217-1.176-.64-1.55C9.412 4.187 8.83 4 8.096 4z" fill="#999" fill-rule="evenodd"/></svg>