<?xml version="1.0" encoding="UTF-8"?>
<svg width="70px" height="70px" viewBox="0 0 70 70" version="1.1" xmlns="http://www.w3.org/2000/svg" xmlns:xlink="http://www.w3.org/1999/xlink">
    <title>编组 5</title>
    <g id="页面-1" stroke="none" stroke-width="1" fill="none" fill-rule="evenodd">
        <g id="下单寄件-批量下单" transform="translate(-453.000000, -231.000000)" fill="#4F7CEE" fill-rule="nonzero">
            <g id="内容卡片备份-3" transform="translate(176.000000, 121.000000)">
                <g id="编组-3" transform="translate(61.000000, 60.000000)">
                    <g id="编组-5" transform="translate(216.000000, 50.000000)">
                        <path d="M51,0 C54.3137085,0 57,2.6862915 57,6 L57,10 L61,10 C64.3137085,10 67,12.6862915 67,16 L67,64 C67,67.3137085 64.3137085,70 61,70 L19,70 C15.6862915,70 13,67.3137085 13,64 L13,62 L9,62 C5.6862915,62 3,59.3137085 3,56 L3,6 C3,2.6862915 5.6862915,0 9,0 L51,0 Z M61,14 L57,14 L57,56 C57,59.3137085 54.3137085,62 51,62 L17,62 L17,64 C17,65.0543618 17.8158778,65.9181651 18.8507377,65.9945143 L19,66 L61,66 C62.0543618,66 62.9181651,65.1841222 62.9945143,64.1492623 L63,64 L63,16 C63,14.9456382 62.1841222,14.0818349 61.1492623,14.0054857 L61,14 Z M51,4 L9,4 C7.9456382,4 7.08183488,4.81587779 7.00548574,5.85073766 L7,6 L7,56 C7,57.0543618 7.81587779,57.9181651 8.85073766,57.9945143 L9,58 L51,58 C52.0543618,58 52.9181651,57.1841222 52.9945143,56.1492623 L53,56 L53,6 C53,4.9456382 52.1841222,4.08183488 51.1492623,4.00548574 L51,4 Z M42,45 C43.1045695,45 44,45.8954305 44,47 C44,48.1045695 43.1045695,49 42,49 L18,49 C16.8954305,49 16,48.1045695 16,47 C16,45.8954305 16.8954305,45 18,45 L42,45 Z M42,35 C43.1045695,35 44,35.8954305 44,37 C44,38.1045695 43.1045695,39 42,39 L18,39 C16.8954305,39 16,38.1045695 16,37 C16,35.8954305 16.8954305,35 18,35 L42,35 Z M30.2764692,9.13985529 C30.8646869,9.13985529 31.393595,9.39378995 31.7595495,9.79801537 L41.5901776,19.62944 C42.3712262,20.4104886 42.3712262,21.6768185 41.5901776,22.4578671 C40.8091291,23.2389157 39.5427991,23.2389157 38.7617505,22.4578671 L32.2759742,15.9708553 L32.2764692,29.1398553 C32.2764692,30.2444248 31.3810386,31.1398553 30.2764692,31.1398553 C29.1718997,31.1398553 28.2764692,30.2444248 28.2764692,29.1398553 L28.2759742,15.9728553 L21.7911878,22.4578671 C21.0101392,23.2389157 19.7438092,23.2389157 18.9627607,22.4578671 C18.1817121,21.6768185 18.1817121,20.4104886 18.9627607,19.62944 L28.7933888,9.79801537 C29.1593433,9.39378995 29.6882514,9.13985529 30.2764692,9.13985529 Z" id="形状结合"></path>
                    </g>
                </g>
            </g>
        </g>
    </g>
</svg>