<?xml version="1.0" encoding="UTF-8"?>
<svg width="70px" height="73px" viewBox="0 0 70 73" version="1.1" xmlns="http://www.w3.org/2000/svg" xmlns:xlink="http://www.w3.org/1999/xlink">
    <title>编组 5</title>
    <g id="页面-1" stroke="none" stroke-width="1" fill="none" fill-rule="evenodd">
        <g id="下单寄件-批量下单" transform="translate(-1085.000000, -231.000000)">
            <g id="内容卡片备份-4" transform="translate(808.000000, 121.000000)">
                <g id="编组-5" transform="translate(277.000000, 110.000000)">
                    <path d="M60,0 C63.3137085,0 66,2.6862915 66,6 L66,23 L62,23 L62,6 C62,4.9456382 61.1841222,4.08183488 60.1492623,4.00548574 L60,4 L10,4 C8.9456382,4 8.08183488,4.81587779 8.00548574,5.85073766 L8,6 L8,64 C8,65.0543618 8.81587779,65.9181651 9.85073766,65.9945143 L10,66 L33,66 L33,70 L10,70 C6.6862915,70 4,67.3137085 4,64 L4,6 C4,2.6862915 6.6862915,0 10,0 L60,0 Z M29,43 C30.1045695,43 31,43.8954305 31,45 C31,46.1045695 30.1045695,47 29,47 L19,47 C17.8954305,47 17,46.1045695 17,45 C17,43.8954305 17.8954305,43 19,43 L29,43 Z M35,31 C36.1045695,31 37,31.8954305 37,33 C37,34.1045695 36.1045695,35 35,35 L19,35 C17.8954305,35 17,34.1045695 17,33 C17,31.8954305 17.8954305,31 19,31 L35,31 Z M43,19 C44.1045695,19 45,19.8954305 45,21 C45,22.1045695 44.1045695,23 43,23 L19,23 C17.8954305,23 17,22.1045695 17,21 C17,19.8954305 17.8954305,19 19,19 L43,19 Z" id="形状结合" fill="#D99825" fill-rule="nonzero"></path>
                    <path d="M56.5816863,29.3795712 C56.8578286,29.3795712 57.1078286,29.4915 57.2887931,29.6724644 C57.4697575,29.8534288 57.5816863,30.1034288 57.5816863,30.3795712 L57.5816863,30.3795712 L57.5816863,64.7837678 C57.5816855,65.0281194 57.4922198,65.2640155 57.3301805,65.4469119 C54.8125252,68.2886299 53.2809618,70.3795712 52.5816863,70.3795712 C51.8824113,70.3795712 50.3508501,68.2886325 47.8331838,65.4469027 C47.6711472,65.2640134 47.5816863,65.0281237 47.5816863,64.7837797 L47.5816863,64.7837797 L47.5816863,30.3795712 C47.5816863,30.1034288 47.6936151,29.8534288 47.8745795,29.6724644 C48.0555439,29.4915 48.3055439,29.3795712 48.5816863,29.3795712 L48.5816863,29.3795712 Z" id="矩形" stroke="#D99825" stroke-width="4" transform="translate(52.581686, 49.879571) rotate(-330.000000) translate(-52.581686, -49.879571) "></path>
                    <rect id="矩形" fill="#D99825" transform="translate(58.331686, 39.920279) rotate(-330.000000) translate(-58.331686, -39.920279) " x="51.3316863" y="37.920279" width="14" height="4"></rect>
                </g>
            </g>
        </g>
    </g>
</svg>