<?xml version="1.0" encoding="UTF-8"?>
<svg width="16px" height="16px" viewBox="0 0 16 16" version="1.1" xmlns="http://www.w3.org/2000/svg" xmlns:xlink="http://www.w3.org/1999/xlink">
    <g id="偏好设置" stroke="none" stroke-width="1" fill="none" fill-rule="evenodd">
        <g id="运单管理-运单详情-待揽件-本人签收-寄方已经设置-可修改-保存提示" transform="translate(-917.000000, -19.000000)">
            <g id="编组-33" transform="translate(901.000000, 0.000000)">
                <g id="icon-delete-normal" transform="translate(16.000000, 19.000000)">
                    <rect id="Rectangle-10" fill="#D8D8D8" opacity="0" x="0" y="0" width="16" height="16"></rect>
                    <path d="M12.8724679,12.8737969 L12.8724679,12.8737969 C12.7042197,13.0420677 12.4309846,13.0420677 12.2627364,12.8737969 L8,8.61048664 L3.73591763,12.8737969 C3.56766943,13.0420677 3.29443435,13.0420677 3.12618615,12.8737969 L3.12618615,12.8737969 C2.95793795,12.705526 2.95793795,12.4322542 3.12618615,12.2639833 L7.39026852,8.00067308 L3.12753214,3.73601669 C2.95928394,3.56774584 2.95928394,3.29447399 3.12753214,3.12620314 L3.12753214,3.12620314 C3.29578034,2.95793229 3.56901541,2.95793229 3.73726361,3.12620314 L8,7.39085953 L12.2640824,3.1275493 C12.4323306,2.95927845 12.7055657,2.95927845 12.8738139,3.1275493 L12.8738139,3.1275493 C13.042062,3.29582015 13.042062,3.56909201 12.8738139,3.73736286 L8.60973148,8.00067308 L12.8724679,12.2653295 C13.0407161,12.4336003 13.0407161,12.705526 12.8724679,12.8737969 L12.8724679,12.8737969 Z" id="Shape" fill="#666666"></path>
                </g>
            </g>
        </g>
    </g>
</svg>