<?xml version="1.0" encoding="UTF-8"?>
<svg width="18px" height="19px" viewBox="0 0 18 19" version="1.1" xmlns="http://www.w3.org/2000/svg" xmlns:xlink="http://www.w3.org/1999/xlink">
    <title>气泡</title>
    <defs>
        <path d="M12.3411928,0.659349244 C13.4007673,1.09466839 14.3671503,1.73041307 15.1892779,2.52828541 C16.007695,3.32878831 16.6658474,4.27810488 17.1284269,5.32530669 C17.6109801,6.41041307 17.8650226,7.58232797 17.8726822,8.76956201 C17.8959524,9.89227476 17.690958,11.0080177 17.270129,12.0491365 C16.865964,13.0561294 16.2810197,13.9807048 15.5441715,14.7772216 C14.8004293,15.5765449 13.9203125,16.2370647 12.9450226,16.7278599 C11.936512,17.2397748 10.8424694,17.5627535 9.71778856,17.6814769 C9.02281122,17.7662797 8.32485998,17.8246198 7.62544814,17.8563705 C6.83012899,17.895945 5.80246941,17.8525407 4.53991622,17.7274344 C3.92204388,17.6763705 3.30800133,17.5984982 2.69651197,17.4912641 C2.26367376,17.416517 1.8343245,17.3228098 1.40970346,17.2104131 C1.16272946,17.1483296 0.98011266,17.0791595 0.747094476,16.9764315 C0.605392348,16.9062187 0.517083973,16.562374 0.851095297,16.4879119 C1.62471232,16.3474864 1.95435498,16.4184076 2.41009966,16.1681949 C2.67818476,16.0111736 2.79225665,15.8738173 2.74502261,15.5993492 C2.69026553,15.3100472 2.55022006,15.0437385 2.34289495,14.8346684 C1.64765098,14.0540111 1.08489042,13.1648063 0.676937499,12.202328 C0.236388934,11.1688251 0.00678797747,10.0577127 0.00161835055,8.93424286 C-0.021522787,7.7492167 0.203736513,6.57247604 0.662894946,5.47977478 C1.55612811,3.33864883 3.2533596,1.63316723 5.39012899,0.72956201 C6.48813342,0.25714278 7.66972654,0.00971145168 8.86502261,0.00190243554 C10.0577702,-0.0232603247 11.2409826,0.201471793 12.3411928,0.659349244 Z" id="path-1"></path>
        <filter x="-67.9%" y="-50.7%" width="235.8%" height="201.3%" filterUnits="objectBoundingBox" id="filter-3">
            <feGaussianBlur stdDeviation="4" in="SourceGraphic"></feGaussianBlur>
        </filter>
    </defs>
    <g id="网点查询" stroke="none" stroke-width="1" fill="none" fill-rule="evenodd">
        <g id="下单寄件-地址选择备份-7" transform="translate(-196.000000, -562.000000)">
            <g id="编组-24" transform="translate(176.000000, 539.000000)">
                <g id="气泡" transform="translate(20.000000, 23.000000)">
                    <g id="形状-2" transform="translate(0.003368, 0.016887)">
                        <mask id="mask-2" fill="white">
                            <use xlink:href="#path-1"></use>
                        </mask>
                        <use id="形状" fill="#8365F6" fill-rule="nonzero" xlink:href="#path-1"></use>
                        <path d="M6.29775077,-0.0168874581 C10.0202496,1.62770475 12.2532099,4.0388528 12.9966316,7.2165567 C14.1117643,11.9831125 11.3551887,17.0168875 9.11176428,18 C7.616148,18.6554084 10.5788932,18.6122561 18,17.8705434 L23.9742099,8.48311254 L17.2355785,-2.66824467 L14.1117643,-5.22685911 L6.29775077,-0.0168874581 Z" id="路径-3" fill="#EEB5FF" filter="url(#filter-3)" mask="url(#mask-2)"></path>
                    </g>
                    <path d="M9,6 L9.13835721,6 C9.64477172,6.00000539 10.0712442,6.37857678 10.1312961,6.88141814 C10.1972755,7.43389366 10.2302653,7.97342095 10.2302653,8.5 C10.2302653,9.02656893 10.1972768,9.5660856 10.1312999,10.11855 C10.071277,10.6214139 9.64478885,11 9.13835541,11 L9,11 C8.51121855,11 8.1149829,10.6037643 8.1149829,10.1149829 C8.1149829,10.0824566 8.11677601,10.0499551 8.12034065,10.0176248 C8.19362373,9.35549058 8.23026527,8.84961565 8.23026527,8.5 C8.23026527,8.15038435 8.19362373,7.64450942 8.12034065,6.98237522 C8.06658549,6.49655871 8.41682833,6.05913976 8.90264336,6.00537118 C8.93497222,6.00179311 8.96747374,6 9,6 Z" id="矩形" fill="#FFFFFF"></path>
                    <path d="M14,6 L14.1383572,6 C14.6447717,6.00000539 15.0712442,6.37857678 15.1312961,6.88141814 C15.1972755,7.43389366 15.2302653,7.97342095 15.2302653,8.5 C15.2302653,9.02656893 15.1972768,9.5660856 15.1312999,10.11855 C15.071277,10.6214139 14.6447888,11 14.1383554,11 L14,11 C13.5112186,11 13.1149829,10.6037643 13.1149829,10.1149829 C13.1149829,10.0824566 13.116776,10.0499551 13.1203406,10.0176248 C13.1936237,9.35549058 13.2302653,8.84961565 13.2302653,8.5 C13.2302653,8.15038435 13.1936237,7.64450942 13.1203406,6.98237522 C13.0665855,6.49655871 13.4168283,6.05913976 13.9026434,6.00537118 C13.9349722,6.00179311 13.9674737,6 14,6 Z" id="矩形备份-6" fill="#FFFFFF"></path>
                </g>
            </g>
        </g>
    </g>
</svg>