<svg width="48" height="48" xmlns="http://www.w3.org/2000/svg"><g fill="none" fill-rule="evenodd"><rect fill="#ECE9FF" width="48" height="48" rx="6"/><path d="M36.188 13.015H12.506a1.479 1.479 0 00-1.48 1.483v3.575c0 .393-.184 1.89.433 1.92.271.013.946-.024 1.425-.024l.02 13.744c0 .891.283 2.062 1.099 2.062H34.67c.815 0 1.1-.733 1.1-1.636l.038-14.17c1.21 0 1.797-.514 1.859-1.896v-3.575c0-.82-.663-1.483-1.48-1.483zm-2.354 20.867H14.839l-.094-13.909h19.203l-.114 13.909zm1.981-15.817H12.878v-3.163h22.937v3.163zM23.196 29.459h5.4c.56 0 1.013-.425 1.013-.949s-.453-.948-1.012-.948h-4.388v-3.48c0-.523-.453-.948-1.013-.948-.559 0-1.012.425-1.012.949v4.427c0 .524.453.95 1.012.95z" fill="#8365F6" fill-rule="nonzero"/></g></svg>