<?xml version="1.0" encoding="UTF-8"?>
<svg width="52px" height="52px" viewBox="0 0 52 52" version="1.1" xmlns="http://www.w3.org/2000/svg" xmlns:xlink="http://www.w3.org/1999/xlink">
    <title>编组 11</title>
    <g id="我的账单" stroke="none" stroke-width="1" fill="none" fill-rule="evenodd">
        <g id="我的账单-未对账" transform="translate(-726.000000, -143.000000)">
            <g id="筛选展开" transform="translate(176.000000, 74.000000)">
                <g id="编组-3" transform="translate(20.000000, 69.000000)">
                    <g id="编组-11" transform="translate(530.000000, 0.000000)">
                        <circle id="椭圆形备份-2" fill="#FBF4E8" cx="26" cy="26" r="26"></circle>
                        <g id="税务" transform="translate(16.000000, 16.000000)" fill="#FFB73B" fill-rule="nonzero">
                            <path d="M6.51475044,0.681428246 C9.7424745,-0.685948013 13.4771984,0.0442926583 15.9521836,2.52670455 C17.5686207,4.14009087 18.4763194,6.33057448 18.4748218,8.61440508 C18.4760743,9.70131532 18.2963131,10.7808465 17.9429144,11.808701 C17.6520053,12.6357955 17.2512923,13.3744764 16.7707219,13.9762589 L16.7707219,13.9762589 L16.8748218,14.0119095 C17.2156417,14.1259915 17.5094029,14.2215352 17.7261587,14.3056707 L17.7261587,14.3056707 L17.7703654,14.324209 C18.2010249,14.4910539 18.5732175,14.6365085 18.8783868,14.8418561 L18.8783868,14.8418561 C19.3290107,15.1513035 19.5571747,15.5534425 19.5571747,16.0439951 C19.5571747,16.3021056 19.5528966,16.5274176 19.5500446,16.7912322 C19.5414884,17.124922 19.5357843,17.5013926 19.5357843,18.0489862 C19.5357843,18.4796457 19.4801693,19.0985405 19.0095811,19.5177919 C18.6088681,19.8742981 18.0798128,19.921357 17.6634135,19.921357 L17.6634135,19.921357 L10.1126114,19.921357 C8.00209448,19.921357 6.45343138,19.5306261 5.09300357,18.6550468 C4.37999108,18.1972928 3.21492871,17.3231395 2.21671123,16.4005013 C0.836319059,15.1299131 0.120454545,14.1060272 0.0206327916,13.2675245 C-0.0349821608,12.779824 0.0420231868,12.3120878 0.241666674,11.9170789 C0.429901947,11.5477384 0.720811038,11.2496992 1.08587343,11.0500557 C1.41982496,10.8678189 1.79851824,10.7837747 2.17820856,10.8076315 C2.5683251,10.8302521 2.94146399,10.9749182 3.24487523,11.2211787 C3.54148841,11.469307 3.8552139,11.7915887 4.22170231,12.1623552 C4.87482173,12.8268828 5.68480391,13.6539773 6.66448306,14.2999666 C7.76822637,15.0300913 9.25271835,15.2682375 10.3436274,15.3381127 C10.1168895,15.0857063 9.91296791,14.7876671 9.78462567,14.4354389 C9.64630126,14.0561163 9.62205882,13.6668115 9.71332443,13.3060272 C9.80459001,12.9381127 10.0113636,12.6172571 10.3108289,12.379111 C10.7001337,12.0710896 11.2020945,11.9284871 11.7682264,11.9669897 C12.3300802,12.0069184 12.9176025,12.2208222 13.515107,12.6029969 C14.0498663,12.949521 14.7357843,13.2475602 15.40459,13.5013926 C15.4209188,13.4799026 15.438539,13.4594251 15.4573529,13.4400735 C16.489795,12.3677027 17.1315062,10.5181484 17.1315062,8.61297905 C17.1357677,6.68415774 16.3686776,4.83369396 15.001025,3.47358512 C13.6291889,2.09889706 11.803877,1.34310384 9.86020498,1.34310384 C7.93138368,1.33884234 6.0809199,2.10593249 4.72081106,3.47358512 C3.34612299,4.84542112 2.59032978,6.67073306 2.59032978,8.61297905 C2.58903023,8.93737381 2.61526819,9.26129351 2.66876113,9.58125 C2.71112751,9.9397299 2.46137864,10.2671471 2.10445146,10.321052 C1.74752427,10.3749568 1.41222326,10.1358967 1.346836,9.78089349 C1.28836898,9.39586675 1.25557042,9.07928921 1.25557042,8.61440508 C1.25331575,6.33028549 2.16051821,4.13924785 3.77678252,2.52527851 C4.56170596,1.73949898 5.49151356,1.11333168 6.51475044,0.681428246 Z M2.04986631,12.1409648 C1.93502685,12.1423943 1.82233452,12.1722823 1.72188058,12.2279523 C1.55360963,12.3192179 1.27981283,12.554512 1.346836,13.1135138 C1.36965241,13.2903409 1.55931373,13.979111 3.11938503,15.4208222 C4.05628342,16.2821413 5.17286096,17.1192179 5.81457219,17.5327651 C6.946836,18.2586119 8.27303921,18.5837456 10.1126114,18.5837456 L10.1126114,18.5837456 L17.6634135,18.5837456 C18.0441622,18.5837456 18.1211676,18.5210004 18.1225936,18.5210004 C18.1225936,18.5181484 18.1981729,18.4354389 18.1981729,18.0504122 C18.1981729,17.4885584 18.205303,17.1049577 18.2124332,16.7669897 C18.2167112,16.5103053 18.2209893,16.2892714 18.2167112,16.039717 L18.2167112,16.039717 L18.2167112,16.0268828 C18.2095811,16.0154746 18.1696524,15.9612857 18.0070856,15.8742981 C17.8245544,15.7744764 17.575,15.6760807 17.2855169,15.5648507 L17.2855169,15.5648507 L17.2398841,15.5477384 C17.0573529,15.4764372 16.7792781,15.3851716 16.4555704,15.2782197 C15.4373886,14.9416778 13.8972816,14.4325869 12.7992424,13.7267045 C12.2402406,13.3687723 11.5143939,13.1363302 11.1507576,13.4258133 C10.94541,13.5912322 10.9995989,13.8479167 11.0480838,13.9876671 C11.1906863,14.3841021 11.632754,14.7334782 11.9564617,14.9901627 C12.089082,15.0971145 12.20459,15.1883801 12.2987077,15.2810718 C12.6509358,15.6318739 12.6081551,15.9655637 12.5525401,16.1366867 C12.5040553,16.2864193 12.3571747,16.554512 11.9436274,16.6500557 C11.7855247,16.6826599 11.6244863,16.6989071 11.463057,16.6985405 C10.1710784,16.7327651 7.73257574,16.607275 5.93293226,15.4208222 C4.83346702,14.6978275 3.96786986,13.8136921 3.27196969,13.1049577 C2.9340018,12.7598596 2.64166667,12.4618204 2.39353833,12.2550468 C2.29545173,12.1787362 2.17411607,12.1384588 2.04986631,12.1409648 Z M12.4455882,3.63044786 L13.3012032,3.89711453 C13.1232353,4.30438725 12.9279269,4.73356371 12.7335312,5.1130917 L12.5881907,5.3873106 L13.5065508,5.3873106 L13.5065508,8.28071524 L12.4370321,8.28071524 L12.4370321,10.6878454 C12.4370321,10.8987188 12.4566845,10.9447304 12.5695493,10.9529384 L12.6238413,10.954512 L13.0958556,10.954512 C13.2655526,10.954512 13.2926471,10.8119095 13.3183155,9.85932487 C13.4794563,9.99194519 13.800312,10.1174354 13.9956774,10.1801805 C13.9377649,11.2980256 13.7590144,11.6399635 13.2660145,11.6745065 L13.175713,11.6775067 L12.4983512,11.6775067 C11.8726827,11.6775067 11.6994708,11.4732119 11.6802633,10.8307957 L11.6783868,10.6964015 L11.6783868,8.28071524 L11.0537879,8.28071524 C10.9211676,9.84934271 10.5546791,11.124209 9.01457219,11.8286653 C8.93970588,11.6575423 8.76680036,11.418089 8.60808906,11.2605 L8.51730124,11.1784479 L8.70267524,11.0962501 C9.84251556,10.5461688 10.1237527,9.60464091 10.2445091,8.46388778 L10.262344,8.28214127 L9.37107844,8.28214127 L9.37107844,5.38588459 L10.3878342,5.38588459 C10.271715,5.03508244 10.0330159,4.55227113 9.77590737,4.14130155 L9.64630124,3.94274733 L10.3422014,3.64756016 C10.6229501,4.05308601 10.924443,4.5754345 11.0842747,4.97959559 L11.1436274,5.14488636 L10.6003119,5.38588459 L11.7411319,5.38588459 C12.0201434,4.81945728 12.2556422,4.23261711 12.4455882,3.63044786 Z M8.62384135,3.68178476 L9.1058378,4.35201648 C8.86710106,4.44151071 8.62446897,4.52004631 8.37870293,4.58739587 L8.00779857,4.68000224 L8.00779857,6.14167781 L9.13863636,6.14167781 L9.13863636,6.90887924 L8.00637256,6.90887924 L8.00637256,7.0956885 C8.22546185,7.29792477 8.87942981,7.96450305 9.12294688,8.24473678 L9.18284314,8.31636587 L8.71938503,8.97661541 C8.60571047,8.75537784 8.36002674,8.38955878 8.12332323,8.05337444 L8.00637256,7.88855838 L8.00637256,11.8015709 L7.20494652,11.8015709 L7.20494652,8.1923017 C6.87553476,9.01226604 6.46483957,9.80513592 6.06412657,10.3128008 L6.06430124,10.3104479 L5.9994991,10.1579915 C5.922836,9.9940557 5.81896435,9.80855837 5.72946702,9.65386318 L5.64630124,9.51137477 C6.11688948,8.96818891 6.6228337,8.04197981 6.9659261,7.1688047 L7.06377005,6.90887924 L5.82455437,6.90887924 L5.82455437,6.14167781 L7.20494652,6.14167781 L7.20494652,4.85825535 C6.82277183,4.92955659 6.4491533,4.99372771 6.09264706,5.03650846 C6.05699643,4.85112521 5.95004456,4.58303252 5.85164883,4.39479723 C6.82277183,4.23508245 7.93649733,3.97697193 8.62384135,3.68178476 Z M12.6851604,6.10602718 L10.1553921,6.10602718 L10.1553921,7.55059047 L12.6851604,7.55059047 L12.6851604,6.10602718 Z" id="形状结合"></path>
                        </g>
                    </g>
                </g>
            </g>
        </g>
    </g>
</svg>