<svg width="48" height="48" xmlns="http://www.w3.org/2000/svg"><g fill="none" fill-rule="evenodd"><rect fill="#ECE9FF" width="48" height="48" rx="6"/><path d="M29.754 13v5.338h4.12L39 24.202v8.675h-2.511a3.62 3.62 0 01-3.422 2.409 3.62 3.62 0 01-3.422-2.409H23.2a3.621 3.621 0 01-3.421 2.409A3.632 3.632 0 0116.3 32.7h-4.898v-2.672c0-.562.46-1.017 1.029-1.018a1.024 1.024 0 011.028 1.018v.676h2.84a3.631 3.631 0 013.48-2.587c1.667 0 3.143 1.16 3.526 2.762h4.43V14.997H13.968v1.815h5.552c.594.002 1.077.452 1.077 1.004 0 .554-.483 1.004-1.075 1.004h-9.447C9.482 18.82 9 18.37 9 17.816s.482-1.004 1.075-1.004h1.874V13h17.805zm3.313 16.984a1.73 1.73 0 00-1.739 1.719c0 .947.78 1.717 1.739 1.717a1.73 1.73 0 001.738-1.717 1.733 1.733 0 00-1.738-1.719zm-13.289 0a1.73 1.73 0 00-1.736 1.719c0 .947.779 1.717 1.736 1.717.958 0 1.736-.77 1.736-1.717a1.731 1.731 0 00-1.736-1.719zm13.173-9.65h-3.197v9.922a3.634 3.634 0 016.84.624h.387v-5.935l-4.03-4.61zm-11.455 5.071c.7 0 1.27.486 1.27 1.083s-.569 1.083-1.268 1.083h-11.23c-.698 0-1.267-.485-1.267-1.083 0-.597.568-1.083 1.268-1.083zm12.257-2.172l1.818 2.37h-4.044v-2.37h2.226zm-14.035-2.519c.605 0 1.098.486 1.098 1.083a1.09 1.09 0 01-1.096 1.083h-9.625A1.09 1.09 0 019 21.797a1.09 1.09 0 011.095-1.083z" fill="#8365F6" fill-rule="nonzero"/></g></svg>