<svg width="16" height="16" xmlns="http://www.w3.org/2000/svg"><path d="M13 0a2 2 0 012 2v4h-1V2a1 1 0 00-.883-.993L13 1H7v3.5a.5.5 0 01-.41.492L6.5 5H2v9a1 1 0 00.883.993L3 15h3v1H3a2 2 0 01-2-2V4.828a2 2 0 01.012-.22.498.498 0 01.09-.41 2 2 0 01.484-.784L4.414.586A2 2 0 015.828 0H13zm-2 6a5 5 0 110 10 5 5 0 010-10zm0 1a4 4 0 100 8 4 4 0 000-8zm0 1.5a.5.5 0 01.5.5v1.5H13a.5.5 0 110 1h-1.501L11.5 13a.5.5 0 11-1 0l-.001-1.5H9a.5.5 0 110-1h1.5V9a.5.5 0 01.5-.5zM6 1h-.172a1 1 0 00-.608.206l-.099.087L2.413 4H6V1z" fill="#8365F6"/></svg>