<?xml version="1.0" encoding="UTF-8"?>
<svg width="52px" height="52px" viewBox="0 0 52 52" version="1.1" xmlns="http://www.w3.org/2000/svg" xmlns:xlink="http://www.w3.org/1999/xlink">
    <title>编组 18</title>
    <g id="我的账单" stroke="none" stroke-width="1" fill="none" fill-rule="evenodd">
        <g id="我的账单-未对账" transform="translate(-461.000000, -143.000000)">
            <g id="筛选展开" transform="translate(176.000000, 74.000000)">
                <g id="编组-3" transform="translate(20.000000, 69.000000)">
                    <g id="编组-18" transform="translate(265.000000, 0.000000)">
                        <circle id="椭圆形备份" fill="#E8F5FD" cx="26" cy="26" r="26"></circle>
                        <g id="编组-8" transform="translate(16.000000, 16.000000)">
                            <circle id="椭圆形" stroke="#65C8FF" stroke-width="1.5" cx="10" cy="10" r="9.25"></circle>
                            <path d="M12.7496556,4.97148699 C13.015907,4.65418099 13.4889736,4.61279302 13.8062796,4.87904436 C14.1235856,5.14529571 14.1649736,5.6183624 13.8987223,5.9356684 L13.8987223,5.9356684 L12.130523,8.04156023 L13.306523,8.04243296 C13.7207366,8.04243296 14.056523,8.3782194 14.056523,8.79243296 C14.056523,9.20664652 13.7207366,9.54243296 13.306523,9.54243296 L10.8182168,9.54371499 C10.8142738,9.5460861 10.8103126,9.54841834 10.8063339,9.55071167 L10.805523,11.0415602 L13.306523,11.042433 C13.7207366,11.042433 14.056523,11.3782194 14.056523,11.792433 C14.056523,12.2066465 13.7207366,12.542433 13.306523,12.542433 L10.805523,12.5415602 L10.806523,14.5464398 C10.806523,14.9606533 10.4707366,15.2964398 10.056523,15.2964398 C9.64230945,15.2964398 9.30652301,14.9606533 9.30652301,14.5464398 L9.30552301,12.5415602 L6.80652301,12.542433 C6.39230945,12.542433 6.05652301,12.2066465 6.05652301,11.792433 C6.05652301,11.3782194 6.39230945,11.042433 6.80652301,11.042433 L9.30552301,11.0415602 L9.30652301,9.54243296 L6.80652301,9.54243296 C6.39230945,9.54243296 6.05652301,9.20664652 6.05652301,8.79243296 C6.05652301,8.3782194 6.39230945,8.04243296 6.80652301,8.04243296 L8.24952301,8.04156023 L6.48209071,5.9356684 C6.21583936,5.6183624 6.25722733,5.14529571 6.57453333,4.87904436 C6.89183933,4.61279302 7.36490603,4.65418099 7.63115737,4.97148699 L10.190523,8.02056023 Z" id="形状结合" fill="#65C8FF"></path>
                        </g>
                    </g>
                </g>
            </g>
        </g>
    </g>
</svg>