<svg width="16" height="16" xmlns="http://www.w3.org/2000/svg"><g fill="none" fill-rule="evenodd"><path d="M11.764 1.5a1.499 1.499 0 011.342.83h0l1.29 2.58L14.5 13c0 .414-.168.79-.44 1.06-.27.272-.646.44-1.06.44h0H3c-.414 0-.79-.168-1.06-.44A1.495 1.495 0 011.5 13h0V5.346l1.398-3.023A1.499 1.499 0 014.236 1.5h0z" stroke="#8365F6"/><rect fill="#8365F6" x="3" y="12" width="3" height="1" rx=".5"/><rect fill="#8365F6" x="1" y="5" width="14" height="1" rx=".5"/><path d="M9.5 5.5v3.251l-1.56-.553-1.062.663L6.551 5.5H9.5z" stroke="#8365F6"/></g></svg>