<svg width="15" height="18" xmlns="http://www.w3.org/2000/svg"><defs><linearGradient x1="0%" y1="45.28%" x2="100%" y2="45.28%" id="a"><stop stop-color="#FFFEFA" offset="0%"/><stop stop-color="#FFF5DF" offset="100%"/></linearGradient></defs><g fill="none"><path d="M6.831 17.827c.415.142.868.142 1.283 0 2.833-.972 3.857-1.766 3.857-1.766 2.944-2.008 2.97-4.644 2.97-4.644V3.095a.78.78 0 00-.74-.774C12.112 2.247 9.033.712 7.906.111a.918.918 0 00-.866 0c-1.13.6-4.207 2.136-6.298 2.21a.78.78 0 00-.74.774v8.322s.026 2.636 2.97 4.644c.002 0 1.026.794 3.859 1.766z" fill="url(#a)"/><path d="M6.937 16.32c.346.118.725.118 1.071 0 2.366-.811 3.221-1.475 3.221-1.475 2.459-1.676 2.481-3.88 2.481-3.88V4.11a.652.652 0 00-.617-.645C11.348 3.404 8.776 2.12 7.836 1.62a.768.768 0 00-.723 0c-.94.5-3.512 1.784-5.257 1.845a.65.65 0 00-.617.645v6.857s.022 2.203 2.48 3.879c-.003 0 .852.664 3.218 1.474z" fill="#FDB209"/><path d="M7.473 1.528a.758.758 0 00-.362.09c-.94.501-3.512 1.785-5.257 1.846a.65.65 0 00-.617.645v6.857s.022 2.203 2.48 3.879c0 0 .856.664 3.222 1.474.172.06.354.09.535.09V1.527h-.001z" fill="#FFCA52"/><path d="M6.924 10.727a.553.553 0 01-.392-.162L4.58 8.611a.552.552 0 010-.782.552.552 0 01.782 0l1.562 1.56 3.156-3.155a.552.552 0 01.782 0 .552.552 0 010 .782l-3.547 3.548a.544.544 0 01-.391.163z" fill="#FFF"/></g></svg>