<?xml version="1.0" encoding="UTF-8"?>
<svg width="144px" height="144px" viewBox="0 0 144 144" version="1.1" xmlns="http://www.w3.org/2000/svg" xmlns:xlink="http://www.w3.org/1999/xlink">
    <title>编组 2</title>
    <defs>
        <circle id="path-1" cx="56" cy="56" r="56"></circle>
        <filter x="-24.1%" y="-18.8%" width="148.2%" height="148.2%" filterUnits="objectBoundingBox" id="filter-3">
            <feOffset dx="0" dy="6" in="SourceAlpha" result="shadowOffsetOuter1"></feOffset>
            <feGaussianBlur stdDeviation="8" in="shadowOffsetOuter1" result="shadowBlurOuter1"></feGaussianBlur>
            <feColorMatrix values="0 0 0 0 0.595668134   0 0 0 0 0.545800783   0 0 0 0 0.786826313  0 0 0 0.278354458 0" type="matrix" in="shadowBlurOuter1"></feColorMatrix>
        </filter>
        <circle id="path-4" cx="56" cy="56" r="48"></circle>
        <filter x="-26.6%" y="-20.3%" width="153.1%" height="153.1%" filterUnits="objectBoundingBox" id="filter-5">
            <feOffset dx="0" dy="6" in="SourceAlpha" result="shadowOffsetOuter1"></feOffset>
            <feGaussianBlur stdDeviation="7.5" in="shadowOffsetOuter1" result="shadowBlurOuter1"></feGaussianBlur>
            <feColorMatrix values="0 0 0 0 0.51372549   0 0 0 0 0.396078431   0 0 0 0 0.964705882  0 0 0 0.119400131 0" type="matrix" in="shadowBlurOuter1"></feColorMatrix>
        </filter>
        <filter x="-15.5%" y="-24.3%" width="131.0%" height="148.7%" filterUnits="objectBoundingBox" id="filter-6">
            <feGaussianBlur stdDeviation="3" in="SourceGraphic"></feGaussianBlur>
        </filter>
        <filter x="-30.0%" y="-49.3%" width="160.0%" height="198.6%" filterUnits="objectBoundingBox" id="filter-7">
            <feGaussianBlur stdDeviation="3" in="SourceGraphic"></feGaussianBlur>
        </filter>
        <path d="M63,0 C67.418278,2.22441625e-15 71,3.581722 71,8 L71,85 L16,85 C11.581722,85 8,81.418278 8,77 L8,8 L0,8 L0,0 L63,0 Z" id="path-8"></path>
        <filter x="-23.4%" y="-96.8%" width="146.9%" height="293.5%" filterUnits="objectBoundingBox" id="filter-10">
            <feGaussianBlur stdDeviation="10" in="SourceGraphic"></feGaussianBlur>
        </filter>
        <filter x="-7.0%" y="-36.0%" width="114.1%" height="172.0%" filterUnits="objectBoundingBox" id="filter-11">
            <feGaussianBlur stdDeviation="3" in="SourceGraphic"></feGaussianBlur>
        </filter>
        <filter x="-11.1%" y="-112.5%" width="122.2%" height="325.0%" filterUnits="objectBoundingBox" id="filter-12">
            <feGaussianBlur stdDeviation="3" in="SourceGraphic"></feGaussianBlur>
        </filter>
        <filter x="-30.6%" y="-80.2%" width="161.3%" height="260.4%" filterUnits="objectBoundingBox" id="filter-13">
            <feGaussianBlur stdDeviation="10" in="SourceGraphic"></feGaussianBlur>
        </filter>
        <linearGradient x1="50%" y1="0%" x2="50%" y2="100%" id="linearGradient-14">
            <stop stop-color="#D2C3FF" offset="0%"></stop>
            <stop stop-color="#F4F1FF" offset="100%"></stop>
        </linearGradient>
        <path d="M-5.54223334e-13,16.8624923 C2.86247144,19.8498034 14.2942838,21.5733104 34.295437,22.0330135 C54.2965902,22.4927166 65.667479,19.0003922 68.4081035,11.5560402 C69.3670776,8.08179852 69.8465646,4.22978511 69.8465646,1.27897692e-13 C39.3349154,1.27897692e-13 20.956676,0.131787682 14.7118464,0.395363046 C14.9945813,4.42255735 14.9945813,7.3725534 14.7118464,9.2453512 C14.4399677,11.0462391 14.086808,14.1248446 10.6244515,16.8624923 C8.02886788,18.9147922 4.48738404,18.9147922 -5.54223334e-13,16.8624923 Z" id="path-15"></path>
        <filter x="-30.0%" y="-100.0%" width="160.0%" height="300.0%" filterUnits="objectBoundingBox" id="filter-17">
            <feGaussianBlur stdDeviation="10" in="SourceGraphic"></feGaussianBlur>
        </filter>
        <filter x="-7.0%" y="-23.8%" width="114.1%" height="147.5%" filterUnits="objectBoundingBox" id="filter-18">
            <feGaussianBlur stdDeviation="2" in="SourceGraphic"></feGaussianBlur>
        </filter>
    </defs>
    <g id="下单" stroke="none" stroke-width="1" fill="none" fill-rule="evenodd">
        <g id="下单寄件-地址校正提示备份" transform="translate(-645.000000, -272.000000)">
            <g id="Group-3-Copy-2" transform="translate(540.000000, 251.000000)">
                <g id="编组-2" transform="translate(105.000000, 21.000000)">
                    <g id="椭圆形-2" transform="translate(16.000000, 10.000000)">
                        <mask id="mask-2" fill="white">
                            <use xlink:href="#path-1"></use>
                        </mask>
                        <g id="椭圆形">
                            <use fill="black" fill-opacity="1" filter="url(#filter-3)" xlink:href="#path-1"></use>
                            <use fill="#FFFFFF" fill-rule="evenodd" xlink:href="#path-1"></use>
                        </g>
                        <g id="椭圆形" mask="url(#mask-2)">
                            <use fill="black" fill-opacity="1" filter="url(#filter-5)" xlink:href="#path-4"></use>
                            <use fill="#8365F6" fill-rule="evenodd" xlink:href="#path-4"></use>
                        </g>
                        <path d="M23,63.0590578 C20.835232,86.4215426 22.29404,98.629371 27.376424,99.6825429 C35,101.262301 77.9276103,97.6104773 80,90.3275341 C81.3815931,85.4722386 71.6038154,79.3827465 50.6666667,72.0590578 L23,63.0590578 Z" id="路径-4" fill-opacity="0.452196241" fill="#261175" filter="url(#filter-6)" mask="url(#mask-2)"></path>
                        <polygon id="路径-5" fill-opacity="0.452196241" fill="#261175" opacity="0.40280878" filter="url(#filter-7)" mask="url(#mask-2)" points="10.5048155 24.95364 6 37.66875 33 36 36 21.9986436 21 19.4080302"></polygon>
                    </g>
                    <g id="编组" transform="translate(23.000000, 16.000000)">
                        <g id="形状结合-2" transform="translate(8.000000, 0.000000)">
                            <mask id="mask-9" fill="white">
                                <use xlink:href="#path-8"></use>
                            </mask>
                            <use id="形状结合" fill="#FFFFFF" xlink:href="#path-8"></use>
                            <rect id="矩形" fill="#EFEAFF" filter="url(#filter-10)" mask="url(#mask-9)" x="-36" y="-5" width="128" height="31"></rect>
                            <rect id="矩形" fill="#F4F0FF" filter="url(#filter-11)" mask="url(#mask-9)" x="-36" y="-19" width="128" height="25"></rect>
                            <rect id="矩形" fill="#FFFFFF" filter="url(#filter-12)" mask="url(#mask-9)" x="0" y="4" width="81" height="8"></rect>
                            <path d="M8,66.0590578 C10.6666667,78.8062201 17.3333333,85.6718637 28,86.6559887 C44,88.1321761 76.7598117,80.6559887 81,76.3575232 C85.2401883,72.0590578 91.1846301,80.7039035 83.7213162,86.6559887 C76.2580024,92.6080738 59.3417716,103.465164 53.8271358,103.465164 C50.1507119,103.465164 28.6524685,99.5922663 -10.6675946,91.8464704 C-4.80081076,78.4148214 -1.24494588,71.6989969 -3.55271368e-15,71.6989969 C1.24494588,71.6989969 3.91161254,69.8190172 8,66.0590578 Z" id="路径-3" fill="#F2EEFF" filter="url(#filter-13)" mask="url(#mask-9)"></path>
                            <rect id="矩形备份" fill="#C4EFD9" opacity="0.5" mask="url(#mask-9)" x="16" y="44" width="41" height="5" rx="1"></rect>
                            <rect id="矩形备份-2" fill="#C4EFD9" opacity="0.5" mask="url(#mask-9)" x="16" y="55" width="47" height="5" rx="1"></rect>
                        </g>
                        <path d="M8,0 C12.418278,-8.11624501e-16 16,3.581722 16,8 L16,26 L16,26 L0,26 L0,8 C-5.41083001e-16,3.581722 3.581722,8.11624501e-16 8,0 Z" id="矩形" fill="url(#linearGradient-14)"></path>
                        <g id="路径-45" transform="translate(18.605472, 66.059058)">
                            <mask id="mask-16" fill="white">
                                <use xlink:href="#path-15"></use>
                            </mask>
                            <use id="路径-44" fill="#E3DBFF" xlink:href="#path-15"></use>
                            <rect id="矩形" fill="#D1C3FF" filter="url(#filter-17)" mask="url(#mask-16)" x="-19" y="-24" width="100" height="30"></rect>
                            <path d="M7.10542736e-15,16.8624923 C15.7795209,18.9409422 28.3485301,19.6337588 37.7070277,18.9409422 C51.7447741,17.9017173 62.3945277,15.9768222 70.3945277,7.9884111 C78.3945277,3.41060513e-13 72.6181707,14.7840425 72.6181707,16.8624923 C72.6181707,18.9409422 60.3945277,30.8970134 60.3945277,30.8970134 C60.3945277,30.8970134 36.7278611,30.8970134 -10.6054723,30.8970134 L-6.60547228,18.9409422 L7.10542736e-15,16.8624923 Z" id="路径-2" fill="#FFFFFF" filter="url(#filter-18)" mask="url(#mask-16)"></path>
                        </g>
                    </g>
                    <g id="勾" transform="translate(51.000000, 26.000000)" fill="#41C381" fill-rule="nonzero">
                        <path d="M20,0 C8.954305,0 0,8.954305 0,20 C0,31.045695 8.954305,40 20,40 C31.045695,40 40,31.045695 40,20 C40,14.6956702 37.8928632,9.60859195 34.1421356,5.85786438 C30.3914081,2.10713681 25.3043298,0 20,0 Z M19.375,26.75 L17.9625,28.3375 L16.7125,26.725 L11.7125,20.5625 L13.425,18.75 L18.0125,22.7 L26.7625,15 L28.3125,16.65 L19.375,26.75 Z" id="形状"></path>
                    </g>
                </g>
            </g>
        </g>
    </g>
</svg>