<svg width="14" height="14" xmlns="http://www.w3.org/2000/svg"><g fill="none" fill-rule="evenodd"><path d="M7 .5a6.48 6.48 0 014.596 1.904A6.48 6.48 0 0113.5 7a6.48 6.48 0 01-1.904 4.596A6.48 6.48 0 017 13.5a6.48 6.48 0 01-4.596-1.904A6.48 6.48 0 01.5 7a6.48 6.48 0 011.904-4.596A6.48 6.48 0 017 .5z" stroke="#A5A5A5"/><path d="M7.383 8.923V8.67c0-.296.069-.56.218-.802.114-.198.286-.395.537-.604.504-.429.813-.715.927-.846.286-.363.435-.792.435-1.286 0-.66-.217-1.176-.64-1.55C8.412 3.187 7.83 3 7.096 3c-.824 0-1.464.242-1.922.725-.458.462-.675 1.077-.675 1.846h.904c0-.538.126-.956.377-1.263.275-.363.698-.539 1.27-.539.481 0 .859.121 1.122.385.251.242.389.582.389 1.022 0 .308-.115.593-.343.868-.07.088-.206.22-.39.396-.617.527-.995.945-1.155 1.274a2.112 2.112 0 00-.206.956v.253h.915zM6.926 11a.717.717 0 00.492-.187.595.595 0 00.206-.472.617.617 0 00-.195-.462.696.696 0 00-.503-.187.67.67 0 00-.492.187.578.578 0 00-.195.462c0 .186.057.34.195.472a.716.716 0 00.492.187z" fill="#A5A5A5" fill-rule="nonzero"/></g></svg>