<?xml version="1.0" encoding="UTF-8"?>
<svg width="20px" height="20px" viewBox="0 0 20 20" version="1.1" xmlns="http://www.w3.org/2000/svg" xmlns:xlink="http://www.w3.org/1999/xlink">
    <title>-mockplus-</title>
    <g id="0317多经停--PC官网" stroke="none" stroke-width="1" fill="none" fill-rule="evenodd">
        <g id="PC官网-多经停-详情" transform="translate(-198.000000, -240.000000)" fill="#7E61F2" fill-rule="nonzero">
            <g id="编组-3" transform="translate(198.000000, 240.000000)">
                <g id="寄" transform="translate(3.000000, 1.000000)">
                    <path d="M13.1800418,12.9056951 C13.7033167,13.4657835 14,14.1058905 14,14.7855943 C14,16.9947333 10.8659932,18.7855943 7,18.7855943 C3.13400675,18.7855943 0,16.9947333 0,14.7855943 C0,14.1079292 0.294906242,13.4696237 0.815383694,12.9102976 C1.02961034,13.1675513 1.25345519,13.4160574 1.483418,13.655494 C1.1712337,14.0150427 1,14.3998726 1,14.7855943 C1,16.2923984 3.61309267,17.7855943 7,17.7855943 C10.3869073,17.7855943 13,16.2923984 13,14.7855943 C13,14.3980685 12.8271607,14.0114428 12.5127703,13.6508866 C12.7409704,13.4112622 12.9650857,13.1625445 13.1800418,12.9056951 Z M7,-4.26325641e-14 C10.8659932,-4.26325641e-14 14,3.13400675 14,7 L13.9981819,7.35180017 L13.9854555,7.72135763 C13.9527303,8.29182081 13.8463735,8.94117568 13.500714,9.75474612 C12.1181148,13.0089364 8.09210098,15.7039806 7.07402246,15.8400485 L7,15.8454378 L6.92597754,15.8400485 C5.90789902,15.7039806 1.88188523,13.0089364 0.499285989,9.75474612 C0.153626458,8.94117568 0.0472696794,8.29182081 0.0145445167,7.72135763 L0.00181806459,7.35180017 L0,7 C0,3.21454828 3.00478338,0.130901317 6.75935025,0.0040590183 L7,-4.26325641e-14 Z M10.987,7.359 L3.022,7.359 L3.022,7.953 L8.881,7.953 L8.881,10.509 C8.881,10.725 8.755,10.833 8.503,10.833 C8.233,10.833 7.963,10.815 7.675,10.788 L7.81,11.4 L8.719,11.4 C9.241,11.4 9.511,11.157 9.511,10.671 L9.511,7.953 L10.987,7.953 L10.987,7.359 Z M7.666,8.529 L4.345,8.529 L4.345,10.563 L7.666,10.563 L7.666,8.529 Z M7.063,9.087 L7.063,10.005 L4.948,10.005 L4.948,9.087 L7.063,9.087 Z M7.405,4.65 L6.811,4.65 L6.811,5.019 L6.793,5.181 L4.309,5.181 L4.309,5.739 L6.559,5.739 C6.46,5.865 6.334,5.991 6.172,6.108 C5.74,6.378 4.975,6.594 3.895,6.756 L4.219,7.269 C5.326,7.08 6.127,6.819 6.613,6.477 C6.649,6.441 6.694,6.405 6.748,6.36 C7.693,6.585 8.611,6.891 9.511,7.287 L9.853,6.774 C9.025,6.45 8.116,6.18 7.126,5.946 C7.162,5.883 7.198,5.811 7.234,5.739 L9.691,5.739 L9.691,5.181 L7.387,5.181 C7.396,5.127 7.405,5.073 7.405,5.019 L7.405,4.65 Z M7.036,3.084 L6.352,3.192 C6.478,3.39 6.595,3.615 6.703,3.858 L3.301,3.858 L3.301,5.559 L3.913,5.559 L3.913,4.434 L10.087,4.434 L10.087,5.559 L10.699,5.559 L10.699,3.858 L7.36,3.858 C7.252,3.57 7.144,3.318 7.036,3.084 Z"></path>
                </g>
            </g>
        </g>
    </g>
</svg>