<svg width="50" height="50" xmlns="http://www.w3.org/2000/svg"><g fill="none" fill-rule="evenodd"><rect fill="#FFC979" width="50" height="50" rx="12"/><g fill="#FFF" fill-rule="nonzero"><path d="M36.028 27.78a1.36 1.36 0 01-1.374-1.35c0-5.226-4.332-9.471-9.645-9.471s-9.654 4.245-9.654 9.472a1.36 1.36 0 01-1.374 1.349 1.36 1.36 0 01-1.374-1.35c0-6.71 5.56-12.17 12.393-12.17 6.833 0 12.393 5.46 12.393 12.17.01.747-.604 1.35-1.365 1.35zm-13.281 5.07a2.817 2.817 0 105.633 0 2.817 2.817 0 00-5.633 0z"/><path d="M25.919 33.413a.939.939 0 01-.651-.266.913.913 0 010-1.292l6.059-6.06a.914.914 0 111.292 1.292l-6.059 6.06a.917.917 0 01-.641.266z"/></g></g></svg>