<svg width="30" height="30" xmlns="http://www.w3.org/2000/svg"><g fill="none" fill-rule="evenodd"><rect width="30" height="30" rx="6"/><path d="M5.652 8.013l11.827-.009L7.145 5.476a.942.942 0 00-1.11.728l-.383 1.809zm-1.39.289a.717.717 0 01-.05-.446l.414-1.95a2.381 2.381 0 012.83-1.836l.02.004L23.52 8h.29a2.38 2.38 0 012.398 2.392l-.002 1.992a.72.72 0 01-.48.679 3.513 3.513 0 00-2.34 3.307 3.498 3.498 0 002.334 3.303.72.72 0 01.405.357l.02.04c.05.1.075.21.075.322l-.001 1.992a2.384 2.384 0 01-2.385 2.384l-18.43-.016a2.38 2.38 0 01-2.398-2.393l.002-1.992a.72.72 0 01.48-.678 3.513 3.513 0 002.34-3.308 3.498 3.498 0 00-2.334-3.303.72.72 0 01-.48-.68v-1.986a2.384 2.384 0 011.247-2.11zm17.684 8.068a4.953 4.953 0 012.82-4.466l.002-1.517a.94.94 0 00-.952-.947l-18.411.013a.944.944 0 00-.95.955l-.001 1.511a4.939 4.939 0 012.814 4.463 4.953 4.953 0 01-2.82 4.466l-.002 1.517a.94.94 0 00.953.947l18.436.016a.944.944 0 00.944-.945l.001-1.541a4.939 4.939 0 01-2.834-4.473zm-11.72-3.047h9.027a.726.726 0 110 1.45h-9.027a.726.726 0 010-1.45zm0 4.68h9.027a.726.726 0 110 1.45h-9.027a.726.726 0 110-1.45z" fill="#9396A1" fill-rule="nonzero"/></g></svg>