<svg width="16" height="16" xmlns="http://www.w3.org/2000/svg"><g fill="none" fill-rule="evenodd"><path d="M5.415 2.5H14c.414 0 .79.168 1.06.44.272.27.44.646.44 1.06h0v8c0 .414-.168.79-.44 1.06a1.49 1.49 0 01-1.06.44h0-8.585a1.5 1.5 0 00-2.83 0h0H2a1.49 1.49 0 01-1.06-.44A1.495 1.495 0 01.5 12h0V4c0-.414.168-.79.44-1.06A1.49 1.49 0 012 2.5h.585a1.5 1.5 0 002.83 0h0z" stroke="#CCC"/><rect fill="#CCC" x="3.5" y="5.5" width="1" height="5" rx=".5"/><path d="M10.346 4.91a.5.5 0 01.866.5l-.642 1.112h.93a.5.5 0 110 1H9.999v1H11.5a.5.5 0 110 1H9.999l.001 1.5a.5.5 0 11-1 0l-.001-1.5H7.5a.5.5 0 010-1h1.499v-1H7.5a.5.5 0 010-1h.929L7.788 5.41a.5.5 0 11.866-.5L9.5 6.374z" fill="#CCC"/></g></svg>