<svg width="30" height="30" xmlns="http://www.w3.org/2000/svg"><g fill="none" fill-rule="evenodd"><rect width="30" height="30" rx="6"/><path d="M21.4 10.217c3.647 0 6.6 2.953 6.6 6.6s-2.953 6.6-6.6 6.6a6.598 6.598 0 01-6.6-6.6c0-3.647 2.953-6.6 6.6-6.6zM24.423 7c.72 0 1.303.582 1.303 1.303V9.76c-.014.305-.263.555-.568.527a.786.786 0 01-.735-.776V8.97a.65.65 0 00-.652-.652H4.955a.65.65 0 00-.652.652v11.66c0 .36.292.652.652.652h10.136a.58.58 0 01.555.43v.013c.11.43-.208.86-.652.86H4.304A1.302 1.302 0 013 21.282V8.303C3 7.583 3.582 7 4.303 7h20.12zM21.4 11.298a5.51 5.51 0 00-5.505 5.505 5.51 5.51 0 005.505 5.505 5.51 5.51 0 005.505-5.505 5.51 5.51 0 00-5.505-5.505zm-.957 2.302a.58.58 0 01.79-.028c.111.111.167.25.167.402a.555.555 0 01-.167.403l-1.858 1.858h5.394c.32 0 .569.25.569.568a.571.571 0 01-.569.569h-5.394l1.858 1.858a.552.552 0 010 .79.552.552 0 01-.79 0l-2.815-2.815a.552.552 0 010-.79zm-8.056-3.536a.678.678 0 010 .957l-1.365 1.372h.88a.68.68 0 010 1.36l-1.845-.001v.79l1.845.001a.68.68 0 010 1.359l-1.845-.001v2.247a.69.69 0 01-.679.68.68.68 0 01-.68-.68v-2.247H6.841a.68.68 0 010-1.358l1.857-.001v-.79H6.841a.68.68 0 010-1.358l.908-.001-1.38-1.372a.678.678 0 010-.957.678.678 0 01.957 0l2.038 2.066 2.066-2.066a.678.678 0 01.957 0z" fill="#9396A1" fill-rule="nonzero"/></g></svg>