<svg width="48" height="48" xmlns="http://www.w3.org/2000/svg"><g fill="none" fill-rule="evenodd"><rect fill="#ECE9FF" width="48" height="48" rx="6"/><path d="M25.319 11c.538 0 .973.447.973.999a.994.994 0 01-.841.992l-.132.01h-7.566c-1.484 0-2.696 1.164-2.798 2.637l-.007.202v16.32a2.827 2.827 0 002.603 2.833l.202.006H30.03c1.484 0 2.696-1.164 2.798-2.637l.006-.202v-5.895c0-.552.436-1 .975-1a.982.982 0 01.964.864l.01.137v5.894c0 2.589-1.995 4.7-4.5 4.833L30.03 37H17.753c-2.54 0-4.617-2.027-4.746-4.583L13 32.16V15.84c0-2.589 1.995-4.7 4.5-4.833l.253-.007h7.566zm-.994 18.334c.539 0 .975.448.975 1a.994.994 0 01-.843.991l-.132.01H17.87a.982.982 0 01-.692-.298.992.992 0 01-.281-.703c0-.506.368-.925.841-.99l.134-.01h6.453-.001zm3.778-3.84c.54 0 .975.448.975 1a.995.995 0 01-.842.991l-.133.009H17.874a.982.982 0 01-.693-.297.992.992 0 01-.282-.702c0-.507.368-.925.842-.991l.133-.01h10.23-.001zm6.358-11.258c.394.43.39 1.091-.007 1.517l-6.24 6.495c-.188.198-.448.31-.721.312h-.005a.996.996 0 01-.72-.317l-3.053-3.249a1.117 1.117 0 01.007-1.516.989.989 0 011.442.006l2.339 2.487 5.516-5.742a.989.989 0 011.443.007z" fill="#8365F6" fill-rule="nonzero"/></g></svg>