<svg width="24" height="24" xmlns="http://www.w3.org/2000/svg"><path d="M17.633 14.617c1.777 0 3.227 1.43 3.227 3.181 0 1.752-1.45 3.182-3.227 3.182a3.211 3.211 0 01-3.126-2.416H9.114a3.211 3.211 0 01-3.126 2.416c-1.777 0-3.227-1.43-3.227-3.182 0-1.751 1.45-3.181 3.227-3.181a3.248 3.248 0 013.167 2.557h5.311a3.227 3.227 0 013.167-2.557zm-11.645 1.41c-.98 0-1.797.805-1.797 1.771 0 .967.796 1.772 1.797 1.772.94 0 1.696-.684 1.798-1.57-.02-.04-.02-.08-.02-.121 0-.06 0-.1.02-.161-.04-.947-.837-1.692-1.798-1.692zm11.645 0c-.98 0-1.798.805-1.798 1.771 0 .967.797 1.772 1.798 1.772a1.788 1.788 0 001.797-1.772c0-.966-.817-1.772-1.797-1.772zM18.817 4.67c1.197 0 2.713.983 3.248 2.79l.062.23 1.757 7.43.043.232c.362 2.19-.86 2.857-1.432 3.07a.744.744 0 01-.225.04.716.716 0 01-.674-.482.704.704 0 01.45-.886c.457-.17.612-.654.481-1.488l-.032-.184-1.737-7.41c-.35-1.377-1.362-1.882-1.848-1.929l-.072-.004H17.53v6.041h2.104c.388 0 .715.322.715.705a.72.72 0 01-.62.698l-.095.007h-2.84a.722.722 0 01-.708-.61l-.007-.095v-7.45a.72.72 0 01.62-.699l.095-.006h2.022zM14.18 3.019c.388 0 .715.322.715.704a.719.719 0 01-.62.699l-.095.006H2.23c-.171 0-.712.035-.788.46l-.009.104v11.357c0 .261.143.523.388.664.347.201.45.624.245.967a.72.72 0 01-.613.342.842.842 0 01-.367-.1A2.189 2.189 0 01.01 16.523l-.007-.175V5.012c0-1.117.86-1.92 2.06-1.989l.167-.004h11.95zm-.163 8.135a.77.77 0 01.776.765.763.763 0 01-.388.662.786.786 0 01-.776 0 .763.763 0 01-.388-.662.77.77 0 01.776-.765zm0-2.678a.77.77 0 01.776.765.763.763 0 01-.388.662.786.786 0 01-.776 0 .763.763 0 01-.388-.662.77.77 0 01.776-.765zm0-2.679a.77.77 0 01.776.766.763.763 0 01-.388.662.786.786 0 01-.776 0 .763.763 0 01-.388-.662.77.77 0 01.776-.766z"/></svg>