<?xml version="1.0" encoding="UTF-8"?>
<svg width="20px" height="20px" viewBox="0 0 20 20" version="1.1" xmlns="http://www.w3.org/2000/svg" xmlns:xlink="http://www.w3.org/1999/xlink">
    <title>-mockplus-</title>
    <g id="0317多经停--PC官网" stroke="none" stroke-width="1" fill="none" fill-rule="evenodd">
        <g id="PC官网-多经停-详情" transform="translate(-198.000000, -299.000000)" fill="#388BFF" fill-rule="nonzero">
            <g id="编组-3备份" transform="translate(198.000000, 297.000000)">
                <g id="-mockplus-" transform="translate(0.000000, 2.000000)">
                    <g id="经" transform="translate(3.000000, 1.000000)">
                        <path d="M13.1800418,12.9056951 C13.7033167,13.4657835 14,14.1058905 14,14.7855943 C14,16.9947333 10.8659932,18.7855943 7,18.7855943 C3.13400675,18.7855943 0,16.9947333 0,14.7855943 C0,14.1079292 0.294906242,13.4696237 0.815383694,12.9102976 C1.02961034,13.1675513 1.25345519,13.4160574 1.483418,13.655494 C1.1712337,14.0150427 1,14.3998726 1,14.7855943 C1,16.2923984 3.61309267,17.7855943 7,17.7855943 C10.3869073,17.7855943 13,16.2923984 13,14.7855943 C13,14.3980685 12.8271607,14.0114428 12.5127703,13.6508866 C12.7409704,13.4112622 12.9650857,13.1625445 13.1800418,12.9056951 Z M7,-4.26325641e-14 C10.8659932,-4.26325641e-14 14,3.13400675 14,7 L13.9981819,7.35180017 L13.9854555,7.72135763 C13.9527303,8.29182081 13.8463735,8.94117568 13.500714,9.75474612 C12.1181148,13.0089364 8.09210098,15.7039806 7.07402246,15.8400485 L7,15.8454378 L6.92597754,15.8400485 C5.90789902,15.7039806 1.88188523,13.0089364 0.499285989,9.75474612 C0.153626458,8.94117568 0.0472696794,8.29182081 0.0145445167,7.72135763 L0.00181806459,7.35180017 L0,7 C0,3.21454828 3.00478338,0.130901317 6.75935025,0.0040590183 L7,-4.26325641e-14 Z M10.582,7.845 L6.379,7.845 L6.379,8.475 L8.143,8.475 L8.143,10.464 L5.974,10.464 L5.974,11.094 L10.996,11.094 L10.996,10.464 L8.809,10.464 L8.809,8.475 L10.582,8.475 L10.582,7.845 Z M5.884,9.402 C5.038,9.834 4.048,10.185 2.923,10.446 L3.013,11.067 C4.075,10.797 5.038,10.446 5.884,10.014 L5.884,9.402 Z M4.453,3.138 C4.102,4.182 3.688,5.118 3.211,5.928 C3.13,6.045 3.04,6.126 2.941,6.171 L3.103,6.765 C3.616,6.693 4.129,6.621 4.642,6.54 C4.138,7.404 3.706,8.016 3.346,8.376 C3.265,8.448 3.166,8.511 3.058,8.556 L3.229,9.15 C4.084,9.033 4.975,8.817 5.902,8.493 L5.902,7.899 C5.272,8.124 4.651,8.304 4.021,8.439 C4.57,7.791 5.263,6.711 6.091,5.19 L5.497,4.965 C5.317,5.316 5.137,5.649 4.966,5.964 C4.543,6.036 4.129,6.09 3.715,6.126 C4.174,5.442 4.624,4.533 5.074,3.381 L4.453,3.138 Z M10.159,3.552 L6.307,3.552 L6.307,4.173 L9.385,4.173 C8.737,5.325 7.567,6.225 5.884,6.855 L6.289,7.386 C7.279,6.999 8.107,6.513 8.764,5.937 C9.547,6.459 10.168,6.963 10.636,7.44 L11.113,6.963 C10.591,6.486 9.943,6.009 9.187,5.532 C9.601,5.091 9.925,4.605 10.159,4.065 L10.159,3.552 Z"></path>
                    </g>
                </g>
            </g>
        </g>
    </g>
</svg>