<?xml version="1.0" encoding="UTF-8"?>
<svg width="16px" height="16px" viewBox="0 0 16 16" version="1.1" xmlns="http://www.w3.org/2000/svg" xmlns:xlink="http://www.w3.org/1999/xlink">
    <title>编组 8</title>
    <g id="再来一单" stroke="none" stroke-width="1" fill="none" fill-rule="evenodd">
        <g id="运单管理-待通知取货-查询收起" transform="translate(-886.000000, -194.000000)">
            <g id="编组-19" transform="translate(176.000000, 134.000000)">
                <g id="编组-18" transform="translate(630.000000, 60.000000)">
                    <g id="编组-8" transform="translate(80.000000, 0.000000)">
                        <rect id="矩形" fill="#D8D8D8" opacity="0.200000003" x="0" y="0" width="16" height="16"></rect>
                        <path d="M11.3618208,1 C12.1193649,1 12.8118911,1.42800475 13.1506752,2.10557281 L14.3867431,4.57770876 C14.5255986,4.85541963 14.5978888,5.16164576 14.5978888,5.47213595 L14.5978888,7.00174895 C14.5978888,7.27789132 14.3740311,7.50174895 14.0978888,7.50174895 C13.8524289,7.50174895 13.6482804,7.32487379 13.6059444,7.09162458 L13.5978888,7.00174895 L13.5978888,6 L1.59788876,6 L1.59788876,13 C1.59788876,13.5128358 1.98392895,13.9355072 2.48126763,13.9932723 L2.59788876,14 L5.09688876,14 L5.18325176,14.0080557 C5.41650097,14.0503916 5.59337613,14.2545401 5.59337613,14.5 C5.59337613,14.7454599 5.41650097,14.9496084 5.18325176,14.9919443 L5.10288876,14.999 L8.92491493,15.0008489 C8.31516329,14.6609229 7.78655976,14.1569148 7.41213573,13.5083933 C6.64292464,12.1760806 6.72727531,10.5851921 7.49551685,9.36894818 L7.18398889,9.39633462 C6.90889732,9.42040201 6.66638106,9.21690671 6.64231367,8.94181514 C6.61824628,8.66672357 6.82174158,8.42420732 7.09683315,8.40013992 L8.5911252,8.26940631 C8.86621677,8.24533891 9.10873302,8.44883422 9.13280042,8.72392579 L9.26353403,10.2182178 C9.28760142,10.4933094 9.08410612,10.7358257 8.80901455,10.7598931 C8.53392298,10.7839604 8.29140673,10.5804651 8.26733933,10.3053736 L8.24596962,10.0646751 C7.7593419,10.9532484 7.73459173,12.0669035 8.27816113,13.0083933 C8.93128716,14.1396408 10.2099197,14.6845972 11.4249518,14.4586168 L11.7368888,14.999 L12.6042046,14.9999902 C12.6021001,14.9999967 12.5999948,15 12.5978888,15 L11.7378888,15 L11.9474454,15.3632931 C10.921134,15.6492651 9.83367047,15.5071234 8.92591569,15.0014066 L2.59788876,15 C1.49331926,15 0.597888759,14.1045695 0.597888759,13 L0.597888759,5.47213595 C0.597888759,5.16164576 0.670178943,4.85541963 0.809034377,4.57770876 L2.04510235,2.10557281 C2.38388638,1.42800475 3.07641262,1 3.83395674,1 L11.3618208,1 Z M14.340339,9.50839333 C15.0208146,10.6870117 15.0333016,12.0679888 14.4952651,13.2129394 L14.7557928,13.1317244 C15.019869,13.0509882 15.2993948,13.1996146 15.380131,13.4636909 C15.4608672,13.7277672 15.3122408,14.0072929 15.0481645,14.0880291 L13.6137074,14.5265867 C13.3496311,14.6073229 13.0701053,14.4586964 12.9893691,14.1946202 L12.5508116,12.760163 C12.4700753,12.4960868 12.6187018,12.216561 12.8827781,12.1358248 C13.1468544,12.0550886 13.4263801,12.2037151 13.5071163,12.4677913 L13.5996545,12.7671558 C13.9938639,11.9123253 13.9807841,10.885626 13.4743136,10.0083933 C12.8213724,8.87746615 11.5432789,8.3324981 10.3285549,8.55797808 L9.80602885,7.65321516 C11.5219386,7.17557632 13.4085563,7.89449848 14.340339,9.50839333 Z M11.3618208,2 L8.09788876,2 L8.09788876,5 L13.4798888,5 L12.256248,2.5527864 C12.1056773,2.25164505 11.8153566,2.0490966 11.4866761,2.00780363 L11.3618208,2 Z M7.09788876,2 L3.83395674,2 C3.49727046,2 3.18627026,2.1690883 3.0023463,2.44460233 L2.93952955,2.5527864 L1.71488876,5 L7.09788876,5 L7.09788876,2 Z" id="形状结合" fill="#8365F6" fill-rule="nonzero"></path>
                    </g>
                </g>
            </g>
        </g>
    </g>
</svg>