<?xml version="1.0" encoding="UTF-8"?>
<svg width="20px" height="20px" viewBox="0 0 20 20" version="1.1" xmlns="http://www.w3.org/2000/svg" xmlns:xlink="http://www.w3.org/1999/xlink">
    <title>侧边栏/图标/本人签收</title>
    <g id="侧边栏/图标/本人签收" stroke="none" stroke-width="1" fill="none" fill-rule="evenodd">
        <g id="编组-28" fill="#03050D" fill-rule="nonzero">
            <path d="M15.48986,0 C16.2161942,0 16.8854354,0.393783767 17.2381745,1.02871414 L19.8741573,5.7734831 C19.9566895,5.9220411 20,6.08918178 20,6.25912603 L20,17 C20,18.6568542 18.6568542,20 17,20 L3,20 C1.34314575,20 0,18.6568542 0,17 L0,6.25912603 C0,6.08918178 0.0433105008,5.9220411 0.125842724,5.7734831 L2.76182548,1.02871414 C3.11456457,0.393783767 3.78380578,0 4.51014003,0 L15.48986,0 Z M18,8 L2,8 L2,17 C2,17.5128358 2.38604019,17.9355072 2.88337887,17.9932723 L3,18 L17,18 C17.5128358,18 17.9355072,17.6139598 17.9932723,17.1166211 L18,17 L18,8 Z M13.7781746,10.3431458 C14.1686989,10.73367 14.1686989,11.366835 13.7781746,11.7573593 L10.2426407,15.2928932 C10.092439,15.4430949 9.90634379,15.5355267 9.71196541,15.5701886 L9.59456529,15.5840533 L9.59456529,15.5840533 L9.47650252,15.5840533 C9.24059786,15.5701886 9.00866911,15.4731352 8.82842712,15.2928932 L6.70710678,13.1715729 C6.31658249,12.7810486 6.31658249,12.1478836 6.70710678,11.7573593 C7.09763107,11.366835 7.73079605,11.366835 8.12132034,11.7573593 L9.535,13.171 L12.363961,10.3431458 C12.7544853,9.95262146 13.3876503,9.95262146 13.7781746,10.3431458 Z M9,2 L4.51014003,2 L2.287,6 L9,6 L9,2 Z M15.48986,2 L11,2 L11,6 L17.712,6 L15.48986,2 Z" id="形状结合"></path>
        </g>
    </g>
</svg>