<svg width="30" height="30" xmlns="http://www.w3.org/2000/svg"><g fill="none" fill-rule="evenodd"><rect width="30" height="30" rx="6"/><path d="M16.583 6.01c.669 0 1.18.511 1.18 1.18h0v2.357h2.279c.118 0 .235.04.314.157h0l4.755 6.642c.079.078.079.157.079.235h0l.039 5.148c0 .668-.511 1.18-1.179 1.18h0-1.69c-.353 1.139-1.375 1.964-2.633 1.964a2.746 2.746 0 01-2.633-2.004c-.039.04-.078.04-.118.04h0l-4.827-.001a2.732 2.732 0 01-2.639 1.965c-1.258 0-2.28-.825-2.633-1.965h0-2.476c-.235 0-.393-.157-.393-.393 0-.236.158-.393.393-.393H6.76a2.734 2.734 0 012.751-2.75 2.759 2.759 0 012.75 2.75h4.677a2.734 2.734 0 012.751-2.75 2.734 2.734 0 012.75 2.75h1.573c.235 0 .393-.157.393-.393h0v-4.715H17.37c-.117 0-.196-.079-.275-.158-.118-.039-.157-.157-.157-.275h0V7.19c0-.236-.157-.393-.393-.393h0-8.881c-.236 0-.393-.157-.393-.393 0-.235.157-.393.393-.393h0zm3.144 14.147c-1.1 0-1.965.865-1.965 1.965s.865 1.965 1.965 1.965a1.97 1.97 0 001.965-1.965c0-1.1-.864-1.965-1.965-1.965zm-10.217 0c-1.1 0-1.965.865-1.965 1.965s.865 1.965 1.965 1.965a1.97 1.97 0 001.965-1.965c0-1.1-.865-1.965-1.965-1.965zM7.624 9.193c.196-.078.432-.039.55.158h0l1.572 2.711h.078l1.572-2.711c.118-.158.354-.236.511-.158.197.118.275.354.157.55h0l-1.336 2.358h1.808c.236 0 .393.158.393.393 0 .236-.157.393-.393.393h0-2.358v1.18h1.572c.236 0 .393.157.393.392 0 .236-.157.393-.393.393h0-1.572v2.358c0 .236-.157.393-.393.393-.236 0-.393-.157-.393-.393h0v-2.358H7.82c-.236 0-.393-.157-.393-.393 0-.235.157-.393.393-.393h1.572v-1.179H7.034c-.236 0-.393-.157-.393-.393 0-.235.157-.393.393-.393h1.769L7.466 9.744c-.078-.158-.039-.433.158-.55zm12.182 1.14h-2.044v5.895h6.288l-4.244-5.895z" fill="#9396A1" fill-rule="nonzero" stroke="#9396A1" stroke-width=".3"/></g></svg>