<svg width="30" height="30" xmlns="http://www.w3.org/2000/svg"><g fill="none" fill-rule="evenodd"><rect width="30" height="30" rx="6"/><path d="M24.034 17.682c.317.225.39.665.164.981l-3.32 4.661a.705.705 0 01-.901.214l-2.778-1.47-1.895 2.19a.713.713 0 01-.533.241.704.704 0 01-.53-1.166l2.261-2.613a.703.703 0 01.861-.161l2.728 1.444 2.962-4.157a.704.704 0 01.981-.164zm-5.827-13.67c.732 0 1.327.594 1.327 1.327v.472h2.801c1.266 0 2.294.981 2.294 2.188v8.297h-1.465V7.999c0-.398-.372-.724-.829-.724h-2.818a1.33 1.33 0 01-1.31 1.114h-6.785a1.33 1.33 0 01-1.31-1.114H7.294c-.457 0-.83.326-.83.724v14.036c0 .399.373.724.83.724h5.332v1.465H7.294C6.028 24.224 5 23.242 5 22.035V8c0-1.207 1.028-2.188 2.294-2.188h2.8V5.34c0-.733.595-1.327 1.328-1.327zm-3.844 11.47a.733.733 0 010 1.464H9.154a.733.733 0 010-1.465zM20.32 11.3a.733.733 0 010 1.465H9.154a.733.733 0 010-1.465zm-2.247-5.827H11.56v1.45h6.512v-1.45z" fill="#9396A1" fill-rule="nonzero"/></g></svg>