<?xml version="1.0" encoding="UTF-8"?>
<svg width="20px" height="20px" viewBox="0 0 20 20" version="1.1" xmlns="http://www.w3.org/2000/svg" xmlns:xlink="http://www.w3.org/1999/xlink">
    <title>-mockplus-</title>
    <g id="0317多经停--PC官网" stroke="none" stroke-width="1" fill="none" fill-rule="evenodd">
        <g id="PC官网-多经停-详情" transform="translate(-198.000000, -358.000000)" fill="#FF8C19" fill-rule="nonzero">
            <g id="编组-3备份-2" transform="translate(198.000000, 358.000000)">
                <g id="收" transform="translate(3.000000, 1.000000)">
                    <path d="M13.1800418,12.9056951 C13.7033167,13.4657835 14,14.1058905 14,14.7855943 C14,16.9947333 10.8659932,18.7855943 7,18.7855943 C3.13400675,18.7855943 0,16.9947333 0,14.7855943 C0,14.1079292 0.294906242,13.4696237 0.815383694,12.9102976 C1.02961034,13.1675513 1.25345519,13.4160574 1.483418,13.655494 C1.1712337,14.0150427 1,14.3998726 1,14.7855943 C1,16.2923984 3.61309267,17.7855943 7,17.7855943 C10.3869073,17.7855943 13,16.2923984 13,14.7855943 C13,14.3980685 12.8271607,14.0114428 12.5127703,13.6508866 C12.7409704,13.4112622 12.9650857,13.1625445 13.1800418,12.9056951 Z M7,-4.26325641e-14 C10.8659932,-4.26325641e-14 14,3.13400675 14,7 L13.9981819,7.35180017 L13.9854555,7.72135763 C13.9527303,8.29182081 13.8463735,8.94117568 13.500714,9.75474612 C12.1181148,13.0089364 8.09210098,15.7039806 7.07402246,15.8400485 L7,15.8454378 L6.92597754,15.8400485 C5.90789902,15.7039806 1.88188523,13.0089364 0.499285989,9.75474612 C0.153626458,8.94117568 0.0472696794,8.29182081 0.0145445167,7.72135763 L0.00181806459,7.35180017 L0,7 C0,3.21454828 3.00478338,0.130901317 6.75935025,0.0040590183 L7,-4.26325641e-14 Z M7.612,3.12 C7.351,4.704 6.847,5.973 6.109,6.909 L6.514,7.404 C6.703,7.179 6.883,6.936 7.054,6.666 C7.378,7.494 7.801,8.259 8.305,8.979 C7.747,9.717 6.991,10.32 6.046,10.788 L6.415,11.373 C7.351,10.869 8.116,10.248 8.71,9.501 C9.277,10.203 9.952,10.851 10.735,11.436 L11.176,10.914 C10.384,10.338 9.7,9.681 9.106,8.943 C9.772,7.899 10.132,6.63 10.195,5.154 L10.969,5.154 L10.969,4.515 L7.963,4.515 C8.071,4.119 8.17,3.687 8.26,3.228 L7.612,3.12 Z M5.929,3.192 L5.29,3.192 L5.29,8.385 C4.84,8.556 4.39,8.709 3.94,8.835 L3.94,3.921 L3.31,3.921 L3.31,8.853 C3.31,8.943 3.238,9.015 3.112,9.069 L3.31,9.618 C3.994,9.438 4.66,9.24 5.29,9.015 L5.29,11.346 L5.929,11.346 L5.929,3.192 Z M9.574,5.154 C9.52,6.396 9.232,7.476 8.692,8.394 C8.17,7.656 7.756,6.846 7.432,5.964 C7.549,5.712 7.657,5.442 7.765,5.154 L9.574,5.154 Z"></path>
                </g>
            </g>
        </g>
    </g>
</svg>