<svg width="16" height="16" xmlns="http://www.w3.org/2000/svg"><path d="M15.447 7.4c.295 0 .534.24.534.534v6.934c0 .59-.478 1.067-1.067 1.067H1.067c-.59 0-1.067-.477-1.067-1.067V7.934a.533.533 0 011.067 0v6.934h13.847V7.934c0-.294.239-.533.533-.533zM8.033 1l.09.015a.531.531 0 01.243.139l3.771 3.772.062.075a.533.533 0 01-.062.68l-.075.061a.533.533 0 01-.68-.062L8.518 2.818l.001 9.511a.533.533 0 01-1.066 0V2.824L4.592 5.68l-.074.062a.533.533 0 01-.677-.816l3.77-3.771.074-.062A.531.531 0 017.942 1h.092-.001z" fill="#8365F6"/></svg>