<svg width="11" height="63" xmlns="http://www.w3.org/2000/svg"><g fill="none" fill-rule="evenodd"><path d="M.986.833l.912 5.4a14.3 14.3 0 004.67 8.368l.27.243A13.011 13.011 0 0111 24.383v14.234c0 3.747-1.615 7.311-4.432 9.782l-.292.264a14.3 14.3 0 00-4.378 8.104l-.912 5.4L0 62.083V.915L.986.833z" fill="#EAEDF3" fill-rule="nonzero"/><path d="M0 1l.912 5.4a15.3 15.3 0 004.696 8.681l.301.272c2.6 2.28 4.091 5.571 4.091 9.03v14.234c0 3.34-1.39 6.522-3.826 8.79l-.265.24a15.3 15.3 0 00-4.997 8.954L0 62V1z" fill="#FFF" fill-rule="nonzero"/><path d="M1 27l2.3 3.56a2 2 0 010 2.171L1 36.291h0" stroke="#979797" stroke-linecap="round"/></g></svg>