<svg width="24" height="24" xmlns="http://www.w3.org/2000/svg"><path d="M11.63 2.228a1.01 1.01 0 011.11-.104c.56.28 1.017 1.078 1.017 1.778v15.753c0 .705-.46 1.505-1.026 1.784a.997.997 0 01-1.106-.115c-1.324-1.067-4.707-4.162-5.413-4.81H2.783c-.974 0-1.767-.806-1.767-1.797V8.25c0-.991.793-1.798 1.767-1.798h4c.526-.474 3.658-3.29 4.848-4.224zm.644 1.01c-1.306 1.04-4.746 4.143-4.781 4.175a.581.581 0 01-.283.14.579.579 0 01-.322.098H2.783a.595.595 0 00-.589.6v6.466c0 .33.265.599.59.599h3.659c.17 0 .324.075.432.193.04.037 3.915 3.596 5.4 4.81.124-.116.304-.42.304-.664V3.902c0-.246-.182-.552-.305-.664zm6.66 1.53a.582.582 0 01.832-.048c.072.066 1.771 1.632 2.676 4.223a9.53 9.53 0 01.433 4.68c-.308 1.943-1.222 3.874-2.718 5.74a.584.584 0 01-.829.086.606.606 0 01-.084-.843c1.363-1.7 2.193-3.442 2.468-5.174a8.325 8.325 0 00-.38-4.087c-.805-2.307-2.335-3.717-2.35-3.731a.607.607 0 01-.047-.847zm-2.465 3.17a.582.582 0 01.83-.068c.074.064 1.812 1.593 1.963 3.967.101 1.581-.517 3.135-1.838 4.617a.583.583 0 01-.832.041.607.607 0 01-.04-.846c1.098-1.233 1.614-2.49 1.535-3.734-.12-1.874-1.536-3.12-1.55-3.132a.607.607 0 01-.068-.844z" fill="#FFF"/></svg>