<svg width="48" height="48" xmlns="http://www.w3.org/2000/svg"><g fill="none" fill-rule="evenodd"><rect fill="#ECE9FF" width="48" height="48" rx="6"/><path d="M33.878 11.248c.34.226.566.678.453 1.13l-3.167 21.264a.85.85 0 01-.565.792c0 .113-.227.113-.453.113s-.34 0-.565-.113l-5.769-2.941c-.565-.226-.791-1.018-.452-1.47.34-.566 1.018-.792 1.47-.453l4.524 2.262 2.213-15.695L21.55 28.1v5.655c0 .679-.565 1.131-1.13 1.131-.68 0-1.132-.452-1.132-1.131v-5.994c0-.227.114-.566.227-.679L29.08 15.62l-15.56 8.07 3.62 1.923c.565.226.791 1.018.452 1.47-.226.566-1.018.792-1.47.452l-5.542-2.827c-.34-.226-.566-.566-.566-1.018 0-.452.226-.792.566-1.018l22.167-11.536c.34-.226.792-.113 1.131.113z" fill="#8365F6" fill-rule="nonzero"/></g></svg>