<?xml version="1.0" encoding="UTF-8"?>
<svg width="52px" height="52px" viewBox="0 0 52 52" version="1.1" xmlns="http://www.w3.org/2000/svg" xmlns:xlink="http://www.w3.org/1999/xlink">
    <title>编组 22</title>
    <g id="我的账单" stroke="none" stroke-width="1" fill="none" fill-rule="evenodd">
        <g id="我的账单-未对账" transform="translate(-196.000000, -143.000000)">
            <g id="筛选展开" transform="translate(176.000000, 74.000000)">
                <g id="编组-22" transform="translate(20.000000, 69.000000)">
                    <circle id="椭圆形" fill="#EFEDFF" cx="26" cy="26" r="26"></circle>
                    <g id="钱-(2)" transform="translate(16.000000, 16.000000)" fill-rule="nonzero">
                        <path d="M9.25096526,0.761203193 C9.62891992,0.808198681 9.96475276,0.980681597 10.2558691,1.22763772 C10.4359235,1.37972256 10.5668781,1.52223109 10.6492095,1.64660414 C10.7238927,1.75942349 10.7966846,1.91490222 10.861587,2.11083454 C11.0197574,2.0681421 11.2113482,2.02042773 11.453457,1.96097498 C12.165869,1.78603356 12.4435467,1.72362109 12.7518173,1.72362109 C13.3277118,1.72362109 13.8623635,1.90786517 14.2475403,2.22663219 C14.5678992,2.49175685 14.7835919,2.85468805 14.7835919,3.27577938 C14.7835919,3.53001728 14.7021958,3.76693396 14.5634287,3.97229913 C14.4016285,4.21175159 14.1646109,4.40866145 13.8824097,4.5506172 L13.8824097,4.5506172 L12.7715813,5.10939755 L13.7840274,5.8312896 C14.5498727,6.37735092 15.0650097,6.82058677 15.5505064,7.31969488 C16.8885587,8.69227761 17.7382604,10.262979 17.7404264,12.0191846 C17.7404264,14.3212429 16.9208829,16.063502 15.5588222,17.2512418 C14.0038174,18.6072321 11.7779137,19.2428058 9.34654152,19.2428058 C6.82734084,19.2428058 4.55949159,18.6120393 2.98071337,17.2629163 C1.59123188,16.0755542 0.76560627,14.3292743 0.76560627,12.0191846 C0.76560627,10.2621986 1.61540739,8.69169079 2.95129826,7.31911142 C3.43272592,6.82418579 3.94318376,6.38298531 4.46287131,6.00953018 C4.70511092,5.83545323 4.96066169,5.667971 5.22747122,5.5084659 C4.98626163,5.32718093 4.77157217,5.10367755 4.57673785,4.89224301 C4.16988526,4.45072586 3.71764463,3.91862404 3.71764463,3.27577938 C3.71764463,2.85522283 3.93380543,2.49227867 4.25438743,2.22696943 C4.63948001,1.90827212 5.17381612,1.72362109 5.74941922,1.72362109 C6.00082473,1.72362109 6.22857416,1.76490983 6.43540364,1.84419447 C7.60892637,1.78430103 7.88195667,1.54184816 8.176681,1.28661502 C8.52208078,0.994526365 8.86549133,0.809728044 9.25096526,0.761203193 Z" id="路径" stroke="#7556ED" stroke-width="1.5"></path>
                        <path d="M11.8981003,11.7434053 L9.98922736,11.7434053 L9.98922736,12.4796163 L11.3969012,12.4796163 C11.8045751,12.4796163 12.1331123,12.8105516 12.1331123,13.2158273 C12.1331123,13.6211031 11.802177,13.9520384 11.3969012,13.9520384 L9.98922736,13.9520384 L9.98922736,15.0863309 C9.98922736,15.4940048 9.65829211,15.822542 9.25301633,15.822542 C8.84534246,15.822542 8.51680529,15.4916067 8.51680531,15.0863309 L8.51680531,13.9520384 L7.04438324,13.9520384 C6.63670937,13.9520384 6.30817221,13.6211031 6.30817221,13.2158273 C6.30817221,12.8105516 6.63910746,12.4796163 7.04438324,12.4796163 L8.51680531,12.4796163 L8.51680531,11.7434053 L6.61272857,11.7434053 C6.20505471,11.7434053 5.87651754,11.41247 5.87651754,11.0071942 C5.87651754,10.6019185 6.20745279,10.2709832 6.61272857,10.2709832 L7.47603791,10.2709832 L6.10193721,8.8968825 C5.81416742,8.60911271 5.81416742,8.1438849 6.10193721,7.85611512 C6.38970699,7.56834533 6.8549348,7.56834533 7.14270459,7.85611512 L9.25301633,9.96642686 L11.3633281,7.85611512 C11.6510979,7.56834533 12.1163257,7.56834533 12.4040955,7.85611512 C12.6918653,8.1438849 12.6918653,8.60911271 12.4040955,8.8968825 L11.0299947,10.2709832 L11.8981003,10.2709832 C12.3057741,10.2709832 12.6343113,10.6019185 12.6343113,11.0071942 C12.6343113,11.41247 12.3057741,11.7434053 11.8981003,11.7434053 L11.8981003,11.7434053 Z" id="路径" fill="#7556ED"></path>
                    </g>
                </g>
            </g>
        </g>
    </g>
</svg>