<svg width="14" height="14" xmlns="http://www.w3.org/2000/svg"><path d="M12 0a2 2 0 012 2v3.5a.5.5 0 01-.992.09L13 5.5V2a1 1 0 00-.883-.993L12 1H3a1 1 0 00-.993.883L2 2v10a1 1 0 00.883.993L3 13h2a.5.5 0 01.09.992L5 14H3a2 2 0 01-2-2V2a2 2 0 012-2h9zm-1.509 7.171l.016.001h-.004l.073.005.025.005a.384.384 0 01.093.028.425.425 0 01.08.042c.008.006.016.01.023.017.02.013.037.028.054.044l.001.002 2.83 2.83a.5.5 0 01-.707.708l-1.973-1.971.001 4.618a.5.5 0 01-1 0V8.876l-1.977 1.977a.5.5 0 01-.707-.707l2.828-2.829a.498.498 0 01.344-.146zM7.5 5.5a.5.5 0 010 1h-3a.5.5 0 010-1h3zm2-2.5a.5.5 0 010 1h-5a.5.5 0 010-1h5z" fill="#8365F6"/></svg>