<svg width="24" height="24" xmlns="http://www.w3.org/2000/svg"><path d="M18.603 3.58h-1.198c-.331 0-.714.202-.714.53s.383.656.714.656h1.198c.714 0 1.199.48 1.199 1.186v13.647c0 .706-.485 1.186-1.199 1.186h-12.9c-.714 0-1.505-.48-1.505-1.186V5.952c0-.707.485-1.186 1.199-1.186H6.9c.331 0 .459-.328.459-.656s-.128-.53-.46-.53H5.398C3.714 3.58 3 4.614 3 5.977v13.496c0 1.463.892 2.497 2.524 2.497h12.952c1.632 0 2.524-.857 2.524-2.497V5.977c0-1.363-.841-2.397-2.397-2.397zM6.901 8.928c0 .328.28.606.612.606h9a.617.617 0 00.612-.606.617.617 0 00-.612-.605h-9a.617.617 0 00-.612.605zm9.586 2.674H7.513a.617.617 0 00-.612.606c0 .328.28.605.612.605h9a.617.617 0 00.612-.605.64.64 0 00-.638-.606zm0 3.557H7.513a.617.617 0 00-.612.606c0 .328.28.605.612.605h9a.617.617 0 00.612-.605.64.64 0 00-.638-.606zM9.935 5.07h4.181c.485 0 .893-.48.893-1.035C15.009 3.48 14.6 3 14.09 3H9.935c-.51 0-.918.48-.918 1.034 0 .555.408 1.035.918 1.035z"/></svg>