<svg width="20" height="20" xmlns="http://www.w3.org/2000/svg"><g fill="#FFF" fill-rule="evenodd"><path fill-opacity=".004" d="M0 0h20v20H0z"/><path d="M15.833 5c.92 0 1.667.746 1.667 1.667v9.166c0 .92-.746 1.667-1.667 1.667H6.667C5.747 17.5 5 16.754 5 15.833V15h-.833c-.92 0-1.667-.746-1.667-1.667V4.167c0-.92.746-1.667 1.667-1.667h9.166c.92 0 1.667.746 1.667 1.667V5h.833zm0 1.25H6.667a.417.417 0 00-.417.417v9.166c0 .23.187.417.417.417h9.166c.23 0 .417-.187.417-.417V6.667a.417.417 0 00-.417-.417zM11.25 8.333c.345 0 .625.28.625.625v3.073l.995-.994a.625.625 0 11.884.884l-2.062 2.062-.032.03-.023.019.011-.01-.046.036a.562.562 0 01-.062.037l-.014.007a.553.553 0 01-.069.03l-.024.007a.609.609 0 01-.283.02l-.014-.003a.549.549 0 01-.077-.019l-.02-.007a.545.545 0 01-.07-.03l-.024-.013a.555.555 0 01-.058-.037l-.009-.006-.015-.012a.629.629 0 01-.048-.041l-2.07-2.07a.625.625 0 01.885-.884l.995.994V8.958c0-.345.28-.625.625-.625zm2.5-4.166a.417.417 0 00-.417-.417H4.167a.417.417 0 00-.417.417v9.166c0 .23.187.417.417.417H5V6.667C5 5.747 5.746 5 6.667 5h7.083v-.833z" fill-rule="nonzero"/></g></svg>