<svg width="28" height="28" xmlns="http://www.w3.org/2000/svg"><path d="M24 0a4 4 0 014 4v7a1 1 0 01-1.993.117L26 11V4a2 2 0 00-1.767-1.987L24 2H6a2 2 0 00-1.987 1.767L4 4v20a2 2 0 001.767 1.987L6 26h4a1 1 0 01.117 1.993L10 28H6a4 4 0 01-4-4V4a4 4 0 014-4h18zm-2.779 14.366l.032.009a.648.648 0 01.071.02l.045.017a.744.744 0 01.129.061l.02.013a.99.99 0 01.214.17l5.633 5.636a1 1 0 11-1.414 1.414l-3.946-3.943V27a1 1 0 11-2 0v-9.249l-3.954 3.955a1 1 0 11-1.414-1.414l5.657-5.657a1 1 0 01.927-.269zM15 11a1 1 0 010 2H9a1 1 0 010-2h6zm4-5a1 1 0 010 2H9a1 1 0 110-2h10z" fill="#A2A3B6" fill-rule="nonzero"/></svg>