<svg width="14" height="14" xmlns="http://www.w3.org/2000/svg"><path d="M7.628 4.857a3.213 3.213 0 01.888 5.172l-3.03 3.03A3.214 3.214 0 01.94 8.515l2.54-2.542c-.028.462.017.928.137 1.378l-1.92 1.921A2.142 2.142 0 004.61 12.41l.117-.108 3.03-3.03a2.142 2.142 0 00-.961-3.584l.83-.83zm5.43-3.916a3.213 3.213 0 010 4.544l-2.54 2.542a4.303 4.303 0 00-.136-1.378l1.92-1.921A2.142 2.142 0 009.388 1.59l-.117.108-3.03 3.03a2.142 2.142 0 00.961 3.584l-.83.83a3.213 3.213 0 01-.888-5.172L8.515.941a3.214 3.214 0 014.544 0z" fill="#333"/></svg>