<?xml version="1.0" encoding="UTF-8"?>
<svg width="80px" height="20px" viewBox="0 0 80 20" version="1.1" xmlns="http://www.w3.org/2000/svg" xmlns:xlink="http://www.w3.org/1999/xlink">
    <!-- Generator: Sketch 63.1 (92452) - https://sketch.com -->
    <title>-mockplus-dup-|03B02F0A-2BAB-419F-8B25-E61B3C6B5DF2|logo</title>
    <desc>Created with Sketch.</desc>
    <g id="页面-1" stroke="none" stroke-width="1" fill="none" fill-rule="evenodd">
        <g id="1、业务概况" transform="translate(-68.000000, -17.000000)" fill="#FFFFFF">
            <g id="-mockplus-dup-|A1F47D87-8DAB-4C55-B246-D807214AD202|头部">
                <g id="头部">
                    <g id="编组-10">
                        <g>
                            <g>
                                <g>
                                    <g id="LOGO">
                                        <g id="pic-logo-white">
                                            <g id="-mockplus-dup-|03B02F0A-2BAB-419F-8B25-E61B3C6B5DF2|logo" transform="translate(68.000000, 17.000000)">
                                                <g id="logo">
                                                    <path d="M17.7251258,15.3681524 L20.2272092,16.3609333 C13.9958556,21.9311203 5.08966508,20.7103506 6.8895217e-05,15.3852602 C3.39967801,16.7912489 4.87695268,17.1646546 7.78603151,17.615395 C10.5683441,18.0464089 15.0106745,17.3575547 17.7251258,15.3681524 L17.7251258,15.3681524 Z M78.3251649,14.3171174 C79.1839374,14.3611091 79.6348532,14.7771099 79.6779124,15.5656437 L78.8620269,15.5656437 C78.8473868,15.1569748 78.6326075,14.9522039 78.2176892,14.9522039 C77.8022541,14.9817062 77.5874749,15.1569748 77.5733515,15.4780094 C77.5733515,15.7409122 77.7807245,15.9236872 78.1961596,16.0256362 C78.2390465,16.0404747 78.2746995,16.0476321 78.3036353,16.0476321 C78.3177587,16.0476321 78.3537562,16.0553132 78.4109388,16.0696279 C79.3413618,16.2595603 79.7995116,16.6317441 79.7852159,17.1867028 C79.770748,18.0338922 79.205467,18.4715398 78.0886839,18.5010421 C77.0581913,18.5010421 76.5495762,18.0560626 76.5640441,17.1648816 L77.4229888,17.1648816 C77.4229888,17.6323806 77.6448297,17.8807941 78.0886839,17.9097727 C78.6041885,17.8952834 78.8690886,17.7200149 78.883212,17.3839672 C78.883212,17.1067497 78.6326075,16.9166427 78.1315708,16.8143445 C78.0599203,16.7998552 78.0097994,16.7853659 77.9813804,16.7705274 C77.1079678,16.5661057 76.6713476,16.1939219 76.6713476,15.6534525 C76.7144068,14.8209271 77.2653921,14.3755984 78.3251649,14.3171174 Z M29.9781177,14.4046818 L29.9781177,16.6171849 C29.9243475,17.4523398 30.1789383,17.8833578 30.7418901,17.9098074 L30.858592,17.9097029 C31.4884618,17.9390307 31.774547,17.5080168 31.7175367,16.6171849 L31.7175367,14.4046818 L32.5766536,14.4046818 L32.5766536,16.9457261 C32.5335944,17.95352 31.9609072,18.4716445 30.858592,18.5013214 C29.7275132,18.4716445 29.1477642,17.95352 29.1191729,16.9457261 L29.1191729,14.4046818 L29.9781177,14.4046818 Z M42.768557,14.4046818 L42.768557,16.6171849 C42.7146254,17.4523398 42.9693575,17.8833578 43.5324695,17.9098074 L43.6492036,17.9097029 C44.2787289,17.9390307 44.5649864,17.5080168 44.5079761,16.6171849 L44.5079761,14.4046818 L45.367093,14.4046818 L45.367093,16.9457261 C45.3240338,17.95352 44.7513466,18.4716445 43.6492036,18.5013214 C42.5179526,18.4716445 41.9380314,17.95352 41.9096123,16.9457261 L41.9096123,14.4046818 L42.768557,14.4046818 Z M74.3699372,14.3171174 C75.2287097,14.3611091 75.6796255,14.7771099 75.7226847,15.5656437 L74.906627,15.5656437 C74.8919869,15.1569748 74.6773799,14.9522039 74.2622893,14.9522039 C73.8468542,14.9817062 73.6322472,15.1569748 73.6181238,15.4780094 C73.6181238,15.7409122 73.8254969,15.9236872 74.2407597,16.0256362 C74.2838189,16.0404747 74.3192996,16.0476321 74.3484076,16.0476321 C74.3625311,16.0476321 74.3983563,16.0553132 74.4557111,16.0696279 C75.3861341,16.2595603 75.8441117,16.6317441 75.8299882,17.1867028 C75.8155203,18.0338922 75.2500671,18.4715398 74.1332839,18.5010421 C73.1027914,18.5010421 72.5943485,18.0560626 72.6086442,17.1648816 L73.4677611,17.1648816 C73.4677611,17.6323806 73.6896021,17.8807941 74.1332839,17.9097727 C74.6489608,17.8952834 74.9136887,17.7200149 74.9279843,17.3839672 C74.9279843,17.1344714 74.7249947,16.9555352 74.3190154,16.8476676 L74.1761709,16.8143445 C74.1045204,16.7998552 74.0543995,16.7853659 74.0261527,16.7705274 C73.1525678,16.5661057 72.7159477,16.1939219 72.7159477,15.6534525 C72.7591791,14.8209271 73.3099922,14.3755984 74.3699372,14.3171174 Z M71.7456174,14.4044898 L71.7456174,15.0837425 L69.9417819,15.0837425 L69.9417819,16.0257235 L71.6166121,16.0257235 L71.6166121,16.7049763 L69.9417819,16.7049763 L69.9417819,17.7780595 L71.8098618,17.7780595 L71.8098618,18.4573123 L69.0826649,18.4573123 L69.0826649,14.4044898 L71.7456174,14.4044898 Z M66.8238488,14.4044723 C67.7256804,14.4193108 68.1838302,14.7698478 68.1982981,15.4560834 C68.1838302,15.9820635 67.9118684,16.3106047 67.3822403,16.4418815 L67.3822403,16.4638773 C67.7687396,16.5076945 68.0050484,16.807257 68.0908223,17.3620412 C68.1049458,17.4206968 68.1125242,17.4643393 68.1125242,17.4934926 C68.1552389,17.9753064 68.2267171,18.2968648 68.3273034,18.4572948 L67.4037699,18.4572948 C67.3176515,18.1067578 67.2675306,17.7420806 67.2534072,17.3620412 C67.2244715,17.0115042 67.1030445,16.8362356 66.8880931,16.8362356 L65.9864336,16.8362356 L65.9864336,18.4572948 L65.1274889,18.4572948 L65.1274889,14.4044723 L66.8238488,14.4044723 Z M62.7396502,14.4044898 C63.8276698,14.3903496 64.3645318,14.806525 64.3504084,15.6533652 C64.3214726,16.441899 63.863495,16.8584235 62.9761313,16.9020661 L62.3531509,16.9020661 L62.3531509,18.4573123 L61.515908,18.4573123 L61.515908,14.4044898 L62.7396502,14.4044898 Z M25.9799858,14.4046818 L25.9799858,16.1573669 L27.3113759,14.4046818 L28.2991537,14.4046818 L26.8389305,16.2230053 L28.4279868,18.4575043 L27.3757925,18.4575043 L25.9799858,16.3982738 L25.9799858,18.4575043 L25.1208689,18.4575043 L25.1208689,14.4046818 L25.9799858,14.4046818 Z M35.8019247,14.4044898 L37.1979036,18.4573123 L36.3387867,18.4573123 L36.0382335,17.6029656 L34.4705345,17.6029656 L34.1698092,18.4573123 L33.3539237,18.4573123 L34.7926173,14.4044898 L35.8019247,14.4044898 Z M56.2241231,14.4044898 L56.2241231,15.0837425 L54.4202876,15.0837425 L54.4202876,16.0257235 L56.0951178,16.0257235 L56.0951178,16.7049763 L54.4202876,16.7049763 L54.4202876,17.7780595 L56.2883674,17.7780595 L56.2883674,18.4573123 L53.5611706,18.4573123 L53.5611706,14.4044898 L56.2241231,14.4044898 Z M49.0650162,14.4044898 L49.0650162,15.0837425 L47.2610084,15.0837425 L47.2610084,16.0257235 L48.9361831,16.0257235 L48.9361831,16.7049763 L47.2610084,16.7049763 L47.2610084,17.7780595 L49.1294327,17.7780595 L49.1294327,18.4573123 L46.4020637,18.4573123 L46.4020637,14.4044898 L49.0650162,14.4044898 Z M38.6200797,14.4044898 L39.4359653,16.2664559 L40.2737248,14.4044898 L41.1324973,14.4044898 L39.8011072,17.1427984 L39.8011072,18.4573123 L38.9635198,18.4573123 L38.9635198,17.1427984 L37.6107723,14.4044898 L38.6200797,14.4044898 Z M58.1175735,14.4046294 L58.9338035,15.7847817 L59.7927482,14.4046294 L60.6947521,14.4046294 L59.3848915,16.3544043 L60.780526,18.4574519 L59.7283316,18.4574519 L58.8480296,16.924027 L57.9029665,18.4574519 L56.979433,18.4574519 L58.3754119,16.3544043 L57.0653791,14.4046294 L58.1175735,14.4046294 Z M52.6766832,16.7705972 L52.6766832,17.4276796 L50.0137307,17.4276796 L50.0137307,16.7705972 L52.6766832,16.7705972 Z M35.2864201,15.1933726 L35.2650627,15.1933726 L34.6853138,16.9238874 L35.823282,16.9238874 L35.2864201,15.1933726 Z M62.6108171,15.0837425 L62.3531509,15.0837425 L62.3531509,16.2229879 L62.6108171,16.2229879 C63.1833321,16.2812943 63.4621834,16.0913619 63.4482322,15.6533652 C63.4482322,15.2590111 63.1692087,15.0694278 62.6108171,15.0837425 Z M66.6948434,15.0837251 L65.9864336,15.0837251 L65.9864336,16.157332 L66.6948434,16.157332 C67.0956384,16.157332 67.2962942,15.9673996 67.2962942,15.5878839 C67.2962942,15.2371723 67.0956384,15.0694103 66.6948434,15.0837251 Z M18.9854166,6.1945914 L18.9854166,7.77759426 L16.1781297,7.77759426 L16.1781297,9.04916384 L18.7573752,9.04916384 L18.7573752,10.6325158 L16.1781297,10.6325158 L16.1781297,12.2205812 L19.1748771,12.2205812 L19.1748771,13.8034095 L14.486937,13.8034095 L14.486937,6.1945914 L18.9854166,6.1945914 Z M9.23566218,6.1945914 L10.3214427,8.55897062 L11.4073955,6.1945914 L13.1945241,6.1945914 L11.1671252,10.4308872 L11.1671252,13.8034095 L9.47593246,13.8034095 L9.47593246,10.4308872 L7.44853359,6.1945914 L9.23566218,6.1945914 Z M3.19819545,6.1945914 L3.19819545,8.29886098 L4.74505377,6.1945914 L6.81361723,6.1945914 L4.41866512,9.30665493 L6.81327276,13.8034095 L4.89093831,13.8034095 L3.33546815,10.8090063 L3.19819545,10.9916068 L3.19819545,13.8034095 L1.50717497,13.8034095 L1.50717497,6.1945914 L3.19819545,6.1945914 Z M33.1502365,6.7316218 C33.2813086,6.76042589 33.4349438,6.81401895 33.6166536,6.8946704 L33.6464506,6.91090543 L33.6464506,6.91090543 C33.7146563,6.95384971 33.9218571,7.08477738 33.9349471,7.30333931 C33.9420088,7.42152336 33.8929214,7.58858707 33.6182037,7.71340479 C33.5996022,7.72195873 33.5797949,7.72789412 33.5596432,7.73121095 L32.3896389,7.92323821 L31.0370637,8.09780844 C30.9991716,8.21023167 30.9612795,8.32073463 30.9220095,8.42984102 C30.9001355,8.49268631 30.8753334,8.55832471 30.8476033,8.62693082 L32.2012119,8.27290238 C32.307482,8.23344951 32.4948756,8.23746463 32.6376599,8.31741779 L32.6855417,8.34534903 C32.7594313,8.38811874 32.8410715,8.43577641 32.9297734,8.48867119 C32.9459637,8.4986217 32.9611205,8.5103179 32.974555,8.52393438 C33.2222314,8.77042755 33.2890593,8.87324941 33.3195452,8.93504728 C33.387062,9.08552682 33.3527869,9.26376302 33.208797,9.5366163 C33.0799639,9.89116844 32.9897118,10.2366429 32.9406243,10.5643113 C32.8839584,10.9281156 32.7952565,11.310599 32.6693514,11.7358521 C32.571521,12.015339 32.4283922,12.2574679 32.2406541,12.4673014 C32.0319032,12.7007018 31.7761316,12.8333751 31.4798844,12.8616555 C31.4724782,12.8623538 31.465072,12.8627029 31.4578381,12.8627029 C31.3935938,12.8627029 31.331933,12.8361683 31.2873237,12.7885106 L30.2328903,11.6639291 C30.1242089,11.555521 29.9950313,11.4261645 30.063926,11.2557839 C30.100268,11.166404 30.1972373,11.1028604 30.2926564,11.1028604 C30.3269315,11.1028604 30.3612066,11.1089704 30.4004766,11.1227614 C30.4629986,11.1463284 30.5177699,11.1604686 30.5682352,11.166404 L31.4202905,11.2714953 C31.5339667,11.1510418 31.6255967,11.0262241 31.6925968,10.8998352 C31.7797486,10.7334698 31.8476099,10.5690247 31.8937693,10.4136571 C31.929939,10.2087117 31.9569802,9.99311745 31.9745484,9.77298439 C31.9867772,9.61918802 31.9767874,9.4844198 31.9447514,9.37164743 C31.6650389,9.30042277 31.3972107,9.29623309 31.1407502,9.35750724 C30.837958,9.43012846 30.5162197,9.57327605 30.183975,9.78380775 C30.1693349,9.7928854 30.1541781,9.80039192 30.13816,9.80615274 C30.1261035,9.81069156 30.0918284,9.82483175 30.0361959,9.86288806 C29.8780825,9.97775527 29.683455,9.95261716 29.5894137,9.80981871 C29.4917555,9.62913852 29.4316449,9.48075382 29.4002978,9.35000072 C29.3751512,9.24037061 29.3584442,8.97991183 29.7113574,8.82140205 C29.868954,8.69833004 29.9833192,8.56827522 30.0520417,8.43455442 C30.1014736,8.33836622 30.141777,8.23432236 30.1732963,8.12364484 C30.0735713,8.14389498 29.9745351,8.16309771 29.8768769,8.18055473 C29.69,8.21703991 29.4846938,8.18928324 29.2921331,8.09536446 C29.2843824,8.09134934 29.2769763,8.0875088 29.2699146,8.0827954 C28.9860684,7.90438462 28.8971942,7.72318072 29.0058756,7.54442081 C29.0895827,7.40301892 29.2719814,7.35658324 29.4016757,7.33423825 C29.9626508,7.26423558 30.4602428,7.19370921 30.9338939,7.11707288 C31.4149511,7.03921455 31.9426846,6.92766417 32.5022818,6.78591315 L32.6206084,6.74436543 C32.6285313,6.74174688 32.6367987,6.73930289 32.6448938,6.73773176 C32.8241923,6.6970569 32.9936732,6.69513663 33.1502365,6.7316218 Z M60.0549959,1.40600773 C60.2999165,1.40880085 60.5262356,1.47531211 60.7275804,1.6037958 C60.9036064,1.71726645 61.0980617,1.94682631 61.0303726,2.39983606 L60.9532106,3.53908139 L61.7193196,3.2979999 C61.8509085,3.20320827 61.9878368,3.17859386 62.1084025,3.22502955 C62.164035,3.24667626 62.2398191,3.27670234 62.335755,3.3191229 C62.6717889,3.46453991 62.6998635,3.65115548 62.6640383,3.78225773 C62.6299354,3.90271119 62.5308993,4.0076279 62.3424722,4.1237171 C62.3257653,4.13436589 62.3076804,4.14257069 62.2889066,4.14833151 C62.0536312,4.22130186 61.832307,4.29043167 61.6280342,4.35816492 C61.3991315,4.43235727 61.1611003,4.48577576 60.9194521,4.5166747 C60.9173853,4.51684927 60.9154907,4.51684927 60.9135961,4.51719841 C60.9144573,4.54355851 60.9160074,4.57218803 60.9173853,4.60378524 L60.9177298,5.13604988 L62.1084025,4.84765986 C62.339372,4.71865245 62.5903209,4.72214386 62.8240462,4.85865778 C63.0207406,4.97265214 63.2019337,5.12976535 63.3631473,5.32563315 C63.3693478,5.33313967 63.3752038,5.3411699 63.3803709,5.3493747 C63.4666616,5.48553949 63.5743095,5.65539632 63.4291139,5.80255903 C63.4187797,5.81303324 63.3977669,5.83520366 63.2463707,5.93942209 C63.1392395,6.00663163 63.0462316,6.0853628 62.9609744,6.17928159 C62.8688278,6.27913576 62.800622,6.37514939 62.7506734,6.47430528 C62.7451618,6.48530321 62.7389613,6.49542828 62.7320718,6.50537878 L62.7107144,6.53540486 L62.7107144,6.53540486 C62.7196707,6.54570451 62.729316,6.55705157 62.7393057,6.56857321 C62.7468841,6.57730172 62.7536014,6.5862048 62.7598019,6.59598073 C62.7980385,6.65620746 62.887946,6.7967365 62.8319691,6.94232807 C62.8047557,7.01390187 62.7298327,7.0805877 62.6568043,7.09961585 C62.61874,7.1099155 62.5593183,7.12038971 62.4763002,7.13051478 L60.9489046,7.36845401 C60.9383982,7.36985057 60.9282362,7.37089799 60.9177298,7.37124713 L60.9177298,7.49274802 C60.9135961,7.60412382 60.9103236,7.71584877 60.9080845,7.82757372 C60.9576887,7.79335796 61.0239999,7.77590093 61.1061568,7.77590093 C61.128892,7.77590093 61.1562777,7.77694835 61.1886582,7.7790432 C61.4621702,7.76560129 61.7213865,7.78759714 61.9566619,7.84782387 C62.1879759,7.90578119 62.4459865,7.99446286 62.7229432,8.11072664 C62.7332774,8.11509089 62.7430949,8.11997886 62.752568,8.12573968 C62.9778536,8.26103161 63.1592189,8.43001559 63.291669,8.6293748 C63.4267026,8.83239998 63.4999032,9.05916671 63.5095485,9.30304133 C63.5104097,9.32381518 63.5085151,9.3442399 63.5040369,9.36431548 L63.4358312,9.67539963 C63.4215355,9.73981605 63.3817488,9.79550395 63.3252552,9.82902144 C63.2689338,9.86271349 63.2017614,9.871442 63.1390672,9.85206471 C62.7486065,9.73475351 62.3824312,9.54988363 62.0508754,9.30216847 C61.727587,9.05811929 61.3877639,8.74633686 61.0398456,8.37432769 L60.9029174,8.23135467 C60.9017118,8.58468482 60.908429,8.93818954 60.9234136,9.29012313 C60.9499381,9.87685368 60.8602027,10.4559031 60.6566189,11.012433 C60.8178325,11.0410626 60.9774959,11.066899 61.1357815,11.0909896 C62.3373051,11.2699241 63.6461323,11.3092024 65.0217872,11.2076026 L65.1425252,11.2067297 C65.2460395,11.2067297 65.3369805,11.2748121 65.3674664,11.3750154 C65.3981246,11.4750442 65.3605769,11.5834523 65.2751475,11.642457 L65.1716332,11.7138562 C64.5667377,12.053919 64.0057626,12.2873194 63.4857798,12.4189454 C62.9776814,12.5498731 62.4210122,12.6486798 61.8324792,12.7129217 L61.8198844,12.7137072 L61.8198844,12.7137072 L61.8071604,12.7139691 C61.7840807,12.7139691 61.7608287,12.7108268 61.7384379,12.703844 C61.0574138,12.4927886 60.4054977,12.2473429 59.8019801,11.9741405 C59.2124136,11.7089683 58.5742765,11.4619514 57.9058256,11.2404218 C57.3631076,11.0265732 56.8887676,10.8900593 56.4836667,10.8305309 C56.1050903,10.7753667 55.6536578,10.8759191 55.1491763,11.1313154 C55.1164513,11.1478995 55.0806261,11.1564535 55.0441119,11.1564535 C54.9197569,11.1564535 54.7824842,11.116826 54.6355663,11.0389677 C54.5067332,10.9715836 54.3921958,10.8952964 54.2962599,10.8137721 C54.2891982,10.8078367 54.2826532,10.8012031 54.2759359,10.7943948 C54.1789666,10.689129 54.1302236,10.6081284 54.1133444,10.5227635 C54.0914704,10.41453 54.1274679,10.2146471 54.3994297,10.1566898 L56.1248975,9.91927425 C56.1226585,9.87912309 56.1199027,9.83425854 56.1164579,9.78520431 C56.0584141,9.44461778 55.9764294,9.10595153 55.8756709,8.80150105 C55.7656117,8.474531 55.6701925,8.1138689 55.5925137,7.73068724 C55.5847631,7.6928055 55.5863132,7.6535272 55.5969919,7.61651831 L55.7241026,7.17049137 C55.5363645,7.25219024 55.3515545,7.31538466 55.1734617,7.35867808 C54.9197569,7.41698454 54.6751807,7.37683338 54.4312935,7.24834969 C54.3215787,7.19423292 54.184306,7.10974093 54.145725,6.95716654 C54.1285013,6.89659067 54.0954318,6.67226792 54.4368051,6.54832306 C54.4519619,6.54273681 54.4681522,6.53854713 54.4841702,6.53645228 C54.7137618,6.50450593 54.9252685,6.45859396 55.1304025,6.39539954 C55.3238244,6.33517281 55.5456653,6.22519356 55.7886914,6.06860406 L55.8813548,6.01082131 C56.0659926,5.82577687 56.3260701,5.8027336 56.5947594,5.96159251 C56.7769859,6.06877863 56.9481892,6.17910702 57.1035468,6.28873712 C57.1180147,6.2988622 57.1311047,6.31038383 57.1431612,6.32365117 C57.2582154,6.45126201 57.4506039,6.66511055 57.3207373,6.86656459 C57.3036859,6.89536868 57.2647604,6.95018373 57.0697884,7.15355806 C56.8291736,7.44177351 56.6796721,7.68687011 56.6369574,7.87069257 C56.5964818,8.04159683 56.6433302,8.2915814 56.7725077,8.59428618 C56.7780193,8.60685524 56.782153,8.62012258 56.7854255,8.63373906 C56.8391634,8.86190235 56.8865285,9.0715612 56.9244206,9.26638158 C56.9683409,9.48127753 56.977125,9.71659821 56.9511173,9.98386523 C56.9492227,10.0039408 56.9449167,10.0236672 56.9380273,10.0426954 C56.9363049,10.0477579 56.9347548,10.0524713 56.9328602,10.0568356 C57.0289683,10.0769112 57.1295545,10.1069372 57.2347912,10.1458664 C57.1975881,9.97129618 57.3381333,9.89518355 57.4316578,9.84438362 C57.8987639,9.55180391 58.3541579,9.18101673 58.7740711,8.75035197 C59.1213004,8.39353042 59.4370104,8.00319138 59.715345,7.58684137 L59.3286735,7.65387634 C59.2904369,7.86004379 59.1831334,7.94645605 59.0983929,7.98154467 C59.0703183,7.99289173 59.0169249,8.00406423 58.986439,8.00406423 C58.7907781,8.00406423 58.6820967,7.8183215 58.6466159,7.75722192 C58.4774794,7.43688554 58.3441682,7.13819587 58.2446153,6.86045464 C58.1552244,6.61029549 58.007962,6.33674394 57.8074784,6.04695735 C57.761319,5.99493542 57.6590103,5.87535481 57.6963857,5.7276684 C57.715504,5.65190492 57.7780259,5.58242596 57.8507098,5.55519301 C57.8782677,5.54541707 57.919949,5.53162603 57.9804041,5.51329615 C58.0084787,5.50509135 58.0384479,5.50159995 58.0677282,5.50456764 C58.4292531,5.53633942 58.7590865,5.54611536 59.0508556,5.53441915 C59.3305681,5.52342123 59.6452446,5.47733468 60.0129701,5.39423925 L60.0363943,5.38463789 L60.0363943,5.38463789 L60.0363943,4.71219336 C59.8620907,4.72842839 59.695021,4.75775619 59.5391468,4.7993039 C59.3009433,4.86005434 59.0656679,4.83893134 58.8284979,4.73995002 C58.6457547,4.64725323 58.5527469,4.5611901 58.5096877,4.45365484 C58.4762737,4.36340203 58.4857468,4.27262551 58.5331119,4.1987823 C58.6080349,4.08199482 58.7420351,4.0533653 58.8570892,4.04376394 L59.8696691,3.78505085 C59.9451088,3.77091066 59.9972965,3.7595636 60.0329496,3.75048595 C60.0350164,3.72272928 60.0363943,3.68502211 60.0363943,3.6340476 C60.0363943,3.34076961 60.0079752,3.06267923 59.9492425,2.78389057 C59.8886152,2.50562562 59.7928515,2.21933044 59.665913,1.9351301 C59.5374244,1.63067961 59.7098334,1.4976571 59.7656381,1.46379047 C59.8560624,1.41264139 59.9492425,1.39431152 60.0549959,1.40600773 Z M42.8953922,1.87455423 C43.1354902,1.88083876 43.3809276,1.97405926 43.6253316,2.1521209 C43.9177896,2.36562029 44.0154478,2.6758316 43.902116,3.02793975 L43.7426248,4.23177608 L44.2293659,4.15287033 C44.2584739,4.14868065 44.2875819,4.14902979 44.3165177,4.15531431 C44.5650553,4.21030394 44.7343641,4.32447287 44.820138,4.49502799 C44.8675031,4.58493166 44.8761149,4.68949923 44.842701,4.78603656 C44.7810402,4.96252707 44.6022585,5.05644585 44.4732531,5.11178462 C44.4539626,5.11981485 44.4336387,5.12557567 44.4129703,5.12819422 L43.9102112,5.19610204 C43.8516507,5.21652676 43.7868897,5.22944495 43.7145502,5.2350312 L43.6654627,5.9821918 C43.8146198,5.94256435 43.9606765,5.90485718 44.104322,5.87011771 C44.3447645,5.80866899 44.6181042,5.85143869 44.8843823,5.99929968 C44.9529325,6.02880205 45.0237218,6.08256968 45.0764263,6.14977922 C45.1308531,6.22763754 45.1472156,6.30619415 45.132231,6.38352876 C45.1045008,6.52301038 44.9841074,6.6008687 44.9444929,6.62670509 C44.9186574,6.64328927 44.8898938,6.6548109 44.8597524,6.66022258 L43.8130696,6.85085327 C43.8263319,6.87284912 43.8363216,6.89676524 43.8432111,6.9222525 C43.8781751,7.05318017 43.8192702,7.17328449 43.7508922,7.2699964 L43.6969821,7.50950676 C43.8063524,7.47249787 43.9072831,7.43566355 44.0025301,7.40005122 C44.1928517,7.32411317 44.4267492,7.33022313 44.6714976,7.42553848 C44.7979194,7.46813361 45.0805599,7.5637981 45.0583414,7.8183215 C45.0440457,7.9831158 44.9024671,8.08855622 44.6942329,8.19609148 C44.676837,8.20499456 44.6589244,8.21145366 44.6399783,8.21581792 C44.4644691,8.25684192 44.2973994,8.28843914 44.1439365,8.3097367 C43.9820339,8.32981228 43.8206481,8.34011192 43.6608123,8.34046106 L43.6544396,8.34115935 L43.6544396,9.33935193 L44.3614715,9.81226269 C45.4160771,10.3302126 46.441747,10.6730685 47.4104066,10.8312291 C48.4071407,10.9944523 49.4839649,11.116826 50.6110822,11.1948589 L50.7910696,11.2217427 C50.8954451,11.2376286 50.9763964,11.3226443 50.9891419,11.4289576 C51.0018874,11.5352709 50.9431547,11.6370453 50.8454964,11.6778948 L50.6165938,11.774083 C50.0836933,11.9783301 49.6105589,12.1275877 49.163949,12.2337264 C48.7159612,12.3423091 48.2266365,12.4273248 47.7102707,12.4861549 L47.6972238,12.487246 L47.6972238,12.487246 L47.6839185,12.4875515 C47.6585997,12.4875515 47.6329364,12.4833618 47.6086511,12.4748079 C46.5929709,12.1265403 45.6194888,11.6389656 44.7145568,11.0260495 C43.8413165,10.4342564 42.8838523,9.86882345 41.8686889,9.34528732 C41.8633495,9.34231963 41.8581824,9.33935193 41.8530153,9.33638424 L41.8437146,9.35645982 L41.8437146,9.35645982 C41.8394086,9.36483919 41.8349305,9.37321856 41.8299356,9.38142336 C41.5584905,9.81453211 41.248981,10.198412 40.9105358,10.5224144 C40.5714016,10.8478133 40.1921363,11.1421387 39.7825573,11.3970113 C39.7524158,11.4158648 39.7184852,11.4275611 39.6833489,11.431227 C39.6762872,11.4341947 39.6618193,11.4408284 39.6380506,11.4546194 C39.5943025,11.4802813 39.5434927,11.5073396 39.477526,11.5073396 C39.379351,11.5073396 39.2894434,11.4444944 39.2551683,11.3512739 C39.1955744,11.1901455 39.3163124,11.0838323 39.3678112,11.0382694 L39.5817292,10.8116773 C40.1060179,10.2554965 40.5049182,9.73388066 40.7668903,9.2609699 C41.0205951,8.80324675 41.1706133,8.29402538 41.2128113,7.74814427 C41.2121224,7.33109598 41.5133645,7.30892556 41.5736473,7.30892556 C41.6025831,7.30892556 41.6328968,7.31241697 41.6635549,7.31887607 C41.7834317,7.34296676 41.9117481,7.38765674 42.0522933,7.45451714 C42.0669334,7.46167452 42.0805401,7.47005389 42.0932856,7.47982982 C42.2360699,7.5884125 42.3399287,7.66976223 42.4031395,7.72492643 C42.5175048,7.8218129 42.6039676,8.01471301 42.358358,8.37205828 C42.3309723,8.4253022 42.2910134,8.50979419 42.2415815,8.62361398 C42.2396869,8.62885109 42.2374478,8.63373906 42.2357254,8.63827788 C42.3344171,8.69571149 42.4298362,8.74860627 42.5200883,8.79713679 C42.5963892,8.83641509 42.680613,8.87621711 42.7713817,8.91532084 L42.7713817,7.07343032 C42.3917719,7.12091342 42.0326583,7.18288585 41.7040305,7.25742734 C41.3590403,7.33563481 40.9890758,7.42222164 40.5982706,7.51701328 C40.3903808,7.59330047 40.2281338,7.59609359 40.0977505,7.53028062 C40.0133545,7.48943118 39.9051899,7.42536391 39.7813516,7.34139563 C39.773601,7.33598395 39.7661948,7.3303977 39.7593053,7.32428774 C39.4587522,7.06505095 39.6110095,6.84753644 39.6445956,6.80651243 C39.6893772,6.74541285 39.7922025,6.6577786 39.9861411,6.64328927 C40.452386,6.57957113 40.9108803,6.51428186 41.3497395,6.4472469 C41.7856708,6.37968822 42.2550159,6.28646771 42.7448573,6.16828366 C42.7593252,6.16636339 42.771554,6.16409398 42.7811992,6.16234828 C42.7860219,6.13005278 42.7910167,6.08553737 42.7953226,6.02408865 L42.7948059,5.40000007 C42.5975948,5.42793131 42.3922886,5.45411684 42.1821598,5.47646183 C41.90882,5.50526592 41.6408197,5.45219657 41.3843591,5.31847577 C41.2259013,5.21530477 41.1458112,5.11405403 41.1199757,4.99726655 C41.0999962,4.90945772 41.1192868,4.81937948 41.1730246,4.75077338 C41.233652,4.6737879 41.326832,4.63293847 41.4503258,4.62874878 L42.625325,4.43934008 C42.6926695,4.42677103 42.7419292,4.41734423 42.778099,4.40948857 C42.7825771,4.38365218 42.7880887,4.34996012 42.794117,4.30649214 C42.778099,3.95909737 42.7570861,3.61851085 42.7307339,3.29363565 C42.7076541,2.9813295 42.6213635,2.66832508 42.4741011,2.36020862 C42.4679006,2.34711585 42.4629057,2.33384851 42.4591165,2.31988289 C42.4188131,2.17341847 42.455844,2.03742826 42.5607362,1.94717545 C42.6635615,1.86914255 42.7701761,1.85098725 42.8953922,1.87455423 Z M70.660302,5.20151372 L71.2738093,5.69223064 C71.284488,5.70061001 71.2941332,5.71021137 71.3032618,5.72033645 C71.4246887,5.85772322 71.498406,5.94832517 71.482388,6.0736666 C71.4774506,6.11242119 71.4625616,6.15001198 71.440375,6.18230101 L71.4019534,6.22641555 C71.371812,6.25277566 71.3478711,6.26691585 71.1611665,6.35786694 C70.943287,6.49455543 70.7739782,6.70543627 70.6644356,6.99050946 C70.5678108,7.24555657 70.5850345,7.44875632 70.7188625,7.62908737 C70.7314357,7.64567154 70.7412532,7.66400141 70.7493484,7.68337871 C70.8437341,7.92079423 70.9155568,8.15332178 70.9625775,8.3748514 C71.0083925,8.60074528 71.0271663,8.85125356 71.0188989,9.12166285 C71.0183822,9.13056594 71.017521,9.13929445 71.0164876,9.14802296 C71.0387061,9.15518034 71.0659195,9.16338514 71.098989,9.17281193 C72.5893536,9.72183531 74.0091012,10.1011764 75.3361855,10.3055982 C76.662753,10.5084488 78.1074749,10.5197958 79.6281532,10.3394648 C79.6677677,10.3296889 79.7113436,10.3237535 79.747341,10.3237535 C79.822953,10.3237535 79.9111382,10.3647775 79.9552308,10.4267499 C79.9994957,10.4890715 80.0118967,10.5730398 79.988128,10.645661 C79.9652205,10.7179331 79.9144107,10.7680347 79.8021123,10.8588112 C79.2833352,11.2154582 78.7962497,11.4726002 78.3398223,11.6335539 C77.9066468,11.7892706 77.4242117,11.9236897 76.9076736,12.0324469 L76.883582,12.0362002 L76.883582,12.0362002 L76.8596196,12.0373349 C76.8382622,12.0373349 76.8170771,12.0347163 76.7965809,12.0289555 C76.5118736,11.9490023 76.2424953,11.8706203 75.9889628,11.7943331 L75.1849616,11.546618 C74.334112,11.204984 73.5445787,10.8926779 72.7958655,10.6006219 C72.0893503,10.3258483 71.3148016,10.0957648 70.4930601,9.91648112 L69.3509581,10.4801684 C69.1148215,10.6007964 68.9556748,10.5711195 68.861978,10.4401918 C68.8618057,10.4401918 68.8356258,10.410864 68.7367619,10.3342277 L68.7069649,10.3061219 L68.7069649,10.3061219 C68.5137153,10.0934953 68.4277691,9.92939932 68.4277691,9.77455552 C68.4277691,9.64834125 68.4908078,9.42681162 68.9134768,9.35907837 C69.1234334,9.33481311 69.3168553,9.30600902 69.515272,9.26969841 C69.7033545,9.23356237 69.9108998,9.19341122 70.1379079,9.14453156 L70.1434195,9.14278585 C70.1392858,9.09495361 70.1360133,9.03437774 70.1354966,8.95547199 C70.0702188,8.70758226 69.9999462,8.48081553 69.9272623,8.28110719 C69.8516504,8.07563802 69.7403854,7.84887129 69.5963955,7.60796437 C69.5543697,7.537438 69.5512695,7.45032745 69.5877837,7.37683338 C69.6926759,7.16647625 69.762604,6.97392529 69.795329,6.80441759 C69.80773,6.74436543 69.8197866,6.68344042 69.8316709,6.62146799 C69.7271232,6.66895109 69.6303262,6.69251807 69.5392129,6.69251807 C69.3859222,6.69251807 69.2066237,6.6577786 68.9908111,6.5862048 C68.9741041,6.58079312 68.9579139,6.5732866 68.9425848,6.56403438 C68.7524354,6.44777061 68.738312,6.29781478 68.7467516,6.21873446 C68.7729316,5.97625641 69.0498883,5.84969299 69.3449298,5.74948968 C69.7348739,5.61664173 70.0130362,5.47855668 70.1716663,5.33907506 C70.2023244,5.31341324 70.2276432,5.2889734 70.2483116,5.26453357 C70.3568208,5.13779558 70.5276797,5.11265747 70.660302,5.20151372 Z M30.9619685,1.26268556 C31.1331718,1.27787318 31.2714779,1.3199446 31.384293,1.39082012 C31.5704809,1.47164613 31.7139541,1.55928039 31.8228078,1.65843628 C31.9509519,1.77749318 32.0534328,2.00059394 31.8205687,2.39582094 C31.7146431,2.61281174 31.6245633,2.82177231 31.5539462,3.01938581 C31.4969358,3.17824472 31.4512931,3.34827613 31.4178792,3.52668691 L32.7143052,3.23882059 C32.8712129,3.18627496 33.0489612,3.14228326 33.2356659,3.10981319 C33.4552678,3.07455001 33.6690136,3.10702007 33.8893044,3.20373198 C33.9557878,3.23096493 34.1755619,3.32051946 34.1852071,3.53820854 C34.2036365,3.73425091 34.0138316,3.86500402 33.9513096,3.9079483 C33.9308134,3.92191391 33.9084227,3.93291184 33.884654,3.93972008 C33.5465532,4.03887597 33.2187867,4.11341746 32.9101384,4.1612497 C32.6939813,4.19616375 32.4728293,4.23439463 32.2468547,4.27646606 C32.8598453,4.86895742 33.4447613,5.30765242 33.9935076,5.58766307 C34.6175214,5.90782488 35.3069851,6.18294756 36.0424361,6.40622289 C36.158007,6.42978987 36.3249044,6.46557677 36.3483286,6.64730438 C36.3610741,6.74768226 36.3069918,6.84928214 36.2177731,6.8946704 C36.1955546,6.90671575 36.1557679,6.92417277 36.0069553,6.96065795 C35.7194922,7.01913898 35.4446023,7.05894099 35.1805634,7.08111141 C34.9340926,7.1017107 34.6679868,7.12021514 34.382246,7.13679931 C34.3543436,7.13819587 34.3271302,7.13487904 34.300778,7.12684881 C33.7294687,6.9515803 33.234288,6.60924807 32.8293594,6.10962807 C32.4655954,5.65801487 32.0541217,5.1793433 31.6057895,4.68653153 C31.3939382,4.4826335 31.2711334,4.45435312 31.2284187,4.45208371 C31.2263519,4.45208371 31.1693415,4.48141151 31.1087142,4.67151849 C30.9600739,5.09764443 30.7582124,5.50020338 30.5055411,5.87605309 C30.5778805,5.84969299 30.6534924,5.83066483 30.7256596,5.81477894 C31.1636577,5.71736875 31.4146067,5.66499768 31.5622136,5.639685 C31.6970749,5.56654007 31.829525,5.54768649 31.9494018,5.58417167 C32.005551,5.60110498 32.0835742,5.61734001 32.1817492,5.63235305 C32.4841969,5.67651932 32.5331122,5.89839808 32.5408628,5.96525848 C32.571521,6.23270008 32.261667,6.38911501 32.11251,6.46418021 C32.0932195,6.47378157 32.0727233,6.48093895 32.0515382,6.48495407 C31.8858464,6.51690042 31.6645222,6.56543094 31.3868765,6.6319422 C31.0906293,6.70438885 30.792832,6.73773176 30.5117416,6.72830497 C30.463343,6.72673384 30.4163224,6.70997509 30.3775691,6.68029816 C30.2427078,6.57747629 30.1641678,6.46871903 30.1426382,6.35524838 C29.7557944,6.80895642 29.2859326,7.21937103 28.7437313,7.57689087 C28.7332248,7.58422282 28.7222017,7.58998364 28.7104896,7.59522074 L28.6696695,7.61372519 C28.7247852,7.66539798 28.7695668,7.73295666 28.7845514,7.82076548 C28.8036697,7.93022102 28.7855848,8.13446819 28.4500676,8.26941098 C28.4338773,8.27604465 28.4169981,8.28058348 28.3997745,8.2833766 L27.6426217,8.4041792 C27.6326319,8.40575033 27.62247,8.40662318 27.6124802,8.40697232 L27.6124802,9.50816135 L28.8562019,8.88896073 C28.9350863,8.83885908 28.9891686,8.81022956 29.0609914,8.81022956 C29.1579607,8.81022956 29.2473515,8.87150371 29.2826601,8.96280394 C29.3227912,9.06702237 29.2929943,9.16687654 29.1939581,9.25974791 C29.127647,9.3196255 29.0644361,9.37164743 29.0057034,9.41476627 C28.4705638,9.85136643 27.9342185,10.2506085 27.420953,10.5943373 C26.9228443,10.9296868 26.3858101,11.2709716 25.8244905,11.6082412 C25.8057167,11.6197629 25.785565,11.6283168 25.7642076,11.6340776 C25.7113883,11.6480433 25.6597938,11.6575864 25.6100876,11.6623968 L25.5370273,11.666024 C25.2614485,11.666024 25.0494251,11.5099582 24.939538,11.2268053 C24.8663374,11.0337306 24.8677153,10.8659686 24.9428105,10.7259633 C25.018078,10.5854343 25.1572453,10.4927375 25.356351,10.4499678 C25.3728857,10.4454289 25.3871813,10.4410647 25.3994101,10.436875 C25.4000991,10.40842 25.400788,10.3715857 25.400788,10.3237535 C25.3783973,9.93952439 25.3403329,9.54709051 25.2876285,9.17106623 C25.2375076,8.81651409 25.1500113,8.43874411 25.0282399,8.04857964 C24.9727797,7.94348836 24.9645123,7.83176341 25.0053324,7.73051267 C25.0506307,7.59347504 25.2034047,7.50880848 25.3804641,7.54948334 C25.6135004,7.58282626 25.8427476,7.70118487 26.0616605,7.90141693 C26.369792,8.18334786 26.3792651,8.49111518 26.3272496,8.70810597 L26.2481929,10.1531984 L26.7325226,9.92206737 C26.730628,9.92154366 26.7576692,9.87598083 26.7526743,9.73300781 C26.7755818,9.16809854 26.7700703,8.64351499 26.7354507,8.15506748 C26.7058259,7.7092151 26.6486433,7.22129131 26.5652808,6.70281772 C26.5630417,6.70403971 26.5606304,6.70543627 26.5583913,6.70630912 C26.3039976,6.82554059 26.2748896,6.83636394 26.2130566,6.83636394 C26.0303134,6.83636394 25.9765755,6.68309128 25.8956242,6.45091287 L25.8875291,6.42263249 L25.8875291,6.42263249 C25.8036498,6.03945083 25.7216651,5.67651932 25.6419195,5.33628194 C25.5671687,5.0162947 25.4197341,4.67239134 25.2039214,4.31347495 L25.1159084,4.1759136 C25.0688878,4.10276867 25.0650986,4.00919903 25.1064354,3.93238813 C25.1476,3.85540266 25.2268289,3.80757041 25.3131195,3.80757041 C25.707025,3.80757041 26.0862903,3.79744534 26.4407536,3.77719519 C26.7631808,3.76096016 27.1190219,3.66250255 27.5000096,3.48426634 C27.7197837,3.30166588 28.021887,3.284558 28.3642937,3.44533718 C28.6472787,3.57958169 28.8937495,3.74001173 29.0975056,3.92243762 C29.1231688,3.93779981 29.1577884,3.96014479 29.1905134,3.99156744 L29.2209993,3.9830135 L29.2209993,3.9830135 L29.2464904,3.97777639 L29.2464904,3.97777639 C29.4657477,3.94513176 29.6789769,3.91283626 29.888589,3.87670022 C30.0451522,3.85051469 30.2141165,3.81106182 30.3934149,3.7595636 C30.4674767,3.45703339 30.5113971,3.15956571 30.5243149,2.87361967 C30.5379216,2.53809568 30.5191478,2.19454147 30.4679934,1.85290752 C30.4662711,1.84121131 30.4654099,1.82916597 30.4654099,1.81729519 L30.4654099,1.62509337 C30.4654099,1.60536693 30.467649,1.58564049 30.4728161,1.56608863 C30.5253483,1.35625521 30.6991352,1.23632546 30.9619685,1.26268556 Z M60.0038415,8.8234969 C59.6648796,9.1759542 59.3241953,9.45666313 58.9878169,9.66056116 C58.692517,9.84071764 58.3766778,10.0073231 58.0450952,10.1578736 L57.7084423,10.3029796 C58.4947031,10.5402206 59.2687351,10.7373104 60.0181372,10.8911067 C59.99833,10.8460676 59.9812785,10.8019013 59.9673274,10.7582588 C59.9206512,10.6187772 59.8970548,10.4737093 59.8970548,10.3188655 L60.0038415,8.8234969 Z M46.1336155,1.63539301 C46.3616569,1.6530246 46.5984825,1.73018465 46.8230792,1.86390545 C47.0132286,1.97842352 47.2328305,2.21199849 47.2068227,2.67618074 C47.1785759,3.03963596 47.1823651,3.38912556 47.2176736,3.72063444 C47.2538433,4.04376394 47.2975915,4.37754222 47.3475401,4.71341535 C47.3539129,4.71201879 47.3604579,4.71044765 47.3670029,4.70870195 L47.9736208,4.49834482 C47.9849884,4.49432971 47.9968727,4.49136201 48.0089293,4.4890926 C48.0833356,4.47582526 48.1646313,4.45190914 48.249544,4.41804251 C48.4036959,4.35449895 48.5750715,4.36724258 48.7237118,4.45732082 C48.8794139,4.51126302 48.987923,4.60046841 49.046139,4.72231843 C49.092643,4.81117468 49.0936764,4.91696424 49.0451056,5.0045985 C48.9703549,5.140065 48.8174086,5.16694881 48.7373185,5.17445533 L47.5276998,5.57387202 C47.535106,5.61472146 47.5418232,5.65888773 47.5476793,5.70724368 C47.6300084,5.99528456 47.7085484,6.27337494 47.7832991,6.53976912 C47.826875,6.69600948 47.8802684,6.8588835 47.9438238,7.03240631 C47.9923946,6.89676524 48.0368316,6.76129874 48.0769628,6.62670509 C48.1522303,6.37200712 48.1878833,6.11259576 48.1823717,5.85562838 C48.1766879,5.79260852 48.1601532,5.58679022 48.3151662,5.47593812 C48.4021458,5.40645917 48.5495805,5.39563582 48.7244008,5.48990374 C48.9539924,5.58766307 49.1296739,5.73220722 49.2462782,5.91952108 C49.3427307,6.0754123 49.4157591,6.33761679 49.2194092,6.70595998 L48.4961871,8.12469226 L48.9386633,8.71281937 C49.0332213,8.8105787 49.1606765,8.92177994 49.3280906,9.05183476 C49.3999133,9.10717353 49.4538234,9.13929445 49.4929212,9.15867174 C49.5566488,9.05235847 49.6148648,8.9507586 49.6672248,8.85526868 C49.7318136,8.73795748 49.7888239,8.61069578 49.8372225,8.47575299 C49.8549629,8.3537284 49.8949218,8.16135201 50.0967833,8.16135201 C50.2021922,8.16135201 50.3001949,8.24130517 50.3286139,8.34430161 C50.3382592,8.37746995 50.3492823,8.43455442 50.3492823,8.58224084 C50.3329199,8.8692343 50.3132849,9.13719961 50.2895162,9.39975323 C50.2688478,9.64938867 50.2349171,9.92712991 50.1858297,10.2469426 C50.1632236,10.3864024 50.1309911,10.5853388 49.9714393,10.6328938 L49.8949218,10.6433916 C49.8403227,10.6433916 49.78159,10.6219194 49.739392,10.5866562 C49.7170012,10.5700721 49.6624022,10.5381257 49.5809342,10.4888969 C49.2436946,10.2417055 48.942108,9.97862813 48.666357,9.69460236 C48.4111021,9.43135045 48.184783,9.1436587 47.9930835,8.83833537 C47.7957002,9.06946636 47.5952166,9.26393759 47.3864656,9.42908103 C47.1573908,9.60853923 46.9384778,9.74016519 46.7164647,9.83181456 C46.6549761,9.85957123 46.5957267,9.87406056 46.5414721,9.87406056 C46.4398524,9.87406056 46.3439166,9.80545445 46.3120528,9.70769512 C46.2577982,9.54115512 46.387148,9.43239787 46.454837,9.38089965 C46.6945906,9.15238722 46.9100588,8.9149717 47.0959022,8.67476306 C47.2572881,8.46789733 47.3781983,8.25946048 47.4562215,8.05381674 L47.3043087,7.61180492 C47.2991416,7.6388633 47.2917354,7.66051001 47.2874295,7.67395192 C47.2810567,7.69385292 47.2719282,7.71288108 47.2605606,7.73016353 C47.1055475,7.96915018 46.959663,8.17933274 46.8151563,8.37275656 C46.6656548,8.57386147 46.4851507,8.78544059 46.2791555,9.00103482 L45.8976511,9.496116 L45.887726,9.50820499 L45.887726,9.50820499 L45.8771549,9.51950841 C45.8644094,9.53207747 45.8332346,9.5694355 45.7676124,9.67697076 C45.7278257,9.74487858 45.6406739,9.89221586 45.4787713,9.89221586 C45.3802519,9.89221586 45.2918944,9.83356026 45.2484908,9.74138718 C45.1759791,9.60539697 45.0914109,9.46015454 44.9970251,9.30967499 C44.8458012,9.06492753 44.8695699,8.8152921 45.0569635,8.62989851 C45.1162129,8.49163889 45.1702953,8.36106035 45.216627,8.23921033 C45.2674368,8.10339469 45.3079125,7.97595842 45.339604,7.85096613 C45.3613059,7.4770367 45.3625115,7.11061378 45.3442544,6.7609496 C45.3280642,6.42507648 45.2853494,6.07750714 45.2135267,5.69868974 C45.1820074,5.64387469 45.1616834,5.5922019 45.1535883,5.54402051 C45.1435986,5.4796041 45.14756,5.38498703 45.2212774,5.28059403 C45.2695037,5.21163879 45.3487326,5.17270963 45.4334731,5.18178728 L45.6857999,5.20430684 C45.6976842,5.20517969 45.7093963,5.20709996 45.7211084,5.21006766 C45.7290313,5.21198793 45.7481496,5.21530477 45.7838026,5.21530477 C45.8976511,5.21530477 46.074366,5.18231099 46.309297,5.11737087 C46.4591429,5.0749503 46.5285544,5.03532286 46.5581791,5.01367615 C46.5573179,5.01001017 46.5564567,5.00651877 46.55594,5.00285279 C46.4761944,4.5219118 46.3706133,4.05842784 46.2416079,3.62531909 C46.1160473,3.19290862 45.9498389,2.7233147 45.746944,2.22631325 L45.7066406,2.14496352 C45.6942395,2.11982541 45.6863166,2.09294159 45.6833886,2.06501035 C45.6604811,1.84889241 45.7626175,1.74345198 45.8253117,1.69946029 C45.9010958,1.64342324 46.005988,1.61793599 46.1336155,1.63539301 Z M77.3158747,4.09526215 C77.5216977,4.14868065 77.751117,4.26354786 78.0008603,4.43724524 C78.2123671,4.60186497 78.2402694,4.76543728 78.2282128,4.87524195 C78.2168452,4.98015866 78.1520842,5.16659967 77.8439526,5.22787382 L74.8666681,5.64666781 C74.9719047,5.79383052 75.00773,5.87762423 75.0251259,5.93139186 C75.0922982,6.15135035 74.9567479,6.37427654 74.8485832,6.52335952 C74.8410048,6.53435744 74.8322207,6.54430794 74.8225754,6.55356017 C74.5692152,6.80249732 74.3527136,7.05370388 74.1794434,7.30002248 C74.0740345,7.44788347 73.9691423,7.60447297 73.8661447,7.76804527 L75.7755614,7.39865466 L75.4321213,6.70578541 C75.4078359,6.66633254 75.3792446,6.61710373 75.3570261,6.57031891 C75.2986378,6.44061323 75.3446251,6.34512331 75.3668436,6.31003469 C75.4104195,6.24177773 75.498088,6.19516748 75.5780059,6.19516748 C75.6267489,6.19516748 75.6746307,6.20721283 75.738186,6.23601691 C76.2581688,6.44864346 76.7099458,6.80302103 77.0740543,7.28658057 C77.4631372,7.80261018 77.5659625,8.34692016 77.3799468,8.90432292 C77.3721962,8.92754076 77.3610008,8.94936204 77.3467051,8.9689139 C77.2254504,9.13632675 77.1141855,9.23653007 76.9965478,9.28331489 C76.9572778,9.2985025 76.9169744,9.30618359 76.8763265,9.30618359 C76.645357,9.30618359 76.5139404,9.0698155 76.4710534,8.99195717 L76.3558271,8.75401795 C76.2662639,8.6147109 76.1808345,8.44415578 76.1016056,8.24724056 C76.0642302,8.15297264 76.0306441,8.09623731 76.0053253,8.06202154 C75.5270238,8.21040624 75.0731799,8.37118543 74.6541279,8.54016941 C74.2063123,8.71858019 73.7109594,8.94360122 73.1804702,9.20929711 L72.8630379,9.3753134 L72.8102258,9.3951053 L72.8102258,9.3951053 L72.7552176,9.40167351 C72.7083692,9.40167351 72.6618653,9.38735875 72.6215619,9.35960208 C72.4271066,9.22361187 72.2853558,9.06580038 72.1999263,8.89053187 C72.132754,8.75349423 72.0764326,8.61034664 72.0325122,8.4645805 C71.9841137,8.36943972 71.9756741,8.2786632 72.0077101,8.1953932 C72.0387127,8.11474175 72.1050239,8.05434045 72.1897644,8.02867863 C72.2262786,8.01785528 72.2717491,8.00371509 72.3239368,7.98259209 C72.8182563,7.72579928 73.1883931,7.39987665 73.4048947,7.02297952 C73.6093397,6.66685625 73.739034,6.26866155 73.7915662,5.83782221 L72.5647238,6.04294224 C72.3912814,6.05690786 72.3196309,6.056035 72.2698545,6.05167075 C72.1759854,6.04224396 72.0733323,5.99022203 71.9255532,5.87797337 C71.8306507,5.81250953 71.7598614,5.73534949 71.7183524,5.64823894 C71.6604808,5.53162603 71.6634088,5.34274104 71.8663037,5.20343399 C71.8964452,5.18266013 71.9314092,5.16904365 71.9674067,5.16415569 C72.74385,5.06081011 73.5196044,4.92883501 74.2734847,4.77259466 C75.0420051,4.61059348 75.7473146,4.41524939 76.3685726,4.19214863 C76.8057095,4.06925119 77.0964451,4.04254194 77.3158747,4.09526215 Z M46.7100919,5.88059192 L46.2304125,6.02478693 C46.233685,6.04765563 46.2374742,6.0719209 46.2416079,6.09810643 C46.2441915,6.11242119 46.2450527,6.12725966 46.2448804,6.14192356 C46.2369575,6.51742413 46.2311015,6.87476939 46.2273123,7.21343564 C46.2247287,7.43234672 46.21405,7.66016087 46.1954485,7.89425955 L46.7534956,7.4576594 C46.8010329,7.39289384 46.8618325,7.34139563 46.9312439,7.30683072 C46.9632799,7.29094483 47.0221849,7.27628093 47.0578379,7.27628093 C47.1115758,7.27628093 47.1632468,7.29338881 47.2056171,7.3239386 L46.7100919,5.88059192 Z M29.0086314,4.57602857 C28.8749757,4.71812874 28.7525153,4.87017942 28.6569239,5.0162947 C28.5602991,5.16188627 28.4924378,5.31376238 28.454718,5.46930445 C28.4543735,5.47087559 28.454029,5.47244672 28.4533401,5.47384328 C28.4674635,5.48344464 28.4824481,5.49374429 28.4982939,5.50509135 C28.5714945,5.55763699 28.7223739,5.66569596 28.7044613,5.83852049 C28.6956772,5.92423448 28.6266103,6.01623299 28.5482425,6.05044876 C28.4927823,6.07331746 28.4307771,6.08937792 28.3568875,6.10037584 C28.1725942,6.1780596 27.9908844,6.23671519 27.8158918,6.27512065 L27.6679405,6.31066751 L27.6679405,6.31066751 L27.5117217,6.35786694 L27.722884,6.63089478 C27.7709381,6.69304178 27.7855782,6.77526436 27.7619817,6.85050413 C27.7194393,6.98509778 27.6868865,7.11427975 27.6653569,7.2342095 C27.6498556,7.33004856 27.6350433,7.43845667 27.6219533,7.55751357 L28.2203038,7.46202366 C28.2161701,7.39114814 28.243728,7.31957435 28.2995327,7.26982183 L28.4598851,7.12667424 C28.9156235,6.66284113 29.284038,6.20546712 29.543771,5.77777005 C29.7509718,5.43631068 29.9423269,5.07599772 30.1145636,4.70259199 L29.904607,4.75618505 L29.904607,4.75618505 C29.6696761,4.81798292 29.4161436,4.78830598 29.1755288,4.66663053 C29.1433205,4.6538869 29.0735647,4.62560652 29.0086314,4.57602857 Z M60.0382889,6.14838266 L60.0193429,6.14838266 L59.1323236,6.33080855 C59.1643596,6.44183522 59.1910563,6.55809899 59.2120692,6.67785417 C59.2280872,6.76147331 59.2499613,6.83357082 59.2778636,6.89205185 C59.3896453,6.87267455 59.493504,6.85748694 59.5925402,6.84666359 C59.7311908,6.8307777 59.8760419,6.80127533 60.0226154,6.75815648 C60.0243377,6.75763277 60.0258879,6.75710906 60.0277825,6.75658535 C60.0212375,6.60994635 60.0241655,6.42874245 60.036911,6.20721283 C60.0377722,6.18504241 60.0382889,6.16531597 60.0382889,6.14838266 Z M61.8273121,5.77724634 L60.9173853,5.92842416 L60.9177298,6.5879505 C61.0438071,6.56438352 61.1728124,6.54430794 61.3221417,6.52423237 C61.4520082,6.50660077 61.5832526,6.47255958 61.7141525,6.4231562 C61.7417104,6.34006077 61.7616899,6.25818733 61.7747799,6.17858331 C61.7933815,6.05812985 61.8104329,5.92877331 61.8259342,5.78737142 L61.8273121,5.77724634 L61.8273121,5.77724634 Z M27.6453775,4.33669279 L26.4560826,4.55263616 L26.5936998,5.19348349 C26.6278027,5.36002349 26.6615611,5.53407001 26.6932527,5.71859075 L26.7140933,5.71213165 C26.844821,5.67215506 26.9812325,5.6297345 27.1233278,5.58504452 C27.2440658,5.54873391 27.3660094,5.50125081 27.4879531,5.44329349 L27.5585701,5.05749328 C27.5714879,4.92918415 27.5974956,4.73087237 27.6310818,4.47669811 C27.6391769,4.41891537 27.6434829,4.37282882 27.6453775,4.33669279 Z M55.8672313,3.06128267 C56.0585864,3.06966204 56.2408129,3.09776785 56.4142553,3.14664751 C56.5876977,3.19290862 56.7799139,3.26884667 56.9826366,3.37184311 C57.1820867,3.4563351 57.315398,3.57067861 57.3756809,3.71452448 C57.4116783,3.80495186 57.4578378,3.92488161 57.5122646,4.08321681 C57.5269047,4.12528823 57.5296605,4.17085107 57.5193263,4.21484276 C57.4144185,4.68284969 57.1991937,4.81441216 57.0193609,4.83446479 L56.9666186,4.83736021 C56.8088497,4.83736021 56.645397,4.75880361 56.4674764,4.59680243 C56.1209361,4.27891004 55.8171104,3.93727609 55.5635779,3.58132739 C55.4872771,3.4739667 55.4009864,3.35229125 55.4550688,3.21088936 C55.4836601,3.13564959 55.5537604,3.07559743 55.6317837,3.05918783 C55.6801822,3.04871361 55.728753,3.04871361 55.8672313,3.06128267 Z M1.77635684e-15,3.63895302 C6.23118141,-1.93105938 15.1373719,-0.710289744 20.2271403,4.61445148 C16.8275312,3.20881197 15.3502565,2.83523167 12.4410055,2.38449133 C9.65903736,1.95330286 5.21670691,2.64250614 2.50191114,4.63190851 L2.50191114,4.63190851 Z M47.8964587,2.83015168 C48.1002148,2.82508914 48.3189555,2.86419288 48.5762772,2.94397147 C48.8847532,3.03928682 49.1183062,3.24789825 49.2707358,3.56421951 C49.2807255,3.5848188 49.2877872,3.60716379 49.2915764,3.63003249 C49.3396305,3.92331048 49.3117281,4.11987656 49.2035634,4.2492331 C49.1489213,4.31456601 49.0755808,4.35809946 48.9919706,4.37578288 L48.9052494,4.3846996 C48.7919176,4.3846996 48.6630845,4.34192989 48.5118606,4.25377193 C48.1141659,4.02159352 47.7975948,3.70422483 47.5709312,3.31039439 C47.4160904,3.09637129 47.5161599,2.94903401 47.5669698,2.89648837 C47.6286305,2.83800734 47.7333505,2.78668369 47.8964587,2.83015168 Z M69.7601927,2.23381977 C69.8235758,2.23381977 69.9048715,2.24551597 70.0083858,2.26838467 C70.1702884,2.29247537 70.3563041,2.34013304 70.5457645,2.40699344 C70.7581324,2.48397891 70.9649888,2.60687635 71.1627166,2.77394007 C71.173223,2.78266858 71.182696,2.79209537 71.1911356,2.80222044 C71.3952362,3.04382565 71.4834214,3.28892225 71.45328,3.53070202 C71.4181437,3.78714569 71.2440123,3.99488427 70.936053,4.15182291 L70.8841021,4.17098199 L70.8841021,4.17098199 L70.8304719,4.17731016 C70.7732893,4.17731016 70.7167956,4.1560126 70.6725308,4.11568687 C70.4146923,3.87966792 70.204219,3.66389911 70.0474836,3.47449041 C69.9012546,3.29712705 69.7257453,3.04312736 69.525434,2.71877587 L69.5249173,2.71895044 L69.4975316,2.67373675 C69.492709,2.66588109 69.4880586,2.65802543 69.4828915,2.64982063 C69.4610174,2.61298631 69.4499943,2.57248602 69.4487886,2.53233486 C69.4436215,2.47664696 69.4548169,2.42287933 69.4827193,2.37469794 C69.5197502,2.31063067 69.5979456,2.23381977 69.7601927,2.23381977 Z M76.0056697,2.11441373 C76.1415645,2.14810578 76.2781483,2.19768373 76.4100816,2.261751 C76.4236883,2.26855924 76.4369506,2.27676404 76.4491794,2.28619084 C76.518763,2.33873648 76.7302698,2.49934109 76.7021952,2.7379786 C76.6870383,2.87833307 76.5945472,3.00664219 76.4207603,3.12849221 C76.402331,3.14175955 76.382007,3.15188462 76.3606497,3.159042 C76.0225489,3.27216351 75.7082168,3.37271596 75.4159311,3.46506362 C75.1207173,3.55915697 74.8031127,3.63457131 74.4453769,3.69532175 C74.294842,3.72569697 74.1375899,3.75327907 73.9842991,3.77405293 L73.9268582,3.78018471 L73.9268582,3.78018471 L73.8689005,3.78225773 C73.7083759,3.78225773 73.5428563,3.73617119 73.3773368,3.64574381 C73.3604576,3.63649158 73.3453008,3.62549366 73.3311774,3.61275003 C73.141028,3.43870351 73.1494676,3.26552984 73.1713416,3.17824472 C73.2311078,2.9385598 73.4997971,2.77620948 74.0690396,2.63568044 C74.8587452,2.44016178 75.2152752,2.30015646 75.3752832,2.2172356 C75.3942292,2.2078088 75.4138642,2.20047685 75.4343604,2.1961126 L75.5106613,2.18005214 C75.6625741,2.09294159 75.8318828,2.07007289 76.0056697,2.11441373 Z"></path>
                                                </g>
                                            </g>
                                        </g>
                                    </g>
                                </g>
                            </g>
                        </g>
                    </g>
                </g>
            </g>
        </g>
    </g>
</svg>