<svg width="64" height="64" viewBox="0 0 20 20" xmlns="http://www.w3.org/2000/svg"><g fill="#FFF" fill-rule="evenodd"><path fill-opacity=".004" d="M0 0h64v64H0z"/><path d="M16.072 15.477H3.928a.596.596 0 000 1.19h12.144a.596.596 0 000-1.19zm-9.148-1.785a.67.67 0 00.246-.05h.005l3.383-1.592.035-.017 5.753-5.763a1.036 1.036 0 000-1.471l-1.161-1.162a1.04 1.04 0 00-1.471.002L7.983 9.372l-.026.026-.016.033-1.582 3.367c-.094.2-.08.418.038.604.116.179.317.29.527.29zm6.833-8.417l.69-.69.951.951-.69.69-.951-.951zm-5.658 6.614l.844-1.797 3.974-3.976.95.952-3.973 3.976-1.795.845z"/></g></svg>