<?xml version="1.0" encoding="UTF-8"?>
<svg width="23px" height="24px" viewBox="0 0 23 24" version="1.1" xmlns="http://www.w3.org/2000/svg" xmlns:xlink="http://www.w3.org/1999/xlink">
    <defs>
        <linearGradient x1="102.4357%" y1="59.8662305%" x2="16.9160825%" y2="61.7116772%" id="linearGradient-1">
            <stop stop-color="#000000" stop-opacity="0" offset="0%"></stop>
            <stop stop-color="#000000" offset="100%"></stop>
        </linearGradient>
        <linearGradient x1="50%" y1="0.644667832%" x2="50%" y2="100%" id="linearGradient-2">
            <stop stop-color="#FF6B5F" offset="0%"></stop>
            <stop stop-color="#F54436" offset="100%"></stop>
        </linearGradient>
        <linearGradient x1="50%" y1="0%" x2="50%" y2="100%" id="linearGradient-3">
            <stop stop-color="#FE5649" offset="0%"></stop>
            <stop stop-color="#D72A1D" offset="100%"></stop>
        </linearGradient>
    </defs>
    <g id="网点查询" stroke="none" stroke-width="1" fill="none" fill-rule="evenodd">
        <g id="服务查询-查询有网点" transform="translate(-206.000000, -260.000000)">
            <g id="编组-9" transform="translate(206.000000, 260.000000)">
                <path d="M17.5521771,15 C21.9321571,15 24.1163262,16.6835645 22.4306553,18.7603465 C20.9276311,20.612104 16.8554419,22.1512397 12.8856947,22.4630379 L10.6540387,23.8624927 C10.4215005,24.008324 10.1679407,24.04379 10.0876972,23.941708 C10.0707348,23.9201293 10.062511,23.8933193 10.0633981,23.8624927 L10.1037687,22.463058 C6.64002317,22.1513058 5.06628818,20.6121438 6.56934469,18.7603465 C8.25501554,16.6835645 13.1721971,15 17.5521771,15 Z" id="形状结合" fill="url(#linearGradient-1)" fill-rule="nonzero" opacity="0.300000012"></path>
                <path d="M10,0.4375 C12.6386991,0.4375 15.0267375,1.55153843 16.7556623,3.35010763 C18.4907172,5.15505398 19.5625,7.64893639 19.5625,10.4028195 C19.5625,12.8213234 18.7359276,15.0392106 17.359365,16.7661524 C15.9130707,18.580575 13.8595248,19.8532615 11.5216979,20.2427156 L11.5216979,20.2427156 L10.4679317,23.2176494 L8.47830206,20.2427156 C6.14047517,19.8532615 4.0869293,18.580575 2.64063499,16.7661524 C1.26407244,15.0392106 0.4375,12.8213234 0.4375,10.4028195 C0.4375,7.64893639 1.50928275,5.15505398 3.24433772,3.35010763 C4.97326247,1.55153843 7.36130088,0.4375 10,0.4375 Z" id="路径" stroke="url(#linearGradient-3)" stroke-width="0.875" fill="url(#linearGradient-2)"></path>
            </g>
        </g>
    </g>
</svg>