<?xml version="1.0" encoding="UTF-8"?>
<svg width="14px" height="14px" viewBox="0 0 14 14" version="1.1" xmlns="http://www.w3.org/2000/svg" xmlns:xlink="http://www.w3.org/1999/xlink">
    <title>编组 3</title>
    <g id="网点查询" stroke="none" stroke-width="1" fill="none" fill-rule="evenodd">
        <g id="服务查询-查询有网点" transform="translate(-210.000000, -301.000000)" fill-rule="nonzero" stroke="#999999">
            <g id="编组-4" transform="translate(210.000000, 298.000000)">
                <g id="编组-3" transform="translate(0.000000, 3.000000)">
                    <g id="定位" transform="translate(1.000000, 0.000000)">
                        <path d="M5.50276564,0.500875943 C6.88882467,0.500875943 8.13897266,1.05717127 9.04240383,1.96060661 C9.94583795,2.86404489 10.5021303,4.11420247 10.5021303,5.50026594 C10.5021303,6.7967002 9.66005743,8.57646085 8.65209644,10.13435 C7.52914931,11.8699599 6.17450969,13.5 5.50276564,13.5 C4.83098844,13.5 3.47599301,11.8698604 2.35277749,10.134119 C1.34469007,8.57628876 0.502503223,6.79663814 0.502501177,5.49883533 C0.498704764,4.17199524 1.02415419,2.89840971 1.96245055,1.96026262 C2.90074714,1.0221153 4.1744166,0.496868503 5.50276564,0.500875943 Z" id="路径"></path>
                        <path d="M5.50276564,3.50001969 C4.39925735,3.50290469 3.50540439,4.39675766 3.50251938,5.50026594 C3.50540439,6.60377422 4.39925736,7.49762718 5.50276564,7.50051218 C6.6059322,7.49714675 7.49925414,6.60343387 7.50213689,5.50026594 C7.49877386,4.3974397 6.60559188,3.50425772 5.50276564,3.50089469 L5.50276564,3.50001969 Z" id="路径"></path>
                    </g>
                </g>
            </g>
        </g>
    </g>
</svg>