<svg width="153" height="152" xmlns="http://www.w3.org/2000/svg" xmlns:xlink="http://www.w3.org/1999/xlink"><defs><linearGradient x1="50%" y1="98.638%" x2="50%" y2="0%" id="b"><stop stop-color="#FDFDFF" offset="0%"/><stop stop-color="#DFE1FF" offset="100%"/></linearGradient><linearGradient x1="50%" y1="0%" x2="50%" y2="100%" id="d"><stop stop-color="#D1D4FF" stop-opacity="0" offset="0%"/><stop stop-color="#D1D4FF" offset="100%"/></linearGradient><linearGradient x1="50%" y1="0%" x2="50%" y2="100%" id="e"><stop stop-color="#D1D4FF" stop-opacity="0" offset="0%"/><stop stop-color="#D1D4FF" offset="100%"/></linearGradient><linearGradient x1="50%" y1="0%" x2="50%" y2="99.646%" id="f"><stop stop-color="#E5E7FF" offset="0%"/><stop stop-color="#F4F4FF" offset="100%"/></linearGradient><linearGradient x1="50%" y1="0%" x2="50%" y2="99.646%" id="g"><stop stop-color="#E5E7FF" offset="0%"/><stop stop-color="#F4F4FF" offset="100%"/></linearGradient><linearGradient x1="50%" y1="100%" x2="50%" y2="0%" id="h"><stop stop-color="#C3C7FF" stop-opacity=".063" offset="0%"/><stop stop-color="#C4C7F4" offset="100%"/></linearGradient><linearGradient x1="50%" y1="0%" x2="50%" y2="100%" id="i"><stop stop-color="#E4D7FF" offset="0%"/><stop stop-color="#C4AFFF" offset="100%"/></linearGradient><linearGradient x1="50%" y1="0%" x2="50%" y2="99.646%" id="j"><stop stop-color="#FFF" offset="0%"/><stop stop-color="#F4F4FF" offset="100%"/></linearGradient><circle id="a" cx="75" cy="75" r="75"/></defs><g fill="none" fill-rule="evenodd"><path opacity=".3" d="M.5 0h152v152H.5z"/><g transform="translate(1)"><mask id="c" fill="#fff"><use xlink:href="#a"/></mask><use fill="url(#b)" xlink:href="#a"/><rect fill="#DBDDFF" mask="url(#c)" x="-4.5" y="66" width="57" height="20" rx="2"/><rect fill="#DBDDFF" mask="url(#c)" transform="matrix(-1 0 0 1 267 0)" x="108.5" y="88" width="50" height="17" rx="2"/><path fill="url(#d)" mask="url(#c)" d="M13.5 66h10v20h-10z"/><path fill="url(#e)" mask="url(#c)" transform="matrix(-1 0 0 1 257 0)" d="M123.5 88h10v17h-10z"/><path fill="url(#f)" mask="url(#c)" d="M-1.5 86h50v75h-50z"/><path fill="url(#g)" mask="url(#c)" transform="matrix(-1 0 0 1 270 0)" d="M112.5 105h45v47h-45z"/><path fill="url(#h)" mask="url(#c)" d="M11.5 86h10v15l-5-3.168-5 3.168z"/><path fill="url(#h)" mask="url(#c)" transform="matrix(-1 0 0 1 261 0)" d="M125.5 105h10v15l-5-3.168-5 3.168z"/></g><g transform="translate(48 88.316)"><rect stroke="#F8C443" stroke-width="2" fill="#FFFDE5" x="3" y="8.684" width="50" height="53" rx="4"/><rect fill="#F8C443" x="11" y="26.684" width="19" height="2" rx="1"/><rect fill="#F8C443" x="11" y="34.684" width="19" height="2" rx="1"/><rect fill="#F8C443" x="11" y="42.684" width="19" height="2" rx="1"/><rect fill="#F8C443" x="11" y="50.684" width="32" height="2" rx="1"/><path d="M27.5 1.684a5.503 5.503 0 00-5.283 3.964l-.21.72H2a1 1 0 00-1 1v6a1 1 0 001 1h52a1 1 0 001-1v-6a1 1 0 00-1-1H32.992l-.21-.72A5.503 5.503 0 0027.5 1.684z" stroke="#7C57DF" stroke-width="2" fill="url(#i)"/><circle fill="#7C57DF" cx="27.5" cy="8.5" r="1.5"/></g><path d="M60.836 31.905c3.626-3.839 12.691-.813 14.44-.061 12.357 5.299 19.618 12.14 23.884 9.137 1.723-1.211 3.812-2.533 4.997-3.263a1.906 1.906 0 011.897-.072l2.402 1.25a1.959 1.959 0 01.85 2.583c-1.656 3.446-5.786 10.465-6.96 10.465 0 0-13.562-4.569-15.7-5.3-3.072-1.044-1.476 5.57.021 9.885.335.957-.68 1.814-1.563 1.333-7.864-4.298-8.983-11.46-11.177-15.139a1.953 1.953 0 00-.724-.697c-1.716-.94-8.067-4.49-9.729-6.283-1.349-1.455-3.888-2.505-2.638-3.838zm30.131-.2a1.93 1.93 0 011.152.294c1.278.807 1.179 2.72-.176 3.396l-2.254 1.117a1.917 1.917 0 01-1.782-.039l-5.71-3.169c-.476-.266-.317-.996.231-1.034z" fill="url(#j)" transform="matrix(-1 0 0 1 170 0)"/></g></svg>