<svg width="110" height="110" xmlns="http://www.w3.org/2000/svg" xmlns:xlink="http://www.w3.org/1999/xlink"><defs><filter x="-19.4%" y="-11.9%" width="138.9%" height="133.3%" filterUnits="objectBoundingBox" id="a"><feOffset dy="2" in="SourceAlpha" result="shadowOffsetOuter1"/><feGaussianBlur stdDeviation="2" in="shadowOffsetOuter1" result="shadowBlurOuter1"/><feComposite in="shadowBlurOuter1" in2="SourceAlpha" operator="out" result="shadowBlurOuter1"/><feColorMatrix values="0 0 0 0 0 0 0 0 0 0 0 0 0 0 0 0 0 0 0.189821897 0" in="shadowBlurOuter1"/></filter><filter x="-14%" y="-13.5%" width="128%" height="137.8%" filterUnits="objectBoundingBox" id="c"><feOffset dy="2" in="SourceAlpha" result="shadowOffsetOuter1"/><feGaussianBlur stdDeviation="2" in="shadowOffsetOuter1" result="shadowBlurOuter1"/><feComposite in="shadowBlurOuter1" in2="SourceAlpha" operator="out" result="shadowBlurOuter1"/><feColorMatrix values="0 0 0 0 0 0 0 0 0 0 0 0 0 0 0 0 0 0 0.189821897 0" in="shadowBlurOuter1"/></filter><filter x="-12.5%" y="-71.4%" width="125%" height="300%" filterUnits="objectBoundingBox" id="g"><feOffset dy="2" in="SourceAlpha" result="shadowOffsetOuter1"/><feGaussianBlur stdDeviation="2" in="shadowOffsetOuter1" result="shadowBlurOuter1"/><feComposite in="shadowBlurOuter1" in2="SourceAlpha" operator="out" result="shadowBlurOuter1"/><feColorMatrix values="0 0 0 0 0 0 0 0 0 0 0 0 0 0 0 0 0 0 0.189821897 0" in="shadowBlurOuter1"/></filter><path d="M82 32v11h-2v27a4 4 0 01-4 4H50a4 4 0 01-4-4V36a4 4 0 014-4h32z" id="b"/><path id="e" d="M0 6.845l4.768.088L7 5.845 8.5 0l-7 2.853z"/><path d="M3.5 33h17.967l1.866 1.087h8.4L33.6 33h18.9a3.5 3.5 0 010 7h-49a3.5 3.5 0 010-7z" id="h"/><rect id="d" x="3" y="0" width="50" height="37" rx="4"/></defs><g fill="none" fill-rule="evenodd"><path d="M54.21 107c28.897 0 37.017-33.19 52.323-51.937 15.305-18.747-45.184-32.618-55.6-46.611C40.515-5.542-5.96 25.629 1.887 55.063 9.736 84.497 25.313 107 54.21 107z" fill="#E1EAFF" opacity=".2"/><path d="M54.491 92.332C63.491 78.357 96 81.118 96 57.724S77.492 1.626 54.491 20.766c-23 19.14-32.191 5.02-39.55 35.783-7.358 30.763 30.551 49.757 39.55 35.783z" fill="#D6DBFC" opacity=".25"/><circle stroke="#AF99FF" stroke-width="2" cx="47" cy="23" r="2"/><path d="M91.121 55.707l1.06 1.06 1.062-1.06a1 1 0 111.414 1.414l-1.06 1.06 1.06 1.062a1 1 0 11-1.414 1.414l-1.062-1.06-1.06 1.06a1 1 0 11-1.414-1.414l1.06-1.062-1.06-1.06a1 1 0 111.414-1.414z" fill="#72727B"/><rect fill="#72727B" x="35.5" y="90" width="2" height="7" rx="1"/><rect fill="#72727B" transform="rotate(90 36.5 93.5)" x="35.5" y="90" width="2" height="7" rx="1"/><use fill="#000" filter="url(#a)" xlink:href="#b"/><path stroke="#72727B" stroke-width="2" d="M81 33v9h-2v28a2.99 2.99 0 01-.879 2.121A2.99 2.99 0 0176 73h0-26a2.99 2.99 0 01-2.121-.879A2.99 2.99 0 0147 70h0V36c0-.828.336-1.578.879-2.121A2.99 2.99 0 0150 33h31z" stroke-linejoin="square" fill="#FFF"/><rect fill="#AF99FF" x="53" y="37" width="20" height="2" rx="1"/><rect fill="#AF99FF" x="53" y="41" width="14" height="2" rx="1"/><path d="M82 33a2.99 2.99 0 012.121.879A2.99 2.99 0 0185 36h0v6h-6v-6c0-.828.336-1.578.879-2.121A2.99 2.99 0 0182 33z" stroke="#72727B" stroke-width="2" fill="#AF99FF"/><path d="M74 70l.005.15a2 2 0 001.838 1.844L76 72v2a4 4 0 01-3.995-3.8L72 70v-7h-8v-2h10v9z" fill="#72727B" fill-rule="nonzero"/><g transform="translate(21 43.913)"><use fill="#000" filter="url(#c)" xlink:href="#d"/><rect stroke="#72727B" stroke-width="2" stroke-linejoin="square" fill="#FFF" x="4" y="1" width="48" height="35" rx="4"/><g transform="translate(19 5.087)"><rect stroke="#72727B" stroke-width="2" fill="#FFF" transform="rotate(-45 13.793 13.38)" x="12.293" y="8.38" width="3" height="10" rx="1.5"/><circle stroke="#72727B" stroke-width="2" fill="#FFF" cx="8" cy="8" r="7"/><g transform="translate(1.5 1.155)"><mask id="f" fill="#fff"><use xlink:href="#e"/></mask><use fill-opacity="0" fill="#D8D8D8" xlink:href="#e"/><circle stroke="#72727B" stroke-width="2" fill="#FFF" mask="url(#f)" cx="6.5" cy="6.933" r="3"/></g></g><rect fill="#AF99FF" x="9" y="26.087" width="10" height="4" rx="1"/><rect fill="#AF99FF" x="23" y="26.087" width="10" height="4" rx="1"/><rect fill="#AF99FF" x="37" y="26.087" width="10" height="4" rx="1"/><use fill="#000" filter="url(#g)" xlink:href="#h"/><path stroke="#72727B" stroke-width="2" d="M33.87 34H52.5a2.496 2.496 0 012.5 2.5c0 .69-.28 1.315-.732 1.768A2.492 2.492 0 0152.5 39h0-49c-.69 0-1.315-.28-1.768-.732A2.492 2.492 0 011 36.5c0-.69.28-1.315.732-1.768A2.492 2.492 0 013.5 34h17.697l1.866 1.087h8.94L33.87 34z" stroke-linejoin="square" fill="#FFF"/></g><path fill="#72727B" d="M20.088 44.844l1.268-1.846-3.476-3.358-2.129 3.173zm2.652-3.241l2.226-.253.253-4.827-3.791.475z"/></g></svg>