<svg width="110" height="110" xmlns="http://www.w3.org/2000/svg" xmlns:xlink="http://www.w3.org/1999/xlink"><defs><filter x="-19.5%" y="-14.3%" width="139.1%" height="140%" filterUnits="objectBoundingBox" id="a"><feOffset dy="2" in="SourceAlpha" result="shadowOffsetOuter1"/><feGaussianBlur stdDeviation="2" in="shadowOffsetOuter1" result="shadowBlurOuter1"/><feComposite in="shadowBlurOuter1" in2="SourceAlpha" operator="out" result="shadowBlurOuter1"/><feColorMatrix values="0 0 0 0 0 0 0 0 0 0 0 0 0 0 0 0 0 0 0.189821897 0" in="shadowBlurOuter1"/></filter><filter x="-13.3%" y="-9.8%" width="126.7%" height="127.5%" filterUnits="objectBoundingBox" id="c"><feOffset dy="2" in="SourceAlpha" result="shadowOffsetOuter1"/><feGaussianBlur stdDeviation="2" in="shadowOffsetOuter1" result="shadowBlurOuter1"/><feComposite in="shadowBlurOuter1" in2="SourceAlpha" operator="out" result="shadowBlurOuter1"/><feColorMatrix values="0 0 0 0 0 0 0 0 0 0 0 0 0 0 0 0 0 0 0.189821897 0" in="shadowBlurOuter1"/></filter><path d="M53.672 34h20.656a4 4 0 013.986 3.658l2.314 27A4 4 0 0176.642 69H51.358a4 4 0 01-3.986-4.342l2.314-27A4 4 0 0153.672 34z" id="b"/><path d="M7.699.087H42.3a4 4 0 013.988 3.688l3.373 43a4 4 0 01-3.988 4.312H4.326a4 4 0 01-3.988-4.312l3.373-43A4 4 0 017.699.087z" id="d"/></defs><g fill="none" fill-rule="evenodd"><path d="M54.21 107c28.897 0 37.017-33.19 52.323-51.937 15.305-18.747-45.184-32.618-55.6-46.611C40.515-5.542-5.96 25.629 1.887 55.063 9.736 84.497 25.313 107 54.21 107z" fill="#E1EAFF" opacity=".2"/><path d="M54.491 92.332C63.491 78.357 96 81.118 96 57.724S77.492 1.626 54.491 20.766c-23 19.14-32.191 5.02-39.55 35.783-7.358 30.763 30.551 49.757 39.55 35.783z" fill="#D6DBFC" opacity=".25"/><use fill="#000" filter="url(#a)" xlink:href="#b"/><path stroke="#72727B" stroke-width="2" d="M74.328 35c.779 0 1.493.298 2.029.79.536.492.894 1.178.96 1.954h0l2.315 27a2.99 2.99 0 01-.695 2.188 2.99 2.99 0 01-1.999 1.053h0L51.358 68a2.99 2.99 0 01-2.122-.879 2.99 2.99 0 01-.878-2.081h0l2.325-27.296a2.992 2.992 0 01.96-1.954 2.992 2.992 0 012.029-.79h0z" stroke-linejoin="square" fill="#FFF"/><circle stroke="#AF99FF" stroke-width="2" cx="47" cy="23" r="2"/><path d="M91.121 55.707l1.06 1.06 1.062-1.06a1 1 0 111.414 1.414l-1.06 1.06 1.06 1.062a1 1 0 11-1.414 1.414l-1.062-1.06-1.06 1.06a1 1 0 11-1.414-1.414l1.06-1.062-1.06-1.06a1 1 0 111.414-1.414z" fill="#72727B"/><rect fill="#72727B" x="61.5" y="96" width="2" height="7" rx="1"/><rect fill="#72727B" transform="rotate(90 62.5 99.5)" x="61.5" y="96" width="2" height="7" rx="1"/><g transform="translate(24 41.913)"><use fill="#000" filter="url(#c)" xlink:href="#d"/><path stroke="#72727B" stroke-width="2" d="M42.301 1.087c.783 0 1.5.302 2.037.798.537.496.893 1.187.954 1.968h0l3.373 43a2.99 2.99 0 01-.71 2.183 2.99 2.99 0 01-2.01 1.04h0l-41.619.011a2.99 2.99 0 01-2.121-.878 2.99 2.99 0 01-.879-2.085h0L4.708 3.853c.061-.78.417-1.472.954-1.968a2.992 2.992 0 012.037-.798h0z" stroke-linejoin="square" fill="#FFF"/><rect fill="#AF99FF" x="15" y="35.087" width="20" height="2" rx="1"/><rect fill="#AF99FF" x="15" y="40.087" width="20" height="2" rx="1"/><circle fill="#72727B" cx="15" cy="11" r="3"/><circle fill="#72727B" cx="35" cy="11" r="3"/><path d="M16 18a9 9 0 008.735 8.996L25 27a9 9 0 008.996-8.735L34 18v-7h2v7c0 6.075-4.925 11-11 11s-11-4.925-11-11v-7h2v7z" fill="#72727B" fill-rule="nonzero"/></g><path fill="#72727B" d="M20.088 44.844l1.268-1.846-3.476-3.358-2.129 3.173zM22.74 41.603l2.226-.253.253-4.827-3.791.475z"/></g></svg>