<?xml version="1.0" encoding="UTF-8"?>
<svg width="14px" height="14px" viewBox="0 0 14 14" version="1.1" xmlns="http://www.w3.org/2000/svg" xmlns:xlink="http://www.w3.org/1999/xlink">
    <title>-mockplus-</title>
    <g id="页面-2" stroke="none" stroke-width="1" fill="none" fill-rule="evenodd">
        <g id="通知司机取货" transform="translate(-51.000000, -139.000000)" fill="#FE743C" fill-rule="nonzero">
            <g id="分组" transform="translate(31.000000, 39.000000)">
                <g id="提示类/警告图标备份" transform="translate(20.000000, 100.000000)">
                    <path d="M7,0 C10.865625,0 14,3.134375 14,7 C14,10.865625 10.865625,14 7,14 C3.134375,14 0,10.865625 0,7 C0,3.134375 3.134375,0 7,0 Z M7,1.5 C3.96280212,1.5 1.5,3.96280212 1.5,7 C1.5,10.0371979 3.96280212,12.5 7,12.5 C10.0371979,12.5 12.5,10.0371979 12.5,7 C12.5,3.96280212 10.0371979,1.5 7,1.5 Z M6.98042267,5.15071023 C7.53724085,5.20838068 7.79974085,5.65284091 7.70329199,6.14105114 L6.5389454,9.99005682 C6.52403062,10.0775568 6.56976926,10.1650568 6.6483204,10.1928977 C6.73383176,10.2237216 6.91380335,10.112358 7.0589738,9.95326705 L7.75698517,9.11306818 C7.77587721,9.25426136 7.74405903,9.50284091 7.74405903,9.59630682 C7.21905903,10.3848011 6.68411585,10.9933239 5.78525221,10.9933239 C5.1717579,10.8928977 4.91920108,10.4524148 5.05243971,10.0049716 L6.20883176,6.17485795 C6.23766699,6.08039773 6.19093403,5.98096591 6.10542267,5.95014205 C6.0199113,5.91931818 5.85286585,6.03068182 5.7076954,6.18877841 L5.00968403,7.02997159 C4.98979767,6.88977273 5.00670108,6.65610795 5.00670108,6.56164773 C5.5326954,5.77315341 6.39476926,5.15071023 6.98042267,5.15071023 Z M7.5889454,3 C8.03141699,3 8.38937153,3.32215909 8.38937153,3.79644886 C8.38937153,4.27173295 8.03141699,4.59289773 7.5889454,4.59289773 C7.1464738,4.59289773 6.78851926,4.27173295 6.78851926,3.79644886 C6.78851926,3.32215909 7.14746812,3 7.5889454,3 Z" id="形状结合"></path>
                </g>
            </g>
        </g>
    </g>
</svg>