<svg width="48" height="48" xmlns="http://www.w3.org/2000/svg"><g fill="none" fill-rule="evenodd"><circle fill="#7C57DF" cx="24" cy="24" r="24"/><path d="M23.592 13.24a1.114 1.114 0 011.21-.112c.614.301 1.112 1.158 1.112 1.91V31.96c0 .757-.503 1.617-1.121 1.916a1.187 1.187 0 01-.519.124 1.1 1.1 0 01-.689-.247c-1.445-1.147-5.14-4.47-5.911-5.166H13.93A1.933 1.933 0 0112 26.655V19.71c0-1.065.866-1.932 1.93-1.932h4.367c.575-.51 3.995-3.533 5.295-4.537zm.702 1.084c-1.426 1.118-5.183 4.451-5.221 4.485a.64.64 0 01-.31.151.64.64 0 01-.35.105H13.93a.644.644 0 00-.644.644v6.946c0 .355.29.644.644.644h3.996a.64.64 0 01.472.208c.044.04 4.275 3.862 5.898 5.166.135-.124.332-.451.332-.713V15.037c0-.263-.199-.592-.334-.713zm7.275 1.643a.643.643 0 01.908-.05c.078.07 1.934 1.752 2.922 4.536a10.08 10.08 0 01.472 5.027c-.336 2.087-1.334 4.162-2.968 6.167a.642.642 0 01-.905.092.644.644 0 01-.092-.906c1.489-1.827 2.396-3.697 2.695-5.558a8.804 8.804 0 00-.414-4.39c-.88-2.478-2.551-3.994-2.568-4.009a.644.644 0 01-.05-.909zm-2.693 3.407a.643.643 0 01.907-.074c.08.07 1.978 1.711 2.143 4.262.11 1.698-.565 3.367-2.007 4.96a.641.641 0 01-.909.044.644.644 0 01-.044-.91c1.2-1.324 1.763-2.673 1.676-4.01-.13-2.013-1.677-3.351-1.693-3.365a.644.644 0 01-.073-.907z" fill="#FFF" fill-rule="nonzero"/></g></svg>