<svg width="16" height="16" xmlns="http://www.w3.org/2000/svg"><path d="M13 0a2 2 0 012 2v1a.5.5 0 01-.992.09L14 3V2a1 1 0 00-.883-.993L13 1H3a1 1 0 00-.993.883L2 2v12a1 1 0 00.883.993L3 15h3a.5.5 0 01.09.992L6 16H3a2 2 0 01-2-2V2a2 2 0 012-2h10zm1.5 4.804a1.5 1.5 0 01.549 2.049l-4.131 7.155a1 1 0 01-.323.34c-1.12.725-1.819 1.007-2.095.848-.276-.16-.38-.905-.313-2.238a1 1 0 01.133-.45l4.131-7.155a1.5 1.5 0 012.049-.55zm-1.933 2.348l-3.381 5.856-.01.222c-.008.214-.01.408-.008.58l.008.216.046-.023a9.1 9.1 0 00.466-.267l.364-.228 3.381-5.856-.866-.5zM6.5 11a.5.5 0 110 1h-2a.5.5 0 110-1h2zm2-3.5a.5.5 0 010 1h-4a.5.5 0 010-1h4zm4.869-1.72l-.052.073-.25.433.866.5.25-.433a.5.5 0 00-.814-.574zM10.5 4a.5.5 0 110 1h-6a.5.5 0 010-1h6z" fill="#8365F6"/></svg>