<?xml version="1.0" encoding="UTF-8"?>
<svg width="32px" height="6px" viewBox="0 0 32 6" version="1.1" xmlns="http://www.w3.org/2000/svg" xmlns:xlink="http://www.w3.org/1999/xlink">
    <title>形状结合 2</title>
    <g id="申请授权" stroke="none" stroke-width="1" fill="none" fill-rule="evenodd">
        <g id="设置中心-申请付款-详情页面-申请详情-运单申请-运单详情弹框" transform="translate(-1201.000000, -123.000000)" fill="#D8D8D8">
            <g id="编组-3" transform="translate(920.000000, 78.000000)">
                <g id="编组-2" transform="translate(187.000000, 41.000000)">
                    <g id="形状结合-2" transform="translate(94.000000, 4.719774)">
                        <path d="M27.595856,0.146446609 L31.8384967,4.3890873 C31.8926023,4.44319286 31.9317156,4.50661338 31.9558368,4.57418667 C31.9841152,4.63681748 32,4.70666669 32,4.78022599 C32,5.05636836 31.7761424,5.28022599 31.5,5.28022599 L0.5,5.28022599 C0.223857625,5.28022599 3.38176876e-17,5.05636836 0,4.78022599 C-3.38176876e-17,4.50408361 0.223857625,4.28022599 0.5,4.28022599 L30.315,4.28 L26.8887493,0.853553391 C26.6934871,0.658291245 26.6934871,0.341708755 26.8887493,0.146446609 C27.0840114,-0.0488155365 27.4005939,-0.0488155365 27.595856,0.146446609 Z" id="形状结合"></path>
                    </g>
                </g>
            </g>
        </g>
    </g>
</svg>