<svg width="16" height="16" xmlns="http://www.w3.org/2000/svg"><g fill-rule="nonzero" fill="none"><path d="M7.96.5c2.066 0 3.94.741 5.296 1.945 1.335 1.184 2.169 2.818 2.172 4.624 0 1.084-.44 2.065-1.15 2.775a3.914 3.914 0 01-2.776 1.15h0-1.568c-.504 0-.961.206-1.293.537a1.824 1.824 0 00-.536 1.293c0 .459.182.876.457 1.196a.827.827 0 01-.016 1.157.827.827 0 01-.586.243 7.437 7.437 0 01-5.274-2.185A7.437 7.437 0 01.5 7.96c0-2.059.836-3.924 2.186-5.274A7.437 7.437 0 017.96.5z" stroke="#8365F6"/><path d="M4.215 10.168c-.732 0-1.329-.598-1.329-1.33 0-.732.597-1.33 1.33-1.33.732 0 1.329.598 1.329 1.33 0 .732-.597 1.33-1.33 1.33zM5.403 6.508c-.733 0-1.33-.597-1.33-1.33 0-.732.597-1.329 1.33-1.329.732 0 1.329.597 1.329 1.33 0 .732-.597 1.329-1.33 1.329zM9.294 5.625c-.733 0-1.33-.597-1.33-1.33 0-.732.597-1.329 1.33-1.329.732 0 1.329.597 1.329 1.33a1.337 1.337 0 01-1.33 1.329zM11.904 8.41c-.733 0-1.33-.598-1.33-1.33 0-.732.597-1.33 1.33-1.33.732 0 1.33.598 1.33 1.33 0 .732-.598 1.33-1.33 1.33z" fill="#8365F6"/></g></svg>