<svg width="48" height="48" xmlns="http://www.w3.org/2000/svg"><g fill="none" fill-rule="evenodd"><circle fill="#7C57DF" cx="24" cy="24" r="24"/><path d="M29.63 26.598c1.777 0 3.227 1.43 3.227 3.182s-1.45 3.181-3.227 3.181a3.211 3.211 0 01-3.126-2.416h-5.393a3.211 3.211 0 01-3.125 2.416c-1.778 0-3.228-1.43-3.228-3.181 0-1.752 1.45-3.182 3.228-3.182a3.248 3.248 0 013.166 2.558h5.311a3.227 3.227 0 013.167-2.558zm-11.644 1.41c-.981 0-1.798.805-1.798 1.772 0 .966.797 1.772 1.798 1.772.94 0 1.695-.685 1.797-1.57-.02-.041-.02-.081-.02-.122 0-.06 0-.1.02-.16-.04-.947-.837-1.692-1.797-1.692zm11.644 0c-.98 0-1.798.805-1.798 1.772 0 .966.797 1.772 1.798 1.772a1.788 1.788 0 001.797-1.772c0-.967-.817-1.772-1.797-1.772zm1.185-11.357c1.246 0 2.84 1.067 3.309 3.02l1.757 7.43.043.233c.362 2.19-.86 2.856-1.432 3.07a.744.744 0 01-.225.04.716.716 0 01-.674-.483.704.704 0 01.45-.886c.49-.181.632-.725.449-1.671l-1.737-7.41c-.367-1.45-1.47-1.933-1.92-1.933h-1.307v6.04h2.104a.72.72 0 01.715.705.719.719 0 01-.715.705h-2.84a.719.719 0 01-.715-.705v-7.45c0-.383.327-.705.715-.705zM26.177 15c.388 0 .715.322.715.705a.719.719 0 01-.715.705h-11.95c-.184 0-.797.04-.797.563V28.33c0 .262.143.523.388.664a.69.69 0 01.245.967.72.72 0 01-.613.342.842.842 0 01-.367-.1A2.182 2.182 0 0112 28.33V16.993c0-1.167.94-1.993 2.227-1.993zm-.163 8.135a.77.77 0 01.776.765.763.763 0 01-.388.663.786.786 0 01-.776 0 .763.763 0 01-.388-.663.77.77 0 01.776-.765zm0-2.678a.77.77 0 01.776.765.763.763 0 01-.388.663.786.786 0 01-.776 0 .763.763 0 01-.388-.663.77.77 0 01.776-.765zm0-2.678a.77.77 0 01.776.765.763.763 0 01-.388.663.786.786 0 01-.776 0 .763.763 0 01-.388-.663.77.77 0 01.776-.765z" fill="#FFF" fill-rule="nonzero"/></g></svg>