<svg width="14" height="14" xmlns="http://www.w3.org/2000/svg"><g fill="none" fill-rule="evenodd"><path fill-opacity=".004" fill="#FFF" d="M0 0h14v14H0z"/><path d="M7 14a7 7 0 01-7-7 7 7 0 017-7 7 7 0 017 7 7 7 0 01-7 7z" fill="#F8C443"/><path d="M7.408 9.468v-.276c0-.324.072-.612.228-.876.12-.216.3-.432.564-.66.528-.468.852-.78.972-.924.3-.396.456-.864.456-1.404 0-.72-.228-1.284-.672-1.692C8.488 3.204 7.876 3 7.108 3c-.864 0-1.536.264-2.016.792-.48.504-.708 1.176-.708 2.016h.948c0-.588.132-1.044.396-1.38.288-.396.732-.588 1.332-.588.504 0 .9.132 1.176.42.264.264.408.636.408 1.116 0 .336-.12.648-.36.948-.072.096-.216.24-.408.432-.648.576-1.044 1.032-1.212 1.392-.144.3-.216.648-.216 1.044v.276h.96zm-.48 2.268a.736.736 0 00.516-.204.662.662 0 00.216-.516.687.687 0 00-.204-.504.714.714 0 00-.528-.204.687.687 0 00-.516.204.644.644 0 00-.204.504c0 .204.06.372.204.516a.736.736 0 00.516.204z" fill="#FFF" fill-rule="nonzero"/></g></svg>