<?xml version="1.0" encoding="UTF-8"?>
<svg width="24px" height="24px" viewBox="0 0 24 24" version="1.1" xmlns="http://www.w3.org/2000/svg" xmlns:xlink="http://www.w3.org/1999/xlink">
    <title>-mockplus-</title>
    <defs>
        <linearGradient x1="98.0054592%" y1="50%" x2="-10.1678322%" y2="50%" id="linearGradient-1">
            <stop stop-color="#D5E0F7" offset="0%"></stop>
            <stop stop-color="#6997F3" offset="100%"></stop>
        </linearGradient>
        <rect id="path-2" x="0" y="0" width="24" height="24"></rect>
        <filter x="-208.5%" y="-193.5%" width="516.9%" height="486.9%" filterUnits="objectBoundingBox" id="filter-4">
            <feGaussianBlur stdDeviation="8.06666667" in="SourceGraphic"></feGaussianBlur>
        </filter>
        <filter x="-251.0%" y="-332.2%" width="602.1%" height="764.4%" filterUnits="objectBoundingBox" id="filter-5">
            <feGaussianBlur stdDeviation="14.4822857" in="SourceGraphic"></feGaussianBlur>
        </filter>
        <linearGradient x1="100%" y1="0%" x2="12.8456516%" y2="96.6479943%" id="linearGradient-6">
            <stop stop-color="#FFFFFF" stop-opacity="0" offset="0%"></stop>
            <stop stop-color="#FFFFFF" offset="16.8561277%"></stop>
            <stop stop-color="#FFFFFF" offset="77.0090214%"></stop>
            <stop stop-color="#FFFFFF" stop-opacity="0" offset="100%"></stop>
        </linearGradient>
        <linearGradient x1="81.0129131%" y1="0%" x2="26.9547084%" y2="96.6479943%" id="linearGradient-7">
            <stop stop-color="#FFFFFF" stop-opacity="0" offset="0%"></stop>
            <stop stop-color="#FFFFFF" offset="16.8561277%"></stop>
            <stop stop-color="#FFFFFF" offset="77.0090214%"></stop>
            <stop stop-color="#FFFFFF" stop-opacity="0" offset="100%"></stop>
        </linearGradient>
        <linearGradient x1="67.4148929%" y1="0%" x2="37.05922%" y2="96.6479943%" id="linearGradient-8">
            <stop stop-color="#FFFFFF" stop-opacity="0" offset="0%"></stop>
            <stop stop-color="#FFFFFF" offset="16.8561277%"></stop>
            <stop stop-color="#FFFFFF" offset="77.0090214%"></stop>
            <stop stop-color="#FFFFFF" stop-opacity="0" offset="100%"></stop>
        </linearGradient>
        <linearGradient x1="60.1011022%" y1="0%" x2="42.4940026%" y2="96.6479943%" id="linearGradient-9">
            <stop stop-color="#FFFFFF" stop-opacity="0" offset="0%"></stop>
            <stop stop-color="#FFFFFF" offset="16.8561277%"></stop>
            <stop stop-color="#FFFFFF" offset="77.0090214%"></stop>
            <stop stop-color="#FFFFFF" stop-opacity="0" offset="100%"></stop>
        </linearGradient>
        <path d="M6.18591639,12.7906278 C5.78769552,13.4263473 4.90917668,14.0120176 3.55035986,14.5476389 C6.20605517,14.5476389 8.11932288,13.946388 9.29016297,12.7438863 C9.2346862,13.7328655 8.90049135,14.6849034 8.28757843,15.6 C10.09982,14.4408776 11.2868953,12.8212742 11.8488041,10.7411898 C12.3823555,11.7576252 12.6491311,12.7366609 12.6491311,13.6782971 C13.4889226,12.1530895 13.5808845,10.1629588 12.9250167,7.70790516 C13.8571235,8.12095038 14.5887846,8.70793289 15.12,9.46885267 C14.837026,7.71997183 13.7466273,6.13922095 11.8488041,4.72660003 C12.6518611,4.4805687 13.6007727,4.4805687 14.6955389,4.72660003 C13.0549321,3.07449145 9.39272142,2.69953424 9.02479032,2.88005134 C8.92808394,2.62476765 9.7692444,2.03042374 11.5482717,1.09701962 C9.51227352,0.81398551 7.65021122,1.34815705 5.96208476,2.69953424 C5.96208476,1.85964428 6.27600272,0.959799533 6.90383865,0 C5.09910775,1.01072512 3.89018113,2.58625846 3.27705879,4.72660003 C2.73045664,3.79512512 2.45715557,2.82047037 2.45715557,1.80263576 C1.48541843,3.86899041 1.42468485,5.87533808 2.27495486,7.82167877 C1.76640804,7.63629626 1.00808975,7.05425813 0,6.07556437 C0.344536428,7.8928833 1.48783479,9.56095452 3.42989508,11.079778 C2.27495486,11.2734407 0.752734902,10.8855305 0.595517142,10.8855305 C0.512569037,10.8855305 0.66081589,11.8364218 3.043389,12.6318815 C3.46205997,12.7716614 4.5095691,12.8245768 6.18591639,12.7906278 Z" id="path-10"></path>
        <filter x="-141.8%" y="-191.9%" width="383.5%" height="483.8%" filterUnits="objectBoundingBox" id="filter-12">
            <feGaussianBlur stdDeviation="12.1363478" in="SourceGraphic"></feGaussianBlur>
        </filter>
        <filter x="-71.7%" y="-75.3%" width="243.5%" height="250.5%" filterUnits="objectBoundingBox" id="filter-13">
            <feGaussianBlur stdDeviation="3.23635942" in="SourceGraphic"></feGaussianBlur>
        </filter>
        <filter x="-66.7%" y="-71.6%" width="233.3%" height="243.2%" filterUnits="objectBoundingBox" id="filter-14">
            <feGaussianBlur stdDeviation="4.4" in="SourceGraphic"></feGaussianBlur>
        </filter>
        <filter x="-135.5%" y="-144.5%" width="370.9%" height="389.0%" filterUnits="objectBoundingBox" id="filter-15">
            <feGaussianBlur stdDeviation="7.2818087" in="SourceGraphic"></feGaussianBlur>
        </filter>
    </defs>
    <g id="0401迭代-取派异常--五端" stroke="none" stroke-width="1" fill="none" fill-rule="evenodd">
        <g id="取派异常--PC官网-列表" transform="translate(-691.000000, -665.000000)">
            <g id="编组-2" transform="translate(691.000000, 665.000000)">
                <g id="矩形-2">
                    <mask id="mask-3" fill="white">
                        <use xlink:href="#path-2"></use>
                    </mask>
                    <use id="矩形" fill="url(#linearGradient-1)" xlink:href="#path-2"></use>
                    <g id="椭圆形-2" mask="url(#mask-3)" fill="#DDEBFF" opacity="0.699999988">
                        <g transform="translate(-5.280000, -4.440000)" id="路径">
                            <path d="M9.36,9.6859512 C10.4630866,7.85190239 10.6816128,6.19736909 10.6816128,3.78290305 C10.6816128,1.36843702 12.5362925,5.28977446 12.5362925,5.76 C12.5362925,6.23022554 12.2405263,13.4776029 11.8609233,13.8259814 C11.6078547,14.0582338 8.97901638,14.6202172 3.97440846,15.5119316 L3.15456751,11.7076486 C1.10789121,13.0416779 0.471659837,13.4930724 1.2458734,13.0618321 C2.40719374,12.4149715 8.25691342,11.52 9.36,9.6859512 Z" filter="url(#filter-4)"></path>
                        </g>
                    </g>
                    <path d="M6.66642379,7.26764864 C3.74214126,7.70254955 2.92,9.32 4.2,12.12 C6.12,16.32 -0.889668725,18.12 6.12,18.72 C13.1296687,19.32 10.7563071,21.2922035 14.4899463,19.8 C18.2235855,18.3077965 20.270625,17.6066481 19.6729687,14.388771 C19.0753125,11.1708939 21.6332913,10.92 19.0753125,10.32 C16.5173337,9.72 18.6033758,9.67404414 15.3523231,9.12439843 C12.1012704,8.57475271 8.64088767,7.23048 7.97195041,7.36524 C7.52599224,7.45508 7.0908167,7.42254955 6.66642379,7.26764864 Z" id="路径-5" fill="#8DB2F1" opacity="0.897155212" filter="url(#filter-5)" mask="url(#mask-3)"></path>
                    <path d="M12,0.36 C11.3647389,1.82165326 10.4540931,3.26193734 10.2,3.6 M9.24,5.16 C8.63970004,6.07207475 8.07918577,6.81840362 7.56,7.44 M6.48,8.64 C5.59018498,9.5416818 4.86618004,10.0738086 4.32,10.56 M3,11.52 C1.51736171,12.5347477 -0.0826382916,13.4147477 -1.8,14.16" id="形状" stroke="url(#linearGradient-6)" stroke-width="2.2" opacity="0.400000006" stroke-linecap="round" mask="url(#mask-3)"></path>
                    <path d="M-1.8,22.68 C0.0819945376,21.2870993 1.32199454,20.3670993 1.92,19.92 M3.48,18.84 C4.45176312,18.0582947 5.17176312,17.4582947 5.64,17.04 M6.84,15.96 C11.605981,11.378641 14.1650729,7.11922931 15.24,4.08 M15.72,2.52 C15.9811882,1.55309059 16.2211882,0.553090592 16.44,-0.48" id="形状" stroke="url(#linearGradient-7)" stroke-width="2.2" opacity="0.300000012" stroke-linecap="round" mask="url(#mask-3)"></path>
                    <path d="M21.39762,-0.535867294 C21.3212531,0.676546572 21.2443584,1.64618685 21.1669359,2.37305355 M20.8667612,4.44818806 C20.6840378,5.4800349 20.4570216,6.48755776 20.1857126,7.47075664 M19.5590398,9.47637596 C19.0893612,10.8172961 18.5313524,12.1097086 17.8850135,13.3536135 M17.1070004,14.7555941 C16.4730801,15.8275723 15.7694758,16.8612825 14.9961874,17.8567248 M13.6805339,19.4380757 C13.1419562,20.0435422 12.5753134,20.6335964 11.9806053,21.2082381 M10.3775912,22.6620684 C8.9534066,23.8755903 7.39161067,25.0135411 5.69220346,26.0759209" id="形状" stroke="url(#linearGradient-8)" stroke-width="2.2" opacity="0.200000003" stroke-linecap="round" mask="url(#mask-3)"></path>
                    <path d="M23.7516306,7.50752798 C23.0824271,9.49953917 22.6240922,10.8551943 22.376626,11.5744933 M21.6354346,13.6809667 C21.015394,15.3776761 20.4775995,16.7228039 20.0220509,17.7163499 M18.7583808,20.0448826 C18.182183,20.9591932 17.5610823,21.8650069 16.8950785,22.7623237" id="形状" stroke="url(#linearGradient-9)" stroke-width="2.2" opacity="0.200000003" stroke-linecap="round" mask="url(#mask-3)"></path>
                </g>
                <g id="编组" transform="translate(4.440000, 4.200000)">
                    <mask id="mask-11" fill="white">
                        <use xlink:href="#path-10"></use>
                    </mask>
                    <use id="路径-69" fill="#FFFFFF" xlink:href="#path-10"></use>
                    <path d="M3.95095334,12.5700483 C2.56082315,8.96304613 2.56082315,6.34466667 3.95095334,4.71490991 C6.03614863,2.27027477 10.6026075,1.74996323 12.8389999,4.09535315 C15.0753923,6.44074307 21.4997875,2.04410296 20.2815985,1.29032877 C19.0634096,0.536554576 9.1532152,-4.06448714 6.80515442,-4.06448714 C4.45709364,-4.06448714 -1.32809841,-7.01463399 -2.12388788,-4.06448714 C-2.91967736,-1.11434029 -5.25051505,1.14007031 -5.25051505,2.61771173 C-5.25051505,4.09535315 -4.36805534,7.65640682 -3.80534721,8.73927196 C-3.24263908,9.82213711 -2.07285439,12.7024852 -0.241529033,13.172611 C0.97935454,13.4860281 2.55082243,13.624977 4.47287464,13.5894575 L3.95095334,12.5700483 Z" id="路径-70" fill="#EEF6FF" filter="url(#filter-12)" mask="url(#mask-11)"></path>
                    <path d="M8.45026941,15.4469278 C10.2135824,13.5868484 11.2792468,12.0224838 11.6472624,10.753834 C12.4439637,10.9763882 12.8096963,12.3265268 12.8096963,13.594881 C13.1441522,11.0797184 13.1441522,9.1480914 12.8096963,7.8 C13.7298359,7.65410483 14.4999371,8.16248896 15.12,9.3251524 C13.9780055,7.04823902 12.9219331,5.59034429 11.9517828,4.95146822 L13.8634892,5.34110867 C15.4714457,7.2554044 16.275424,8.34510626 16.275424,8.61021423 C16.275424,9.00787619 15.6293135,13.0658202 15.4729868,13.8699336 C15.31666,14.6740471 11.3471938,17.7107849 10.7069905,17.8345209 C10.2801882,17.9170116 8.71044298,17.7071155 5.99775467,17.2048326 L3.64163857,15.7896339 L2.73954942,14.6817272 L3.64163857,14.4969766 C6.33338058,14.3504276 8.18387473,13.7260869 9.19312103,12.6239546 C9.54070402,13.1136079 9.29308681,14.054599 8.45026941,15.4469278 Z" id="路径-71" fill="#CCE5FF" filter="url(#filter-13)" mask="url(#mask-11)"></path>
                    <path d="M0.883887233,12.1745449 C8.04595294,12.1367629 11.396767,9.44845085 10.9363294,4.10960872 C10.4758919,-1.2292334 12.3161721,-1.2292334 16.4571702,4.10960872 C17.4858718,9.64837944 17.865422,12.8101369 17.5958206,13.594881 C17.1914186,14.7719971 15.247256,17.3888358 13.261438,17.8519757 C11.9375594,18.1607356 10.0476361,18.3883596 7.59166816,18.5348476 L0.528743696,16.0978039 L-2.12388788,12.1745449 L0.883887233,12.1745449 Z" id="路径-72" fill="#ABC7FD" filter="url(#filter-14)" mask="url(#mask-11)"></path>
                    <path d="M4.84275839,14.1004604 C5.67083859,14.1004604 10.5380704,14.3778 12.2384846,11.0889 C13.9388988,7.8 12.6686917,4.49015213 11.3984847,3.80199446 C10.1282776,3.11383679 17.1914186,3.12428548 17.1914186,3.6169471 C17.1914186,4.10960872 17.1213354,13.8720801 16.4987682,14.7360401 C15.876201,15.6 14.8287699,17.9201414 11.642086,18.2274945 C9.5176301,18.4323966 7.87914381,18.4323966 6.72662715,18.2274945 L1.20915232,16.348342 C1.01523943,14.3480861 1.01523943,13.4302657 1.20915232,13.594881 C1.50002166,13.8418038 4.01467819,14.1004604 4.84275839,14.1004604 Z" id="路径-73" fill="#F5F9FF" filter="url(#filter-15)" mask="url(#mask-11)"></path>
                </g>
            </g>
        </g>
    </g>
</svg>