<?xml version="1.0" encoding="UTF-8"?>
<svg width="24px" height="24px" viewBox="0 0 24 24" version="1.1" xmlns="http://www.w3.org/2000/svg" xmlns:xlink="http://www.w3.org/1999/xlink">
    <title>-mockplus-</title>
    <defs>
        <linearGradient x1="100%" y1="50%" x2="0%" y2="50%" id="linearGradient-1">
            <stop stop-color="#FFE0D4" offset="0%"></stop>
            <stop stop-color="#FF7A7A" offset="100%"></stop>
        </linearGradient>
        <rect id="path-2" x="0" y="0" width="24" height="24"></rect>
        <filter x="-368.6%" y="-487.8%" width="837.2%" height="1075.6%" filterUnits="objectBoundingBox" id="filter-4">
            <feGaussianBlur stdDeviation="21.2666667" in="SourceGraphic"></feGaussianBlur>
        </filter>
        <linearGradient x1="57.9732633%" y1="0%" x2="50%" y2="90.5353178%" id="linearGradient-5">
            <stop stop-color="#F93030" offset="0%"></stop>
            <stop stop-color="#FFA86B" offset="100%"></stop>
        </linearGradient>
        <path d="M0,0.0928419324 L0,0.788577033 C0.448662521,1.02663802 0.867449575,1.11884649 1.25636116,1.06520242 C1.64527275,1.01155836 2.1064857,0.851964537 2.64,0.586420966 L2.53895999,0 L0,0.0928419324 Z" id="path-6"></path>
        <filter x="-691.1%" y="-316.4%" width="1482.2%" height="732.8%" filterUnits="objectBoundingBox" id="filter-8">
            <feGaussianBlur stdDeviation="1.46666667" in="SourceGraphic"></feGaussianBlur>
        </filter>
        <ellipse id="path-9" cx="4.26" cy="3.83870968" rx="4.26" ry="3.83870968"></ellipse>
        <filter x="-150.2%" y="-117.9%" width="400.4%" height="335.7%" filterUnits="objectBoundingBox" id="filter-11">
            <feGaussianBlur stdDeviation="2.2" in="SourceGraphic"></feGaussianBlur>
        </filter>
        <filter x="-56.0%" y="-29.6%" width="212.0%" height="159.1%" filterUnits="objectBoundingBox" id="filter-12">
            <feGaussianBlur stdDeviation="1.02666667" in="SourceGraphic"></feGaussianBlur>
        </filter>
        <filter x="-131.0%" y="-407.4%" width="361.9%" height="914.8%" filterUnits="objectBoundingBox" id="filter-13">
            <feGaussianBlur stdDeviation="1.46666667" in="SourceGraphic"></feGaussianBlur>
        </filter>
        <path d="M2.78021053,1.04022378e-13 L2.78021053,0.727272727 L2.76600185,0.727482023 C2.66924858,0.881575162 2.09009797,1 1.39010526,1 C0.690112555,1 0.11096195,0.881575162 0.0142086719,0.727482023 L0,0.727272727 L0,1.04022378e-13 L2.78021053,1.04022378e-13 Z" id="path-14"></path>
        <filter x="-817.7%" y="-232.0%" width="1735.4%" height="563.9%" filterUnits="objectBoundingBox" id="filter-16">
            <feGaussianBlur stdDeviation="1.46666667" in="SourceGraphic"></feGaussianBlur>
        </filter>
        <linearGradient x1="0%" y1="48.4882289%" x2="100%" y2="50%" id="linearGradient-17">
            <stop stop-color="#E3AB84" offset="0%"></stop>
            <stop stop-color="#C2724D" offset="100%"></stop>
        </linearGradient>
        <path d="M0.0744678513,10.1231588 C-0.117205482,9.50231791 -0.0747385102,8.18928278 1.90078355,5.85063753 C3.87630562,3.51199229 6.06501216,1.10779961 8.32846348,0.410581596 C10.5919148,-0.286636418 14.6371755,0.0447707012 16.7214724,0.376724422 C18.1110038,0.598026902 21.6309273,1.15830101 27.2812431,2.05754675 C28.4955756,2.50462151 29.1027419,2.97535391 29.1027419,3.46974393 C29.1027419,3.96413396 28.8492848,4.28455716 28.3423708,4.43101354 L10.2432612,9.6190392 C7.53772227,10.3690128 5.43772142,10.7905677 3.94325861,10.8837039 C1.70156438,11.0234081 0.266141185,10.7439996 0.0744678513,10.1231588 Z" id="path-18"></path>
        <filter x="-226.4%" y="-240.0%" width="552.9%" height="580.1%" filterUnits="objectBoundingBox" id="filter-20">
            <feGaussianBlur stdDeviation="15.4691824" in="SourceGraphic"></feGaussianBlur>
        </filter>
        <filter x="-27.8%" y="-79.6%" width="155.6%" height="259.1%" filterUnits="objectBoundingBox" id="filter-21">
            <feGaussianBlur stdDeviation="2.93333333" in="SourceGraphic"></feGaussianBlur>
        </filter>
        <path d="M0.0115312271,2.55034423 L0.869005407,2.69170482 C4.18109202,2.73973723 6.13859752,2.71617713 6.74152191,2.62102452 C7.49928737,2.00719717 8.26517065,1.22761314 9.03917177,0.282272435 C7.71343974,0.116408138 6.75274409,0.0241910478 6.15708481,0.0056211634 C4.7344855,-0.0387288626 3.43391634,0.193919276 2.27398185,0.193919276 C0.650039636,0.193919276 -0.104110571,0.97939426 0.0115312271,2.55034423 Z" id="path-22"></path>
        <filter x="-252.4%" y="-252.2%" width="604.8%" height="604.5%" filterUnits="objectBoundingBox" id="filter-24">
            <feGaussianBlur stdDeviation="5.86666667" in="SourceGraphic"></feGaussianBlur>
        </filter>
        <filter x="-151.4%" y="-229.1%" width="402.9%" height="558.2%" filterUnits="objectBoundingBox" id="filter-25">
            <feGaussianBlur stdDeviation="3.66666667" in="SourceGraphic"></feGaussianBlur>
        </filter>
        <linearGradient x1="29.5372736%" y1="50%" x2="39.5807909%" y2="57.6673307%" id="linearGradient-26">
            <stop stop-color="#FFFFFF" stop-opacity="0.698481206" offset="0%"></stop>
            <stop stop-color="#FFFFFF" stop-opacity="0" offset="100%"></stop>
        </linearGradient>
        <filter x="-168.7%" y="-183.3%" width="437.5%" height="466.6%" filterUnits="objectBoundingBox" id="filter-27">
            <feGaussianBlur stdDeviation="2.93333333" in="SourceGraphic"></feGaussianBlur>
        </filter>
        <filter x="-30.4%" y="-61.8%" width="160.8%" height="223.6%" filterUnits="objectBoundingBox" id="filter-28">
            <feGaussianBlur stdDeviation="2.2" in="SourceGraphic"></feGaussianBlur>
        </filter>
        <filter x="-123.9%" y="-45.8%" width="347.7%" height="191.7%" filterUnits="objectBoundingBox" id="filter-29">
            <feGaussianBlur stdDeviation="3.66666667" in="SourceGraphic"></feGaussianBlur>
        </filter>
    </defs>
    <g id="0401迭代-取派异常--五端" stroke="none" stroke-width="1" fill="none" fill-rule="evenodd">
        <g id="取派异常--PC官网-列表" transform="translate(-691.000000, -521.000000)">
            <g id="矩形-2" transform="translate(691.000000, 521.000000)">
                <mask id="mask-3" fill="white">
                    <use xlink:href="#path-2"></use>
                </mask>
                <use id="矩形" fill="url(#linearGradient-1)" xlink:href="#path-2"></use>
                <path d="M5.34642379,5.46764864 C2.42214126,5.90254955 1.6,7.52 2.88,10.32 C4.8,14.52 -2.20966872,16.32 4.8,16.92 C11.8096687,17.52 9.4363071,19.4922035 13.1699463,18 C16.9035855,16.5077965 18.950625,15.8066481 18.3529687,12.588771 C17.7553125,9.37089385 20.3132913,9.12 17.7553125,8.52 C15.1973337,7.92 17.2833758,7.87404414 14.0323231,7.32439843 C10.7812704,6.77475271 7.32088767,5.43048 6.65195041,5.56524 C6.20599224,5.65508 5.7708167,5.62254955 5.34642379,5.46764864 Z" id="路径-5" fill="#EE6465" opacity="0.5" filter="url(#filter-4)" mask="url(#mask-3)"></path>
                <polygon id="路径-13" fill="#FFB2B1" mask="url(#mask-3)" points="21.3071881 15.629021 -1.58766766 25.44 -2.68907584 19.2 16.3998597 14.0657006 20.2357535 14.748"></polygon>
                <g id="编组-3" opacity="0.699999988" mask="url(#mask-3)">
                    <g transform="translate(4.820870, 5.178390) rotate(-330.000000) translate(-4.820870, -5.178390) translate(0.560870, -1.259870)">
                        <path d="M4.26761598,8.69711432 C4.37428265,9.2597442 4.4098382,9.6997442 4.37428265,10.0171143" id="路径-77" stroke="#CE2E20" stroke-width="0.5" fill="none"></path>
                        <path d="M4.17494808,9.89272403 C4.31198518,9.88387293 4.39449599,9.99380452 4.4224805,10.2225188 C4.46445727,10.5655902 4.43892608,10.8816695 4.43892608,11.2041953 C4.43892608,11.5267211 4.21286862,12.3978324 3.94349875,12.7398628 C3.84543683,12.7888578 3.61415001,12.7822281 3.24963829,12.7199736 C3.73649329,12.3214039 3.99421958,11.8252735 4.02281715,11.2315824 C3.66535748,12.475304 3.11748857,12.4765216 2.99858472,12.6272248 C2.96032204,12.6272248 2.92299925,12.5983363 2.88661635,12.5405593 C3.46212335,11.9086714 3.7984781,11.3962328 3.8956806,11.0032434 C3.9928831,10.610254 4.02929463,10.3712663 4.00491519,10.2862803 C3.98226189,10.1540932 3.98226189,10.0617832 4.00491519,10.0093501 C4.02756849,9.95691698 4.08424612,9.91804163 4.17494808,9.89272403 Z" id="路径-78" stroke="none" fill="url(#linearGradient-5)" fill-rule="evenodd" transform="translate(3.666616, 11.332229) rotate(9.000000) translate(-3.666616, -11.332229) "></path>
                        <g id="路径-79" stroke="none" stroke-width="1" fill="none" fill-rule="evenodd" transform="translate(3.175270, 8.027499)">
                            <mask id="mask-7" fill="white">
                                <use xlink:href="#path-6"></use>
                            </mask>
                            <use id="路径-76" fill="#CE2E20" xlink:href="#path-6"></use>
                            <rect id="矩形" fill="#FFC7AE" filter="url(#filter-8)" mask="url(#mask-7)" x="0.58788357" y="-0.160371462" width="1" height="1.39068671"></rect>
                        </g>
                        <g id="编组" stroke="none" stroke-width="1" fill="none" fill-rule="evenodd" transform="translate(0.000000, 0.000000)">
                            <g id="椭圆形-2" transform="translate(0.000000, 0.722581)">
                                <mask id="mask-10" fill="white">
                                    <use xlink:href="#path-9"></use>
                                </mask>
                                <use id="椭圆形" fill="#FF4244" xlink:href="#path-9"></use>
                                <ellipse id="椭圆形" fill="#FFDC6B" filter="url(#filter-11)" mask="url(#mask-10)" cx="2.80897568" cy="3.70634745" rx="2.19726316" ry="2.8"></ellipse>
                                <path d="M5.11320653,0.0160769515 C6.93631216,0.831325346 7.84786497,2.11089524 7.84786497,3.85478663 C7.84786497,5.59867802 7.05546123,6.87824791 5.47065375,7.69349631 L9.02624336,8.90827919 C10.0040217,7.7592184 10.4929109,6.62970444 10.4929109,5.51973732 C10.4929109,3.85478663 10.9771686,-0.745907946 10.001706,-0.745907946 C9.35139758,-0.745907946 8.17506666,-0.999594095 6.47271325,-1.50696639 L5.29257496,-0.745907946 L5.11320653,0.0160769515 Z" id="路径-2" fill="#FFD083" opacity="0.849273682" filter="url(#filter-12)" mask="url(#mask-10)"></path>
                            </g>
                            <ellipse id="椭圆形" fill="#FFFDF3" filter="url(#filter-13)" cx="3.00919369" cy="2.68254519" rx="1.68" ry="1"></ellipse>
                            <ellipse id="椭圆形" stroke="#CE2E20" stroke-width="0.5" opacity="0.600000024" cx="4.21515789" cy="4.56129032" rx="2.70957895" ry="3.58870968"></ellipse>
                            <ellipse id="椭圆形" stroke="#CE2E20" stroke-width="0.5" opacity="0.600000024" cx="4.26" cy="4.56129032" rx="1.05042105" ry="3.58870968"></ellipse>
                            <g id="形状结合-2" transform="translate(2.797543, 0.246917)">
                                <mask id="mask-15" fill="white">
                                    <use xlink:href="#path-14"></use>
                                </mask>
                                <use id="形状结合" fill="#CE2E20" xlink:href="#path-14"></use>
                                <rect id="矩形" fill="#FFC4A9" filter="url(#filter-16)" mask="url(#mask-15)" x="0.698934428" y="-0.26299346" width="1" height="1.89677419"></rect>
                            </g>
                            <ellipse id="椭圆形" fill="url(#linearGradient-17)" cx="3.99094737" cy="0.316129032" rx="1.39010526" ry="1"></ellipse>
                        </g>
                    </g>
                </g>
                <g id="编组-4" mask="url(#mask-3)">
                    <g transform="translate(3.000000, 8.280000)" id="路径-35">
                        <mask id="mask-19" fill="white">
                            <use xlink:href="#path-18"></use>
                        </mask>
                        <use id="路径-34" fill="#FFFAF9" xlink:href="#path-18"></use>
                        <path d="M9.20068623,10.0232496 C9.36973132,6.41594628 10.8956849,3.07486309 13.7785469,6.66133815e-15 C18.1028399,-4.61229464 10.2056975,-0.91735544 8.85942658,-0.91735544 C7.51315569,-0.91735544 0.591209513,-0.190910192 0.0613058171,0.232904174 C-0.468597879,0.656718541 -5.68836912,4.86350767 -5.42436991,6.37405193 C-5.16037069,7.8845962 -5.70213211,9.46576218 -4.15098032,12.6988305 C-2.59982852,15.9318989 4.97357081,17.0161523 5.39005773,17.0161523 C5.66771567,17.0161523 6.82417195,16.1231917 8.85942658,14.3372706 L9.20068623,10.0232496 Z" id="路径-7" fill="#FFFFFF" filter="url(#filter-20)" mask="url(#mask-19)"></path>
                        <path d="M4.34964759,3.11532854 C1.83979311,7.07180029 0.719325956,9.22146893 0.98824614,9.56433446 C1.58575447,10.3261405 3.36566364,10.0596166 6.8032668,9.35974654 C9.94425491,8.72026509 17.5454044,6.77101368 29.6067154,3.51199229 L24.0834857,8.02305072 C17.3339103,9.81242565 13.6073971,10.8208989 12.9039462,11.0484706 C11.8487697,11.3898281 1.29103197,12.3298367 0.98824614,12.6988305 C0.786388919,12.9448265 -0.226233669,12.351549 -2.04962162,10.9189982 L-1.04726915,4.44913041 C-0.366522352,2.61213891 0.099073423,1.69364316 0.349518178,1.69364316 C0.599962932,1.69364316 1.9333394,2.16753829 4.34964759,3.11532854 Z" id="路径-6" fill="#FF978C" filter="url(#filter-21)" mask="url(#mask-19)"></path>
                        <path d="M0.327276069,7.48158968 C1.70961406,8.08943637 3.60733269,8.18550441 6.02043197,7.76979381 C6.11296347,7.4775056 6.24132593,7.13671097 6.40551936,6.74740994 C3.85702008,7.04093769 2.07646327,6.97722201 1.06384893,6.5562629 C0.0512345936,6.13530379 -0.194289694,6.44374605 0.327276069,7.48158968 Z" id="路径-80" fill="#F9A3A1" mask="url(#mask-19)"></path>
                        <path d="M7.57850595,6.54775877 L7.1049728,7.74360145 C8.38712773,7.50967209 9.17194058,7.33898357 9.45941136,7.2315359 C9.74964515,6.77568448 9.93712776,6.37069965 10.0218592,6.01658142 C9.48798267,6.18979253 9.07502068,6.30814318 8.78297322,6.37163339 C8.49092577,6.43512359 8.08943668,6.49383205 7.57850595,6.54775877 Z" id="路径-81" fill="#F9A3A1" mask="url(#mask-19)"></path>
                        <g id="路径-85" mask="url(#mask-19)">
                            <g transform="translate(3.864774, 0.674686)">
                                <mask id="mask-23" fill="white">
                                    <use xlink:href="#path-22"></use>
                                </mask>
                                <use id="路径-82" stroke="none" fill="#ED8E8B" fill-rule="evenodd" xlink:href="#path-22"></use>
                                <path d="M5.7461304,-0.530352195 C3.71861358,0.507198872 2.2040243,1.88921288 1.20236256,3.61568983 C-0.300130035,6.20540526 -1.1641189,3.19859754 -1.1641189,3.19859754 C-1.1641189,3.19859754 -0.779442129,1.3334348 -0.389721065,1.01895699 C-0.129907022,0.809305113 1.24625561,-0.251274635 3.73876683,-2.16278226 C4.99412806,-2.31013485 5.66324925,-2.346973 5.7461304,-2.2732967 C5.82901155,-2.1996204 5.82901155,-1.6186389 5.7461304,-0.530352195 Z" id="路径-9" stroke="none" fill="#FF9E6A" fill-rule="evenodd" filter="url(#filter-24)" mask="url(#mask-23)"></path>
                                <path d="M0.579407217,2.93003808 C2.67425439,0.998254856 4.12757911,-0.0854783247 4.93938139,-0.321161466 C5.75118367,-0.556844607 4.98216452,-0.674686178 2.63232395,-0.674686178 L-1.1641189,1.35793702 C-2.04648495,1.93158936 -2.2398278,2.42471239 -1.74414748,2.83730611 C-1.24846715,3.24989983 -0.522737282,3.67965249 0.433042125,4.1265641 L0.579407217,2.93003808 Z" id="路径-10" stroke="none" fill="#FFEEE8" fill-rule="evenodd" filter="url(#filter-25)" mask="url(#mask-23)"></path>
                                <path d="M1.8287342,2.95482353 C3.3594433,1.25582998 4.71392108,0.206658513 5.89216752,-0.192690878 C7.07041396,-0.592040269 7.24774572,-0.513387905 6.42416281,0.0432662144 C5.70006124,0.142054667 4.42270328,1.18324622 2.59208893,3.16684086 C1.84162657,3.52908625 1.58717499,3.4584138 1.8287342,2.95482353 Z" id="路径-11" stroke="none" fill="url(#linearGradient-26)" fill-rule="evenodd" mask="url(#mask-23)"></path>
                                <path d="M3.11331569,2.95482353 C4.6440248,1.25582998 5.99850257,0.206658513 7.17674901,-0.192690878 C8.35499546,-0.592040269 8.53232722,-0.513387905 7.70874431,0.0432662144 C6.98464274,0.142054667 5.70728478,1.18324622 3.87667043,3.16684086 C3.12620807,3.52908625 2.87175649,3.4584138 3.11331569,2.95482353 Z" id="路径-11备份" stroke="none" fill="url(#linearGradient-26)" fill-rule="evenodd" opacity="0.300000012" mask="url(#mask-23)"></path>
                                <polygon id="路径-12" stroke="none" fill="#FFBBA5" fill-rule="evenodd" filter="url(#filter-27)" mask="url(#mask-23)" points="8.51246086 -0.0852043738 4.69864161 4.1265641 8.51246086 3.39417335 9.9137725 -0.674686178"></polygon>
                            </g>
                        </g>
                        <path d="M11.8487697,3.51199229 L13.4946638,1.23731385 C13.6865944,1.08821437 14.1463848,1.01366463 14.8740348,1.01366463 C15.6016849,1.01366463 18.6854597,1.35032288 24.1253591,2.02363937 L28.2285194,2.46835469 L29.3169402,2.78328031 L29.3169402,3.22503041 L11.8487697,3.51199229 Z" id="路径-83" fill="#F9A3A1" mask="url(#mask-19)"></path>
                        <path d="M17.6753364,7.70735546 C18.2493423,7.24441803 18.5771437,6.86161568 18.6587407,6.55894843 C18.7811363,6.10494756 19.463439,5.44185194 19.9482811,5.44185194 C20.2715092,5.44185194 23.4614427,4.91591656 29.5180816,3.8640458 L29.1027419,5.01315835 L17.6753364,7.70735546 Z" id="路径-84" fill="#F9A3A1" mask="url(#mask-19)"></path>
                        <path d="M15.6013965,2.05224968 L14.3722685,6.53930273 C14.284093,6.86119601 14.4735587,7.19362243 14.795452,7.28179791 C14.889039,7.30743399 14.9874233,7.31015668 15.0822849,7.28973575 C15.6808791,7.16087591 16.1592415,6.71174424 16.3255385,6.1224521 L17.4255775,2.22433987 C17.540644,1.81658861 17.3033761,1.39276104 16.8956249,1.2776945 C16.8512208,1.26516375 16.8057767,1.25666448 16.7598452,1.25230004 C16.2306097,1.20201166 15.7418476,1.53951912 15.6013965,2.05224968 Z" id="路径-4" stroke="#E48E8C" stroke-width="0.733333333" opacity="0.400000006" mask="url(#mask-19)"></path>
                        <path d="M4.63853742,2.87063566 C2.58243351,5.02535349 1.23496955,6.69667367 0.596145536,7.8845962 C-0.36209048,9.66647999 0.0674420541,10.6215266 1.67110073,10.7702624 C3.2747594,10.9189982 7.78335344,10.2062062 11.1390291,9.26603551 C13.3761462,8.63925507 16.1494491,7.82734077 19.4589379,6.83029261 L19.6581784,7.8845962 C17.8245631,8.80555574 16.9077554,9.26603551 16.9077554,9.26603551 C16.9077554,9.26603551 4.55477633,12.5371919 3.98222927,12.5371919 C3.4096822,12.5371919 -0.845986046,12.3745811 -0.950898467,12.0249525 C-1.05581089,11.6753239 -2.06792489,6.78860767 -2.04962162,6.50349982 C-2.03131836,6.21839197 -1.73486979,3.14857423 -1.39534034,3.14857423 C-1.16898737,3.14857423 -0.0297764453,2.85332564 2.02229244,2.26282846 L3.87630562,1.86085379 L4.63853742,2.71836875 L4.63853742,2.87063566 Z" id="路径-8" fill="#FFFFFF" filter="url(#filter-28)" mask="url(#mask-19)"></path>
                        <rect id="矩形" fill="#FFDACB" filter="url(#filter-29)" mask="url(#mask-19)" x="16.9400881" y="-8.30541176" width="8.88" height="24"></rect>
                    </g>
                </g>
            </g>
        </g>
    </g>
</svg>