<?xml version="1.0" encoding="UTF-8"?>
<svg width="24px" height="24px" viewBox="0 0 24 24" version="1.1" xmlns="http://www.w3.org/2000/svg" xmlns:xlink="http://www.w3.org/1999/xlink">
    <title>-mockplus-</title>
    <defs>
        <linearGradient x1="98.0054592%" y1="50%" x2="-10.1678322%" y2="50%" id="linearGradient-1">
            <stop stop-color="#D5E0F7" offset="0%"></stop>
            <stop stop-color="#6997F3" offset="100%"></stop>
        </linearGradient>
        <rect id="path-2" x="0" y="0" width="24" height="24"></rect>
        <filter x="-402.8%" y="-396.8%" width="905.6%" height="893.5%" filterUnits="objectBoundingBox" id="filter-4">
            <feGaussianBlur stdDeviation="21.2666667" in="SourceGraphic"></feGaussianBlur>
        </filter>
        <filter x="-200.0%" y="-192.0%" width="500.0%" height="484.0%" filterUnits="objectBoundingBox" id="filter-5">
            <feGaussianBlur stdDeviation="9.53333333" in="SourceGraphic"></feGaussianBlur>
        </filter>
        <polygon id="path-6" points="15.8205186 2.16 6.05456648 14.9538487 0 23.5876486 2.06959375 0 12.9561014 0.524541464"></polygon>
        <linearGradient x1="50%" y1="0%" x2="34.3927531%" y2="88.9331987%" id="linearGradient-8">
            <stop stop-color="#ECF8FF" offset="0%"></stop>
            <stop stop-color="#D5EDFF" stop-opacity="0.353501967" offset="100%"></stop>
        </linearGradient>
        <filter x="-175.8%" y="-116.5%" width="451.5%" height="333.0%" filterUnits="objectBoundingBox" id="filter-9">
            <feGaussianBlur stdDeviation="7.33333333" in="SourceGraphic"></feGaussianBlur>
        </filter>
        <polygon id="path-10" points="15.8205186 2.16 6.05456648 14.9538487 0 23.5876486 2.06959375 0 12.9561014 0.524541464"></polygon>
        <filter x="-175.8%" y="-116.5%" width="451.5%" height="333.0%" filterUnits="objectBoundingBox" id="filter-12">
            <feGaussianBlur stdDeviation="7.33333333" in="SourceGraphic"></feGaussianBlur>
        </filter>
        <circle id="path-13" cx="6.90247934" cy="6.90247934" r="6.90247934"></circle>
        <filter x="-58.7%" y="-55.5%" width="217.4%" height="211.0%" filterUnits="objectBoundingBox" id="filter-15">
            <feGaussianBlur stdDeviation="3.66666667" in="SourceGraphic"></feGaussianBlur>
        </filter>
        <filter x="-25.8%" y="-22.2%" width="151.6%" height="144.4%" filterUnits="objectBoundingBox" id="filter-16">
            <feGaussianBlur stdDeviation="1.46666667" in="SourceGraphic"></feGaussianBlur>
        </filter>
        <circle id="path-17" cx="3.27378373" cy="3.27378373" r="3.27378373"></circle>
        <filter x="-77.7%" y="-69.4%" width="255.4%" height="238.8%" filterUnits="objectBoundingBox" id="filter-19">
            <feGaussianBlur stdDeviation="2.2" in="SourceGraphic"></feGaussianBlur>
        </filter>
        <filter x="-26.0%" y="-24.4%" width="152.1%" height="148.8%" filterUnits="objectBoundingBox" id="filter-20">
            <feGaussianBlur stdDeviation="0.733333333" in="SourceGraphic"></feGaussianBlur>
        </filter>
        <filter x="-143.4%" y="-117.2%" width="386.9%" height="334.5%" filterUnits="objectBoundingBox" id="filter-21">
            <feGaussianBlur stdDeviation="2.2" in="SourceGraphic"></feGaussianBlur>
        </filter>
        <filter x="-29.4%" y="-293.7%" width="158.7%" height="687.3%" filterUnits="objectBoundingBox" id="filter-22">
            <feGaussianBlur stdDeviation="0.733333333" in="SourceGraphic"></feGaussianBlur>
        </filter>
        <rect id="path-23" x="0" y="0" width="6.99230789" height="1.12376377" rx="0.561881884"></rect>
        <filter x="-44.2%" y="-182.7%" width="188.4%" height="465.3%" filterUnits="objectBoundingBox" id="filter-25">
            <feGaussianBlur stdDeviation="1.46666667" in="SourceGraphic"></feGaussianBlur>
        </filter>
        <path d="M1.68564565,0 C2.56306458,-1.61179241e-16 3.27435315,0.711288574 3.27435315,1.5887075 C3.27435315,1.62005672 3.27342525,1.65139908 3.27157067,1.6826934 L2.94590421,7.17801337 C2.9063723,7.84507768 2.35388032,8.36579695 1.68564565,8.36579695 C1.01741099,8.36579695 0.464919002,7.84507768 0.425387096,7.17801337 L0.0997206358,1.6826934 C0.0478136572,0.806811194 0.715777553,0.0546894578 1.59165975,0.00278247927 C1.62295407,0.000927899374 1.65429643,5.75875901e-18 1.68564565,0 Z" id="path-26"></path>
        <filter x="-69.8%" y="-21.7%" width="239.6%" height="143.4%" filterUnits="objectBoundingBox" id="filter-28">
            <feGaussianBlur stdDeviation="0.852197867" in="SourceGraphic"></feGaussianBlur>
        </filter>
        <filter x="-104.3%" y="-21.9%" width="308.6%" height="143.8%" filterUnits="objectBoundingBox" id="filter-29">
            <feGaussianBlur stdDeviation="0.822481733" in="SourceGraphic"></feGaussianBlur>
        </filter>
        <filter x="-49.5%" y="-131.0%" width="199.1%" height="361.9%" filterUnits="objectBoundingBox" id="filter-30">
            <feGaussianBlur stdDeviation="0.763049473" in="SourceGraphic"></feGaussianBlur>
        </filter>
        <linearGradient x1="50%" y1="0%" x2="50%" y2="100%" id="linearGradient-31">
            <stop stop-color="#FFFFFF" offset="0%"></stop>
            <stop stop-color="#D9E9FF" offset="100%"></stop>
        </linearGradient>
    </defs>
    <g id="0401迭代-取派异常--五端" stroke="none" stroke-width="1" fill="none" fill-rule="evenodd">
        <g id="取派异常--PC官网-列表" transform="translate(-691.000000, -377.000000)">
            <g id="取派异常小图-会议" transform="translate(691.000000, 377.000000)">
                <g id="矩形-2">
                    <mask id="mask-3" fill="white">
                        <use xlink:href="#path-2"></use>
                    </mask>
                    <use id="矩形" fill="url(#linearGradient-1)" xlink:href="#path-2"></use>
                    <path d="M5.02939586,5.46764864 C2.35310058,6.00234639 1.60067917,7.99095371 2.77213163,11.4334706 C4.52931032,16.5972459 -1.8859191,18.8102925 4.52931032,19.5479747 C10.9445397,20.2856568 8.77244575,22.7104224 12.189462,20.8758026 C15.6064783,19.0411827 17.4799232,18.1791415 16.9329498,14.2228571 C16.3859765,10.2665728 18.7270316,9.95810621 16.3859765,9.22042402 C14.0449214,8.48274183 15.9540613,8.42624047 12.9787069,7.75046738 C10.0033525,7.0746943 6.83641974,5.4219509 6.22421022,5.58763432 C5.81607053,5.69808993 5.41779908,5.65809471 5.02939586,5.46764864 Z" id="路径-5" fill="#7AAEEC" opacity="0.57547433" filter="url(#filter-4)" mask="url(#mask-3)"></path>
                    <path d="M6.76886365,6.96147306 C3.36045699,10.9583213 2.65281283,14.491344 4.64593117,17.5605411 C7.63560868,22.1643368 14.5142702,20.2464195 17.1534977,17.8309059 C19.7927252,15.4153923 14.0216523,11.0994809 13.6262588,10.8687122 C13.3626632,10.7148664 12.3046654,8.91451186 10.4522655,5.46764864 L6.76886365,6.96147306 Z" id="路径-10" fill="#EAFBFF" opacity="0.50906808" filter="url(#filter-5)" mask="url(#mask-3)"></path>
                    <g id="编组-3" mask="url(#mask-3)">
                        <g transform="translate(-7.326910, -2.280000)">
                            <mask id="mask-7" fill="white">
                                <use xlink:href="#path-6"></use>
                            </mask>
                            <g id="路径-11" stroke="none" fill="none"></g>
                            <path d="M15.2027718,1.08 L7.91025931,18.6423706 C11.5573398,17.260659 13.533834,16.2265355 13.8397418,15.54 C14.2986036,14.5101968 20.6827566,-0.24 20.4193022,-0.24 C20.243666,-0.24 18.5048225,0.2 15.2027718,1.08 Z" id="路径-12" stroke="none" fill="url(#linearGradient-8)" fill-rule="evenodd" filter="url(#filter-9)" mask="url(#mask-7)"></path>
                        </g>
                    </g>
                    <g id="编组-3备份" opacity="0.600000024" mask="url(#mask-3)">
                        <g transform="translate(0.593090, -2.280000)">
                            <mask id="mask-11" fill="white">
                                <use xlink:href="#path-10"></use>
                            </mask>
                            <g id="路径-11" stroke="none" fill="none"></g>
                            <path d="M15.2027718,1.08 L7.91025931,18.6423706 C11.5573398,17.260659 13.533834,16.2265355 13.8397418,15.54 C14.2986036,14.5101968 20.6827566,-0.24 20.4193022,-0.24 C20.243666,-0.24 18.5048225,0.2 15.2027718,1.08 Z" id="路径-12" stroke="none" fill="url(#linearGradient-8)" fill-rule="evenodd" filter="url(#filter-12)" mask="url(#mask-11)"></path>
                        </g>
                    </g>
                </g>
                <g id="编组" transform="translate(4.509016, 5.390989)">
                    <mask id="mask-14" fill="white">
                        <use xlink:href="#path-13"></use>
                    </mask>
                    <use id="椭圆形" fill="#BFEAFF" xlink:href="#path-13"></use>
                    <path d="M11.8495059,10.547613 C11.5886435,10.547613 11.3900282,10.4904715 11.3081491,10.1669186 C11.2262699,9.84336563 11.171271,9.8243591 11.0781735,9.75377108 C10.985076,9.68318307 11.0179661,9.28136319 11.2048895,9.0231961 C11.391813,8.76502901 11.3034141,8.59381413 11.5413663,8.39801653 C11.7793186,8.20221893 12.0551145,7.97657768 12.1595031,7.88406295 C12.2638918,7.79154822 12.4397426,7.70425889 12.3518172,7.30336912 C12.2638918,6.90247934 12.7231145,6.86017257 12.8799889,6.98138872 C13.0368633,7.10260487 13.1984727,7.35851372 13.475944,7.30336912 C13.7534154,7.24822451 14.0100527,7.26588972 14.1078852,7.4350387 C14.2057177,7.60418768 14.4356569,7.96754475 14.1672185,8.52653041 C13.8987801,9.08551606 13.5381183,9.16539197 13.351377,9.16539197 C13.1646356,9.16539197 12.6686984,9.26708533 12.5102578,9.66183912 C12.3518172,10.0565929 12.1103683,10.547613 11.8495059,10.547613 Z" id="路径-86" fill="#93C3FF" opacity="0.900000036" mask="url(#mask-14)"></path>
                    <path d="M-1.19389831,6.79616362 C-0.675423366,6.69318627 -0.351165988,6.85558439 -0.221126173,7.283358 C0.233523256,7.0247759 0.601596123,8.07731703 0.811773499,8.57434375 C1.02195088,9.07137046 1.22715902,9.61084672 2.02545511,9.03560601 C2.8237512,8.4603653 2.870154,8.02494781 3.77413368,8.02494781 C4.67811336,8.02494781 4.50719989,7.84530077 4.75041214,7.62189545 C4.99362439,7.39849012 5.73109992,7.08598863 6.12590863,7.08598863 C6.52071735,7.08598863 6.77806741,7.47407839 7.30809513,7.47407839 C7.83812286,7.47407839 8.33077639,7.43936378 8.33077639,7.86027845 C8.33077639,8.28119311 7.77153382,8.28021326 7.43420087,8.28021326 C7.09686792,8.28021326 6.65803604,8.57059819 6.65803604,8.8031021 C6.65803604,9.03560601 7.08417051,9.13107119 7.43420087,9.13107119 C7.78423123,9.13107119 8.33077639,9.41510804 8.33077639,10.0698809 C8.33077639,10.7246538 7.78871053,11.071961 7.30809513,11.2935955 C6.82747974,11.51523 6.24391032,11.7806442 6.65803604,12.2194774 C7.07216176,12.6583107 7.87633693,12.8372759 7.87633693,13.1065941 C7.87633693,13.3759123 7.80662775,13.7171093 7.67448826,13.9237873 C7.54234877,14.1304652 8.19772705,14.3481314 8.33077639,14.3481314 C8.46382574,14.3481314 8.78521586,15.2340776 8.33077639,15.4768231 C8.02781675,15.6386534 6.40292564,15.8175067 3.45610304,16.0133829 C1.28280039,15.0240631 0.196149057,14.4991913 0.196149057,14.4387673 C0.196149057,14.3783434 -0.522126119,13.1264477 -1.95867647,10.6830803 L-2.52836914,7.283358 L-1.19389831,6.79616362 Z" id="路径-87" fill="#93C3FF" opacity="0.900000036" mask="url(#mask-14)"></path>
                    <path d="M1.56236062,1.75670193 C1.54574986,2.55826418 1.90201789,2.90820986 2.63116471,2.80653898 C3.72488495,2.65403265 3.16938117,3.18217067 3.16938117,3.50846002 C3.16938117,3.83474938 3.61948131,3.78106771 3.85786431,3.78106771 C4.0962473,3.78106771 4.14733937,3.88500158 4.32931113,3.99418463 C4.51128288,4.10336768 5.19955605,4.05367539 5.39363592,3.78106771 C5.5877158,3.50846002 6.23952462,3.82824039 6.35591656,3.99418463 C6.47230849,4.16012887 7.53810306,3.86785424 7.36285026,3.2786157 C7.18759746,2.68937716 7.57344757,2.91810166 7.72630384,2.68349807 C7.87916012,2.44889449 7.6408618,2.08019172 8.13448049,1.91844683 C8.62809917,1.75670193 9.33638187,1.84726787 9.75958221,1.54925413 C10.1827825,1.25124039 10.1841123,0.606710435 10.0862675,0.367907502 C9.98842272,0.129104569 9.46490398,-0.112777886 8.41387712,-0.112777886 C7.36285026,-0.112777886 5.34709315,0.0509267041 4.98846881,-0.112777886 C4.74938592,-0.221914279 3.96361789,-0.252172915 2.63116471,-0.203553795 L2.12899266,0.950986996 L1.56236062,1.75670193 Z" id="路径-88" fill="#93C3FF" opacity="0.900000036" mask="url(#mask-14)"></path>
                    <path d="M4.69864257,6.75015599e-14 C2.51700354,4.023981 2.25719602,7.17206956 3.91922001,9.44426567 C6.412256,12.8525598 13.3286768,11.9321823 14.1146592,6.92160844 C14.9006415,1.91103462 16.3779993,14.1607913 15.6552128,14.8133829 C14.9324263,15.4659746 11.1486638,17.5004683 10.3803369,17.5004683 C9.61200999,17.5004683 -0.508093344,18.2922407 -0.74695752,17.5004683 C-0.985821696,16.7086959 -2.89571004,9.01777035 -2.89571004,7.9696894 C-2.89571004,6.92160844 -2.5646097,1.78966067 -2.01040268,1.04953622 C-1.45619566,0.309411784 -0.648021316,-1.64454789 0.101232575,-1.93946315 C0.600735168,-2.13607332 2.13320517,-1.4895856 4.69864257,6.75015599e-14 Z" id="路径" fill="#4C98F7" filter="url(#filter-15)" mask="url(#mask-14)"></path>
                    <path d="M4.68541485,0.629160855 C3.3518757,1.10826947 -0.107070129,2.74122882 0.491223699,7.67188408 C1.08951753,12.6025393 5.17527512,13.4530263 6.90247934,13.4530263 C8.62968356,13.4530263 12.2285542,12.638343 13.501632,8.73461074 C14.3503506,6.13212255 14.7495427,7.82358945 14.6992085,13.8090114 C9.9705928,16.3217682 7.229704,17.5781466 6.47654207,17.5781466 C5.34679918,17.5781466 -0.102507678,14.7682654 -0.102507678,14.286612 C-0.102507678,13.8049587 -1.42026436,8.51400761 -1.68836914,7.93925846 C-1.86710565,7.55609236 -2.08650932,5.69884315 -2.34658012,2.36751085 L-1.95647391,-1.16895157 L2.64167097,-2.2343784 C7.47019809,-1.83591304 10.6869194,-0.386653329 12.2918351,2.11340074 C8.75720877,-0.551769139 6.01895399,0.150052241 4.68541485,0.629160855 Z" id="路径-2" fill="#E7F2FF" filter="url(#filter-16)" mask="url(#mask-14)"></path>
                </g>
                <g id="编组-29" transform="translate(11.777736, 11.666285) rotate(-30.000000) translate(-11.777736, -11.666285) translate(7.594837, 3.616615)">
                    <g id="椭圆形-2" transform="translate(0.914189, 0.000000)">
                        <mask id="mask-18" fill="white">
                            <use xlink:href="#path-17"></use>
                        </mask>
                        <use id="椭圆形" fill="#5A596B" xlink:href="#path-17"></use>
                        <path d="M4.04778851,-1.62092562e-14 C3.15368636,0.343008664 2.5898761,0.623156029 2.35635773,0.840442097 C1.58471996,1.55844186 1.30500001,2.4819337 1.30500001,3.27378373 C1.30500001,5.00073786 2.13705242,5.41496816 3.30885999,5.41496816 C4.48066755,5.41496816 5.50216165,5.40075422 6.54756746,3.7816173 C7.24450467,2.70219268 7.12029985,3.75501314 6.17495299,6.94007868 L1.30500001,8.26029042 C-0.0124439968,7.28389508 -0.671165999,6.52822531 -0.671165999,5.99328112 C-0.671165999,5.45833693 -0.947555542,3.74072393 -1.50033463,0.840442097 C-0.428450621,-0.111122122 0.16645961,-0.586904231 0.284396065,-0.586904231 C0.461300749,-0.586904231 1.99159305,-1.25172218 1.99159305,-1.25172218 C1.99159305,-1.25172218 2.67699154,-0.834481452 4.04778851,-1.62092562e-14 Z" id="路径-3" fill="#110F38" filter="url(#filter-19)" mask="url(#mask-18)"></path>
                        <path d="M3.39485747,2.22044605e-16 C1.75546005,0.0464139665 0.740759043,0.932365143 0.350754458,2.65785353 C-0.234252418,5.24608611 2.39939285,6.36799469 3.14892109,6.36799469 C3.89844933,6.36799469 5.37948002,6.29355238 6.44929677,3.99923273 C7.16250794,2.46968629 7.11843331,3.22929137 6.31707287,6.27804795 L4.11228961,7.16690133 C3.43582227,7.41095813 2.80061059,7.53298653 2.20665454,7.53298653 C1.31572048,7.53298653 -0.836374572,6.31341952 -0.836374572,5.83459448 C-0.836374572,5.35576944 -1.50033463,1.91647132 -1.50033463,1.75082229 C-1.50033463,1.58517326 -0.603204093,-0.328786033 -0.603204093,-0.42906067 C-0.603204093,-0.529335306 1.04727371,-1.48940166 1.25625329,-1.48940166 C1.395573,-1.48940166 2.15654282,-1.36752236 3.53916275,-1.12376377 L3.39485747,2.22044605e-16 Z" id="路径-4" fill="#7F95C0" filter="url(#filter-20)" mask="url(#mask-18)"></path>
                        <path d="M3.14892109,2.22044605e-16 C5.14431164,0.677111424 6.22129242,1.93765052 6.37986344,3.7816173 C6.61771997,6.54756746 7.75035263,3.39798456 7.75035263,3.30885999 C7.75035263,3.21973542 7.31009003,0.508837676 6.37986344,0.178539952 C5.75971239,-0.0416585303 4.68699373,-0.339093703 3.16170747,-0.713765565 L3.14892109,-0.183893275 L3.14892109,2.22044605e-16 Z" id="路径-6" fill="#7A95CE" filter="url(#filter-21)" mask="url(#mask-18)"></path>
                        <rect id="矩形" fill="#292940" filter="url(#filter-22)" mask="url(#mask-18)" x="-0.499450564" y="3.37129131" width="7.49175846" height="1"></rect>
                    </g>
                    <g id="矩形-3" transform="translate(0.691818, 2.657854)">
                        <mask id="mask-24" fill="white">
                            <use xlink:href="#path-23"></use>
                        </mask>
                        <use id="矩形" fill="#1C1C26" xlink:href="#path-23"></use>
                        <path d="M0.222370216,0.651006455 C0.16377676,0.342484857 0.416796248,0.188224058 0.981428681,0.188224058 C1.54606111,0.188224058 3.27503403,0.188224058 6.16834743,0.188224058 C6.61617594,0.295154483 6.84009019,0.51390036 6.84009019,0.844461689 C6.84009019,1.34030368 8.40233081,0.188224058 8.40233081,0.188224058 C8.40233081,0.188224058 7.00563123,-0.838876084 6.16834743,-0.838876084 C5.33106364,-0.838876084 3.06495079,-0.938699719 1.82837733,-0.684814698 C0.591803873,-0.430929677 -0.471311383,-0.959698835 -0.749175846,-0.297879966 C-1.02704031,0.363938902 -2.03062406,-0.0446085006 -1.27796441,0.615930201 C-0.525304761,1.2764689 -0.00151113265,1.71167959 -0.00151113265,1.49407425 C-0.00151113265,1.34900402 0.0731159835,1.06798142 0.222370216,0.651006455 Z" id="路径-7" fill="#B3BBDC" filter="url(#filter-25)" mask="url(#mask-24)"></path>
                    </g>
                    <g id="矩形-4" transform="translate(2.520196, 7.733542)">
                        <mask id="mask-27" fill="white">
                            <use xlink:href="#path-26"></use>
                        </mask>
                        <use id="矩形" fill="#424152" xlink:href="#path-26"></use>
                        <path d="M2.47905532,-1.18597448 L2.18163668,9.23014576 L4.94156035,9.23014576 C5.54425423,4.21769128 5.84560117,1.64567065 5.84560117,1.51408388 C5.84560117,1.3824971 5.84560117,0.0302434403 5.84560117,-2.54267711 L2.92762326,-1.36554726 L2.47905532,-1.18597448 Z" id="路径-8" fill="#636D91" filter="url(#filter-28)" mask="url(#mask-27)"></path>
                        <polygon id="路径-9" fill="#50587D" filter="url(#filter-29)" mask="url(#mask-27)" points="0.832212654 -1.47251996 0.889703813 9.79497225 -0.587157753 9.54635287 -1.47556112 4.30776111 -1.29718698 0.221702973 -1.29718698 -1.47251996"></polygon>
                        <rect id="矩形" fill="#3E4056" opacity="0.542201451" filter="url(#filter-30)" mask="url(#mask-27)" x="-0.998901128" y="0.874038487" width="4.61991772" height="1.74807697"></rect>
                    </g>
                    <rect id="矩形" fill="url(#linearGradient-31)" x="-2.18278728e-13" y="5.75691781" width="8.36579695" height="4.2250341" rx="2.11251705"></rect>
                    <path d="M1.09687286,8.30258261 L1.09687286,7.56539358 L1.10286626,7.56539358 L1.41752012,8.30258261 L1.56885364,8.30258261 L1.88350749,7.56539358 L1.8895009,7.56539358 L1.8895009,8.30258261 L2.06480805,8.30258261 L2.06480805,7.2327595 L1.85953387,7.2327595 L1.49693276,8.07183645 L1.49093935,8.07183645 L1.12683989,7.2327595 L0.921565708,7.2327595 L0.921565708,8.30258261 L1.09687286,8.30258261 Z M3.07170039,8.30258261 L3.07170039,8.15274744 L2.44988443,8.15274744 L2.44988443,7.82910348 L3.01026797,7.82910348 L3.01026797,7.67926831 L2.44988443,7.67926831 L2.44988443,7.38259467 L3.04622841,7.38259467 L3.04622841,7.2327595 L2.27457729,7.2327595 L2.27457729,8.30258261 L3.07170039,8.30258261 Z M4.03364217,8.30258261 L4.03364217,8.15274744 L3.41182622,8.15274744 L3.41182622,7.82910348 L3.97220975,7.82910348 L3.97220975,7.67926831 L3.41182622,7.67926831 L3.41182622,7.38259467 L4.00817019,7.38259467 L4.00817019,7.2327595 L3.23651907,7.2327595 L3.23651907,8.30258261 L4.03364217,8.30258261 Z M4.64197296,8.30258261 L4.64197296,7.38259467 L4.99258725,7.38259467 L4.99258725,7.2327595 L4.11605152,7.2327595 L4.11605152,7.38259467 L4.46666581,7.38259467 L4.46666581,8.30258261 L4.64197296,8.30258261 Z M5.2952543,8.30258261 L5.2952543,7.2327595 L5.11994715,7.2327595 L5.11994715,8.30258261 L5.2952543,8.30258261 Z M5.68033068,8.30258261 L5.68033068,7.52044303 L5.68632409,7.52044303 L6.22123564,8.30258261 L6.39204773,8.30258261 L6.39204773,7.2327595 L6.21524224,7.2327595 L6.21524224,8.00441063 L6.20924883,8.00441063 L5.68033068,7.2327595 L5.50502353,7.2327595 L5.50502353,8.30258261 L5.68033068,8.30258261 Z M7.08578457,8.32355954 C7.18167908,8.32355954 7.26708512,8.31157272 7.34499941,8.2875991 C7.41841864,8.26362547 7.48284777,8.23066173 7.53978513,8.18571118 L7.53978513,7.73320897 L7.08128951,7.73320897 L7.08128951,7.88304414 L7.36447798,7.88304414 L7.36447798,8.10330184 C7.32851754,8.12427876 7.29105875,8.14076063 7.2491049,8.15274744 C7.20415435,8.16473426 7.1562071,8.17072766 7.10526314,8.17072766 C6.97490654,8.17072766 6.87901203,8.13476722 6.81757962,8.06284634 C6.76064225,7.99542052 6.73217357,7.89802766 6.73217357,7.77216611 C6.73217357,7.64031117 6.76363895,7.5399216 6.82806808,7.46800072 C6.88650379,7.39907654 6.96591643,7.36611281 7.066306,7.36611281 C7.14721699,7.36611281 7.21314446,7.38259467 7.26259007,7.41705676 C7.31053732,7.45151885 7.34350106,7.50246281 7.35848458,7.57138699 L7.53529008,7.57138699 C7.5158115,7.45151885 7.46786425,7.3631161 7.39144831,7.30318203 C7.31203567,7.24174962 7.20415435,7.21178258 7.066306,7.21178258 C6.90748072,7.21178258 6.78161917,7.26572324 6.68872137,7.37660127 C6.60031862,7.47998753 6.55686642,7.61184248 6.55686642,7.77216611 C6.55686642,7.93099139 6.60031862,8.06134799 6.68872137,8.16173755 C6.78311753,8.26961888 6.91497248,8.32355954 7.08578457,8.32355954 Z" id="MEETING" fill="#2978DD" fill-rule="nonzero"></path>
                </g>
                <path d="M20.745613,8.1 C21.507766,9.42008764 18.2637945,12.7198521 13.5,15.4702301 C8.73620547,18.2206082 4.25653993,19.3800876 3.49438698,18.06 C3.10982752,17.3939235 3.74519052,16.2238394 5.08108852,14.8746285 C5.09486127,14.9068007 5.11019015,14.9378025 5.1260436,14.9679174 C3.90138013,16.2739679 3.32290844,17.3869135 3.64644176,17.9472897 C4.30592335,19.0895453 8.71527735,17.9394859 13.38,15.2463071 C18.0447227,12.5531282 21.2453802,9.30954527 20.5858987,8.16728966 C20.2424792,7.5724697 18.8517366,7.54649641 16.9388586,8.03852886 C16.9136471,8.01440497 16.8893462,7.9920845 16.8659277,7.97079363 C18.8717306,7.3972096 20.3386466,7.39511355 20.745613,8.1 Z" id="形状结合" fill="#FFFFFF" fill-rule="nonzero" opacity="0.900000036"></path>
            </g>
        </g>
    </g>
</svg>