<?xml version="1.0" encoding="UTF-8"?>
<svg width="24px" height="24px" viewBox="0 0 24 24" version="1.1" xmlns="http://www.w3.org/2000/svg" xmlns:xlink="http://www.w3.org/1999/xlink">
    <title>-mockplus-</title>
    <defs>
        <linearGradient x1="98.0054592%" y1="50%" x2="-10.1678322%" y2="50%" id="linearGradient-1">
            <stop stop-color="#D5E0F7" offset="0%"></stop>
            <stop stop-color="#6997F3" offset="100%"></stop>
        </linearGradient>
        <rect id="path-2" x="0" y="0" width="24" height="24"></rect>
        <linearGradient x1="50%" y1="0%" x2="50%" y2="100%" id="linearGradient-4">
            <stop stop-color="#FFFFFF" stop-opacity="0" offset="0%"></stop>
            <stop stop-color="#FFFFFF" offset="100%"></stop>
        </linearGradient>
        <linearGradient x1="50%" y1="0%" x2="50%" y2="100%" id="linearGradient-5">
            <stop stop-color="#FFFFFF" stop-opacity="0" offset="0%"></stop>
            <stop stop-color="#FFFFFF" offset="100%"></stop>
        </linearGradient>
        <linearGradient x1="50%" y1="0%" x2="50%" y2="100%" id="linearGradient-6">
            <stop stop-color="#FFFFFF" stop-opacity="0" offset="0%"></stop>
            <stop stop-color="#FFFFFF" offset="100%"></stop>
        </linearGradient>
        <linearGradient x1="50%" y1="0%" x2="50%" y2="100%" id="linearGradient-7">
            <stop stop-color="#FFFFFF" stop-opacity="0.314630682" offset="0%"></stop>
            <stop stop-color="#FFFFFF" offset="100%"></stop>
        </linearGradient>
        <linearGradient x1="50%" y1="0%" x2="50%" y2="100%" id="linearGradient-8">
            <stop stop-color="#FFFFFF" stop-opacity="0.314630682" offset="0%"></stop>
            <stop stop-color="#FFFFFF" offset="100%"></stop>
        </linearGradient>
        <linearGradient x1="50%" y1="0%" x2="50%" y2="100%" id="linearGradient-9">
            <stop stop-color="#FFFFFF" stop-opacity="0" offset="0%"></stop>
            <stop stop-color="#FFFFFF" offset="100%"></stop>
        </linearGradient>
        <path d="M10.1647059,0 C12.8312666,0 14.9929412,2.30389001 14.9929412,5.14588235 C14.9929412,7.89718819 12.9670214,10.1441849 10.4183755,10.2847845 L10.4188235,10.2917647 L4.19294118,10.2917647 L4.19285697,10.2570116 C4.02675136,10.2799241 3.85711139,10.2917647 3.68470588,10.2917647 C1.64969902,10.2917647 0,8.64206569 0,6.60705882 C0,4.57205196 1.64969902,2.92235294 3.68470588,2.92235294 C4.38715329,2.92235294 5.04369108,3.1189154 5.60231661,3.46003771 C6.25550677,1.44680921 8.05157577,0 10.1647059,0 Z" id="path-10"></path>
        <ellipse id="path-12" cx="4.82823529" cy="5.14588235" rx="4.82823529" ry="5.14588235"></ellipse>
        <filter x="-490.2%" y="-249.0%" width="1080.5%" height="598.0%" filterUnits="objectBoundingBox" id="filter-14">
            <feGaussianBlur stdDeviation="9.31764706" in="SourceGraphic"></feGaussianBlur>
        </filter>
        <filter x="-143.4%" y="-171.6%" width="386.7%" height="443.1%" filterUnits="objectBoundingBox" id="filter-15">
            <feGaussianBlur stdDeviation="3.10588235" in="SourceGraphic"></feGaussianBlur>
        </filter>
        <filter x="-28.7%" y="-41.4%" width="157.4%" height="182.9%" filterUnits="objectBoundingBox" id="filter-16">
            <feGaussianBlur stdDeviation="2.2" in="SourceGraphic"></feGaussianBlur>
        </filter>
        <filter x="-38.1%" y="-67.3%" width="176.3%" height="234.7%" filterUnits="objectBoundingBox" id="filter-17">
            <feGaussianBlur stdDeviation="2.32941176" in="SourceGraphic"></feGaussianBlur>
        </filter>
        <filter x="-462.8%" y="-528.1%" width="1025.6%" height="1156.2%" filterUnits="objectBoundingBox" id="filter-18">
            <feGaussianBlur stdDeviation="9.31764706" in="SourceGraphic"></feGaussianBlur>
        </filter>
    </defs>
    <g id="0401迭代-取派异常--五端" stroke="none" stroke-width="1" fill="none" fill-rule="evenodd">
        <g id="取派异常--PC官网-列表" transform="translate(-1041.000000, -736.000000)">
            <g id="取派异常小图-雨雪" transform="translate(1041.000000, 736.000000)">
                <g id="矩形-2">
                    <mask id="mask-3" fill="white">
                        <use xlink:href="#path-2"></use>
                    </mask>
                    <use id="矩形" fill="url(#linearGradient-1)" xlink:href="#path-2"></use>
                    <path d="M2.76,0 L2.94208737,0.206590775 L2.9717295,0.240427103 C2.99512561,0.267643287 3.02243872,0.299272895 3.05303364,0.33521087 C3.14016033,0.437560518 3.23723831,0.553991133 3.34162096,0.682190901 C3.64643597,1.05554816 3.93843686,1.43903582 4.21712247,1.8319957 C4.44515516,2.15459676 4.65032104,2.46795062 4.82732692,2.76722352 C5.27132369,3.51845315 5.52,4.14747267 5.52,4.63662834 C5.52,6.18353718 4.28561697,7.44 2.76,7.44 C1.23427717,7.44 0,6.18353719 0,4.63662834 C0,4.14747267 0.248676307,3.51845315 0.692673084,2.76722352 C0.869573085,2.46795062 1.07484484,2.15459676 1.30287753,1.8319957 C1.58156314,1.43903582 1.87356403,1.05554816 2.17837904,0.682190901 C2.2996093,0.533243194 2.42291835,0.385974385 2.5482705,0.240427103 L2.57791263,0.206590775 L2.76,0 Z M2.04,5.76 C1.84117749,5.76 1.68,5.92117749 1.68,6.12 C1.68,6.31882251 1.84117749,6.48 2.04,6.48 C2.23882251,6.48 2.4,6.31882251 2.4,6.12 C2.4,5.92117749 2.23882251,5.76 2.04,5.76 Z M1.62978582,3.05187038 C1.46444514,2.9478875 1.25059281,3.00514689 1.15213329,3.17976279 C0.658205697,4.05573298 0.581012603,4.86728613 0.955069189,5.57190581 C1.04917651,5.74917812 1.26153973,5.81231702 1.42939572,5.7129305 C1.5972517,5.61354398 1.65703681,5.38926769 1.56292948,5.21199538 C1.32358549,4.76113716 1.37473223,4.22341687 1.75088486,3.55631808 C1.84934439,3.38170218 1.7951265,3.15585325 1.62978582,3.05187038 Z" id="形状结合" fill="url(#linearGradient-4)" fill-rule="nonzero" opacity="0.300000012" mask="url(#mask-3)"></path>
                    <path d="M18.72,18.4105104 C18.72,18.0633677 18.8605562,17.6169667 19.1115109,17.083836 C19.2114978,16.8714488 19.327521,16.6490687 19.456409,16.420126 C19.613927,16.1412512 19.778971,15.8690987 19.9512577,15.6041355 C20.0197792,15.4984307 20.0894756,15.3939173 20.1603268,15.2906257 L20.177081,15.2666128 L20.28,15.12 L20.382919,15.2666128 L20.3996732,15.2906257 C20.4128971,15.3099404 20.4283349,15.3323872 20.4456277,15.3578916 C20.4948732,15.4305268 20.5497434,15.513155 20.6087423,15.6041355 C20.781029,15.8690987 20.946073,16.1412512 21.103591,16.420126 C21.232479,16.6490687 21.3484423,16.8714488 21.4484891,17.083836 C21.6994438,17.6169668 21.84,18.0633677 21.84,18.4105104 C21.84,19.5083167 21.1423052,20.4 20.28,20.4 C19.4176349,20.4 18.72,19.5083167 18.72,18.4105104 L18.72,18.4105104 Z" id="形状结合备份" fill="url(#linearGradient-5)" fill-rule="nonzero" opacity="0.522656262" mask="url(#mask-3)"></path>
                    <path d="M2.88,17.7687455 C2.88,17.5399469 2.99893215,17.2457281 3.21127843,16.8943465 C3.29588278,16.754364 3.39405623,16.6077953 3.50311534,16.4569012 C3.63639976,16.2730974 3.77605236,16.0937241 3.92183345,15.9190893 C3.97981314,15.8494202 4.03878703,15.7805364 4.09873806,15.7124578 L4.11291473,15.6966312 L4.2,15.6 L4.28708527,15.6966312 L4.30126194,15.7124578 C4.31245138,15.725188 4.32551417,15.7399825 4.34014652,15.7567922 C4.38181581,15.8046654 4.42824441,15.8591249 4.47816655,15.9190893 C4.62394764,16.0937241 4.76360024,16.2730974 4.89688466,16.4569012 C5.00594377,16.6077953 5.10406659,16.754364 5.18872157,16.8943465 C5.40106785,17.2457281 5.52,17.5399469 5.52,17.7687455 C5.52,18.4922996 4.9296429,19.08 4.2,19.08 C3.47030647,19.08 2.88,18.4922997 2.88,17.7687455 L2.88,17.7687455 Z" id="形状结合备份-2" fill="url(#linearGradient-6)" fill-rule="nonzero" opacity="0.522656262" mask="url(#mask-3)"></path>
                    <path d="M18.72,2.88874551 C18.72,2.65994689 18.8389321,2.36572808 19.0512784,2.01434649 C19.1358828,1.874364 19.2340562,1.72779526 19.3431153,1.57690122 C19.4763998,1.3930974 19.6160524,1.21372414 19.7618335,1.03908929 C19.8198131,0.969420204 19.878787,0.900536406 19.9387381,0.832457839 L19.9529147,0.816631169 L20.04,0.72 L20.1270853,0.816631169 L20.1412619,0.832457839 C20.1524514,0.845187989 20.1655142,0.859982483 20.1801465,0.876792181 C20.2218158,0.924665404 20.2682444,0.979124885 20.3181665,1.03908929 C20.4639476,1.21372414 20.6036002,1.3930974 20.7368847,1.57690122 C20.8459438,1.72779526 20.9440666,1.874364 21.0287216,2.01434649 C21.2410679,2.36572809 21.36,2.65994689 21.36,2.88874551 C21.36,3.61229965 20.7696429,4.2 20.04,4.2 C19.3103065,4.2 18.72,3.61229965 18.72,2.88874551 L18.72,2.88874551 Z" id="形状结合备份-4" fill="url(#linearGradient-7)" fill-rule="nonzero" opacity="0.669999957" mask="url(#mask-3)"></path>
                    <path d="M10.44,3.53568656 C10.44,3.37789441 10.5210901,3.17498489 10.6658717,2.93265275 C10.7235564,2.8361131 10.7904929,2.73503121 10.8648514,2.63096636 C10.9557271,2.5042051 11.0509448,2.38049941 11.150341,2.26006158 C11.1898726,2.21201393 11.2300821,2.16450787 11.2709578,2.11755713 L11.2806237,2.10664219 L11.34,2.04 L11.3993763,2.10664219 L11.4090422,2.11755713 C11.4166714,2.12633654 11.4255778,2.13653964 11.4355544,2.14813254 C11.4639653,2.18114855 11.4956212,2.21870682 11.529659,2.26006158 C11.6290552,2.38049941 11.7242729,2.5042051 11.8151486,2.63096636 C11.8895071,2.73503121 11.956409,2.8361131 12.0141283,2.93265275 C12.1589099,3.17498489 12.24,3.37789441 12.24,3.53568656 C12.24,4.03468941 11.8374838,4.44 11.34,4.44 C10.8424817,4.44 10.44,4.03468942 10.44,3.53568656 L10.44,3.53568656 Z" id="形状结合备份-5" fill="url(#linearGradient-8)" fill-rule="nonzero" opacity="0.300000012" mask="url(#mask-3)"></path>
                    <path d="M13.92,21.3252552 C13.92,21.1516839 13.9956841,20.9284834 14.1308135,20.661918 C14.1846527,20.5557244 14.2471267,20.4445343 14.3165279,20.330063 C14.4013453,20.1906256 14.4902151,20.0545493 14.5829849,19.9220677 C14.6198811,19.8692153 14.6574099,19.8169587 14.6955606,19.7653128 L14.7045821,19.7533064 L14.76,19.68 L14.8154179,19.7533064 L14.8244394,19.7653128 C14.83156,19.7749702 14.8398727,19.7861936 14.8491842,19.7989458 C14.875701,19.8352634 14.9052464,19.8765775 14.9370151,19.9220677 C15.0297849,20.0545493 15.1186547,20.1906256 15.2034721,20.330063 C15.2728733,20.4445343 15.3353151,20.5557244 15.3891865,20.661918 C15.5243159,20.9284834 15.6,21.1516839 15.6,21.3252552 C15.6,21.8741584 15.2243182,22.32 14.76,22.32 C14.2956496,22.32 13.92,21.8741584 13.92,21.3252552 L13.92,21.3252552 Z" id="形状结合备份-3" fill="url(#linearGradient-9)" fill-rule="nonzero" opacity="0.522656262" mask="url(#mask-3)"></path>
                </g>
                <g id="编组-3" transform="translate(4.272903, 4.894311)">
                    <circle id="椭圆形" fill="#DAECFF" cx="5.52705882" cy="3.49411765" r="2.73176471"></circle>
                    <g id="编组">
                        <mask id="mask-11" fill="white">
                            <use xlink:href="#path-10"></use>
                        </mask>
                        <use id="形状结合" fill="#F7FBFF" xlink:href="#path-10"></use>
                        <g id="椭圆形-2" mask="url(#mask-11)">
                            <g transform="translate(5.336471, 0.000000)">
                                <mask id="mask-13" fill="white">
                                    <use xlink:href="#path-12"></use>
                                </mask>
                                <g id="椭圆形" stroke="none" fill="none"></g>
                                <path d="M0.381176471,7.8856948 C0.386393772,6.55346468 0.426359873,5.45336691 0.501074774,4.58540149 C0.596149454,3.48091587 1.0682763,2.22795652 1.33411765,1.37155134 C1.96941176,-0.675042122 2.18117647,-1.33119233 1.96941176,-0.596899291 L-2.91805753,1.95580476 C-3.54869876,2.92890943 -3.77359628,3.7038652 -3.59275009,4.28067206 C-3.32148081,5.14588235 -1.40030028,8.65525962 -0.952199456,9.1485245 C-0.504098636,9.64178939 1.51823269,10.3823832 1.51823269,10.337074 C1.51823269,10.3073534 1.3691541,9.66657294 0.635294118,8.11320938 C0.627300258,8.09628875 0.542594376,8.02045056 0.381176471,7.8856948 Z" id="路径-4" stroke="none" fill="#E2F0FF" fill-rule="evenodd" filter="url(#filter-14)" mask="url(#mask-13)"></path>
                            </g>
                        </g>
                        <path d="M5.52705882,3.62117647 C7.21091281,1.29424705 8.68498622,0.0557512547 9.94927907,-0.0943109244 C11.8457183,-0.319404193 7.45278936,-0.70502635 7.30588235,-0.70502635 C7.15897534,-0.70502635 3.75994865,0.759353463 3.93097692,1.26331583 C4.04499576,1.59929074 4.24609681,2.75340616 4.53428009,4.7256621 L5.52705882,3.62117647 Z" id="路径-6" fill="#FFFFFF" filter="url(#filter-15)" mask="url(#mask-11)"></path>
                        <path d="M-1.65176471,1.77882353 C-1.2063924,5.29411765 0.237019833,7.05176471 2.67847199,7.05176471 C5.11992415,7.05176471 8.11354505,7.05176471 11.6593347,7.05176471 C14.8873801,5.616 16.3950604,3.096 16.1823754,-0.508235294 C15.9696905,-4.11247059 16.6943745,-3.62541176 18.3564275,0.952941176 C18.3564275,6.7100127 18.3564275,9.58854846 18.3564275,9.58854846 C18.3564275,9.58854846 17.1455995,13.034045 15.373101,13.034045 C14.1914354,13.034045 8.50744643,13.034045 -1.67886576,13.034045 C-3.65763591,8.77056401 -4.64702098,6.45882353 -4.64702098,6.09882353 C-4.64702098,5.73882353 -4.36446696,4.22538764 -3.79935891,1.55851585 L-1.65176471,1.77882353 Z" id="路径-74" fill="#BCD9F7" filter="url(#filter-16)" mask="url(#mask-11)"></path>
                        <path d="M-1.54098956e-13,6.60705882 C0.670443325,8.80533951 1.72746592,9.90447986 3.17106779,9.90447986 C4.61466965,9.90447986 7.26209541,9.90447986 11.113345,9.90447986 C13.3557038,9.13372328 14.6071188,7.56870059 14.8675901,5.20941176 C15.1280613,2.85012294 15.5354051,3.830287 16.0896214,8.14990395 L13.9189967,14.2115127 C9.86669889,14.3798252 7.42320343,14.3798252 6.58851029,14.2115127 C5.75381716,14.0432002 2.81223843,13.4343834 -2.2362259,12.3850621 C-1.083037,9.25729523 -0.506442549,7.65741176 -0.506442549,7.58541176 C-0.506442549,7.51341176 -0.506442549,7.18729412 -0.506442549,6.60705882 L-1.54098956e-13,6.60705882 Z" id="路径-75" fill="#EEF5FE" filter="url(#filter-17)" mask="url(#mask-11)"></path>
                        <path d="M5.01231752,7.87764706 C4.63639326,6.43764706 4.84947649,5.71764706 5.6515672,5.71764706 C6.85470328,5.71764706 7.51244638,4.85364706 8.25882353,5.08235294 C9.00520068,5.31105882 10.3082729,4.98705882 10.5418455,6.33705882 C10.7754181,7.68705882 11.0089907,7.25761256 10.7754181,7.87793627 C10.5418455,8.49825998 9.97659269,8.16366564 9.49089668,9.05392437 C9.00520068,9.9441831 8.97283649,9.89658381 7.91376988,10.1902439 C7.20772548,10.3860173 6.41215513,10.3860173 5.52705882,10.1902439 L5.01231752,7.87764706 Z" id="路径-2" fill="#BCD9F7" filter="url(#filter-18)" mask="url(#mask-11)"></path>
                    </g>
                </g>
                <path d="M16.2938402,13.7181824 C16.1848931,13.3115719 15.7668259,13.0702638 15.3603346,13.1792347 L15.358572,13.1797111 C15.2487436,12.774363 14.831653,12.5339838 14.4256619,12.6428118 C14.0197661,12.7515684 13.7786486,13.1682781 13.8861904,13.5742455 L12.6015484,13.9184746 L12.9468016,12.6299735 C13.0106298,12.6469713 13.0763963,12.6556025 13.1424491,12.6556501 C13.4789608,12.6556501 13.7869614,12.431039 13.8781873,12.0905256 C13.9869677,11.6846058 13.7466362,11.2674198 13.3412644,11.1576152 C13.4488538,10.7516478 13.2077601,10.3349143 12.8018167,10.2261577 C12.3959685,10.1174011 11.978735,10.357685 11.8689304,10.763057 L11.8667867,10.7624853 C11.4602478,10.653562 11.0422521,10.8948225 10.9332812,11.301433 C10.8243341,11.7080435 11.0656183,12.125968 11.4722287,12.2349151 L11.4743247,12.2354867 L11.1284284,13.5263221 L10.1816558,12.5795729 C10.4777709,12.2817905 10.4773183,11.8003651 10.180179,11.5032258 C9.88301596,11.2060626 9.40159082,11.20561 9.10378463,11.5017728 C8.80600226,11.20561 8.3245533,11.2060626 8.02739022,11.5032258 C7.73025096,11.8003651 7.72977458,12.2817905 8.02588964,12.5795729 L8.02434141,12.5811212 C7.72667814,12.8787845 7.72667814,13.3614008 8.02434141,13.6590404 C8.17318496,13.8079078 8.36821312,13.8822938 8.56328891,13.8822938 C8.75831707,13.8822938 8.95341668,13.8078601 9.10223641,13.6590642 L9.10376081,13.6575398 L10.0487232,14.6025025 L8.755435,14.949042 C8.64563043,14.5437177 8.22844453,14.3032909 7.82254872,14.4121428 C7.4166291,14.5208993 7.17548779,14.9376328 7.28310103,15.3436002 C6.87772924,15.453381 6.63739777,15.8705671 6.74615431,16.2764869 C6.83740405,16.617024 7.14535704,16.8416114 7.48191638,16.8416114 C7.5465129,16.8416114 7.61220509,16.833251 7.67756382,16.8159347 L7.67813547,16.8181022 C7.76938521,17.1586394 8.0773382,17.3832268 8.41389753,17.3832268 C8.48067395,17.3831983 8.54715726,17.3743974 8.61164103,17.3570499 C9.0182514,17.2481266 9.25955944,16.8301784 9.15058853,16.4235679 L9.15001688,16.4214718 L10.4456631,16.074313 L10.0995048,17.3661487 L10.0974088,17.3656009 C9.69070315,17.2565585 9.27285032,17.4979619 9.16390323,17.9045486 C9.05495614,18.3111591 9.29626418,18.7291073 9.70285072,18.8380307 L9.70494678,18.8385785 L9.7044704,18.8403411 C9.59552331,19.2469516 9.83683135,19.664876 10.2434179,19.7738232 C10.3079019,19.7911692 10.3743851,19.8 10.4411614,19.8 C10.7776731,19.8 11.0856737,19.5753888 11.1769235,19.2348755 L11.1774237,19.2330414 C11.2412521,19.2500379 11.3070185,19.2586691 11.3730711,19.2587181 C11.7095828,19.2587181 12.0175834,19.0341069 12.1088332,18.6935935 C12.2175897,18.2876738 11.9772821,17.8705115 11.5719341,17.7607069 L11.9174493,16.4712293 L12.8596011,17.4133814 L12.8580528,17.4149296 C12.5603896,17.7125692 12.5603896,18.1951854 12.8580528,18.492825 C13.0068726,18.6416686 13.2019484,18.7160785 13.3970003,18.7160785 C13.5920523,18.7160785 13.7871281,18.6416686 13.9359717,18.492825 L13.9374961,18.4913006 L13.9387823,18.4925868 C14.087602,18.6414304 14.2826778,18.7158403 14.4777298,18.7158403 C14.6727817,18.7158403 14.8678575,18.6414304 15.0166773,18.4925868 C15.3143405,18.1949472 15.3143405,17.712331 15.0166773,17.4146676 L15.0153672,17.4133576 C15.3114823,17.1155751 15.3110059,16.6341498 15.0138666,16.3370342 C14.7167512,16.039871 14.2353022,16.0393946 13.9375437,16.3355336 L12.9935817,15.3915713 L14.2805579,15.0467229 L14.2811057,15.0487951 C14.3723555,15.3893561 14.6803323,15.6139435 15.0168678,15.6139435 C15.0821551,15.6139435 15.148538,15.6055116 15.2146351,15.5877904 C15.6212217,15.4788433 15.8625297,15.0608951 15.7536064,14.6543084 L15.7530348,14.6521885 L15.7547974,14.6517121 C16.161503,14.5427412 16.4027872,14.1247929 16.2938402,13.7181824 L16.2938402,13.7181824 Z" id="路径" fill="#FFFFFF" fill-rule="nonzero"></path>
            </g>
        </g>
    </g>
</svg>