<?xml version="1.0" encoding="UTF-8"?>
<svg width="24px" height="24px" viewBox="0 0 24 24" version="1.1" xmlns="http://www.w3.org/2000/svg" xmlns:xlink="http://www.w3.org/1999/xlink">
    <title>-mockplus-</title>
    <defs>
        <rect id="path-1" x="0" y="0" width="24" height="24"></rect>
        <filter x="-114.4%" y="-128.9%" width="328.8%" height="357.8%" filterUnits="objectBoundingBox" id="filter-3">
            <feGaussianBlur stdDeviation="6.6" in="SourceGraphic"></feGaussianBlur>
        </filter>
        <linearGradient x1="50%" y1="100%" x2="50%" y2="3.061617e-15%" id="linearGradient-4">
            <stop stop-color="#FFC799" offset="0%"></stop>
            <stop stop-color="#FF8038" offset="100%"></stop>
        </linearGradient>
        <linearGradient x1="50%" y1="100%" x2="41.9116362%" y2="28.8495824%" id="linearGradient-5">
            <stop stop-color="#FFC799" stop-opacity="0.36680507" offset="0%"></stop>
            <stop stop-color="#FF8038" offset="100%"></stop>
        </linearGradient>
        <linearGradient x1="50%" y1="100%" x2="41.9116362%" y2="28.8495824%" id="linearGradient-6">
            <stop stop-color="#FFC799" offset="0%"></stop>
            <stop stop-color="#FF8038" stop-opacity="0" offset="100%"></stop>
        </linearGradient>
        <path d="M13.3952393,1.28872761 L6.99826056,1.23772575e-15 L6.74070167,1.23772575e-15 L0.343411834,1.28872761 C0.128779429,1.33134303 -6.18862875e-15,1.50336001 -6.18862875e-15,1.7179924 L-6.18862875e-15,7.3021676 C-6.18862875e-15,11.5543777 3.39181409,14.6040241 6.78362815,15.4631759 L6.95533407,15.4631759 C10.3042217,14.6040241 13.7386512,11.5543777 13.7386512,7.3021676 L13.7386512,1.7179924 C13.7386512,1.50336 13.6098717,1.33165408 13.3952393,1.28872761 Z" id="path-7"></path>
        <filter x="-211.2%" y="-162.8%" width="522.4%" height="425.7%" filterUnits="objectBoundingBox" id="filter-9">
            <feGaussianBlur stdDeviation="10.6452142" in="SourceGraphic"></feGaussianBlur>
        </filter>
        <linearGradient x1="56.6883145%" y1="11.8459078%" x2="42.0333388%" y2="97.3163775%" id="linearGradient-10">
            <stop stop-color="#FFF194" offset="0%"></stop>
            <stop stop-color="#FF7628" offset="100%"></stop>
        </linearGradient>
        <linearGradient x1="50%" y1="0%" x2="50%" y2="100%" id="linearGradient-11">
            <stop stop-color="#FFFFFF" offset="0%"></stop>
            <stop stop-color="#FFE7D1" offset="100%"></stop>
        </linearGradient>
    </defs>
    <g id="0401迭代-取派异常--五端" stroke="none" stroke-width="1" fill="none" fill-rule="evenodd">
        <g id="取派异常--PC官网-列表" transform="translate(-691.000000, -305.000000)">
            <g id="取派异常小图-疫情" transform="translate(691.000000, 305.000000)">
                <g id="矩形-2">
                    <mask id="mask-2" fill="white">
                        <use xlink:href="#path-1"></use>
                    </mask>
                    <use id="矩形" fill="#FFF4E6" xlink:href="#path-1"></use>
                    <path d="M6.66642379,7.26764864 C3.74214126,7.7784047 2.92,9.6779699 4.2,12.9663442 C6.12,17.8989057 -0.889668725,20.0128606 6.12,20.7175123 C13.1296687,21.4221639 10.7563071,23.7383579 14.4899463,21.9858852 C18.2235855,20.2334125 20.270625,19.4099702 19.6729687,15.6308329 C19.0753125,11.8516956 21.6332913,11.5570409 19.0753125,10.8523893 C16.5173337,10.1477377 18.6033758,10.0937662 15.3523231,9.44825162 C12.1012704,8.80273703 8.64088767,7.22399707 7.97195041,7.38226183 C7.52599224,7.48777167 7.0908167,7.44956727 6.66642379,7.26764864 Z" id="路径-5" fill="#FFCDB0" filter="url(#filter-3)" mask="url(#mask-2)"></path>
                    <path d="M4.08,17.16 C4.21254834,17.16 4.32,17.2674517 4.32,17.4 L4.32062756,17.6525467 C4.76981685,17.6996625 5.18017028,17.8772052 5.51313037,18.1466173 L5.69220346,17.9683853 C5.78592929,17.8746595 5.93788889,17.8746595 6.03161472,17.9683853 C6.12534055,18.0621111 6.12534055,18.2140707 6.03161472,18.3077965 L5.85338269,18.4868696 C6.12279476,18.8198297 6.30033746,19.2301831 6.34745333,19.6793724 L6.6,19.68 C6.73254834,19.68 6.84,19.7874517 6.84,19.92 C6.84,20.0525483 6.73254834,20.16 6.6,20.16 L6.34755811,20.1596265 C6.30060116,20.6092072 6.12299487,21.019923 5.85338269,21.3531304 L6.03161472,21.5322035 C6.12534055,21.6259293 6.12534055,21.7778889 6.03161472,21.8716147 C5.93788889,21.9653405 5.78592929,21.9653405 5.69220346,21.8716147 L5.51313037,21.6933827 C5.18017028,21.9627948 4.76981685,22.1403375 4.32062756,22.1874533 L4.32,22.44 C4.32,22.5725483 4.21254834,22.68 4.08,22.68 C3.94745166,22.68 3.84,22.5725483 3.84,22.44 L3.84037347,22.1875581 C3.3907928,22.1406012 2.98007704,21.9629949 2.64686963,21.6933827 L2.46779654,21.8716147 C2.37407071,21.9653405 2.22211111,21.9653405 2.12838528,21.8716147 C2.03465945,21.7778889 2.03465945,21.6259293 2.12838528,21.5322035 L2.30661731,21.3531304 C2.03700513,21.019923 1.85939884,20.6092072 1.81244189,20.1596265 L1.56,20.16 C1.42745166,20.16 1.32,20.0525483 1.32,19.92 C1.32,19.7874517 1.42745166,19.68 1.56,19.68 L1.81254667,19.6793724 C1.85966254,19.2301831 2.03720524,18.8198297 2.30661731,18.4868696 L2.12838528,18.3077965 C2.03465945,18.2140707 2.03465945,18.0621111 2.12838528,17.9683853 C2.22211111,17.8746595 2.37407071,17.8746595 2.46779654,17.9683853 L2.64686963,18.1466173 C2.98007704,17.8770051 3.3907928,17.6993988 3.84037347,17.6524419 L3.84,17.4 C3.84,17.2674517 3.94745166,17.16 4.08,17.16 Z M4.14,20.28 C3.84176624,20.28 3.6,20.5217662 3.6,20.82 C3.6,21.1182338 3.84176624,21.36 4.14,21.36 C4.43823376,21.36 4.68,21.1182338 4.68,20.82 C4.68,20.5217662 4.43823376,20.28 4.14,20.28 Z M5.16,19.44 C5.02745166,19.44 4.92,19.5474517 4.92,19.68 C4.92,19.8125483 5.02745166,19.92 5.16,19.92 C5.29254834,19.92 5.4,19.8125483 5.4,19.68 C5.4,19.5474517 5.29254834,19.44 5.16,19.44 Z M3.12,19.08 C2.92117749,19.08 2.76,19.2411775 2.76,19.44 C2.76,19.6388225 2.92117749,19.8 3.12,19.8 C3.31882251,19.8 3.48,19.6388225 3.48,19.44 C3.48,19.2411775 3.31882251,19.08 3.12,19.08 Z" id="形状结合" fill="url(#linearGradient-4)" mask="url(#mask-2)"></path>
                    <path d="M20.16,2.52 C20.2262742,2.52 20.28,2.57372583 20.28,2.64 L20.2813602,2.77295532 C20.5114517,2.8061237 20.7214415,2.90146397 20.893753,3.04139936 L20.9761975,2.95933983 C21.0271355,2.90840188 21.1097222,2.90840188 21.1606602,2.95933983 C21.2115981,3.01027778 21.2115981,3.09286452 21.1606602,3.14380247 L21.0786006,3.22624698 C21.2187395,3.39880902 21.3141535,3.60915909 21.347189,3.83964364 L21.48,3.84 C21.5462742,3.84 21.6,3.89372583 21.6,3.96 C21.6,4.02627417 21.5462742,4.08 21.48,4.08 L21.357,4.08 L21.3534948,4.14882768 C21.3280397,4.39947934 21.2291173,4.62841214 21.0786006,4.81375302 L21.1606602,4.89619753 C21.2115981,4.94713548 21.2115981,5.02972222 21.1606602,5.08066017 C21.1097222,5.13159812 21.0271355,5.13159812 20.9761975,5.08066017 L20.893753,4.99860064 C20.7214415,5.13853603 20.5114517,5.2338763 20.2813602,5.26704468 L20.28,5.4 C20.28,5.46627417 20.2262742,5.52 20.16,5.52 C20.0937258,5.52 20.04,5.46627417 20.04,5.4 L20.04,5.277 L19.9711723,5.27349476 C19.7205207,5.2480397 19.4915879,5.1491173 19.306247,4.99860064 L19.2238025,5.08066017 C19.1728645,5.13159812 19.0902778,5.13159812 19.0393398,5.08066017 C18.9884019,5.02972222 18.9884019,4.94713548 19.0393398,4.89619753 L19.1213994,4.81375302 C18.9574747,4.61190202 18.8547457,4.35834687 18.841467,4.08134214 L18.72,4.08 C18.6537258,4.08 18.6,4.02627417 18.6,3.96 C18.6,3.89372583 18.6537258,3.84 18.72,3.84 L18.852811,3.83964364 C18.8858465,3.60915909 18.9812605,3.39880902 19.1213994,3.22624698 L19.0393398,3.14380247 C18.9884019,3.09286452 18.9884019,3.01027778 19.0393398,2.95933983 C19.0902778,2.90840188 19.1728645,2.90840188 19.2238025,2.95933983 L19.306247,3.04139936 C19.5083408,2.87727753 19.7622632,2.7744987 20.0396575,2.76141951 L20.04,2.64 C20.04,2.57372583 20.0937258,2.52 20.16,2.52 Z M20.1331579,4.21894737 C19.9683445,4.21894737 19.8347368,4.35255502 19.8347368,4.51736842 C19.8347368,4.68218182 19.9683445,4.81578947 20.1331579,4.81578947 C20.2979713,4.81578947 20.4315789,4.68218182 20.4315789,4.51736842 C20.4315789,4.35255502 20.2979713,4.21894737 20.1331579,4.21894737 Z M19.5694737,3.55578947 C19.4595981,3.55578947 19.3705263,3.64486124 19.3705263,3.75473684 C19.3705263,3.86461244 19.4595981,3.95368421 19.5694737,3.95368421 C19.6793493,3.95368421 19.7684211,3.86461244 19.7684211,3.75473684 C19.7684211,3.64486124 19.6793493,3.55578947 19.5694737,3.55578947 Z" id="形状结合备份" fill="url(#linearGradient-4)" opacity="0.400000006" mask="url(#mask-2)" transform="translate(20.100000, 4.020000) rotate(-35.000000) translate(-20.100000, -4.020000) "></path>
                    <path d="M3.09851236,-3.09102292 C3.33047195,-3.09102292 3.51851236,-2.90298252 3.51851236,-2.67102292 L3.51829356,-2.29069009 C4.30154949,-2.17253715 5.01390741,-1.83807586 5.59257588,-1.35009766 L5.87876787,-1.63718672 C6.04686656,-1.8057864 6.31981452,-1.80619253 6.4884142,-1.63809385 L6.4888681,-1.63764062 C6.65806777,-1.46793736 6.65806777,-1.19406296 6.48932133,-1.0248136 L6.19294656,-0.728135533 C6.62796722,-0.173621653 6.92651111,0.493061326 7.03799795,1.22133312 L7.42959827,1.22150497 C7.66155786,1.22150497 7.84959827,1.40954537 7.84959827,1.64150497 C7.84959827,1.87346456 7.66155786,2.06150497 7.42959827,2.06150497 L7.08055881,2.06097708 L7.08142924,2.07173736 C7.03685093,2.97867712 6.70459636,3.80998861 6.17399929,4.47633806 L6.48932133,4.79273103 C6.65806777,4.96198039 6.65806777,5.23585479 6.48932133,5.40510415 C6.32122264,5.57370383 6.04827468,5.57410997 5.879675,5.40601128 L5.87876787,5.40510415 L5.56857961,5.09441149 C5.02095975,5.54930543 4.35588222,5.86767788 3.62556336,5.99731249 L3.62547759,6.47397313 C3.62547759,6.70593272 3.43743719,6.89397313 3.20547759,6.89397313 C2.973518,6.89397313 2.78547759,6.70593272 2.78547759,6.47397313 L2.78455881,6.05897708 L2.67694695,6.05697493 C1.78567413,6.01316668 0.967439272,5.69153527 0.307026058,5.17686437 L0.0785100385,5.40510415 C-0.08958865,5.57370383 -0.362536608,5.57410997 -0.53113629,5.40601128 L-0.532043418,5.40510415 C-0.700789855,5.23585479 -0.700789855,4.96198039 -0.532043418,4.79273103 L-0.318066768,4.57708095 C-0.903040729,3.88728858 -1.26929228,3.00615622 -1.30969802,2.04080727 L-1.47944119,2.04070288 C-1.71140079,2.04070288 -1.89944119,1.85266248 -1.89944119,1.62070288 C-1.89944119,1.38874329 -1.71140079,1.20070288 -1.47944119,1.20070288 L-1.26157268,1.20022336 C-1.14049424,0.435380733 -0.812962595,-0.260767416 -0.337856438,-0.829342394 L-0.532043418,-1.0248136 C-0.700789855,-1.19406296 -0.700789855,-1.46793736 -0.532043418,-1.63718672 C-0.363944729,-1.8057864 -0.0909967707,-1.80619253 0.0776029107,-1.63809385 L0.0785100385,-1.63718672 L0.282517964,-1.4333889 C0.947390494,-1.9594743 1.77522268,-2.28863435 2.67793904,-2.33279357 L2.67851236,-2.67102292 C2.67851236,-2.90298252 2.86655277,-3.09102292 3.09851236,-3.09102292 Z M2.99709563,2.5252729 C2.44771764,2.5252729 2.00235879,2.97063175 2.00235879,3.52000974 C2.00235879,4.06938773 2.44771764,4.51474658 2.99709563,4.51474658 C3.54647362,4.51474658 3.99183247,4.06938773 3.99183247,3.52000974 C3.99183247,2.97063175 3.54647362,2.5252729 2.99709563,2.5252729 Z M4.876043,0.977904476 C4.631875,0.977904476 4.43393773,1.17584174 4.43393773,1.42000974 C4.43393773,1.66417773 4.631875,1.862115 4.876043,1.862115 C5.12021099,1.862115 5.31814826,1.66417773 5.31814826,1.42000974 C5.31814826,1.17584174 5.12021099,0.977904476 4.876043,0.977904476 Z M1.11814826,0.314746581 C0.751896269,0.314746581 0.454990366,0.611652484 0.454990366,0.977904476 C0.454990366,1.34415647 0.751896269,1.64106237 1.11814826,1.64106237 C1.48440025,1.64106237 1.78130616,1.34415647 1.78130616,0.977904476 C1.78130616,0.611652484 1.48440025,0.314746581 1.11814826,0.314746581 Z" id="形状结合备份-2" fill="url(#linearGradient-5)" opacity="0.300000012" mask="url(#mask-2)" transform="translate(2.975079, 1.901475) rotate(-35.000000) translate(-2.975079, -1.901475) "></path>
                    <path d="M17.0185124,12.1489771 C17.250472,12.1489771 17.4385124,12.3370175 17.4385124,12.5689771 L17.4382936,12.9493099 C18.2215495,13.0674628 18.9339074,13.4019241 19.5125759,13.8899023 L19.7987679,13.6028133 C19.9668666,13.4342136 20.2398145,13.4338075 20.4084142,13.6019062 L20.4088681,13.6023594 C20.5780678,13.7720626 20.5780678,14.045937 20.4093213,14.2151864 L20.1129466,14.5118645 C20.5479672,15.0663783 20.8465111,15.7330613 20.957998,16.4613331 L21.3495983,16.461505 C21.5815579,16.461505 21.7695983,16.6495454 21.7695983,16.881505 C21.7695983,17.1134646 21.5815579,17.301505 21.3495983,17.301505 L21.0005588,17.3009771 L21.0014292,17.3117374 C20.9568509,18.2186771 20.6245964,19.0499886 20.0939993,19.7163381 L20.4093213,20.032731 C20.5780678,20.2019804 20.5780678,20.4758548 20.4093213,20.6451041 C20.2412226,20.8137038 19.9682747,20.81411 19.799675,20.6460113 L19.7987679,20.6451041 L19.4885796,20.3344115 C18.9409598,20.7893054 18.2758822,21.1076779 17.5455634,21.2373125 L17.5454776,21.7139731 C17.5454776,21.9459327 17.3574372,22.1339731 17.1254776,22.1339731 C16.893518,22.1339731 16.7054776,21.9459327 16.7054776,21.7139731 L16.7045588,21.2989771 L16.596947,21.2969749 C15.7056741,21.2531667 14.8874393,20.9315353 14.2270261,20.4168644 L13.99851,20.6451041 C13.8304113,20.8137038 13.5574634,20.81411 13.3888637,20.6460113 L13.3879566,20.6451041 C13.2192101,20.4758548 13.2192101,20.2019804 13.3879566,20.032731 L13.6019332,19.817081 C13.0169593,19.1272886 12.6507077,18.2461562 12.610302,17.2808073 L12.4405588,17.2807029 C12.2085992,17.2807029 12.0205588,17.0926625 12.0205588,16.8607029 C12.0205588,16.6287433 12.2085992,16.4407029 12.4405588,16.4407029 L12.6584273,16.4402234 C12.7795058,15.6753807 13.1070374,14.9792326 13.5821436,14.4106576 L13.3879566,14.2151864 C13.2192101,14.045937 13.2192101,13.7720626 13.3879566,13.6028133 C13.5560553,13.4342136 13.8290032,13.4338075 13.9976029,13.6019062 L13.99851,13.6028133 L14.202518,13.8066111 C14.8673905,13.2805257 15.6952227,12.9513656 16.597939,12.9072064 L16.5985124,12.5689771 C16.5985124,12.3370175 16.7865528,12.1489771 17.0185124,12.1489771 Z M16.9170956,17.7652729 C16.3677176,17.7652729 15.9223588,18.2106318 15.9223588,18.7600097 C15.9223588,19.3093877 16.3677176,19.7547466 16.9170956,19.7547466 C17.4664736,19.7547466 17.9118325,19.3093877 17.9118325,18.7600097 C17.9118325,18.2106318 17.4664736,17.7652729 16.9170956,17.7652729 Z M18.796043,16.2179045 C18.551875,16.2179045 18.3539377,16.4158417 18.3539377,16.6600097 C18.3539377,16.9041777 18.551875,17.102115 18.796043,17.102115 C19.040211,17.102115 19.2381483,16.9041777 19.2381483,16.6600097 C19.2381483,16.4158417 19.040211,16.2179045 18.796043,16.2179045 Z M15.0381483,15.5547466 C14.6718963,15.5547466 14.3749904,15.8516525 14.3749904,16.2179045 C14.3749904,16.5841565 14.6718963,16.8810624 15.0381483,16.8810624 C15.4044003,16.8810624 15.7013062,16.5841565 15.7013062,16.2179045 C15.7013062,15.8516525 15.4044003,15.5547466 15.0381483,15.5547466 Z" id="形状结合备份-3" fill="url(#linearGradient-6)" opacity="0.335026043" mask="url(#mask-2)" transform="translate(16.895079, 17.141475) rotate(-35.000000) translate(-16.895079, -17.141475) "></path>
                </g>
                <g id="icon_服务_疫情" transform="translate(5.052151, 4.229745)">
                    <g id="路径-3" transform="translate(0.000000, 0.000000)">
                        <mask id="mask-8" fill="white">
                            <use xlink:href="#path-7"></use>
                        </mask>
                        <use id="路径" fill="#FF8038" fill-rule="nonzero" xlink:href="#path-7"></use>
                        <path d="M5.63102749,15.5606548 C9.97229359,13.4007218 12.4251564,10.8023218 12.9896158,7.76545476 C13.5540753,4.72858769 13.8037537,2.53664132 13.7386512,1.18961565 C15.4780094,-0.958782116 16.3476885,-1.36523575 16.3476885,-0.0297452441 C16.3476885,1.97349051 18.2322621,13.6117799 18.2322621,13.9654019 C18.2322621,14.3190238 13.2870973,17.6649399 11.9316448,18.2904134 C11.0280098,18.7073957 8.08763206,18.8755069 3.11051164,18.7947469 L5.63102749,15.5606548 Z" id="路径-4" fill="#FFC958" filter="url(#filter-9)" mask="url(#mask-8)"></path>
                        <rect id="矩形" fill="url(#linearGradient-10)" mask="url(#mask-8)" transform="translate(3.440340, 8.883915) scale(-1, 1) translate(-3.440340, -8.883915) " x="0" y="-0.52258324" width="6.88067933" height="18.8129966"></rect>
                        <path d="M6.94784916,4.4408921e-16 L0.301629147,1.65243646 L0.221380756,7.90465476 C0.613613884,10.6675187 2.19001706,12.9619946 4.95059027,14.7880823 C7.71116349,16.6141701 5.93790179,16.3148942 -0.369194828,13.8902548 L-4.10950686,7.34785476 L-3.51893127,-2.23982395 L-0.369194828,-2.67309129 L5.68041923,-2.67309129 C6.43839195,-2.67309129 6.82603619,-2.67309129 6.84335195,-2.67309129 C6.86066771,-2.67309129 6.89550011,-1.78206086 6.94784916,4.4408921e-16 Z" id="路径-6" fill="#FFF8DC" mask="url(#mask-8)"></path>
                    </g>
                    <path d="M6.80864916,3.45025476 C7.26991738,3.45025476 7.64384916,3.82418653 7.64384916,4.28545476 L7.64364916,6.09425476 L9.45344916,6.09505476 C9.91471738,6.09505476 10.2886492,6.46898653 10.2886492,6.93025476 C10.2886492,7.39152298 9.91471738,7.76545476 9.45344916,7.76545476 L7.64364916,7.76525476 L7.64384916,9.57505476 C7.64384916,10.036323 7.26991738,10.4102548 6.80864916,10.4102548 C6.34738093,10.4102548 5.97344916,10.036323 5.97344916,9.57505476 L5.97264916,7.76525476 L4.16384916,7.76545476 C3.70258093,7.76545476 3.32864916,7.39152298 3.32864916,6.93025476 C3.32864916,6.46898653 3.70258093,6.09505476 4.16384916,6.09505476 L5.97264916,6.09425476 L5.97344916,4.28545476 C5.97344916,3.82418653 6.34738093,3.45025476 6.80864916,3.45025476 Z" id="形状结合" fill="url(#linearGradient-11)"></path>
                </g>
            </g>
        </g>
    </g>
</svg>