<?xml version="1.0" encoding="UTF-8"?>
<svg width="24px" height="24px" viewBox="0 0 24 24" version="1.1" xmlns="http://www.w3.org/2000/svg" xmlns:xlink="http://www.w3.org/1999/xlink">
    <title>-mockplus-</title>
    <defs>
        <linearGradient x1="100%" y1="50%" x2="0%" y2="50%" id="linearGradient-1">
            <stop stop-color="#C3ECFB" offset="0%"></stop>
            <stop stop-color="#6DC7E1" offset="100%"></stop>
        </linearGradient>
        <rect id="path-2" x="0" y="0" width="24" height="24"></rect>
        <filter x="-139.8%" y="-185.0%" width="379.6%" height="470.1%" filterUnits="objectBoundingBox" id="filter-4">
            <feGaussianBlur stdDeviation="8.06666667" in="SourceGraphic"></feGaussianBlur>
        </filter>
        <path d="M0,3.48408166 C2.76727504,6.04522449 4.783278,5.8870246 6.04800887,3.009482 C8.35589822,5.74718672 10.9660772,6.07148709 13.8785457,3.98238309 C16.9846524,5.56232088 19.3407137,5.79515514 20.9467296,4.68088589 C22.5527456,3.56661663 22.8344584,2.00632134 21.7918682,0 L1.32,0.390345205 L0,3.48408166 Z" id="path-5"></path>
        <linearGradient x1="100%" y1="18.7011305%" x2="5.35743266%" y2="18.7011305%" id="linearGradient-7">
            <stop stop-color="#84CFE0" offset="0%"></stop>
            <stop stop-color="#54A6BE" offset="100%"></stop>
        </linearGradient>
        <filter x="-201.3%" y="-872.4%" width="502.6%" height="1844.8%" filterUnits="objectBoundingBox" id="filter-8">
            <feGaussianBlur stdDeviation="14.6666667" in="SourceGraphic"></feGaussianBlur>
        </filter>
        <path d="M2.1186004,4.61027726 C3.42620013,6.5556134 5.6,6.73105717 8.64,5.13660858 C11.5497571,6.39717308 13.6006935,6.39717308 16.6574047,5.41209142 C18.6952122,4.75537032 20.422744,3.48103669 21.84,1.58909055 L16.6574047,0 L3.84,0 L0,0.888088569 L2.1186004,4.61027726 Z" id="path-9"></path>
        <linearGradient x1="14.408869%" y1="16.9094442%" x2="93.2822814%" y2="16.9094442%" id="linearGradient-11">
            <stop stop-color="#56A3B9" offset="0%"></stop>
            <stop stop-color="#7CCEE6" stop-opacity="0.454292778" offset="100%"></stop>
        </linearGradient>
        <filter x="-78.8%" y="-261.3%" width="257.6%" height="622.6%" filterUnits="objectBoundingBox" id="filter-12">
            <feGaussianBlur stdDeviation="5.13333333" in="SourceGraphic"></feGaussianBlur>
        </filter>
        <path d="M0,2.18492166 C1.59824879,3.83421994 3.49525567,4.25894048 5.69102064,3.45908327 C8.51791491,5.25858585 10.732698,5.25858585 12.3353699,3.45908327 C15.2870018,5.31178854 17.5064595,5.5255915 18.9937429,4.10049215 C20.9202681,4.9553928 22.9839098,4.79102956 25.1846681,3.60740242 L25.1846681,0 L1.18466809,0 L0,2.18492166 Z" id="path-13"></path>
        <linearGradient x1="101.57456%" y1="49.2317729%" x2="5.35743266%" y2="48.075008%" id="linearGradient-15">
            <stop stop-color="#84CFE0" offset="0%"></stop>
            <stop stop-color="#4793AA" offset="100%"></stop>
        </linearGradient>
        <filter x="-102.9%" y="-414.9%" width="305.8%" height="929.8%" filterUnits="objectBoundingBox" id="filter-16">
            <feGaussianBlur stdDeviation="8.06666667" in="SourceGraphic"></feGaussianBlur>
        </filter>
        <linearGradient x1="50%" y1="0%" x2="50%" y2="100%" id="linearGradient-17">
            <stop stop-color="#FFFFFF" stop-opacity="0.627048733" offset="0%"></stop>
            <stop stop-color="#FFFFFF" offset="100%"></stop>
        </linearGradient>
        <linearGradient x1="50%" y1="0%" x2="50%" y2="100%" id="linearGradient-18">
            <stop stop-color="#FFFFFF" stop-opacity="0.627048733" offset="0%"></stop>
            <stop stop-color="#FFFFFF" offset="100%"></stop>
        </linearGradient>
        <linearGradient x1="50%" y1="0%" x2="50%" y2="100%" id="linearGradient-19">
            <stop stop-color="#FFFFFF" stop-opacity="0.627048733" offset="0%"></stop>
            <stop stop-color="#FFFFFF" offset="100%"></stop>
        </linearGradient>
        <linearGradient x1="50%" y1="0%" x2="50%" y2="100%" id="linearGradient-20">
            <stop stop-color="#FFFFFF" stop-opacity="0.627048733" offset="0%"></stop>
            <stop stop-color="#FFFFFF" offset="100%"></stop>
        </linearGradient>
        <filter x="-512.9%" y="-364.8%" width="1125.8%" height="829.6%" filterUnits="objectBoundingBox" id="filter-21">
            <feGaussianBlur stdDeviation="14.6666667" in="SourceGraphic"></feGaussianBlur>
        </filter>
        <path d="M2.24942064,8.21326547 C2.24341501,7.4785489 2.60166985,6.53681499 3.24593586,5.41392341 C3.50262886,4.96658905 3.80091275,4.49845402 4.13258796,4.01670965 C4.5379544,3.42990883 4.96303999,2.8574992 5.40711516,2.3004632 C5.58372594,2.07823382 5.76341777,1.85855175 5.94613865,1.64148056 L5.98935404,1.59102276 L6.25483569,1.28296168 L6.52545456,1.59550331 L6.56951134,1.6466905 C6.60429107,1.68785732 6.64489187,1.73570134 6.69037738,1.79005694 C6.81990886,1.94485906 6.96426467,2.12093335 7.11951999,2.3147749 C7.57287929,2.87931136 8.00750091,3.45890612 8.42263893,4.05256444 C8.76233613,4.53991992 9.06825622,5.01310468 9.33254696,5.46479325 C9.99549351,6.59861007 10.3693899,7.54646304 10.3754717,8.28117962 C10.3947049,10.6046517 8.59319546,12.4766841 6.34733945,12.457914 C4.10132759,12.4391426 2.26873001,10.5367376 2.24942064,8.21326547 L2.24942064,8.21326547 Z" id="path-22"></path>
        <filter x="-109.7%" y="-111.6%" width="319.4%" height="323.2%" filterUnits="objectBoundingBox" id="filter-24">
            <feGaussianBlur stdDeviation="5.13333333" in="SourceGraphic"></feGaussianBlur>
        </filter>
        <filter x="-36.3%" y="-34.3%" width="172.6%" height="168.5%" filterUnits="objectBoundingBox" id="filter-25">
            <feGaussianBlur stdDeviation="1.46666667" in="SourceGraphic"></feGaussianBlur>
        </filter>
        <path d="M1.25356078,4.59067875 C1.25132206,4.18091265 1.45324585,3.65511812 1.81548485,3.02784007 C1.95981057,2.77794677 2.12744022,2.5163874 2.31377463,2.2471856 C2.54150553,1.91927546 2.78024751,1.59936103 3.02959083,1.28799136 C3.12875692,1.16377137 3.22964298,1.04096728 3.33221983,0.919614657 L3.35647895,0.891405305 L3.50550507,0.719175588 L3.65643802,0.893068391 L3.68100945,0.921548478 C3.70040567,0.944454341 3.72304857,0.971075221 3.74841448,1.00132021 C3.82065029,1.08745648 3.90114763,1.18543383 3.98771591,1.29330356 C4.24050531,1.60745725 4.48278687,1.93003866 4.71414478,2.26049416 C4.90345679,2.53177868 5.07389147,2.79521241 5.22106668,3.0467219 C5.5902395,3.67805518 5.79796912,4.20612097 5.80026414,4.61588708 C5.80736552,5.91173387 4.79644234,6.9586367 3.53984055,6.9517042 C2.28315156,6.94470207 1.26071847,5.88652555 1.25356078,4.59067875 L1.25356078,4.59067875 Z" id="path-26"></path>
        <filter x="-112.8%" y="-114.6%" width="325.6%" height="329.2%" filterUnits="objectBoundingBox" id="filter-28">
            <feGaussianBlur stdDeviation="2.93333333" in="SourceGraphic"></feGaussianBlur>
        </filter>
        <filter x="-65.5%" y="-61.1%" width="231.0%" height="222.2%" filterUnits="objectBoundingBox" id="filter-29">
            <feGaussianBlur stdDeviation="1.46666667" in="SourceGraphic"></feGaussianBlur>
        </filter>
        <path d="M1.00011892,3.6625465 C0.998332815,3.33562591 1.15943214,2.91613524 1.44843455,2.41567874 C1.56358084,2.21630826 1.69731954,2.00763033 1.84598131,1.79285509 C2.02767013,1.53124103 2.21814384,1.27600611 2.41707554,1.0275884 C2.49619246,0.928482906 2.57668163,0.830507054 2.65851974,0.733689206 L2.67787421,0.711183151 L2.7967706,0.573774419 L2.91718829,0.712509999 L2.93679192,0.735232051 C2.95226667,0.753506862 2.97033168,0.774745598 2.99056917,0.798875729 C3.04820052,0.867597175 3.11242311,0.945765703 3.18148922,1.0318266 C3.38317027,1.28246546 3.57646794,1.53982814 3.76105047,1.80347295 C3.91208784,2.01990984 4.04806445,2.23008317 4.16548413,2.43074308 C4.46001849,2.93443494 4.62574984,3.35573768 4.62758087,3.68265827 C4.63324651,4.71651392 3.82670931,5.55175648 2.82416421,5.54622558 C1.82154954,5.54063912 1.00582948,4.69640215 1.00011892,3.6625465 L1.00011892,3.6625465 Z" id="path-30"></path>
        <filter x="-141.0%" y="-143.8%" width="382.1%" height="387.6%" filterUnits="objectBoundingBox" id="filter-32">
            <feGaussianBlur stdDeviation="2.93333333" in="SourceGraphic"></feGaussianBlur>
        </filter>
        <filter x="-81.5%" y="-76.4%" width="263.0%" height="252.8%" filterUnits="objectBoundingBox" id="filter-33">
            <feGaussianBlur stdDeviation="1.46666667" in="SourceGraphic"></feGaussianBlur>
        </filter>
    </defs>
    <g id="0401迭代-取派异常--五端" stroke="none" stroke-width="1" fill="none" fill-rule="evenodd">
        <g id="取派异常--PC官网-列表" transform="translate(-691.000000, -701.000000)">
            <g id="矩形-2" transform="translate(691.000000, 701.000000)">
                <mask id="mask-3" fill="white">
                    <use xlink:href="#path-2"></use>
                </mask>
                <use id="矩形" fill="url(#linearGradient-1)" xlink:href="#path-2"></use>
                <path d="M6.66642379,7.26764864 C3.74214126,7.70254955 2.92,9.32 4.2,12.12 C6.12,16.32 -0.889668725,18.12 6.12,18.72 C13.1296687,19.32 10.7563071,21.2922035 14.4899463,19.8 C18.2235855,18.3077965 20.270625,17.6066481 19.6729687,14.388771 C19.0753125,11.1708939 21.6332913,10.92 19.0753125,10.32 C16.5173337,9.72 18.6033758,9.67404414 15.3523231,9.12439843 C12.1012704,8.57475271 8.64088767,7.23048 7.97195041,7.36524 C7.52599224,7.45508 7.0908167,7.42254955 6.66642379,7.26764864 Z" id="路径-5" fill="#A4E5F8" filter="url(#filter-4)" mask="url(#mask-3)"></path>
                <g id="路径-16" opacity="0.800000012" mask="url(#mask-3)">
                    <g transform="translate(-3.120000, 12.503468)">
                        <mask id="mask-6" fill="white">
                            <use xlink:href="#path-5"></use>
                        </mask>
                        <g id="路径-15" stroke="none" fill="none"></g>
                        <path d="M1.93533191,4.43329692 C3.75096997,4.73420299 5.12186229,4.33101213 6.04800887,3.22372435 C8.94500582,5.46195567 12.2232437,5.38118548 13.8785457,3.72347609 C16.2458645,3.98238309 19.4714759,5.93115747 21.5299922,3.98238309 C22.9023365,2.68320018 22.2136219,3.75374936 19.4638487,7.19403063 C15.0638302,7.90951569 12.863821,8.26725823 12.863821,8.26725823 C12.863821,8.26725823 4.97741323,8.26725823 4.67920873,8.26725823 C4.48040573,8.26725823 3.03933614,7.82443288 0.355999946,6.93878219 L0.355999946,5.48362911 L1.93533191,4.43329692 Z" id="路径-17" stroke="none" fill="url(#linearGradient-7)" fill-rule="evenodd" filter="url(#filter-8)" mask="url(#mask-6)"></path>
                    </g>
                </g>
                <g id="路径-8" mask="url(#mask-3)">
                    <g transform="translate(-3.120000, -2.744936)" id="路径-9">
                        <mask id="mask-10" fill="white">
                            <use xlink:href="#path-9"></use>
                        </mask>
                        <g id="路径-6"></g>
                        <path d="M1.93533191,4.61027726 C5.08501551,5.61249358 7.4898811,5.61249358 9.14992866,4.61027726 C13.0070416,5.28040509 16.5239703,5.01422005 19.7007147,3.81172213 L19.8936037,6.56416599 C15.1870996,8.65845133 12.6938476,9.705594 12.4138476,9.705594 C11.9938476,9.705594 2.66029808,9.16008214 2.66029808,9.16008214 C2.66029808,9.16008214 0.355999946,9.02333934 0.355999946,8.68308729 C0.355999946,8.4562526 0.882443933,7.09864925 1.93533191,4.61027726 Z" id="路径-10" fill="url(#linearGradient-11)" filter="url(#filter-12)" mask="url(#mask-10)"></path>
                    </g>
                </g>
                <g id="路径-12" opacity="0.600000024" mask="url(#mask-3)">
                    <g transform="translate(-1.184668, 5.194656)">
                        <mask id="mask-14" fill="white">
                            <use xlink:href="#path-13"></use>
                        </mask>
                        <g id="路径-7" stroke="none" fill="none"></g>
                        <path d="M0.935176164,2.5149416 C2.28798891,3.40537526 3.78925625,3.64141383 5.43897819,3.22305731 C7.47411008,4.02403373 9.78138598,4.11994748 12.3608059,3.51079857 C14.5732455,4.61724698 16.524231,4.72788292 18.2137623,3.84270639 C19.9032936,4.40769262 21.5377063,4.49362121 23.1170004,4.10049215 L19.8565363,7.30881249 C16.2560892,8.00152471 13.7012298,8.34788082 12.1919581,8.34788082 C10.6826864,8.34788082 7.63721785,8.19527986 3.05555243,7.89007795 C1.24713925,6.36692202 0.342932659,5.60534405 0.342932659,5.60534405 C0.342932659,5.60534405 0.0942885848,5.10372675 -0.402999564,4.10049215 L0.935176164,2.5149416 Z" id="路径-13" stroke="none" fill="url(#linearGradient-15)" fill-rule="evenodd" filter="url(#filter-16)" mask="url(#mask-14)"></path>
                    </g>
                </g>
                <path d="M2.64,12.5043925 C2.64,12.2992627 2.74812013,12.0354804 2.94116221,11.7204486 C3.01807525,11.594947 3.10732385,11.4635406 3.20646849,11.3282563 C3.32763615,11.1634666 3.45459306,11.0026492 3.58712132,10.8460801 C3.63983013,10.7836181 3.69344276,10.7218602 3.74794369,10.6608243 L3.76083158,10.6466348 L3.84,10.56 L3.91916842,10.6466348 L3.93205631,10.6608243 C3.94222853,10.6722375 3.95410379,10.6855015 3.96740593,10.7005723 C4.0052871,10.7434931 4.04749492,10.7923189 4.09287868,10.8460801 C4.22540694,11.0026492 4.35236385,11.1634666 4.47353151,11.3282563 C4.57267615,11.4635406 4.66187871,11.594947 4.73883779,11.7204486 C4.93187987,12.0354804 5.04,12.2992627 5.04,12.5043925 C5.04,13.1530962 4.50331173,13.68 3.84,13.68 C3.17664225,13.68 2.64,13.1530962 2.64,12.5043925 L2.64,12.5043925 Z" id="形状结合备份-2" fill="url(#linearGradient-17)" fill-rule="nonzero" opacity="0.522656262" mask="url(#mask-3)" transform="translate(3.840000, 12.120000) rotate(37.000000) translate(-3.840000, -12.120000) "></path>
                <path d="M1.08,5.99654925 C1.08,5.87031553 1.14487208,5.70798791 1.26069733,5.5141222 C1.30684515,5.43689048 1.36039431,5.35602497 1.41988109,5.27277308 C1.49258169,5.17136408 1.56875583,5.07239953 1.64827279,4.97604926 C1.67989808,4.93761115 1.71206566,4.89960629 1.74476622,4.8620457 L1.75249895,4.85331375 L1.8,4.8 L1.84750105,4.85331375 L1.85523378,4.8620457 C1.86133712,4.86906924 1.86846227,4.87723171 1.87644356,4.88650603 C1.89917226,4.91291884 1.92449695,4.94296545 1.95172721,4.97604926 C2.03124417,5.07239953 2.10741831,5.17136408 2.18011891,5.27277308 C2.23960569,5.35602497 2.29312723,5.43689048 2.33930267,5.5141222 C2.45512792,5.70798791 2.52,5.87031553 2.52,5.99654925 C2.52,6.39575153 2.19798704,6.72 1.8,6.72 C1.40198535,6.72 1.08,6.39575153 1.08,5.99654925 L1.08,5.99654925 Z" id="形状结合备份-6" fill="url(#linearGradient-18)" fill-rule="nonzero" opacity="0.300000012" mask="url(#mask-3)" transform="translate(1.800000, 5.760000) rotate(37.000000) translate(-1.800000, -5.760000) "></path>
                <path d="M17.76,2.77047089 C17.76,2.60478913 17.8464961,2.39173413 18.0009298,2.13728539 C18.0624602,2.03591876 18.1338591,1.92978277 18.2131748,1.82051467 C18.3101089,1.68741536 18.4116744,1.55752438 18.5176971,1.43106466 C18.5598641,1.38061463 18.6027542,1.33073326 18.646355,1.28143499 L18.6566653,1.26997429 L18.72,1.2 L18.7833347,1.26997429 L18.793645,1.28143499 C18.8017828,1.29065337 18.811283,1.30136663 18.8219247,1.31353917 C18.8522297,1.34820598 18.8859959,1.38764216 18.9223029,1.43106466 C19.0283256,1.55752438 19.1298911,1.68741536 19.2268252,1.82051467 C19.3061409,1.92978277 19.377503,2.03591876 19.4390702,2.13728539 C19.5935039,2.39173413 19.68,2.60478913 19.68,2.77047089 C19.68,3.29442388 19.2506494,3.72 18.72,3.72 C18.1893138,3.72 17.76,3.29442389 17.76,2.77047089 L17.76,2.77047089 Z" id="形状结合备份-5" fill="url(#linearGradient-19)" fill-rule="nonzero" opacity="0.400000006" mask="url(#mask-3)" transform="translate(18.720000, 2.460000) rotate(37.000000) translate(-18.720000, -2.460000) "></path>
                <path d="M3.48,21.0556866 C3.48,20.8978944 3.5610901,20.6949849 3.70587166,20.4526527 C3.76355644,20.3561131 3.83049288,20.2550312 3.90485137,20.1509664 C3.99572711,20.0242051 4.09094479,19.9004994 4.19034099,19.7800616 C4.2298726,19.7320139 4.27008207,19.6845079 4.31095777,19.6375571 L4.32062368,19.6266422 L4.38,19.56 L4.43937632,19.6266422 L4.44904223,19.6375571 C4.4566714,19.6463365 4.46557784,19.6565396 4.47555445,19.6681325 C4.50396533,19.7011486 4.53562119,19.7387068 4.56965901,19.7800616 C4.66905521,19.9004994 4.76427289,20.0242051 4.85514863,20.1509664 C4.92950712,20.2550312 4.99640904,20.3561131 5.05412834,20.4526527 C5.1989099,20.6949849 5.28,20.8978944 5.28,21.0556866 C5.28,21.5546894 4.8774838,21.96 4.38,21.96 C3.88248168,21.96 3.48,21.5546894 3.48,21.0556866 L3.48,21.0556866 Z" id="形状结合备份-3" fill="url(#linearGradient-20)" fill-rule="nonzero" opacity="0.522656262" mask="url(#mask-3)" transform="translate(4.380000, 20.760000) rotate(37.000000) translate(-4.380000, -20.760000) "></path>
                <path d="M17.88,20.2156866 C17.88,20.0578944 17.9610901,19.8549849 18.1058717,19.6126527 C18.1635564,19.5161131 18.2304929,19.4150312 18.3048514,19.3109664 C18.3957271,19.1842051 18.4909448,19.0604994 18.590341,18.9400616 C18.6298726,18.8920139 18.6700821,18.8445079 18.7109578,18.7975571 L18.7206237,18.7866422 L18.78,18.72 L18.8393763,18.7866422 L18.8490422,18.7975571 C18.8566714,18.8063365 18.8655778,18.8165396 18.8755544,18.8281325 C18.9039653,18.8611486 18.9356212,18.8987068 18.969659,18.9400616 C19.0690552,19.0604994 19.1642729,19.1842051 19.2551486,19.3109664 C19.3295071,19.4150312 19.396409,19.5161131 19.4541283,19.6126527 C19.5989099,19.8549849 19.68,20.0578944 19.68,20.2156866 C19.68,20.7146894 19.2774838,21.12 18.78,21.12 C18.2824817,21.12 17.88,20.7146894 17.88,20.2156866 L17.88,20.2156866 Z" id="形状结合备份-4" fill="url(#linearGradient-20)" fill-rule="nonzero" opacity="0.300000012" mask="url(#mask-3)" transform="translate(18.780000, 19.920000) rotate(37.000000) translate(-18.780000, -19.920000) "></path>
                <path d="M6.36402406,13.6873957 C4.74880514,17.5414687 5.62746378,20.0190035 9,21.12 C14.0588043,22.7714948 14.495937,16.1800125 14.0036246,12 C13.6754164,9.21332499 12.9460742,8.59915802 11.8155981,10.1574991 L6.36402406,13.6873957 Z" id="路径-11" fill="#72CEE8" filter="url(#filter-21)" mask="url(#mask-3)"></path>
                <g id="编组" mask="url(#mask-3)">
                    <g transform="translate(4.858094, 7.106928)">
                        <mask id="mask-23" fill="white">
                            <use xlink:href="#path-22"></use>
                        </mask>
                        <use id="路径" stroke="none" fill="#F4FDFF" fill-rule="nonzero" transform="translate(6.312522, 6.870508) rotate(-330.000000) translate(-6.312522, -6.870508) " xlink:href="#path-22"></use>
                        <path d="M1.66117482,6.8351835 C2.41279675,9.53774286 3.62218916,10.8890225 5.28935203,10.8890225 C7.79009634,10.8890225 8.57848766,9.08868797 8.90811142,6.87887755 C9.12786059,5.4056706 9.02009601,3.68666577 8.58481767,1.72186306 C8.88546747,-0.289858566 9.48357635,-0.289858566 10.3791443,1.72186306 C11.7224962,4.73944549 13.2445044,8.0342629 12.6490841,8.77215038 C12.0536639,9.51003786 9.82642623,11.505183 9.20562195,11.9727001 C8.58481767,12.4402172 6.11202406,13.7010989 5.57273196,13.7740071 C5.03343986,13.8469153 1.67553314,14.1351056 1.39624069,13.9545563 C1.11694824,13.7740071 -0.782827104,10.304036 -0.782827104,10.2479253 C-0.782827104,10.2105182 -0.941249515,9.58236779 -1.25809434,8.36347411 L-0.280833147,6.8351835 L1.66117482,6.8351835 Z" id="路径-2" stroke="none" fill="#84E4FF" fill-rule="evenodd" filter="url(#filter-24)" mask="url(#mask-23)"></path>
                        <path d="M3.76529005,4.78802507 C3.91782243,4.5272525 4.24912002,4.44174094 4.50526392,4.59702968 C4.76140783,4.75231841 4.84540157,5.08960274 4.69286918,5.35037532 C4.1101378,6.3466252 4.03090186,7.14966036 4.40169084,7.82297509 C4.54748084,8.08771476 4.45486244,8.42265051 4.19482186,8.57107502 C3.93478127,8.71949952 3.60579059,8.62520746 3.46000059,8.36046779 C2.88051638,7.30818394 3.00010304,6.09620493 3.76529005,4.78802507 Z" id="路径-3" stroke="none" fill="#FFFFFF" fill-rule="nonzero" mask="url(#mask-23)" transform="translate(3.932396, 6.580468) rotate(-330.000000) translate(-3.932396, -6.580468) "></path>
                        <ellipse id="椭圆形" stroke="none" fill="#FFFFFF" fill-rule="nonzero" mask="url(#mask-23)" transform="translate(3.444402, 9.494156) rotate(-330.000000) translate(-3.444402, -9.494156) " cx="3.44440151" cy="9.49415572" rx="1" ry="1"></ellipse>
                        <path d="M1.78044221,6.346057 C1.27053107,8.99117819 2.0244338,10.7818521 4.04215041,11.7180788 C7.06872531,13.1224188 8.9392941,10.0649919 9.24806754,8.45968028 C9.45391651,7.38947255 9.3573079,5.24060306 8.95824172,2.01307184 C9.88388239,2.37226562 10.3467027,2.60274527 10.3467027,2.70451079 C10.3467027,2.85715908 10.8619057,7.4601002 10.8619057,8.1268165 C10.8619057,8.79353281 9.94460061,10.885476 9.94460061,11.3017774 C9.94460061,11.7180788 7.75665287,14.3468227 7.51026928,14.3468227 C7.2638857,14.3468227 3.61095446,15.137837 3.20045174,14.7423298 C2.92678326,14.4786584 2.02003019,12.9694843 0.480192517,10.2148075 L-1.25809434,5.64823627 L-0.111815455,4.96317052 L1.78044221,6.346057 Z" id="路径-4" stroke="none" fill="#FFFFFF" fill-rule="evenodd" filter="url(#filter-25)" mask="url(#mask-23)"></path>
                    </g>
                </g>
                <g id="编组备份-3" opacity="0.858062744" mask="url(#mask-3)">
                    <g transform="translate(9.517781, 7.561230) rotate(32.000000) translate(-9.517781, -7.561230) translate(5.990868, 3.725790)">
                        <mask id="mask-27" fill="white">
                            <use xlink:href="#path-26"></use>
                        </mask>
                        <use id="路径" stroke="none" fill="#F4FDFF" fill-rule="nonzero" transform="translate(3.526912, 3.835440) rotate(-330.000000) translate(-3.526912, -3.835440) " xlink:href="#path-26"></use>
                        <path d="M1.0053328,3.79768991 C1.42290054,5.30172294 2.09478521,6.05373946 3.02098681,6.05373946 C4.4102892,6.05373946 4.84828438,5.05181413 5.03140869,3.82200659 C5.15349156,3.0021349 5.09362235,2.04547134 4.85180105,0.952015921 C5.01882872,-0.167550895 5.35111143,-0.167550895 5.84864917,0.952015921 C6.59495579,2.63136615 7.44051592,4.46500366 7.10972687,4.87565408 C6.77893783,5.28630451 5.54158358,6.39664612 5.19669232,6.65682956 C4.85180105,6.917013 3.47802683,7.61872107 3.1784201,7.65929608 C2.87881338,7.69987108 1.01330965,7.86025524 0.858147174,7.75977566 C0.702984702,7.65929608 -0.352446044,5.72818175 -0.352446044,5.69695493 C-0.352446044,5.67613705 -0.440458495,5.32655769 -0.616483396,4.64821685 L-0.0735605121,3.79768991 L1.0053328,3.79768991 Z" id="路径-2" stroke="none" fill="#84E4FF" fill-rule="evenodd" filter="url(#filter-28)" mask="url(#mask-27)"></path>
                        <path d="M2.12616357,2.67692802 C2.2173298,2.53172133 2.41534121,2.4841057 2.56843444,2.57057554 C2.72152766,2.65704538 2.77172941,2.84485633 2.68056318,2.99006303 C2.3322737,3.54480753 2.28491561,3.99196376 2.50653042,4.36688742 C2.59366683,4.51430312 2.53831025,4.7008063 2.38288805,4.78345392 C2.22746584,4.86610154 2.03083323,4.81359663 1.94369681,4.66618093 C1.59734812,4.08023488 1.66882321,3.40536534 2.12616357,2.67692802 Z" id="路径-3" stroke="none" fill="#FFFFFF" fill-rule="nonzero" mask="url(#mask-27)" transform="translate(2.226040, 3.675019) rotate(-330.000000) translate(-2.226040, -3.675019) "></path>
                        <circle id="椭圆形" stroke="none" fill="#FFFFFF" fill-rule="nonzero" mask="url(#mask-27)" transform="translate(1.921389, 5.297455) rotate(-330.000000) translate(-1.921389, -5.297455) " cx="1.92138899" cy="5.29745543" r="1"></circle>
                        <path d="M1.06824974,3.50205211 C0.785526732,4.98529764 1.20353221,5.98941386 2.32226616,6.51440078 C4.0003671,7.30188116 5.03751415,5.58743616 5.20871527,4.68726143 C5.32284935,4.08714494 5.26928418,2.8821714 5.04801976,1.07234081 C5.56124627,1.27375788 5.81785953,1.40299881 5.81785953,1.46006359 C5.81785953,1.54566076 6.1035166,4.12674923 6.1035166,4.50060885 C6.1035166,4.87446846 5.59491182,6.0475207 5.59491182,6.28096074 C5.59491182,6.51440078 4.38179229,7.98846276 4.24518356,7.98846276 C4.10857484,7.98846276 2.08318722,8.43202221 1.85558176,8.21024249 C1.70384478,8.06238933 1.2010906,7.21612348 0.347319216,5.67144492 L-0.616483396,3.11075077 L0.0190771724,2.72660175 L1.06824974,3.50205211 Z" id="路径-4" stroke="none" fill="#FFFFFF" fill-rule="evenodd" filter="url(#filter-29)" mask="url(#mask-27)"></path>
                    </g>
                </g>
                <g id="编组备份-4" opacity="0.793130057" mask="url(#mask-3)">
                    <g transform="translate(17.750099, 9.367457) rotate(-5.000000) translate(-17.750099, -9.367457) translate(14.936249, 6.307457)">
                        <mask id="mask-31" fill="white">
                            <use xlink:href="#path-30"></use>
                        </mask>
                        <use id="路径" stroke="none" fill="#F4FDFF" fill-rule="nonzero" transform="translate(2.813850, 3.060000) rotate(-330.000000) translate(-2.813850, -3.060000) " xlink:href="#path-30"></use>
                        <path d="M0.757500062,2.96905141 C1.09155425,4.16757773 1.62906199,4.76684089 2.37002327,4.76684089 C3.48146518,4.76684089 3.83186132,3.96843165 3.97836077,2.98842877 C4.07602707,2.33509351 4.0281317,1.57275224 3.83467466,0.701404952 C3.9682968,-0.190749855 4.23412296,-0.190749855 4.63215316,0.701404952 C5.22919845,2.03963716 5.90564656,3.50081706 5.64101532,3.82805411 C5.37638408,4.15529117 4.38650069,5.04009464 4.11058767,5.24742832 C3.83467466,5.454762 2.73565528,6.01393562 2.4959699,6.04626883 C2.25628452,6.07860203 0.763881537,6.20640816 0.639751559,6.12633849 C0.515621582,6.04626883 -0.328723015,4.5074121 -0.328723015,4.48252822 C-0.328723015,4.46593897 -0.399132976,4.18736792 -0.539952897,3.64681507 L-0.10561459,2.96905141 L0.757500062,2.96905141 Z" id="路径-2" stroke="none" fill="#84E4FF" fill-rule="evenodd" filter="url(#filter-32)" mask="url(#mask-31)"></path>
                        <path d="M1.77719698,2.13571324 C1.86836321,2.01986407 2.06637462,1.98187526 2.21946784,2.05086284 C2.37256107,2.11985042 2.42276282,2.26969021 2.33159659,2.38553937 C1.98330711,2.82812698 1.93594902,3.18487825 2.15756382,3.48400076 C2.24470023,3.60161231 2.18934366,3.75040873 2.03392145,3.81634685 C1.87849924,3.88228498 1.68186663,3.84039539 1.59473022,3.72278383 C1.24838153,3.25530293 1.31985661,2.71687687 1.77719698,2.13571324 Z" id="路径-3" stroke="none" fill="#FFFFFF" fill-rule="nonzero" mask="url(#mask-31)" transform="translate(1.877074, 2.932012) rotate(-330.000000) translate(-1.877074, -2.932012) "></path>
                        <circle id="椭圆形" stroke="none" fill="#FFFFFF" fill-rule="nonzero" mask="url(#mask-31)" transform="translate(1.532927, 4.226429) rotate(-330.000000) translate(-1.532927, -4.226429) " cx="1.53292725" cy="4.2264288" r="1"></circle>
                        <path d="M0.877469315,2.78739967 C0.650281185,3.97399609 0.986178442,4.77728907 1.88516109,5.1972786 C3.23363505,5.82726291 4.06705679,4.45570691 4.20462912,3.73556712 C4.296344,3.25547393 4.25330056,2.2914951 4.0754988,0.843630624 C4.48791296,1.00476428 4.69412004,1.10815702 4.69412004,1.15380885 C4.69412004,1.22228658 4.9236659,3.28715736 4.9236659,3.58624505 C4.9236659,3.88533274 4.51496563,4.82377454 4.51496563,5.01052657 C4.51496563,5.1972786 3.54013743,6.37652818 3.43036257,6.37652818 C3.3205877,6.37652818 1.69304408,6.73137575 1.51014683,6.55395197 C1.38821533,6.43566944 0.984216434,5.75865676 0.298150146,4.52291392 L-0.476334097,2.47435859 L0.0343842173,2.16703938 L0.877469315,2.78739967 Z" id="路径-4" stroke="none" fill="#FFFFFF" fill-rule="evenodd" filter="url(#filter-33)" mask="url(#mask-31)"></path>
                    </g>
                </g>
            </g>
        </g>
    </g>
</svg>