<?xml version="1.0" encoding="UTF-8"?>
<svg width="24px" height="24px" viewBox="0 0 24 24" version="1.1" xmlns="http://www.w3.org/2000/svg" xmlns:xlink="http://www.w3.org/1999/xlink">
    <title>-mockplus-</title>
    <defs>
        <linearGradient x1="100%" y1="50%" x2="0%" y2="50%" id="linearGradient-1">
            <stop stop-color="#FFE0D4" offset="0%"></stop>
            <stop stop-color="#FF7A7A" offset="100%"></stop>
        </linearGradient>
        <rect id="path-2" x="0" y="0" width="24" height="24"></rect>
        <filter x="-368.6%" y="-396.8%" width="837.2%" height="893.5%" filterUnits="objectBoundingBox" id="filter-4">
            <feGaussianBlur stdDeviation="21.2666667" in="SourceGraphic"></feGaussianBlur>
        </filter>
        <path d="M5.1159077e-15,0.748899805 C2.56974008,-0.640558873 4.16975568,-0.0965859309 4.80004681,2.38081863 C6.59518979,1.0586626 8.08126963,1.26513328 9.25828634,3.00023066 C14.985901,1.99143251 18.2149077,2.64703055 18.9453062,4.96702478 C19.6757048,7.287019 17.8807439,8.49454819 13.5604234,8.58961234 L5.1159077e-15,8.58961234 L5.1159077e-15,0.748899805 Z" id="path-5"></path>
        <filter x="-119.6%" y="-434.8%" width="339.2%" height="969.7%" filterUnits="objectBoundingBox" id="filter-7">
            <feGaussianBlur stdDeviation="8.06666667" in="SourceGraphic"></feGaussianBlur>
        </filter>
        <path d="M9.30552473,8.52651283e-15 C7.79920145,3.05184343 6.15429602,4.86275048 4.37080843,5.43272113 C2.58732085,6.00269179 1.13038471,7.1823103 5.1159077e-15,8.97157665 L2.12171834,7.78947533 L3.22363855,8.97157665 C6.6632299,8.18350911 8.61844024,7.21932213 9.08926958,6.07901572 C9.1839882,5.84961571 9.18000213,5.65821912 9.15342696,5.52997177 C8.98523046,5.79886647 8.78350341,5.93331383 8.5482458,5.93331383 C8.57838378,5.53539165 8.70148243,5.21333857 8.91754176,4.96715457 C9.24163075,4.59787857 9.56146631,2.85648085 9.16655903,2.72488667 C9.11503273,2.96516909 8.97055888,3.12167745 8.73313748,3.19441177 C8.74851805,2.70105879 8.97240271,2.20865436 9.40479147,1.71719846 C9.83718023,1.22574256 9.80409132,0.653343076 9.30552473,8.52651283e-15 Z" id="path-8"></path>
        <filter x="-72.0%" y="-78.7%" width="244.0%" height="257.3%" filterUnits="objectBoundingBox" id="filter-10">
            <feGaussianBlur stdDeviation="2.2" in="SourceGraphic"></feGaussianBlur>
        </filter>
        <filter x="-59.5%" y="-96.3%" width="219.0%" height="292.6%" filterUnits="objectBoundingBox" id="filter-11">
            <feGaussianBlur stdDeviation="1.46666667" in="SourceGraphic"></feGaussianBlur>
        </filter>
        <path d="M0,3.71895739 C1.38922938,4.15829983 2.47357029,4.01275307 3.25302274,3.28231713 C3.82878412,3.0071188 4.17667254,2.6097396 4.29668802,2.09017956 C4.81349962,1.78047394 5.00893015,1.37750214 4.8829796,0.881264153 C4.69405379,0.13690717 4.17591374,0.758255094 4.06186976,0.920211185 C3.94782578,1.08216728 3.89864303,0.920211185 3.7915862,0.817618345 C3.68452938,0.715025504 3.31622117,0.649871374 2.73741218,0.817618345 C2.4581987,0.69506717 1.93836584,0.626393621 1.17791357,0.611597699 C0.681361505,0.248145929 0.288723647,0.0442800289 0,6.82121026e-15 C0,1.11342905 0,2.35308151 0,3.71895739 Z" id="path-12"></path>
        <filter x="-209.8%" y="-213.2%" width="519.7%" height="526.3%" filterUnits="objectBoundingBox" id="filter-14">
            <feGaussianBlur stdDeviation="2.2" in="SourceGraphic"></feGaussianBlur>
        </filter>
        <path d="M0,3.71895739 C1.38922938,4.15829983 2.47357029,4.01275307 3.25302274,3.28231713 C3.82878412,3.0071188 4.17667254,2.6097396 4.29668802,2.09017956 C4.81349962,1.78047394 5.00893015,1.37750214 4.8829796,0.881264153 C4.69405379,0.13690717 4.17591374,0.758255094 4.06186976,0.920211185 C3.94782578,1.08216728 3.89864303,0.920211185 3.7915862,0.817618345 C3.68452938,0.715025504 3.31622117,0.649871374 2.73741218,0.817618345 C2.4581987,0.69506717 1.93836584,0.626393621 1.17791357,0.611597699 C0.681361505,0.248145929 0.288723647,0.0442800289 0,6.82121026e-15 C0,1.11342905 0,2.35308151 0,3.71895739 Z" id="path-15"></path>
        <filter x="-694.3%" y="-332.1%" width="1488.6%" height="764.2%" filterUnits="objectBoundingBox" id="filter-17">
            <feGaussianBlur stdDeviation="8.06666667" in="SourceGraphic"></feGaussianBlur>
        </filter>
        <filter x="-692.9%" y="-393.2%" width="1485.8%" height="886.3%" filterUnits="objectBoundingBox" id="filter-18">
            <feGaussianBlur stdDeviation="7.33333333" in="SourceGraphic"></feGaussianBlur>
        </filter>
        <path d="M3.52455778,2.96303657 C3.55644513,2.3954456 3.48005237,2.04792361 3.2953795,1.9204706 C3.65954885,1.72397011 3.57895328,1.03900901 3.16822532,0.850316483 C2.75749736,0.661623956 3.14152186,0.341768176 3.16822532,0.294996546 C3.19492878,0.248224916 3.21007024,5.54223334e-15 2.75162692,5.54223334e-15 C2.44599805,5.54223334e-15 2.21718837,0.0573355376 2.0651979,0.172006613 C1.71618682,0.10917658 1.42460998,0.240176909 1.19046738,0.565007599 C0.83925347,1.05225363 0.505916757,1.32434681 0.505916757,2.28417726 C0.0339340099,2.52443128 0.000591100603,2.60077584 0.000591100603,2.70251076 C0.000591100603,2.80424567 -0.0186107136,2.92243515 0.161868989,3.07963554 C0.342348691,3.23683594 1.02389742,3.13732774 1.07282735,3.13732774 C1.10544729,3.13732774 1.41005439,3.05619236 1.98664862,2.89392161 L3.37166623,3.01066517 L3.52455778,2.96303657 Z" id="path-19"></path>
        <path d="M1.8382771,0.225542233 C2.63807853,-0.0751807444 2.97959192,-0.0751807444 2.86281726,0.225542233 C2.68765528,0.676626699 2.56271016,0.676626699 2.98485596,0.676626699 C3.40700176,0.676626699 3.48399881,1.06366986 3.21220748,1.32263919 C2.94041616,1.58160852 3.47311217,0.992717113 3.63277509,1.58160852 C3.792438,2.17049992 3.792438,2.44843911 3.792438,2.44843911 C3.792438,2.44843911 4.05334269,2.47713219 3.63277509,2.69736626 C3.21220748,2.91760033 3.15958867,2.69220818 2.44673715,2.91760033 C1.9715028,3.06786177 1.31071859,3.06786177 0.464384512,2.91760033 C0.0181210319,1.42361791 -0.106505278,0.676626699 0.0905055819,0.676626699 C0.386021872,0.676626699 0.613892863,0.225542233 0.921854955,0.225542233 C1.12716302,0.225542233 1.43263706,0.225542233 1.8382771,0.225542233 Z" id="path-21"></path>
        <filter x="-0.0%" y="0.0%" width="100.0%" height="100.0%" filterUnits="objectBoundingBox" id="filter-22">
            <feGaussianBlur stdDeviation="0" in="SourceGraphic"></feGaussianBlur>
        </filter>
        <filter x="-398.3%" y="-271.4%" width="896.7%" height="642.7%" filterUnits="objectBoundingBox" id="filter-24">
            <feGaussianBlur stdDeviation="4.4" in="SourceGraphic"></feGaussianBlur>
        </filter>
        <filter x="-482.2%" y="-311.2%" width="1064.5%" height="722.4%" filterUnits="objectBoundingBox" id="filter-25">
            <feGaussianBlur stdDeviation="2.2" in="SourceGraphic"></feGaussianBlur>
        </filter>
        <path d="M0.293208569,1.88302128 C-0.024411801,1.6429986 -0.0839836944,1.38742747 0.114492889,1.11630788 C0.412207764,0.709628492 1.56000777,-7.67386155e-15 3.26049615,-7.67386155e-15 C4.39415506,-7.67386155e-15 5.29133863,0.31383688 5.95204683,0.941510641 C6.10992199,1.22339751 6.10992199,1.47613947 5.95204683,1.6997365 C5.7152341,2.03513204 4.94319971,1.95086384 4.94319971,1.88302128 C4.94319971,1.83779291 4.4498037,1.69398173 3.46301167,1.45158775 L0.293208569,1.88302128 Z" id="path-26"></path>
        <filter x="-148.7%" y="-311.7%" width="397.4%" height="723.5%" filterUnits="objectBoundingBox" id="filter-28">
            <feGaussianBlur stdDeviation="3.66666667" in="SourceGraphic"></feGaussianBlur>
        </filter>
        <filter x="-69.4%" y="-81.4%" width="238.9%" height="262.8%" filterUnits="objectBoundingBox" id="filter-29">
            <feGaussianBlur stdDeviation="0.733333333" in="SourceGraphic"></feGaussianBlur>
        </filter>
        <path d="M6.58610452,1.12813268 C6.70554735,1.33966154 6.76155611,1.53026594 6.7541308,1.69994587 L6.75478268,1.7006259 L6.66171635,2.52741996 L6.40681925,2.72123518 L6.188,2.378 L6.13284147,2.40880937 C5.67814494,2.64652137 5.07610294,2.89829162 4.32671547,3.16412009 C3.02628185,3.37355566 2.3123796,3.47827344 2.18500872,3.47827344 C2.05763785,3.47827344 1.47032074,3.33470059 0.423057404,3.04755489 L0.0108628379,2.42141397 C-0.106096129,1.15433995 0.721408034,0.379176129 2.49337532,0.0959225077 C4.26534262,-0.187331114 5.62958568,0.156738945 6.58610452,1.12813268 Z" id="path-30"></path>
        <filter x="-453.1%" y="-383.0%" width="1006.1%" height="865.9%" filterUnits="objectBoundingBox" id="filter-32">
            <feGaussianBlur stdDeviation="5.86666667" in="SourceGraphic"></feGaussianBlur>
        </filter>
        <filter x="-63.9%" y="-97.4%" width="227.8%" height="294.7%" filterUnits="objectBoundingBox" id="filter-33">
            <feGaussianBlur stdDeviation="0.733333333" in="SourceGraphic"></feGaussianBlur>
        </filter>
        <path d="M4.57593211,3.30859968 C5.68441667,2.93188001 6.23865894,2.43364984 6.23865894,1.81390917 C6.23865894,0.884298171 4.99392936,0.0738424571 3.43372562,0.0064141498 C1.87352189,-0.0610141575 0.856196544,0.401549779 0.140895327,1.47147867 C-0.57440589,2.54140757 1.60663708,3.50099749 2.80217571,3.50099749 C3.59920146,3.50099749 4.1904536,3.43686488 4.57593211,3.30859968 Z" id="path-34"></path>
        <filter x="-512.5%" y="-435.3%" width="1125.1%" height="970.6%" filterUnits="objectBoundingBox" id="filter-36">
            <feGaussianBlur stdDeviation="5.86666667" in="SourceGraphic"></feGaussianBlur>
        </filter>
        <path d="M0.630269295,1.157958 C0.822014141,0.404340407 1.41322679,0.0186318925 2.40390723,0.00083245401 C3.8899279,-0.0258667037 4.5910459,0.593551048 4.5910459,1.30012843 C4.5910459,1.77118002 4.69053816,6.84490294 4.88952268,16.5212972 L0,16.3779311 L0.630269295,1.157958 Z" id="path-37"></path>
        <filter x="-403.1%" y="-90.5%" width="906.2%" height="281.0%" filterUnits="objectBoundingBox" id="filter-39">
            <feGaussianBlur stdDeviation="6.41059603" in="SourceGraphic"></feGaussianBlur>
        </filter>
        <filter x="-203.0%" y="-45.7%" width="505.9%" height="191.5%" filterUnits="objectBoundingBox" id="filter-40">
            <feGaussianBlur stdDeviation="2.2" in="SourceGraphic"></feGaussianBlur>
        </filter>
        <filter x="-355.8%" y="-43.0%" width="811.6%" height="186.0%" filterUnits="objectBoundingBox" id="filter-41">
            <feGaussianBlur stdDeviation="2.2" in="SourceGraphic"></feGaussianBlur>
        </filter>
        <path d="M1.43131297,0 C1.69967758,0 1.8912184,0.0863231091 2.0059354,0.258969327 C1.86901815,0.56205352 1.80055952,0.713595617 1.80055952,0.713595617 C1.80055952,0.713595617 1.69110181,0.755983503 1.47218639,0.840759277 C1.50153173,1.09407233 1.2684219,1.29136443 1.21643218,1.41838602 C1.16332889,1.5481283 1.50697821,2.17406502 2.00077681,2.17406502 C2.4945754,2.17406502 3.04542339,2.6010617 3.11938466,2.81000793 C3.19334593,3.01895416 3.31863475,3.24757979 3.42430579,3.304483 C3.52997682,3.36138621 3.87940437,3.37173589 4.20546534,3.77877656 C4.61057993,3.81618939 4.87576755,4.02233577 5.00102817,4.39721568 C5.66203825,4.75999422 6.1274122,5.12271547 6.39715003,5.48537946 C6.5172431,6.34705273 6.51121633,7.41517415 6.37906971,8.68974371 L6.90247992,8.80038487 C7.04893784,9.04311674 7.10197609,9.18231799 7.06159467,9.2179886 C7.02121325,9.25365921 6.76531208,9.3176345 6.29389117,9.40991447 L6.29389117,9.40991447 C5.84708136,9.29197795 5.4990328,9.15493853 5.2497455,8.99879622 C4.87581455,8.76458276 4.51151392,8.44583425 3.7111312,7.79219024 C3.17754272,7.35642757 2.84619523,6.75368831 2.62013564,6.30623347 L2.49635881,6.05897279 C2.44001205,5.9472376 2.39139604,5.85527871 2.34789306,5.79179717 C2.20288312,5.58019202 2.10477545,5.31069188 2.05357005,4.98329675 C1.66593106,4.59257604 1.40200244,4.31916738 1.2617842,4.16307076 C1.12156595,4.00697414 1.08015065,3.75464895 1.13753828,3.40609519 C0.560373532,2.55450707 0.198543944,1.90790967 0.052049516,1.46630301 C-0.0890266254,1.04102974 0.0764205995,0.702820074 0.311905096,0.493412994 L0.31174703,0.492149542 L0.321996055,0.484555011 C0.40232618,0.41494832 0.490288346,0.360153523 0.576723753,0.321787119 C0.930327727,0.106679138 1.21490309,0 1.43131297,0 Z" id="path-42"></path>
        <filter x="-135.0%" y="-77.5%" width="370.0%" height="255.1%" filterUnits="objectBoundingBox" id="filter-44">
            <feGaussianBlur stdDeviation="2.93333333" in="SourceGraphic"></feGaussianBlur>
        </filter>
        <linearGradient x1="31.5516491%" y1="5.96372276%" x2="69.9629219%" y2="73.1936316%" id="linearGradient-45">
            <stop stop-color="#FCF5DE" offset="0%"></stop>
            <stop stop-color="#FCE19A" offset="100%"></stop>
        </linearGradient>
        <path d="M0.857434386,0.190295135 L0.885809086,0.300961851 C1.15478855,1.22599233 1.99539583,1.9437529 3.40763093,2.45424355 C5.36906857,3.16325835 6.70114654,5.04212144 7.40386485,8.09083282 L4.36295002,7.72891441 C4.28457301,5.94382313 3.34836333,4.67690824 1.55432095,3.92816971 C-0.0175235105,3.27216486 -0.397193823,1.9625885 0.415310017,-0.000559381071 C0.565283037,0.0753732284 0.712053969,0.138418411 0.857434386,0.190295135 Z" id="path-46"></path>
        <filter x="-78.7%" y="-78.8%" width="257.4%" height="257.5%" filterUnits="objectBoundingBox" id="filter-48">
            <feGaussianBlur stdDeviation="2.2" in="SourceGraphic"></feGaussianBlur>
        </filter>
        <filter x="-86.2%" y="-57.4%" width="272.3%" height="214.9%" filterUnits="objectBoundingBox" id="filter-49">
            <feGaussianBlur stdDeviation="1.46666667" in="SourceGraphic"></feGaussianBlur>
        </filter>
        <path d="M24.1010976,5.16230258 C23.5460149,3.47230258 22.5831262,2.47430258 21.2124314,2.16830258 C19.0987476,1.69643439 15.7096153,3.54438202 14.5884382,3.90230258 C13.9204634,3.08630258 12.5220859,2.4682966 11.6058273,2.62730258 C9.84252787,2.93330258 8.70782413,3.40237378 8.20171607,4.03451617 C7.63610496,1.90637378 6.45346033,0.615534387 4.65378219,0.161998002 C2.85410404,-0.291538382 1.46645694,0.20722981 0.490840875,1.65830258 L0,7.63714434 C1.84052529,8.54180094 3.52620651,8.99412924 5.05704367,8.99412924 C6.58788083,8.99412924 11.5386791,8.44703745 19.9094384,7.35285386 L24.1010976,5.16230258 Z" id="path-50"></path>
        <filter x="-80.2%" y="-271.1%" width="260.4%" height="642.2%" filterUnits="objectBoundingBox" id="filter-52">
            <feGaussianBlur stdDeviation="7.33333333" in="SourceGraphic"></feGaussianBlur>
        </filter>
        <filter x="-167.6%" y="-328.4%" width="435.1%" height="756.7%" filterUnits="objectBoundingBox" id="filter-53">
            <feGaussianBlur stdDeviation="8.8" in="SourceGraphic"></feGaussianBlur>
        </filter>
        <filter x="-210.6%" y="-208.5%" width="521.2%" height="517.1%" filterUnits="objectBoundingBox" id="filter-54">
            <feGaussianBlur stdDeviation="8.06666667" in="SourceGraphic"></feGaussianBlur>
        </filter>
        <linearGradient x1="80.8673469%" y1="0%" x2="38.2365952%" y2="84.6668034%" id="linearGradient-55">
            <stop stop-color="#FFFFFF" offset="0%"></stop>
            <stop stop-color="#FFFFFF" stop-opacity="0.512019231" offset="100%"></stop>
        </linearGradient>
    </defs>
    <g id="0401迭代-取派异常--五端" stroke="none" stroke-width="1" fill="none" fill-rule="evenodd">
        <g id="取派异常--PC官网-列表" transform="translate(-1041.000000, -628.000000)">
            <g id="取派异常小图-假期" transform="translate(1041.000000, 628.000000)">
                <g id="矩形-2">
                    <mask id="mask-3" fill="white">
                        <use xlink:href="#path-2"></use>
                    </mask>
                    <use id="矩形" fill="url(#linearGradient-1)" xlink:href="#path-2"></use>
                    <path d="M5.34642379,5.46764864 C2.42214126,6.00234639 1.6,7.99095371 2.88,11.4334706 C4.8,16.5972459 -2.20966872,18.8102925 4.8,19.5479747 C11.8096687,20.2856568 9.4363071,22.7104224 13.1699463,20.8758026 C16.9035855,19.0411827 18.950625,18.1791415 18.3529687,14.2228571 C17.7553125,10.2665728 20.3132913,9.95810621 17.7553125,9.22042402 C15.1973337,8.48274183 17.2833758,8.42624047 14.0323231,7.75046738 C10.7812704,7.0746943 7.32088767,5.4219509 6.65195041,5.58763432 C6.20599224,5.69808993 5.7708167,5.65809471 5.34642379,5.46764864 Z" id="路径-5" fill="#EE6465" opacity="0.57547433" filter="url(#filter-4)" mask="url(#mask-3)"></path>
                    <g id="路径-26" mask="url(#mask-3)">
                        <g transform="translate(-1.272343, 15.852975)">
                            <mask id="mask-6" fill="white">
                                <use xlink:href="#path-5"></use>
                            </mask>
                            <use id="路径-3" stroke="none" fill="#FFE9E0" fill-rule="evenodd" opacity="0.699999988" xlink:href="#path-5"></use>
                            <path d="M0.340002207,3.47111628 C1.69068254,2.65130983 3.02537858,2.36787728 4.34409034,2.62081863 C6.32215797,3.00023066 8.28670914,4.08490206 8.52130665,5.31399884 C9.75993052,4.32833357 14.2556468,5.38059339 14.9307447,5.89659339 C15.9534054,4.44492461 17.4968805,4.12952938 19.5611701,4.9504077 L18.9247358,7.90702478 L11.3948001,7.90702478 C6.05401456,8.14429711 3.29974352,8.14429711 3.13198698,7.90702478 C2.96423045,7.66975245 1.69637728,7.7329575 -0.671572512,8.09663995 C-0.671572512,6.60222983 -0.671572512,5.75702478 -0.671572512,5.56102478 C-0.671572512,5.36502478 -0.334380939,4.66838861 0.340002207,3.47111628 Z" id="路径-27" stroke="none" fill="#FAB2AC" fill-rule="evenodd" filter="url(#filter-7)" mask="url(#mask-6)"></path>
                        </g>
                    </g>
                    <g id="编组" mask="url(#mask-3)">
                        <g transform="translate(2.760000, 4.320000)">
                            <g id="路径-54" transform="translate(6.284961, 0.419603)">
                                <mask id="mask-9" fill="white">
                                    <use xlink:href="#path-8"></use>
                                </mask>
                                <use id="路径-47" fill="#E2493C" xlink:href="#path-8"></use>
                                <path d="M3.29203791,7.01202725 C4.92668408,6.21379999 6.04712938,5.56851978 6.65337381,5.07618663 C7.5831706,4.32109549 8.21079903,3.37601744 8.78643932,2.5250009 C9.92507152,0.841666966 11.0362759,0.64984323 12.1200525,1.94952969 C10.6686528,-0.268408367 9.91889945,-1.3773774 9.87079242,-1.3773774 C9.79863186,-1.3773774 7.1700402,-0.934201162 6.99882325,0.219928659 C6.8276063,1.37405848 5.96422905,2.77637304 5.84336876,2.87269633 C5.76279523,2.93691186 5.15122156,3.47934641 4.00864774,4.5 L2.95503891,6.07901572 L3.29203791,7.01202725 Z" id="路径-22" fill="#FF8A80" filter="url(#filter-10)" mask="url(#mask-9)"></path>
                                <path d="M3.51175229,8.04033194 C5.05597324,7.55997124 6.10318041,7.16044493 6.65337381,6.84175302 C7.89903916,6.12021861 8.58691941,5.15483444 9.15105815,4.48578833 C10.0889555,3.37347939 10.3036157,3.6208176 9.79503891,5.22780296 C8.53631887,6.34256198 7.60424698,7.06155432 6.99882325,7.38477998 C5.5539275,8.15618577 4.10768283,8.29171334 3.45331737,8.34363133 C2.38767477,8.42818046 2.40715308,8.32708066 3.51175229,8.04033194 Z" id="路径-23" fill="#FF8B82" filter="url(#filter-11)" mask="url(#mask-9)"></path>
                            </g>
                            <g id="编组-28" transform="translate(0.000000, 0.000000)">
                                <g id="路径-51" transform="translate(9.852392, 8.763234)">
                                    <mask id="mask-13" fill="white">
                                        <use xlink:href="#path-12"></use>
                                    </mask>
                                    <use id="路径-40" fill="#F4990D" xlink:href="#path-12"></use>
                                    <path d="M3.08594243,1.7471108 C3.17392967,3.121858 3.42616429,3.86164376 3.84264629,3.96646809 C4.46736928,4.12370458 5.60586596,3.65548181 5.87223253,3.34644117 C6.1385991,3.03740053 6.52545711,0.901521284 5.87223253,0.901521284 C5.43674947,0.901521284 4.90756439,0.901521284 4.28467727,0.901521284 L3.22168546,1.7471108 L3.08594243,1.7471108 Z" id="路径-16" fill="#FFCC6A" filter="url(#filter-14)" mask="url(#mask-13)"></path>
                                </g>
                                <g id="路径-49" transform="translate(9.972392, 8.315407)">
                                    <mask id="mask-16" fill="white">
                                        <use xlink:href="#path-15"></use>
                                    </mask>
                                    <use id="路径-40" fill="#FCE19A" xlink:href="#path-15"></use>
                                    <path d="M0.388773448,-0.628356811 C0.264729231,2.05167932 0.558922602,3.86012957 1.27135356,4.79699393 C2.34,6.20229048 -0.536548244,6.02179369 -0.732392463,5.21804441 C-0.928236682,4.41429513 -2.23170376,0.895654085 -1.93239246,0.447827042 C-1.63308116,2.35367281e-14 -1.72910401,-1.44851124 -1.42695722,-1.44851124 C-1.22552602,-1.44851124 -0.620282464,-1.17512643 0.388773448,-0.628356811 Z" id="路径-9" fill="#F6A51F" filter="url(#filter-17)" mask="url(#mask-16)"></path>
                                    <path d="M2.577122,1.33226763e-15 C3.38741319,3.34198827 4.22804184,4.6641443 5.09900795,3.96646809 C5.96997406,3.26879188 5.96997406,1.46379877 5.09900795,-1.44851124 L2.577122,1.33226763e-15 Z" id="路径-10" fill="#FCF7E4" filter="url(#filter-18)" mask="url(#mask-16)"></path>
                                </g>
                                <g id="路径-50" transform="translate(5.976999, 0.000000)">
                                    <mask id="mask-20" fill="white">
                                        <use xlink:href="#path-19"></use>
                                    </mask>
                                    <use id="路径-45" fill="#FCE19A" xlink:href="#path-19"></use>
                                    <g id="路径-12" mask="url(#mask-20)">
                                        <g transform="translate(-0.921855, 0.471022)">
                                            <mask id="mask-23" fill="white">
                                                <use xlink:href="#path-21"></use>
                                            </mask>
                                            <use id="路径-11" stroke="none" fill="#FAAE26" fill-rule="evenodd" filter="url(#filter-22)" xlink:href="#path-21"></use>
                                            <path d="M1.42777171,0.676626699 C1.611454,0.36172579 1.86735517,0.36172579 2.19547521,0.676626699 C2.68765528,1.14897806 2.93476601,0.608865363 2.81121064,1.38968264 C2.68765528,2.17049992 2.39873647,2.05993541 2.68765528,2.52474157 C2.97657409,2.98954773 2.578245,2.76897806 3.5158503,2.76897806 C4.4534556,2.76897806 4.91281323,2.37405111 4.68313441,1.32263919 C4.4534556,0.271227278 4.04684464,-1.79581006 3.5158503,-1.79581006 C2.98485596,-1.79581006 2.0237841,-2.18226456 1.98,-1.98903731 C1.9508106,-1.86021915 1.7667345,-0.971664476 1.42777171,0.676626699 Z" id="路径-13" stroke="none" fill="#FCE19A" fill-rule="evenodd" filter="url(#filter-24)" mask="url(#mask-23)"></path>
                                            <path d="M1.50303302,2.60648329 C1.46649716,2.34600914 1.54344803,2.12336172 1.73388563,1.93854102 C2.01954203,1.66130996 1.85288977,1.07736626 1.9362159,1.11317216 C2.01954203,1.14897806 2.27029426,0.752433104 2.44673715,1.38968264 C2.62318004,2.02693218 2.86281726,2.42464606 2.86281726,2.42464606 C2.86281726,2.42464606 2.68765528,2.47713219 2.68765528,2.69736626 C2.68765528,2.91760033 2.36118024,3.16598497 2.26984725,3.14299248 C2.20895859,3.12766416 1.95335385,2.94882776 1.50303302,2.60648329 Z" id="路径-14" stroke="none" fill="#F4A214" fill-rule="evenodd" filter="url(#filter-25)" mask="url(#mask-23)"></path>
                                        </g>
                                    </g>
                                </g>
                                <g id="路径-52" transform="translate(4.882735, 2.641522)">
                                    <mask id="mask-27" fill="white">
                                        <use xlink:href="#path-26"></use>
                                    </mask>
                                    <use id="路径-44" fill="#FCE19A" xlink:href="#path-26"></use>
                                    <path d="M2.36788455,-0.172558237 C2.02251039,0.455875848 2.08436607,0.799994088 2.55345158,0.859796483 C3.41160212,0.650777118 5.06936469,0.420634186 6.01566665,1.6374508 C6.64653462,2.44866188 6.09373417,2.64040082 4.3572653,2.21266764 C2.44841674,2.2383302 1.4273711,2.29034075 1.29412838,2.3686993 C1.09426429,2.48623712 0.316856122,2.68073285 -3.28626015e-14,2.68073285 C-0.316856122,2.68073285 -0.873573324,2.25251944 -0.873573324,1.94498512 C-0.873573324,1.6374508 -1.12913171,0.670089945 -1.12913171,0.598478139 C-1.12913171,0.526866334 -1.14608385,-0.379471398 -0.558398901,-0.379471398 C-0.166608937,-0.379471398 0.552917713,-0.535601176 1.60018105,-0.847860733 L2.36788455,-0.172558237 Z" id="路径-18" fill="#F4A21D" filter="url(#filter-28)" mask="url(#mask-27)"></path>
                                    <path d="M3.43206869,-0.170646781 C3.39999352,0.211754773 3.75933172,0.444259144 4.51008329,0.526866334 C5.26083486,0.609473523 5.79747376,0.966350314 6.12,1.59749671 C6.43884134,1.39952128 6.59826201,1.2461075 6.59826201,1.13725538 C6.59826201,0.973977201 5.77616652,-0.655351721 5.77616652,-0.655351721 C5.77616652,-0.655351721 4.66968946,-1.43425911 4.3572653,-0.944087177 C4.14898252,-0.61730589 3.84058365,-0.359492425 3.43206869,-0.170646781 Z" id="路径-19" fill="#FCEDB9" filter="url(#filter-29)" mask="url(#mask-27)"></path>
                                </g>
                                <g id="形状结合-3" transform="translate(4.488963, 3.388622)">
                                    <mask id="mask-31" fill="white">
                                        <use xlink:href="#path-30"></use>
                                    </mask>
                                    <use id="形状结合" fill="#FCE19A" xlink:href="#path-30"></use>
                                    <path d="M2.76165591,2.22044605e-16 C2.59414795,0.29601248 2.63142714,0.55605779 2.87349347,0.780135931 L1.03056521,2.44857194 C0.184133791,3.4221853 -0.319321934,3.76541914 -0.479801964,3.47827344 C-0.720522009,3.04755489 -1.17740467,-0.220234073 -0.948963341,-0.220234073 C-0.720522009,-0.220234073 1.92751285,-1.01948993 1.99395241,-1.01948993 C2.06039196,-1.01948993 3.01291785,-0.44401872 2.76165591,2.22044605e-16 Z" id="路径-17" fill="#F4A21D" filter="url(#filter-32)" mask="url(#mask-31)"></path>
                                    <path d="M3.65085122,-0.0963232884 C3.77850591,0.139624513 4.10326955,0.307532383 4.62514214,0.407400321 C5.40795103,0.557202229 6.31637935,1.03196226 6.51377136,1.37961421 C6.64536603,1.61138218 6.75410891,1.83134385 6.84,2.03949923 C7.00962774,1.75751724 7.09444161,1.61652625 7.09444161,1.61652625 C7.09444161,1.61652625 7.00962774,1.27584851 6.84,0.594493029 C6.84688773,0.666234053 6.70336706,0.603869817 6.40943801,0.407400321 C5.96854443,0.112696077 5.13541795,-0.220234073 5.0196363,-0.220234073 C4.90385465,-0.220234073 4.02405502,-0.220234073 4.02405502,-0.220234073 C4.02405502,-0.220234073 3.89965375,-0.178930478 3.65085122,-0.0963232884 Z" id="路径-20" fill="#FCEDB9" filter="url(#filter-33)" mask="url(#mask-31)"></path>
                                </g>
                                <g id="路径-53" transform="translate(4.912021, 4.086695)">
                                    <mask id="mask-35" fill="white">
                                        <use xlink:href="#path-34"></use>
                                    </mask>
                                    <use id="路径-41" fill="#F4990D" xlink:href="#path-34"></use>
                                    <path d="M4.01555509,0.152323108 C5.17635331,0.603992847 5.75675242,1.13671806 5.75675242,1.75049874 C5.75675242,2.36427943 5.52462552,2.87809522 5.06037172,3.29194613 C6.14276515,3.36259721 6.71211421,3.36259721 6.7684189,3.29194613 C6.85287593,3.1859695 7.65312771,0.820722649 7.40037172,0.660267085 C7.14761573,0.49981152 5.64905249,-0.359401889 5.51532029,-0.528737541 C5.42616549,-0.641627975 4.92624375,-0.698073193 4.01555509,-0.698073193 L4.01555509,-0.425173599 L4.01555509,0.152323108 Z" id="路径-21" fill="#FFC95E" filter="url(#filter-36)" mask="url(#mask-35)"></path>
                                </g>
                                <g id="路径-46" transform="translate(5.441166, 4.854189)">
                                    <mask id="mask-38" fill="white">
                                        <use xlink:href="#path-37"></use>
                                    </mask>
                                    <use id="路径-36" fill="#FFBD3C" xlink:href="#path-37"></use>
                                    <path d="M3.68368327,-2.21266764 L3.07185245,18.6576372 C6.25231024,18.5629176 7.84253914,18.1246636 7.84253914,17.3428752 C7.84253914,16.5610868 7.84253914,12.2544977 7.84253914,4.42310813 C7.84772697,2.35730913 7.59832147,1.21060799 7.09432263,0.983004705 C6.59032379,0.75540142 6.1871686,-0.43631316 5.88485703,-2.59213904 L3.68368327,-2.21266764 Z" id="路径-4" fill="#FFF6D6" filter="url(#filter-39)" mask="url(#mask-38)"></path>
                                    <polygon id="路径-7" fill="#FCDC93" filter="url(#filter-40)" mask="url(#mask-38)" points="1.34786376 -0.00487445915 0.535833083 13.9738105 -0.55843121 14.1605725 -1.90382288 5.45828275 -1.90382288 0.641599778 -1.43200453 -0.267682518"></polygon>
                                    <polygon id="路径-8" fill="#FFAC29" filter="url(#filter-41)" mask="url(#mask-38)" points="1.34786376 -0.267682518 0.843795175 14.5858105 2.05883409 14.5858105 2.69864865 -0.767494039"></polygon>
                                </g>
                                <g id="形状结合-2" transform="translate(0.000000, 1.793661)">
                                    <mask id="mask-43" fill="white">
                                        <use xlink:href="#path-42"></use>
                                    </mask>
                                    <use id="形状结合" fill="#F4990D" xlink:href="#path-42"></use>
                                    <path d="M5.14564962,8.94633887 C3.42757381,7.32013858 2.51518376,6.09645421 2.40847948,5.27528576 C2.03708546,4.85343927 1.69008288,4.25187169 1.36747172,3.47058303 C0.568572591,2.22253549 0.216664361,1.52391683 0.31174703,1.37472707 C0.454371032,1.15094242 1.09602214,-0.456371213 2.16874001,-0.456371213 C2.88388525,-0.456371213 2.16097192,-0.745127206 4.41868764e-14,-1.32263919 C-1.0335001,-0.859153162 -1.48387364,-0.395925615 -1.35112064,0.0670434519 C-1.15199113,0.761497052 -1.55758803,3.1768963 2.22044605e-16,5.07323458 C1.55758803,6.96957285 3.3012399,9.84012582 3.53734304,10.0069734 C3.77344617,10.1738209 4.48896334,9.17599409 4.48896334,8.94633887 C4.48896334,8.79323539 4.70785877,8.79323539 5.14564962,8.94633887 Z" id="路径-15" fill="#FCE29D" filter="url(#filter-44)" mask="url(#mask-43)"></path>
                                </g>
                                <path d="M6.017449,10.6005315 C6.2667363,10.7566738 6.61478486,10.8937132 7.06159467,11.0116497 C7.27249484,9.41458677 7.30691447,8.10640843 7.16485354,7.08711471 C6.8951157,6.72445073 6.42974175,6.36172947 5.76873168,5.99895094 C5.64347105,5.62407102 5.37828344,5.41792464 4.97316884,5.38051182 C4.64710787,4.97347115 4.29768033,4.96312147 4.19200929,4.90621825 C4.08633825,4.84931504 3.96104943,4.62068941 3.88708816,4.41174318 C3.81312689,4.20279696 3.2622789,3.77580027 2.76848031,3.77580027 C2.27468171,3.77580027 1.93103239,3.14986355 1.98413568,3.02012128 C2.03723897,2.890379 2.27930429,2.68732374 2.23981506,2.4265708 C2.20032583,2.16581786 1.87178445,1.79000779 1.49786287,1.87222769 C1.12394129,1.9544476 0.600011375,2.40562826 0.819753017,3.06803826 C0.966247446,3.50964492 1.32807703,4.15624232 1.90524178,5.00783044 C1.84785415,5.35638421 1.88926945,5.6087094 2.0294877,5.76480601 C2.16970594,5.92090263 2.43363456,6.19431129 2.82127355,6.585032 C2.87247895,6.91242713 2.97058662,7.18192727 3.11559656,7.39353242 C3.33311148,7.71094015 3.67845198,8.74028148 4.4788347,9.39392549 C5.27921742,10.0475695 5.64351805,10.366318 6.017449,10.6005315 Z" id="路径-37" fill="url(#linearGradient-45)"></path>
                            </g>
                            <g id="形状结合-4" transform="translate(5.145650, 10.923929)">
                                <mask id="mask-47" fill="white">
                                    <use xlink:href="#path-46"></use>
                                </mask>
                                <use id="形状结合" fill="#E2493C" xlink:href="#path-46"></use>
                                <path d="M0.373878931,-0.413584447 C0.31968975,0.93577792 0.74285679,1.80394236 1.64338005,2.19090888 C2.99416494,2.77135865 4.6234943,3.43120599 5.21551629,4.66815925 C5.80753828,5.90511251 6.78440456,6.93561124 6.78440456,7.72584101 C6.78440456,8.51607077 9.21557959,7.14445264 8.67685715,6.72408602 C8.13813471,6.30371941 6.36025632,3.39189782 6.18331372,3.22986463 C6.00637112,3.06783144 3.56755507,1.7233635 3.36736874,1.47147771 C3.16718242,1.21959193 2.69967939,0.868360095 2.35435038,0.609045998 C2.00902137,0.349731902 1.47014524,-0.0574612624 1.40370568,-0.120695244 C1.35941265,-0.162851232 1.01613706,-0.260480967 0.373878931,-0.413584447 Z" id="路径-25" fill="#FF9189" filter="url(#filter-48)" mask="url(#mask-47)"></path>
                                <path d="M3.26405569e-14,1.04420926 C0.363863784,2.07759266 1.12516861,2.93261513 2.28391449,3.60927666 C4.0220333,4.62426895 4.94674284,5.85196527 4.82674284,7.78515378 C4.74674284,9.07394611 4.61494502,9.00945684 4.43134937,7.59168596 C4.7872625,6.22808376 4.07020788,5.04602096 2.2801855,4.04549755 C0.490163114,3.04497414 -0.357537024,2.0445447 -0.26291492,1.04420926 L3.26405569e-14,1.04420926 Z" id="路径-55" fill="#FF8F86" filter="url(#filter-49)" mask="url(#mask-47)"></path>
                            </g>
                        </g>
                    </g>
                    <g id="编组-3" mask="url(#mask-3)">
                        <g transform="translate(-1.272343, 18.837697)">
                            <mask id="mask-51" fill="white">
                                <use xlink:href="#path-50"></use>
                            </mask>
                            <use id="路径" stroke="none" fill="#FFF1EE" fill-rule="evenodd" xlink:href="#path-50"></use>
                            <path d="M0.923267465,2.88230258 C2.14023327,1.11030258 3.28050756,0.702302579 4.34409034,1.65830258 C5.9394645,3.09230258 4.9772538,2.19971501 6.12552749,3.90230258 C7.27380118,5.60489015 9.43757696,4.49706462 9.94839042,4.49706462 C10.4592039,4.49706462 11.3519774,4.23971501 13.0764991,4.92230258 C14.8010207,5.60489015 16.1768639,4.69822034 16.764608,4.69822034 C17.0447558,4.69822034 17.8068334,4.37932453 20.3963291,4.69822034 C21.0845339,4.7829726 22.4636771,5.02783699 24.5337586,5.43281349 L1.61257986,8.16230258 C-1.38981517,9.2714048 -2.89101268,9.54868035 -2.89101268,8.99412924 C-2.89101268,8.43957813 -1.92734179,6.74230258 5.24025268e-14,3.90230258 L0.923267465,2.88230258 Z" id="路径-6" stroke="none" fill="#FEB7B4" fill-rule="evenodd" filter="url(#filter-52)" mask="url(#mask-51)"></path>
                            <path d="M0,-13.3254394 C2.9601009,-14.5395944 4.50013393,-15.6567304 4.62009908,-16.6768475 C9.17799293,-16.3750273 14.0552071,-17.2919679 15.6157483,-19.6304423 C16.6561091,-21.1894252 11.8749741,-21.6977891 1.27234331,-21.1555342 C0.424114436,-20.3421518 0,-19.8337879 0,-19.6304423 C0,-19.4270967 0,-17.325429 0,-13.3254394 Z" id="路径-24" stroke="none" fill="#FFAFAF" fill-rule="evenodd" filter="url(#filter-53)" mask="url(#mask-51)"></path>
                            <path d="M14.8010207,3.74132074 C17.7600098,3.02142763 19.6752302,2.78435716 20.546682,3.03010932 C21.6962796,3.35429949 21.9941214,4.23996821 22.4373568,5.6552778 C23.9305217,10.4231511 26.2923433,7.06681587 26.2923433,6.96230258 C26.2923433,6.85778928 24.3571025,-2.9847222 23.468317,-2.9847222 C22.5795314,-2.9847222 18.7124571,-3.9143618 18.3816736,-2.9847222 C18.1611513,-2.36496246 16.9676004,-0.122948149 14.8010207,3.74132074 Z" id="路径-28" stroke="none" fill="#FFD4C6" fill-rule="evenodd" filter="url(#filter-54)" mask="url(#mask-51)"></path>
                        </g>
                    </g>
                </g>
                <path d="M14.0201483,3.29235606 C14.2643356,3.14181449 14.3864293,3.11171481 14.3864293,3.202057 C14.3864293,3.3375703 14.3815216,3.70728734 14.7347724,3.84034146 C15.0880233,3.97339559 15.388339,3.99636943 15.4739567,4.06354364 C15.5595745,4.13071785 15.7379894,4.33213264 15.7697933,4.41102027 C15.8015973,4.48990791 16.2565178,4.24815408 16.347772,4.10987961 C16.4390261,3.97160514 16.4340541,3.59161998 16.390913,3.55091422 C16.347772,3.51020846 15.8760922,3.78885782 15.7697933,3.78885782 C15.6634945,3.78885782 15.6556721,3.65652917 15.6556721,3.62266163 C15.6556721,3.58879409 15.5305352,3.49176467 15.502246,3.49176467 C15.4739567,3.49176467 16.4552924,3.25661178 16.5109708,2.52185877 C16.5480896,2.03202343 16.4295464,1.5468979 16.155341,1.06648219 C16.051171,1.46670878 15.9703539,1.68177124 15.9128896,1.71166959 C15.8266932,1.75651711 15.2748392,2.06710617 15.2343557,2.24617269 C14.9815315,1.84862819 14.669,1.41911446 13.8776092,1.48128404 C13.9989128,1.6837419 14.0836095,1.87440011 14.099483,2.12014294 C14.1153566,2.36588578 14.4256485,2.81762808 14.5304043,2.92977925 C14.29919,2.83158496 14.1291046,2.85568053 14.0201483,3.00206595 C13.9843031,3.03698347 13.9663804,3.08554189 13.9663804,3.14774122 C13.9663804,3.20994055 13.9843031,3.25814549 14.0201483,3.29235606 Z" id="路径-56" fill="url(#linearGradient-55)"></path>
            </g>
        </g>
    </g>
</svg>