<?xml version="1.0" encoding="UTF-8"?>
<svg width="24px" height="24px" viewBox="0 0 24 24" version="1.1" xmlns="http://www.w3.org/2000/svg" xmlns:xlink="http://www.w3.org/1999/xlink">
    <title>-mockplus-</title>
    <defs>
        <rect id="path-1" x="0" y="0" width="24" height="24"></rect>
        <filter x="-89.0%" y="-95.8%" width="278.0%" height="291.5%" filterUnits="objectBoundingBox" id="filter-3">
            <feGaussianBlur stdDeviation="5.13333333" in="SourceGraphic"></feGaussianBlur>
        </filter>
        <path d="M-4.81647268e-14,0.390678409 C0.59602603,0.826510196 0.959205766,1.40738873 1.08953921,2.13331401 C1.21987265,2.85923929 1.56591947,3.92759423 2.12767967,5.33837883 C2.65988082,5.46221657 3.06022144,5.39212522 3.32870154,5.1281048 C3.15136887,4.08982225 3.01033847,2.92659678 3.01033847,2.45317484 C3.01033847,1.97975289 3.06683768,1.30748675 3.55713597,0.525023061 C4.04743426,-0.257440632 2.37535343,0.0664337241 2.37535343,0.0664337241 C2.37535343,0.0664337241 1.75093117,0.0664337241 0.502086643,0.0664337241 L-4.81647268e-14,0.390678409 Z" id="path-4"></path>
        <filter x="-128.3%" y="-73.6%" width="356.7%" height="247.2%" filterUnits="objectBoundingBox" id="filter-6">
            <feGaussianBlur stdDeviation="1.56933333" in="SourceGraphic"></feGaussianBlur>
        </filter>
        <filter x="-177.6%" y="-46.4%" width="455.2%" height="192.8%" filterUnits="objectBoundingBox" id="filter-7">
            <feGaussianBlur stdDeviation="0.784666667" in="SourceGraphic"></feGaussianBlur>
        </filter>
        <filter x="-71.3%" y="-40.6%" width="242.6%" height="181.2%" filterUnits="objectBoundingBox" id="filter-8">
            <feGaussianBlur stdDeviation="0.784666667" in="SourceGraphic"></feGaussianBlur>
        </filter>
        <path d="M1.1846143,9.26582158 C0.521842833,9.17083027 -1.48826406e-13,8.14358255 -1.48826406e-13,6.89034679 C-1.48826406e-13,5.57444924 0.575331723,4.50770351 1.28503937,4.50770351 L1.28503937,4.50770351 L1.51153143,4.49233399 C2.21258156,4.43719024 3.10779738,4.30072957 4.19717889,4.08295198 C6.01281474,3.71998934 6.69420052,3.45963345 8.77091672,1.83912741 C10.1553942,0.758790046 11.3867159,0.145747577 12.4648819,-2.93260365e-14 L12.4648819,-2.93260365e-14 L11.484272,1.32818769 C11.5838058,3.27189916 11.6335727,4.33173777 11.6335727,4.50770351 L11.6335727,7.49890159 L12.106634,9.27299007 L12.106634,11.6782942 C12.8299516,12.8108657 12.7875264,13.2970129 11.9793584,13.1367359 C10.7671063,12.8963205 7.68550496,10.8525542 6.23445545,10.0969637 C5.26708911,9.59323674 3.61728375,9.31857885 1.28503937,9.27299007 L1.28503937,9.27299007 Z" id="path-9"></path>
        <filter x="-58.2%" y="-106.2%" width="216.4%" height="312.3%" filterUnits="objectBoundingBox" id="filter-11">
            <feGaussianBlur stdDeviation="3.13866667" in="SourceGraphic"></feGaussianBlur>
        </filter>
        <filter x="-28.1%" y="-72.8%" width="156.1%" height="245.5%" filterUnits="objectBoundingBox" id="filter-12">
            <feGaussianBlur stdDeviation="1.56933333" in="SourceGraphic"></feGaussianBlur>
        </filter>
        <filter x="-192.8%" y="-389.9%" width="485.6%" height="879.8%" filterUnits="objectBoundingBox" id="filter-13">
            <feGaussianBlur stdDeviation="8.63133333" in="SourceGraphic"></feGaussianBlur>
        </filter>
        <path d="M1.67055118,0 C1.89858398,0 2.11594557,0.0845375003 2.31398105,0.237598471 C1.70941958,0.702589074 1.28503937,1.80509337 1.28503937,3.09099669 C1.28503937,4.37690001 1.70941958,5.47940431 2.31317295,5.94517656 C2.11594557,6.09745588 1.89858398,6.18199338 1.67055118,6.18199338 C0.74793124,6.18199338 0,4.79810702 0,3.09099669 C0,1.38388636 0.74793124,0 1.67055118,0 Z" id="path-14"></path>
        <filter x="-189.2%" y="-345.0%" width="478.4%" height="790.1%" filterUnits="objectBoundingBox" id="filter-16">
            <feGaussianBlur stdDeviation="10.2006667" in="SourceGraphic"></feGaussianBlur>
        </filter>
        <filter x="-42.1%" y="-109.1%" width="184.2%" height="318.3%" filterUnits="objectBoundingBox" id="filter-17">
            <feGaussianBlur stdDeviation="2.354" in="SourceGraphic"></feGaussianBlur>
        </filter>
        <filter x="-243.0%" y="-609.6%" width="586.0%" height="1319.2%" filterUnits="objectBoundingBox" id="filter-18">
            <feGaussianBlur stdDeviation="6.27733333" in="SourceGraphic"></feGaussianBlur>
        </filter>
        <filter x="-464.3%" y="-197.5%" width="1028.7%" height="495.1%" filterUnits="objectBoundingBox" id="filter-19">
            <feGaussianBlur stdDeviation="10.2006667" in="SourceGraphic"></feGaussianBlur>
        </filter>
        <linearGradient x1="100%" y1="50%" x2="0%" y2="50%" id="linearGradient-20">
            <stop stop-color="#FFFFFF" offset="0%"></stop>
            <stop stop-color="#FFFFFF" stop-opacity="0" offset="100%"></stop>
        </linearGradient>
        <linearGradient x1="100%" y1="50%" x2="0%" y2="50%" id="linearGradient-21">
            <stop stop-color="#FFFFFF" offset="0%"></stop>
            <stop stop-color="#FFFFFF" stop-opacity="0" offset="100%"></stop>
        </linearGradient>
        <linearGradient x1="67.2238578%" y1="48.5327801%" x2="35.9392607%" y2="50%" id="linearGradient-22">
            <stop stop-color="#FFF3BC" offset="0%"></stop>
            <stop stop-color="#FFE287" offset="100%"></stop>
        </linearGradient>
        <linearGradient x1="54.5979496%" y1="48.5327801%" x2="46.2464524%" y2="50%" id="linearGradient-23">
            <stop stop-color="#FFFFFF" stop-opacity="0" offset="0%"></stop>
            <stop stop-color="#FFFFFF" offset="100%"></stop>
        </linearGradient>
        <ellipse id="path-24" cx="3.08409449" cy="5.79561879" rx="3.08409449" ry="5.79561879"></ellipse>
        <filter x="-247.5%" y="-142.8%" width="595.1%" height="385.6%" filterUnits="objectBoundingBox" id="filter-26">
            <feGaussianBlur stdDeviation="3.92333333" in="SourceGraphic"></feGaussianBlur>
        </filter>
        <filter x="-318.0%" y="-133.9%" width="736.1%" height="367.8%" filterUnits="objectBoundingBox" id="filter-27">
            <feGaussianBlur stdDeviation="7.062" in="SourceGraphic"></feGaussianBlur>
        </filter>
        <polygon id="path-28" points="-2.95836426e-13 -2.76144263e-15 3.4696063 0.515166115 3.4696063 3.86374586 -1.97224284e-13 4.37891198"></polygon>
        <filter x="-152.2%" y="-303.2%" width="404.5%" height="706.3%" filterUnits="objectBoundingBox" id="filter-30">
            <feGaussianBlur stdDeviation="3.13866667" in="SourceGraphic"></feGaussianBlur>
        </filter>
        <filter x="-159.0%" y="-390.4%" width="417.9%" height="880.7%" filterUnits="objectBoundingBox" id="filter-31">
            <feGaussianBlur stdDeviation="3.13866667" in="SourceGraphic"></feGaussianBlur>
        </filter>
        <filter x="-111.8%" y="-365.6%" width="323.5%" height="831.1%" filterUnits="objectBoundingBox" id="filter-32">
            <feGaussianBlur stdDeviation="1.56933333" in="SourceGraphic"></feGaussianBlur>
        </filter>
        <linearGradient x1="64.4323699%" y1="46.7723991%" x2="35.5676301%" y2="50%" id="linearGradient-33">
            <stop stop-color="#FFF3BC" offset="0%"></stop>
            <stop stop-color="#FFE287" offset="100%"></stop>
        </linearGradient>
    </defs>
    <g id="0401迭代-取派异常--五端" stroke="none" stroke-width="1" fill="none" fill-rule="evenodd">
        <g id="取派异常--PC官网-列表" transform="translate(-1041.000000, -557.000000)">
            <g id="取派异常小图-其他" transform="translate(1041.000000, 557.000000)">
                <g id="矩形-2">
                    <mask id="mask-2" fill="white">
                        <use xlink:href="#path-1"></use>
                    </mask>
                    <use id="矩形" fill="#FFF2E0" xlink:href="#path-1"></use>
                    <path d="M4.26642379,6.90764864 C1.34214126,7.44234639 0.52,9.43095371 1.8,12.8734706 C3.72,18.0372459 -3.28966872,20.2502925 3.72,20.9879747 C10.7296687,21.7256568 8.3563071,24.1504224 12.0899463,22.3158026 C15.8235855,20.4811827 17.870625,19.6191415 17.2729687,15.6628571 C16.6753125,11.7065728 19.2332913,11.3981062 16.6753125,10.660424 C14.1173337,9.92274183 16.2033758,9.86624047 12.9523231,9.19046738 C9.70127043,8.5146943 6.24088767,6.8619509 5.57195041,7.02763432 C5.12599224,7.13808993 4.6908167,7.09809471 4.26642379,6.90764864 Z" id="路径-5" fill="#FFCDB0" filter="url(#filter-3)" mask="url(#mask-2)"></path>
                    <polygon id="路径-59" fill="#FFFFFF" mask="url(#mask-2)" points="3.24 12.0161105 4.31932799 5.9144232 5.52399318 7.32101933 9.81058787 1.56 5.86955035 8.57670621 4.73320184 7.64663086"></polygon>
                    <polygon id="路径-14" fill="#FFFFFF" mask="url(#mask-2)" points="4.8682415 17.88 11.8740342 19.26 12.1525013 17.88 19.2124518 19.8 13.035862 19.1714724 12.5491771 20.4813203"></polygon>
                </g>
                <g id="编组-4" transform="translate(11.520000, 12.300000) rotate(-21.000000) translate(-11.520000, -12.300000) translate(3.360000, 5.160000)">
                    <g id="路径-106" transform="translate(1.285039, 8.882312)">
                        <mask id="mask-5" fill="white">
                            <use xlink:href="#path-4"></use>
                        </mask>
                        <use id="路径-104" fill="#FF9541" xlink:href="#path-4"></use>
                        <path d="M1.35612345,0.194716152 C1.99408839,0.930650521 2.31307087,1.68281128 2.31307087,2.45119842 C2.31307087,3.60377913 2.92125573,6.27227123 2.92135168,6.27227123 C2.92144762,6.27227123 5.02449373,4.83317458 5.02449373,4.60819519 C5.02449373,4.45820893 4.80604044,3.05237 4.36913386,0.390678409 C4.03657463,0.0846871994 3.79591894,-0.0683084055 3.64716679,-0.0683084055 C3.49841464,-0.0683084055 3.27985199,-0.0870348389 2.99147884,-0.124487706 L1.35612345,0.194716152 Z" id="路径-11" fill="#FFC292" filter="url(#filter-6)" mask="url(#mask-5)"></path>
                        <path d="M3.72661417,0.261451456 C3.25829174,0.893654468 2.99486289,1.4863966 2.93632762,2.03967787 C2.87779235,2.59295913 2.99085117,3.67510731 3.27550409,5.2861224 C3.97641088,5.37645686 4.29791372,5.34567295 4.24001261,5.19377069 C4.18211149,5.04186843 4.02056809,4.1382061 3.75538241,2.4827837 L3.98362205,1.04952575 C4.03714768,0.729074153 4.0639105,0.568848357 4.0639105,0.568848357 C4.0639105,0.568848357 3.95147839,0.466382723 3.72661417,0.261451456 Z" id="路径-12" fill="#FF9744" filter="url(#filter-7)" mask="url(#mask-5)"></path>
                        <path d="M-3.74145159e-14,0.14307041 C0.466626362,0.309777185 0.809303527,0.746144266 1.0280315,1.45217165 C1.35612345,2.51121273 1.45557129,3.07364106 1.45557129,3.16990423 C1.45557129,3.23407968 1.7853887,4.15872906 2.4450235,5.94385235 C1.7853887,5.83432859 1.45557129,5.7795667 1.45557129,5.7795667 C1.45557129,5.7795667 0.921651425,4.84699175 -0.146188315,2.98184184 L-0.743135779,1.22646958 C-0.894369598,0.975191515 -0.894369598,0.81371361 -0.743135779,0.742035868 C-0.591901959,0.670358125 -0.344190032,0.470702973 -3.74145159e-14,0.14307041 Z" id="路径-13" fill="#FFC25B" filter="url(#filter-8)" mask="url(#mask-5)"></path>
                    </g>
                    <g id="编组" transform="translate(-0.000000, -0.000000)">
                        <mask id="mask-10" fill="white">
                            <use xlink:href="#path-9"></use>
                        </mask>
                        <use id="形状结合" fill="#FFCA6A" xlink:href="#path-9"></use>
                        <path d="M-1.43659292,7.33994937 C2.30964962,7.08291015 4.77300517,7.09534153 5.95347371,7.37724351 C7.13394225,7.65914549 8.42853554,8.11933897 9.83725356,8.75782395 L14.3517792,11.0496716 L14.7372606,16.0251615 C10.3726419,15.9949874 7.7304579,15.6455638 6.81070866,14.9768906 C5.89095942,14.3082175 3.70714758,13.3263535 0.259273131,12.0312987 C-0.871304239,10.955692 -1.43659292,10.2558716 -1.43659292,9.93183741 C-1.43659292,9.60780325 -1.43659292,8.74384058 -1.43659292,7.33994937 Z" id="路径-2" fill="#F49500" filter="url(#filter-11)" mask="url(#mask-10)"></path>
                        <path d="M-0.722404849,8.62903243 C1.98659996,8.62903243 4.11212598,8.82221972 5.65417323,9.2085943 C7.19622047,9.59496889 9.08199296,10.7326274 11.3114907,12.6215698 L14.3711582,13.7806936 C9.61709444,14.6597476 7.24006254,15.0992746 7.24006254,15.0992746 C7.24006254,15.0992746 1.28503937,13.5164933 1.15653543,13.4241238 C1.07086614,13.3625441 -0.118415774,12.8372347 -2.41131032,11.8481955 C-2.090583,10.9041411 -1.93021934,10.3033223 -1.93021934,10.0457392 C-1.93021934,9.78815618 -1.52761451,9.31592058 -0.722404849,8.62903243 Z" id="路径-58" fill="#FFD06C" filter="url(#filter-12)" mask="url(#mask-10)"></path>
                        <path d="M-1.26063749,5.81257167 C2.65532187,5.65624042 5.00309342,5.46407534 5.78267717,5.23607644 C6.95205278,4.89407809 10.151811,3.42678451 10.9870866,2.31527232 C11.8223622,1.20376012 11.8223622,-0.828935941 11.8223622,-0.828935941 C11.8223622,-0.828935941 2.30612302,1.16477581 1.98276503,1.16477581 C1.76719303,1.16477581 0.56993461,1.54827465 -1.60901023,2.31527232 L-0.956007804,5.23607644 L-1.26063749,5.81257167 Z" id="路径-3" fill="#FFE287" filter="url(#filter-13)" mask="url(#mask-10)"></path>
                        <g id="形状结合-2" mask="url(#mask-10)">
                            <g transform="translate(2.313071, 3.606163)">
                                <mask id="mask-15" fill="white">
                                    <use xlink:href="#path-14"></use>
                                </mask>
                                <use id="形状结合" stroke="none" fill="#FFFFFF" fill-rule="evenodd" xlink:href="#path-14"></use>
                                <path d="M-3.74966379,3.73378657 C-0.00342124394,3.47674735 2.4599343,3.48917873 3.64040284,3.77108071 C4.82087139,4.05298269 6.11546467,4.51317617 7.52418269,5.15166115 L12.0387083,7.44350875 L12.4241898,12.4189987 C8.05957102,12.3888246 5.41738704,12.039401 4.4976378,11.3707278 C3.57788855,10.7020547 1.39407671,9.72019067 -2.05379774,8.42513589 C-3.18437511,7.34952918 -3.74966379,6.64970875 -3.74966379,6.3256746 C-3.74966379,6.00164045 -3.74966379,5.13767777 -3.74966379,3.73378657 Z" id="路径-2" stroke="none" fill="#F49500" fill-rule="evenodd" opacity="0.449999988" filter="url(#filter-16)" mask="url(#mask-15)"></path>
                                <path d="M-3.03547572,5.02286962 C-0.326470908,5.02286962 1.79905512,5.21605691 3.34110236,5.6024315 C4.88314961,5.98880609 6.7689221,7.12646459 8.99841984,9.01540701 L12.0580874,10.1745308 C7.30402357,11.0535848 4.92699168,11.4931118 4.92699168,11.4931118 C4.92699168,11.4931118 -1.0280315,9.91033048 -1.15653543,9.81796096 C-1.24220472,9.75638127 -2.43148664,9.23107185 -4.72438118,8.2420327 C-4.40365387,7.29797825 -4.24329021,6.69715949 -4.24329021,6.43957644 C-4.24329021,6.18199338 -3.84068538,5.70975777 -3.03547572,5.02286962 Z" id="路径-58" stroke="none" fill="#FFD06C" fill-rule="evenodd" opacity="0.449999988" filter="url(#filter-17)" mask="url(#mask-15)"></path>
                                <path d="M-3.92208109,1.54549834 L2.72735092,1.15912376 C3.74101405,0.469793482 4.05418144,0.0713940109 3.66685309,-0.0360746552 C3.08586056,-0.197277654 -0.899527559,-1.54365655 -1.0280315,-1.54365655 C-1.11370079,-1.54365655 -1.96576087,-1.21162959 -3.58421175,-0.547575657 L-3.92208109,1.54549834 Z" id="路径-10" stroke="none" fill="#FFEEC0" fill-rule="evenodd" filter="url(#filter-18)" mask="url(#mask-15)"></path>
                            </g>
                        </g>
                        <path d="M11.6497154,-0.828935941 C8.48868239,2.56767478 7.47536517,5.93498345 8.60976378,9.27299007 C10.3113617,14.28 11.4901305,14.6618784 11.8223622,14.6618784 C12.154594,14.6618784 14.7372606,13.8684021 14.7372606,13.2655275 C14.7372606,12.6626528 14.8589556,6.73106524 14.3711582,5.81257167 C13.8833609,4.89407809 11.8223622,0.369863456 11.8223622,0.369863456 C11.8223622,0.369863456 11.7648133,-0.0297363431 11.6497154,-0.828935941 Z" id="路径-4" fill="#F49500" filter="url(#filter-19)" mask="url(#mask-10)"></path>
                        <path d="M0.31362729,9.27299007 C1.69556332,9.27299007 3.09246105,9.27299007 4.50432048,9.27299007 C5.91617991,9.27299007 7.67047851,9.86521723 9.76721628,11.0496716 L9.28552831,9.60579324 C8.07513353,9.21455006 6.9052074,8.97338953 5.77574993,8.88231166 C4.64629245,8.79123379 2.82558491,8.79123379 0.31362729,8.88231166 L0.31362729,9.27299007 Z" id="路径-105" fill="url(#linearGradient-20)" opacity="0.390737491" mask="url(#mask-10)"></path>
                        <path d="M5.95347371,4.68794939 C7.08362521,4.44197115 7.8967981,4.16756145 8.39299236,3.86472027 C8.88918663,3.56187909 9.34726127,3.31508791 9.76721628,3.12434675 L10.1436749,1.6146548 C9.23496014,2.16390208 8.55231786,2.66713272 8.09574803,3.12434675 C7.41089328,3.81016778 6.52342818,4.16722909 5.95347371,4.33727316 C5.95347371,4.45089339 5.95347371,4.56778547 5.95347371,4.68794939 Z" id="路径" fill="url(#linearGradient-21)" opacity="0.372883981" mask="url(#mask-10)"></path>
                    </g>
                    <ellipse id="椭圆形" fill="url(#linearGradient-22)" cx="12.4648819" cy="6.56836797" rx="3.85511811" ry="6.56836797"></ellipse>
                    <path d="M12.4648819,0 C12.5081009,0 12.5511538,0.00121173506 12.5940296,0.00361635312 L12.7218898,0 C10.5927668,0 8.86677165,2.94075851 8.86677165,6.56836797 C8.86677165,10.1229115 10.5239384,13.017994 12.5937392,13.1331753 L12.4648819,13.1367359 C10.3357589,13.1367359 8.60976378,10.1959774 8.60976378,6.56836797 C8.60976378,2.94075851 10.3357589,0 12.4648819,0 Z" id="形状结合" fill="url(#linearGradient-23)"></path>
                    <g id="编组-3" transform="translate(9.637795, 0.772749)">
                        <mask id="mask-25" fill="white">
                            <use xlink:href="#path-24"></use>
                        </mask>
                        <use id="椭圆形" fill="#FF8639" xlink:href="#path-24"></use>
                        <ellipse id="椭圆形" fill="#FFBF76" filter="url(#filter-26)" mask="url(#mask-25)" cx="5.20440945" cy="5.79561879" rx="2.37732283" ry="4.12132892"></ellipse>
                        <path d="M3.98362205,-0.515030663 C2.13223583,1.79285859 1.18870138,3.91787367 1.15301868,5.86001456 C1.09949463,8.7732259 2.62750219,10.8184884 4.24565061,11.5912376 C5.32441622,12.1064037 4.51512198,12.6574839 1.81776788,13.2444781 C-0.0832152958,10.8742554 -1.03370688,9.51245877 -1.03370688,9.15908823 C-1.03370688,8.62903243 -2.08730197,4.63649503 -1.93961326,4.12132892 C-1.84115411,3.77788484 -1.3231203,2.31460892 -0.385511811,-0.268498861 L1.0220044,-2.33140112 L2.32133957,-2.57583057 L3.98362205,-0.515030663 Z" id="路径-9" fill="#E37631" filter="url(#filter-27)" mask="url(#mask-25)"></path>
                        <g id="矩形-3" mask="url(#mask-25)">
                            <g transform="translate(-0.385512, 3.606163)">
                                <mask id="mask-29" fill="white">
                                    <use xlink:href="#path-28"></use>
                                </mask>
                                <use id="矩形" stroke="none" fill="#F8C270" fill-rule="evenodd" xlink:href="#path-28"></use>
                                <polygon id="路径-6" stroke="none" fill="#F2970C" fill-rule="evenodd" filter="url(#filter-30)" mask="url(#mask-29)" points="-1.55410145 2.44703905 4.63116242 2.7771514 4.63116242 5.55292543 0.891391399 5.40924421 0 4.89407809"></polygon>
                                <path d="M-0.642519685,3.99998224 L3.80286597,3.14081663 C4.1803779,3.54683489 4.36913386,3.83322343 4.36913386,3.99998224 C4.36913386,4.16674104 3.76944882,4.63649503 2.57007874,5.40924421 L-1.55410145,5.55292543 L-0.642519685,3.99998224 Z" id="路径-7" stroke="none" fill="#F8C26F" fill-rule="evenodd" filter="url(#filter-31)" mask="url(#mask-29)"></path>
                                <polygon id="路径-8" stroke="none" fill="#FFE4BC" fill-rule="evenodd" filter="url(#filter-32)" mask="url(#mask-29)" points="-0.204966975 0.515166115 3.56984883 1.06707342 3.4696063 1.8030814 -0.642519685 1.15912376"></polygon>
                            </g>
                        </g>
                        <ellipse id="椭圆形" fill="url(#linearGradient-33)" mask="url(#mask-25)" cx="3.08409449" cy="5.79561879" rx="1" ry="1.67428987"></ellipse>
                    </g>
                </g>
            </g>
        </g>
    </g>
</svg>