<?xml version="1.0" encoding="UTF-8"?>
<svg width="14px" height="14px" viewBox="0 0 14 14" version="1.1" xmlns="http://www.w3.org/2000/svg" xmlns:xlink="http://www.w3.org/1999/xlink">
    <title>-mockplus-</title>
    <g id="偏好设置" stroke="none" stroke-width="1" fill="none" fill-rule="evenodd">
        <g id="运单管理-运单详情-待揽件-本人签收-寄方已经设置-不可修改备份" transform="translate(-921.000000, -74.000000)" fill="#FF8038">
            <g id="编组-33" transform="translate(901.000000, 0.000000)">
                <g id="提示类/警告图标备份" transform="translate(20.000000, 74.000000)">
                    <path d="M7,0 C3.134375,0 0,3.134375 0,7 C0,10.865625 3.134375,14 7,14 C10.865625,14 14,10.865625 14,7 C14,3.134375 10.865625,0 7,0 Z M6.5,3.625 C6.5,3.55625 6.55625,3.5 6.625,3.5 L7.375,3.5 C7.44375,3.5 7.5,3.55625 7.5,3.625 L7.5,7.875 C7.5,7.94375 7.44375,8 7.375,8 L6.625,8 C6.55625,8 6.5,7.94375 6.5,7.875 L6.5,3.625 Z M7,10.5 C6.5859375,10.5 6.25,10.1640625 6.25,9.75 C6.25,9.3359375 6.5859375,9 7,9 C7.4140625,9 7.75,9.3359375 7.75,9.75 C7.75,10.1640625 7.4140625,10.5 7,10.5 Z" id="形状"></path>
                </g>
            </g>
        </g>
    </g>
</svg>