<svg width="48" height="48" xmlns="http://www.w3.org/2000/svg"><g fill="none" fill-rule="evenodd"><circle fill="#7C57DF" cx="24" cy="24" r="24"/><path opacity=".2" d="M11 11h26v26H11z"/><path d="M24 12c1.478 0 2.711 1.03 2.994 2.4h5.562c1.35 0 2.444 1.075 2.444 2.4v16.8c0 1.325-1.094 2.4-2.444 2.4H15.444C14.094 36 13 34.925 13 33.6V16.8c0-1.325 1.094-2.4 2.444-2.4h5.562C21.289 13.03 22.522 12 24 12zm-7.062 3.6h-1.494c-.626 0-1.143.463-1.214 1.06l-.008.14v16.8c0 .615.472 1.123 1.08 1.192l.142.008h17.112c.626 0 1.143-.463 1.214-1.06l.008-.14V16.8c0-.615-.472-1.123-1.08-1.192l-.142-.008h-1.543a2.4 2.4 0 01-2.08 1.2h-9.986a2.28 2.28 0 01-2.009-1.2zm13.773 3.6l-9.156 10.373v.09h-.08l-.031.037-.001-.037H19.11v-6h-2.444v-1.2h4.889l-.001 3.95L30.71 19.2z" fill="#FFF" fill-rule="nonzero"/></g></svg>