<svg width="16" height="16" xmlns="http://www.w3.org/2000/svg"><path d="M15 3a2 2 0 012 2v2.5a.5.5 0 01-.992.09L16 7.5V5a1 1 0 00-.883-.993L15 4H5a1 1 0 00-.993.883L4 5v9a1 1 0 00.883.993L5 15h3a.5.5 0 01.09.992L8 16H5a2 2 0 01-2-2V5a2 2 0 012-2h10zm-1.318 6.49a.5.5 0 010 .707L11.71 12.17h4.791a.5.5 0 110 1h-4.795l1.976 1.976a.5.5 0 11-.707.708l-2.829-2.829A.498.498 0 0110 12.68l.001-.01.004-.064.006-.035a.384.384 0 01.028-.093.425.425 0 01.042-.08c.006-.008.01-.016.017-.023a.442.442 0 01.044-.054c.002 0 .003-.002.004-.003l2.829-2.828a.5.5 0 01.707 0zM9 8.5a.5.5 0 010 1H7a.5.5 0 010-1h2zM13 6a.5.5 0 110 1H7a.5.5 0 010-1h6z"/><path d="M12.967.015a2 2 0 012 2V3h-1v-.984a1 1 0 00-.883-.993l-.117-.007h-10a1 1 0 00-.993.884l-.007.116v9a1 1 0 00.884.994l.116.006H3v1h-.032a2 2 0 01-2-2v-9a2 2 0 012-2h10z"/></svg>