<?xml version="1.0" standalone="no"?><!DOCTYPE svg PUBLIC "-//W3C//DTD SVG 1.1//EN" "http://www.w3.org/Graphics/SVG/1.1/DTD/svg11.dtd"><svg t="1650005541783" class="icon" viewBox="0 0 1024 1024" version="1.1" xmlns="http://www.w3.org/2000/svg" p-id="14049" xmlns:xlink="http://www.w3.org/1999/xlink" width="200" height="200"><defs><style type="text/css">@font-face { font-family: feedback-iconfont; src: url("//at.alicdn.com/t/font_1031158_u69w8yhxdu.woff2?t=1630033759944") format("woff2"), url("//at.alicdn.com/t/font_1031158_u69w8yhxdu.woff?t=1630033759944") format("woff"), url("//at.alicdn.com/t/font_1031158_u69w8yhxdu.ttf?t=1630033759944") format("truetype"); }
</style></defs><path d="M512.000256 0c283.647575 0 511.999232 231.218853 511.999232 513.791229a508.159238 508.159238 0 0 1-149.606176 361.061859A511.948032 511.948032 0 0 1 512.000256 1023.998464a511.948032 511.948032 0 0 1-362.393056-149.145376A508.159238 508.159238 0 0 1 0.001024 513.791229C0.001024 231.167653 228.352681 0 512.000256 0z m0 678.962182a70.092695 70.092695 0 0 0-63.487905 33.791949c-13.31198 22.015967-13.31198 49.663926-0.1024 71.679892a70.092695 70.092695 0 0 0 130.099005-35.737546c0-37.171144-29.235156-67.839898-66.5087-69.734295z m3.686394-510.104835c-38.655942 0-70.041495 31.231953-70.041494 69.734295l33.22875 308.274738c0 40.345539 14.694378 69.785495 33.12635 69.785495 18.431972 0 33.12635-33.12635 33.12635-69.785495l40.550339-308.325938c0-38.553542-31.334353-69.785495-69.990295-69.785495v0.1024z" fill="#999999" p-id="14050"></path></svg>