<svg width="48" height="48" xmlns="http://www.w3.org/2000/svg"><g fill="none" fill-rule="evenodd"><circle fill="#7C57DF" cx="24" cy="24" r="24"/><path d="M16.9 13.58c.332 0 .46.202.46.53s-.128.656-.46.656h-1.503c-.714 0-1.199.48-1.199 1.186v17.647c0 .706.79 1.186 1.505 1.186h16.9c.714 0 1.199-.48 1.199-1.186V15.952c0-.707-.485-1.186-1.199-1.186h-1.198c-.331 0-.714-.328-.714-.656s.383-.53.714-.53h1.198c1.556 0 2.397 1.034 2.397 2.397v17.496c0 1.64-.892 2.497-2.524 2.497H15.524c-1.632 0-2.524-1.034-2.524-2.497V15.977c0-1.363.714-2.397 2.397-2.397zm12.587 15.58a.64.64 0 01.638.605c0 .328-.28.605-.612.605h-11a.617.617 0 01-.612-.605c0-.328.28-.606.612-.606zm0-4.558a.64.64 0 01.638.606c0 .328-.28.605-.612.605h-11a.617.617 0 01-.612-.605c0-.328.28-.606.612-.606zm.026-4.28c.331 0 .612.278.612.606 0 .328-.28.606-.612.606h-11a.617.617 0 01-.612-.606c0-.328.28-.605.612-.605zM24 11c1.933 0 3.5.895 3.5 2h.59c.51 0 .919.48.919 1.034 0 .555-.408 1.035-.893 1.035h-8.181c-.51 0-.918-.48-.918-1.035 0-.555.408-1.034.918-1.034h.565c0-1.105 1.567-2 3.5-2z" fill="#FFF" fill-rule="nonzero"/></g></svg>