<svg width="71" height="58" xmlns="http://www.w3.org/2000/svg"><path d="M35.266 24.088l12.184 12.23-3.56 3.575-6.122-6.145v21.616a2.523 2.523 0 01-2.518 2.527 2.523 2.523 0 01-2.518-2.527V33.748l-6.121 6.145-3.561-3.574 12.184-12.23.016.015.016-.016zM35.879 0c10.48 0 19.213 7.507 21.245 17.454 7.387 0 13.376 6.011 13.376 13.427 0 7.016-5.361 12.774-12.196 13.19h-7.513c-1.02 0-1.85-.83-1.85-1.854v-1.348c0-1.019.825-1.854 1.844-1.854h6.654c4.46-.172 8.025-3.617 8.025-8.134 0-4.524-3.575-8.21-8.044-8.366-.002.059-3.553.092-4.06.096h-.06a.986.986 0 01-.99-.897s-.234-3.27-.216-3.277c-1.487-7.627-8.18-13.382-16.215-13.382-4.944 0-9.38 2.18-12.392 5.686 0 0-.787.75-1.495 1.935a26.76 26.76 0 00-.874 1.59c-.24.46-.831.776-1.333.724 0 0-2.907-.34-4.35-.236-5.889.906-10.4 6.013-10.4 12.178 0 6.804 5.496 12.083 12.315 12.086 1.335.062 2.793 1.169 2.793 2.525 0 1.396-1.363 2.527-2.833 2.527C7.75 44.07 0 36.528 0 26.932 0 17.336 7.75 9.556 17.31 9.556c.226 0 .45.006.673.014C21.854 3.798 28.425 0 35.879 0z" fill="#7C57DF" fill-rule="evenodd"/></svg>