<svg width="16" height="16" xmlns="http://www.w3.org/2000/svg"><path d="M15.153 6.574c.231.052.48.312.744.78 0 0 .056.312.06 1.11 0 .794-.057 1.107-.057 1.107-.062.35-.4.7-.744.778l-.244.057a2.582 2.582 0 00-1.783 3.077l.076.25c.103.34-.032.807-.304 1.035 0 0-.24.206-.928.603-.688.395-.989.504-.989.504-.334.122-.806.006-1.047-.253l-.173-.185a2.578 2.578 0 00-1.782-.712 2.58 2.58 0 00-1.782.71l-.172.184c-.244.26-.713.375-1.048.253 0 0-.297-.106-.985-.504-.688-.397-.932-.603-.932-.603-.272-.232-.407-.697-.304-1.035l.072-.241a2.582 2.582 0 00-.275-1.899 2.57 2.57 0 00-1.507-1.187l-.245-.057c-.346-.078-.68-.428-.743-.778 0 0-.057-.313-.057-1.107 0-.795.057-1.107.057-1.107.062-.35.4-.7.743-.78l.251-.055a2.588 2.588 0 001.78-3.08l-.076-.248c-.103-.34.031-.804.303-1.032 0 0 .241-.206.93-.607.688-.394.988-.503.988-.503.334-.122.807-.006 1.048.253l.174.187c.48.457 1.118.712 1.78.71.66.002 1.294-.25 1.773-.703l.182-.194c.243-.26.713-.375 1.047-.253 0 0 .298.11.985.503.688.397.932.604.932.604.272.231.407.697.304 1.035l-.081.244a2.581 2.581 0 001.77 3.08l.259.06zM15.03 7.65a1.487 1.487 0 00-.165-.22l-.171-.04-.06-.016a3.477 3.477 0 01-2.382-4.148l.02-.074.075-.222a.758.758 0 01-.025-.09c-.079-.066-.329-.238-.798-.51-.475-.27-.75-.403-.847-.438a.606.606 0 01-.086.023l-.181.194-.039.039c-.645.611-1.5.95-2.389.949a3.469 3.469 0 01-2.397-.958l-.037-.037-.177-.19a.398.398 0 01-.084-.02c-.1.036-.376.168-.845.436-.47.274-.719.447-.803.519a.659.659 0 01-.022.084l.075.247.015.055A3.484 3.484 0 011.31 7.378l-.058.015-.248.055a.449.449 0 01-.061.064 2.698 2.698 0 00-.017.168c-.015.197-.025.456-.025.78 0 .325.01.583.025.78.008.105.015.16.017.17 0-.005.064.062.064.062l.243.057.053.014a3.464 3.464 0 012.03 1.6c.447.773.58 1.688.37 2.556l-.013.046-.073.247c0-.003.028.091.025.089.079.066.329.238.8.51.473.273.745.403.845.439a.548.548 0 01.085-.023l.172-.184.04-.04a3.477 3.477 0 012.398-.955c.894 0 1.754.343 2.4.96l.038.038.174.186a.397.397 0 01.083.02c.1-.035.376-.167.847-.437.471-.272.718-.443.801-.514-.005.005.022-.088.021-.09l-.075-.25-.013-.051a3.478 3.478 0 012.4-4.144l.053-.014.246-.057a.512.512 0 01.061-.064c.007-.055.013-.111.017-.167.016-.197.025-.456.025-.777 0-.273-.01-.546-.03-.818zm-10.228.81a3.178 3.178 0 013.18-3.177 3.181 3.181 0 013.18 3.181 3.181 3.181 0 01-6.36-.003V8.46zm.896 0a2.285 2.285 0 004.568.003 2.285 2.285 0 00-4.568-.003z" fill="#7C57DF"/></svg>