<?xml version="1.0" encoding="UTF-8"?>
<svg width="26px" height="20px" viewBox="0 0 26 20" version="1.1" xmlns="http://www.w3.org/2000/svg" xmlns:xlink="http://www.w3.org/1999/xlink">
    <defs>
        <linearGradient x1="0%" y1="23.0730547%" x2="100%" y2="102.583949%" id="linearGradient-1">
            <stop stop-color="#FFC000" offset="0%"></stop>
            <stop stop-color="#FD6F1D" offset="100%"></stop>
            <stop stop-color="#FEA500" offset="100%"></stop>
        </linearGradient>
        <linearGradient x1="50%" y1="0%" x2="50%" y2="177.58841%" id="linearGradient-2">
            <stop stop-color="#FFFFFF" offset="0%"></stop>
            <stop stop-color="#FFE9D8" offset="98.0792279%"></stop>
        </linearGradient>
        <path d="M17.2184,5.5408182 C17.550218,5.21104843 18.0865409,5.21270888 18.4163106,5.5445269 C18.7487287,5.87900971 18.7487287,6.41912693 18.4163106,6.75360974 L18.4163106,6.75360974 L16.6138816,8.56723401 L16.6138816,8.56723401 C16.3466541,8.83283486 15.9541539,8.88569376 15.6385637,8.73015682 C15.3245758,8.88558259 14.9326227,8.83256005 14.6693804,8.57094271 L14.6656717,8.56723401 L12.8632426,6.75360974 C12.5308245,6.41912693 12.5308245,5.87900971 12.8632426,5.5445269 C13.1930124,5.21270888 13.7293352,5.21104843 14.0611533,5.5408182 C14.0623933,5.5420506 14.0636296,5.54328684 14.064862,5.5445269 L15.6397059,7.12857304 L17.2146913,5.5445269 C17.2153075,5.54390687 17.2159246,5.5432878 17.2165427,5.54266968 Z M12.6196566,7.85896967 L18.556814,7.85896967 C19.0289903,7.85896967 19.4117647,8.24174413 19.4117647,8.71392035 C19.4117647,9.18609657 19.0289903,9.56887103 18.556814,9.56887103 L12.6196566,9.56887103 C12.1474803,9.56887103 11.7647059,9.18609657 11.7647059,8.71392035 C11.7647059,8.24174413 12.1474803,7.85896967 12.6196566,7.85896967 Z M12.6196566,10.8518615 L18.556814,10.8518615 C19.0289903,10.8518615 19.4117647,11.2346359 19.4117647,11.7068121 C19.4117647,12.1789884 19.0289903,12.5617628 18.556814,12.5617628 L12.6196566,12.5617628 C12.1474803,12.5617628 11.7647059,12.1789884 11.7647059,11.7068121 C11.7647059,11.2346359 12.1474803,10.8518615 12.6196566,10.8518615 Z M16.4379085,9.13611822 L16.4379085,14.2763772 C16.4379085,14.7456388 16.0574968,15.1260504 15.5882353,15.1260504 C15.1189737,15.1260504 14.7385621,14.7456388 14.7385621,14.2763772 L14.7385621,9.13611822 C14.7385621,8.66685666 15.1189737,8.28644501 15.5882353,8.28644501 C16.0574968,8.28644501 16.4379085,8.66685666 16.4379085,9.13611822 Z" id="path-3"></path>
        <filter x="-26.2%" y="-10.2%" width="152.3%" height="140.7%" filterUnits="objectBoundingBox" id="filter-4">
            <feOffset dx="0" dy="1" in="SourceAlpha" result="shadowOffsetOuter1"></feOffset>
            <feGaussianBlur stdDeviation="0.5" in="shadowOffsetOuter1" result="shadowBlurOuter1"></feGaussianBlur>
            <feColorMatrix values="0 0 0 0 0.892719656   0 0 0 0 0.469841942   0 0 0 0 0  0 0 0 0.5 0" type="matrix" in="shadowBlurOuter1"></feColorMatrix>
        </filter>
        <linearGradient x1="50%" y1="0%" x2="50%" y2="177.58841%" id="linearGradient-5">
            <stop stop-color="#FFFFFF" offset="0%"></stop>
            <stop stop-color="#FFEFD8" offset="100%"></stop>
        </linearGradient>
    </defs>
    <g id="页面-1" stroke="none" stroke-width="1" fill="none" fill-rule="evenodd">
        <g id="运单管理-运单详情-待揽件-调度前备份" transform="translate(-1008.000000, -696.000000)">
            <g id="内容卡片" transform="translate(176.000000, 73.000000)">
                <g id="编组-20" transform="translate(482.000000, 48.000000)">
                    <g id="编组-12备份" transform="translate(8.000000, 491.000000)">
                        <g id="编组-5备份-2" transform="translate(342.000000, 84.000000)">
                            <g id="编组-8备份" fill="url(#linearGradient-1)">
                                <path d="M22.9411765,0 C24.24067,-2.38713089e-16 25.2941176,1.05344765 25.2941176,2.35294118 L25.2940803,7.1176653 C23.9516046,7.39019169 22.9411765,8.57709678 22.9411765,10 C22.9411765,11.4229032 23.9516046,12.6098083 25.2940803,12.8823347 L25.2941176,17.6470588 C25.2941176,18.9465524 24.24067,20 22.9411765,20 L2.35294118,20 C1.05344765,20 8.2660916e-13,18.9465524 8.2600593e-13,17.6470588 L-1.76005239e-05,12.8823459 C1.34248548,12.6098407 2.35294118,11.4229226 2.35294118,10 C2.35294118,8.57707736 1.34248548,7.3901593 -1.76005239e-05,7.11765414 L8.2600593e-13,2.35294118 C8.2584679e-13,1.05344765 1.05344765,6.82802298e-16 2.35294118,0 L22.9411765,0 Z" id="形状结合"></path>
                            </g>
                            <g id="形状结合" fill-rule="nonzero">
                                <use fill="black" fill-opacity="1" filter="url(#filter-4)" xlink:href="#path-3"></use>
                                <use fill="url(#linearGradient-2)" xlink:href="#path-3"></use>
                            </g>
                            <path d="M6.58823529,0 L6.58823529,1.76470588 L8.11764706,1.76470588 L8.11764706,0 L6.58823529,0 Z M6.58823529,3.52941176 L6.58823529,5.29411765 L8.11764706,5.29411765 L8.11764706,3.52941176 L6.58823529,3.52941176 Z M6.58823529,7.05882353 L6.58823529,8.82352941 L8.11764706,8.82352941 L8.11764706,7.05882353 L6.58823529,7.05882353 Z M6.58823529,10.5882353 L6.58823529,12.3529412 L8.11764706,12.3529412 L8.11764706,10.5882353 L6.58823529,10.5882353 Z M6.58823529,14.1176471 L6.58823529,15.8823529 L8.11764706,15.8823529 L8.11764706,14.1176471 L6.58823529,14.1176471 Z M6.58823529,17.6470588 L6.58823529,19.4117647 L8.11764706,19.4117647 L8.11764706,17.6470588 L6.58823529,17.6470588 Z" id="路径-2" fill="url(#linearGradient-5)" fill-rule="nonzero"></path>
                        </g>
                    </g>
                </g>
            </g>
        </g>
    </g>
</svg>