<svg width="16" height="16" xmlns="http://www.w3.org/2000/svg"><path d="M13 0a2 2 0 012 2v5.5a.5.5 0 01-.992.09L14 7.5V2a1 1 0 00-.883-.993L13 1H3a1 1 0 00-.993.883L2 2v12a1 1 0 00.883.993L3 15h3a.5.5 0 01.09.992L6 16H3a2 2 0 01-2-2V2a2 2 0 012-2h10zm-.974 9.49l2.829 2.828c.095.096.144.22.146.346l-.001.01-.005.063-.005.035a.384.384 0 01-.028.093l-.016.034a.494.494 0 01-.026.046l-.016.023a.442.442 0 01-.045.054l-.002.001-2.83 2.83a.5.5 0 01-.708-.707l1.972-1.973-4.791.001a.5.5 0 110-1h4.795l-1.976-1.977a.5.5 0 11.707-.707zM8.5 7.5a.5.5 0 010 1h-4a.5.5 0 010-1h4zm2-3.5a.5.5 0 110 1h-6a.5.5 0 010-1h6z" fill="#7C57DF"/></svg>