<svg width="16" height="16" xmlns="http://www.w3.org/2000/svg"><g fill="#8365F6" fill-rule="evenodd"><path d="M14 5.472a1 1 0 00-.06-.34l-.046-.107-1.236-2.472a1 1 0 00-.77-.545L11.765 2H4.236a1 1 0 00-.832.445l-.062.108-1.236 2.472a1 1 0 00-.1.331L2 5.472V13a1 1 0 00.883.993L3 14h5a.5.5 0 110 1H3a2 2 0 01-2-2V5.472a2 2 0 01.211-.894l1.236-2.472A2 2 0 014.237 1h7.527a2 2 0 011.789 1.106l1.236 2.472a2 2 0 01.211.894V8a.5.5 0 11-1 0V5.472z" fill-rule="nonzero"/><path d="M11.06 10.354l1.415 1.414 1.414-1.414a.5.5 0 11.707.707l-1.414 1.414 1.414 1.414a.5.5 0 01-.707.707l-1.414-1.414-1.414 1.414a.5.5 0 01-.707-.707l1.414-1.414-1.414-1.414a.5.5 0 11.707-.707zM1.5 6a.5.5 0 010-1h6V1h1v4h6a.5.5 0 110 1h-13z"/></g></svg>