<?xml version="1.0" encoding="UTF-8"?>
<svg width="22px" height="26px" viewBox="0 0 22 26" version="1.1" xmlns="http://www.w3.org/2000/svg" xmlns:xlink="http://www.w3.org/1999/xlink">
    <title>icon/收</title>
    <g id="页面-1" stroke="none" stroke-width="1" fill="none" fill-rule="evenodd">
        <g id="运单管理-运单详情-已签收" transform="translate(-196.000000, -315.000000)">
            <g id="入参组件/标题" transform="translate(196.000000, 315.000000)">
                <path d="M6.16333211,22.1684964 C6.23894733,22.4234338 6.09357801,22.6913996 5.83864064,22.7670148 C4.84921553,23.0604814 4.33333333,23.4122212 4.33333333,23.5925926 C4.33333333,23.8078765 4.69109175,24.044913 5.30932552,24.2636226 L5.61280524,24.3631183 C5.66634967,24.3794354 5.7213468,24.3956075 5.77775237,24.4116165 L6.13273278,24.5055664 C6.19459496,24.5208497 6.25777703,24.5359334 6.32223469,24.5507991 L6.72393353,24.6372331 C7.0014652,24.6929179 7.29798943,24.7445326 7.6106723,24.7909096 L8.09146133,24.8564008 C8.17349459,24.8666127 8.2564492,24.8764607 8.34028089,24.8859267 L8.85344167,24.9379913 C8.94060454,24.945856 9.02855592,24.953302 9.11725154,24.9603113 L9.65800183,24.9969791 C9.74949727,25.0021681 9.84164838,25.0068839 9.93441089,25.0111081 L10.4979685,25.0304089 C10.6880304,25.034779 10.8801837,25.037037 11.0740741,25.037037 C11.2679645,25.037037 11.4601177,25.034779 11.6501797,25.0304089 L12.2137373,25.0111081 C12.3064998,25.0068839 12.3986509,25.0021681 12.4901463,24.9969791 L13.0308966,24.9603113 C13.1195922,24.953302 13.2075436,24.945856 13.2947065,24.9379913 L13.8078673,24.8859267 C13.8916989,24.8764607 13.9746536,24.8666127 14.0566868,24.8564008 L14.5374759,24.7909096 C14.771988,24.7561268 14.9974109,24.7183979 15.212549,24.6782153 L15.628758,24.5947245 C15.7626871,24.5659011 15.891691,24.536133 16.0154154,24.5055664 L16.3703958,24.4116165 C16.4268013,24.3956075 16.4817985,24.3794354 16.5353429,24.3631183 L16.8388226,24.2636226 C17.4570564,24.044913 17.8148148,23.8078765 17.8148148,23.5925926 C17.8148148,23.4192672 17.3285724,23.0791791 16.385186,22.7898397 C16.1309595,22.7118677 15.9880771,22.4425676 16.0660491,22.1883412 C16.1440211,21.9341147 16.4133211,21.7912323 16.6675476,21.8692043 C17.9931504,22.2757705 18.7777778,22.8245554 18.7777778,23.5925926 C18.7777778,24.5799289 17.2963951,25.3115562 15.0570827,25.6956458 L14.5831993,25.7701235 C14.4217915,25.7932764 14.257016,25.8147462 14.0891103,25.8345027 L13.5762396,25.8886026 C13.4892752,25.8967526 13.4015874,25.9044668 13.3132061,25.9117413 L12.7748325,25.9500834 L12.2212367,25.9776944 L11.6538427,25.9943935 L11.0740741,26 L10.4943055,25.9943935 L9.9269114,25.9776944 L9.37331565,25.9500834 L8.83494205,25.9117413 C8.74656073,25.9044668 8.65887299,25.8967526 8.5719085,25.8886026 L8.05903782,25.8345027 C7.89113211,25.8147462 7.72635669,25.7932764 7.56494886,25.7701235 L7.09106547,25.6956458 C4.85175308,25.3115562 3.37037037,24.5799289 3.37037037,23.5925926 C3.37037037,22.8092093 4.18685579,22.2525116 5.56481371,21.843805 C5.81975108,21.7681897 6.08771689,21.9135591 6.16333211,22.1684964 Z M10.9392593,-3.5065284e-12 C16.7893866,-3.50760305e-12 21.5318519,4.74246524 21.5318519,10.5925926 C21.5318519,15.6697858 17.9597741,19.9126756 13.1916711,20.9452095 L11.3618251,24.1681364 C11.2305815,24.3994065 10.9367061,24.4804939 10.705436,24.3492503 C10.6298196,24.3063387 10.5672337,24.2437528 10.5243221,24.1681364 L8.6958889,20.9471633 C3.92326076,19.9180381 0.346666667,15.6729945 0.346666667,10.5925926 C0.346666667,4.74246524 5.08913191,-3.50545375e-12 10.9392593,-3.5065284e-12 Z" id="形状结合" fill="#8365F6"></path>
                <path d="M15.9717037,16.7719259 L16.7854074,15.808 C15.7338519,15.0318519 14.8074815,14.1555556 14.0313333,13.1791111 C14.8825926,11.752 15.3708148,10.062 15.470963,8.10911111 L16.4599259,8.10911111 L16.4599259,6.94488889 L12.5040741,6.94488889 C12.6292593,6.43162963 12.7544444,5.88081481 12.8545926,5.30496296 L11.6653333,5.10466667 C11.3148148,7.30792593 10.6388148,9.06051852 9.64985185,10.3624444 L10.3759259,11.2637778 C10.6012593,10.9883704 10.8265926,10.7004444 11.0394074,10.374963 C11.4525185,11.3764444 11.9657778,12.3278519 12.5791852,13.2166667 C11.8280741,14.1680741 10.8265926,14.9567407 9.58725926,15.5576296 L9.58725926,5.20481481 L8.42303704,5.20481481 L8.42303704,12.3403704 C7.90977778,12.5406667 7.39651852,12.7159259 6.87074074,12.8786667 L6.87074074,6.24385185 L5.70651852,6.24385185 L5.70651852,12.9287407 C5.70651852,13.0914815 5.59385185,13.2166667 5.39355556,13.2917778 L5.74407407,14.2932593 C6.67044444,14.0554074 7.57177778,13.78 8.42303704,13.4795556 L8.42303704,16.6091852 L9.58725926,16.6091852 L9.58725926,15.6577778 L10.2131852,16.6717778 C11.465037,15.9957778 12.4915556,15.1695556 13.3052593,14.1931111 C14.0563704,15.132 14.9451852,15.9957778 15.9717037,16.7719259 Z M13.2802222,12.1525926 C12.6542963,11.2262222 12.1285185,10.2122222 11.7279259,9.11059259 C11.8781481,8.78511111 12.0158519,8.45962963 12.141037,8.10911111 L14.3442963,8.10911111 C14.2566667,9.64888889 13.9061481,11.0008889 13.2802222,12.1525926 Z" id="收" fill="#FFFFFF" fill-rule="nonzero"></path>
            </g>
        </g>
    </g>
</svg>