<?xml version="1.0" encoding="UTF-8"?>
<svg width="16px" height="16px" viewBox="0 0 16 16" version="1.1" xmlns="http://www.w3.org/2000/svg" xmlns:xlink="http://www.w3.org/1999/xlink">
    <title>尺寸</title>
    <g id="实名认证" stroke="none" stroke-width="1" fill="none" fill-rule="evenodd">
        <g id="实名认证-个人认证-已上传" transform="translate(-852.000000, -250.000000)" fill="#7352BF" fill-rule="nonzero">
            <g id="Group-5" transform="translate(168.000000, 98.000000)">
                <g id="尺寸" transform="translate(684.000000, 152.000000)">
                    <path d="M14.1283986,10.0000669 C14.241809,10.0097094 14.3525567,10.0579223 14.4393398,10.1447055 L15.8535534,11.558919 C16.0488155,11.7541812 16.0488155,12.0707637 15.8535534,12.2660258 C15.6582912,12.461288 15.3417088,12.461288 15.1464466,12.2660258 L14.5715729,11.6910669 L14.5722491,14.5 C14.5722491,14.7761424 14.3483915,15 14.0722491,15 C13.7961067,15 13.5722491,14.7761424 13.5722491,14.5 L13.5715729,11.7180669 L13.0251263,12.2660258 C12.8298641,12.461288 12.5132816,12.461288 12.3180195,12.2660258 C12.1227573,12.0707637 12.1227573,11.7541812 12.3180195,11.558919 L13.6665645,10.2076699 C13.7473607,10.0957404 13.8733392,10.0185845 14.0177686,10.0029339 L14.0431743,10.0000669 L14.1283986,10.0000669 Z M14,1 C15.1045695,1 16,1.8954305 16,3 L16,9 L15,9 L15,3 C15,2.48716416 14.6139598,2.06449284 14.1166211,2.00672773 L14,2 L2,2 C1.48716416,2 1.06449284,2.38604019 1.00672773,2.88337887 L1,3 L1,13 C1,13.5128358 1.38604019,13.9355072 1.88337887,13.9932723 L2,14 L10,14 L10,15 L2,15 C0.8954305,15 -1.36424205e-12,14.1045695 -1.36424205e-12,13 L-1.36424205e-12,3 C-1.36424205e-12,1.8954305 0.8954305,1 2,1 L14,1 Z M6,5 C7.1045695,5 8,5.8954305 8,7 C8,7.53259545 7.79181919,8.01656767 7.45239219,8.37498203 C8.37487536,8.88534158 9,9.86966795 9,11 L8,11 C8,9.89978183 7.11161051,9.00705815 6.01304422,9.00004165 L6,9 L6,9 L5.987,8.999 L5.85073766,9.00548574 C4.81587779,9.08183488 4,9.9456382 4,11 L3,11 C3,9.86966795 3.62512464,8.88534158 4.54851142,8.37388338 C4.20818081,8.01656767 4,7.53259545 4,7 C4,5.8954305 4.8954305,5 6,5 Z M12.5,8 C12.7761424,8 13,8.22385763 13,8.5 C13,8.77614237 12.7761424,9 12.5,9 L11.5,9 C11.2238576,9 11,8.77614237 11,8.5 C11,8.22385763 11.2238576,8 11.5,8 L12.5,8 Z M6.01,7.999 L6,8 C6.55228475,8 7,7.55228475 7,7 C7,6.44771525 6.55228475,6 6,6 C5.44771525,6 5,6.44771525 5,7 C5,7.54857588 5.44172217,7.99398201 5.98888764,7.99993953 L6.01,7.999 Z M12.5,6 C12.7761424,6 13,6.22385763 13,6.5 C13,6.77614237 12.7761424,7 12.5,7 L9.5,7 C9.22385763,7 9,6.77614237 9,6.5 C9,6.22385763 9.22385763,6 9.5,6 L12.5,6 Z" id="形状结合"></path>
                </g>
            </g>
        </g>
    </g>
</svg>