<?xml version="1.0" encoding="UTF-8"?>
<svg width="16px" height="16px" viewBox="0 0 16 16" version="1.1" xmlns="http://www.w3.org/2000/svg" xmlns:xlink="http://www.w3.org/1999/xlink">
    <!-- Generator: Sketch 52.2 (67145) - http://www.bohemiancoding.com/sketch -->
    <title>icon-coding</title>
    <desc>Created with Sketch.</desc>
    <g id="icon-coding" stroke="none" stroke-width="1" fill="none" fill-rule="evenodd">
        <g>
            <rect id="Rectangle-4" fill="#D8D8D8" opacity="0" x="0" y="0" width="16" height="16"></rect>
            <g id="编码-icon" transform="translate(2.000000, 2.000000)" fill="#7352BF" fill-rule="nonzero">
                <path d="M11.8152303,11.2494271 L11.8152303,0.750572864 C11.8152303,0.300432832 11.5204011,3.72651782e-10 11.0771545,-1.54543045e-13 C10.6349107,-1.54543045e-13 10.3390787,0.299414403 10.3390787,0.750572864 L10.3390787,11.2494271 C10.3380758,11.6995672 10.6339079,12 11.0771545,12 C11.5204011,12 11.8152303,11.6995672 11.8152303,11.2494271 Z M8.86092134,11.2494271 L8.86092134,0.750572864 C8.86092134,0.300432832 8.56609214,3.72651782e-10 8.12284551,-1.54543045e-13 C7.67959887,-3.72960868e-10 7.38476967,0.299414403 7.38476967,0.750572864 L7.38476967,11.2494271 C7.38476967,11.6995672 7.67959887,12 8.12284551,12 C8.56609214,12 8.86092134,11.6995672 8.86092134,11.2494271 Z M1.47615166,11.2494271 L1.47615166,0.750572864 C1.47615166,0.300432832 1.18132246,3.72651782e-10 0.738075831,-1.54543045e-13 C0.294829199,-3.72960868e-10 3.6714308e-10,0.299414403 4.79616347e-14,0.750572864 L4.79616347e-14,11.2494271 C4.79616347e-14,11.6995672 0.294829199,12 0.738075831,12 C1.18132246,12 1.47615166,11.6995672 1.47615166,11.2494271 Z M3.69138202,12 L5.16853652,12 C5.61178315,12 5.90661235,11.6995672 5.90661235,11.2494271 L5.90661235,0.750572864 C5.90661235,0.300432832 5.61178315,3.72651782e-10 5.16853652,-1.54543045e-13 L3.69138202,-1.54543045e-13 C3.24913822,-1.54543045e-13 2.95430899,0.299414403 2.95430899,0.750572864 L2.95430899,11.2494271 C2.95430899,11.6995672 3.24913819,12 3.69138202,12 Z" id="Shape"></path>
            </g>
        </g>
    </g>
</svg>