<?xml version="1.0" encoding="UTF-8"?>
<svg width="809px" height="809px" viewBox="0 0 809 809" version="1.1" xmlns="http://www.w3.org/2000/svg" xmlns:xlink="http://www.w3.org/1999/xlink">
    <!-- Generator: Sketch 52.2 (67145) - http://www.bohemiancoding.com/sketch -->
    <title>404</title>
    <desc>Created with Sketch.</desc>
    <defs>
        <linearGradient x1="56.29462%" y1="83.1549232%" x2="37.6110818%" y2="0%" id="linearGradient-1">
            <stop stop-color="#F7F8FA" offset="0%"></stop>
            <stop stop-color="#E3E3E3" offset="100%"></stop>
        </linearGradient>
        <linearGradient x1="13.0706753%" y1="66.6180203%" x2="93.3165292%" y2="4.2459671%" id="linearGradient-2">
            <stop stop-color="#F7F8FA" offset="0%"></stop>
            <stop stop-color="#FFBB33" offset="100%"></stop>
        </linearGradient>
        <linearGradient x1="23.9010912%" y1="100%" x2="100%" y2="0%" id="linearGradient-3">
            <stop stop-color="#FFDB66" offset="0%"></stop>
            <stop stop-color="#FFBB33" offset="100%"></stop>
        </linearGradient>
        <polygon id="path-4" points="0 8.11704739 72.3576796 0 36.1788398 35.173872 26.1291621 27.1341299 16.0794844 34.1689043 11.0546455 18.0894199"></polygon>
        <rect id="path-6" x="0.441268175" y="0.633308814" width="31.5040459" height="47.2560689"></rect>
        <linearGradient x1="0%" y1="100%" x2="104.53047%" y2="-4.83231332%" id="linearGradient-8">
            <stop stop-color="#FFDB66" offset="0%"></stop>
            <stop stop-color="#FFBB33" offset="100%"></stop>
        </linearGradient>
        <linearGradient x1="50%" y1="3.6567347%" x2="50%" y2="50%" id="linearGradient-9">
            <stop stop-color="#E6E6E6" offset="0%"></stop>
            <stop stop-color="#E6E6E6" stop-opacity="0" offset="100%"></stop>
        </linearGradient>
        <circle id="path-10" cx="335.156752" cy="335.156752" r="335.156752"></circle>
        <linearGradient x1="4.17735607%" y1="85.0207803%" x2="84.8894807%" y2="50%" id="linearGradient-12">
            <stop stop-color="#E0E0E0" offset="0%"></stop>
            <stop stop-color="#DADADA" offset="100%"></stop>
        </linearGradient>
        <path d="M64.5041792,71.1581145 C45.5177666,82.1199249 23.5187336,79.5616944 15.3679637,65.4441468 C7.21719379,51.3265992 16.0012177,30.9957625 34.9876303,20.0339521 C53.9740428,9.07214168 75.9730759,11.6303722 84.1238458,25.7479198 C92.2746157,39.8654674 83.4905918,60.1963041 64.5041792,71.1581145 Z" id="path-13"></path>
        <linearGradient x1="50%" y1="2.41240923%" x2="50%" y2="65.146817%" id="linearGradient-15">
            <stop stop-color="#D9D9D9" offset="0%"></stop>
            <stop stop-color="#EAEAEB" offset="100%"></stop>
        </linearGradient>
        <path d="M15.0048903,53.3665978 C-0.497450672,37.8642569 -4.4770203,16.7095658 6.11627273,6.11627273 C16.7095658,-4.4770203 37.8642569,-0.497450672 53.3665978,15.0048903 C68.8689388,30.5072312 72.8485084,51.6619223 62.2552154,62.2552154 C51.6619223,72.8485084 30.5072312,68.8689388 15.0048903,53.3665978 Z" id="path-16"></path>
        <linearGradient x1="50%" y1="0%" x2="58.6472337%" y2="84.3023958%" id="linearGradient-18">
            <stop stop-color="#D9D9D9" offset="0%"></stop>
            <stop stop-color="#EFEFEF" offset="100%"></stop>
        </linearGradient>
        <circle id="path-19" cx="54.7707436" cy="54.7707436" r="54.7707436"></circle>
        <linearGradient x1="30.8204951%" y1="12.957569%" x2="86.3163046%" y2="100%" id="linearGradient-21">
            <stop stop-color="#DBDBDB" offset="0%"></stop>
            <stop stop-color="#F7F8FA" offset="100%"></stop>
        </linearGradient>
        <path d="M45.8840163,52.0304158 C32.4252935,59.8008131 16.719748,57.7946166 10.8046987,47.5494506 C4.88964931,37.3042846 11.0050049,22.699785 24.4637278,14.9293878 C37.9224506,7.15899053 53.6279961,9.16518699 59.5430454,19.410353 C65.4580948,29.655519 59.3427391,44.2600186 45.8840163,52.0304158 Z" id="path-22"></path>
        <linearGradient x1="50%" y1="2.81791908%" x2="50%" y2="100%" id="linearGradient-24">
            <stop stop-color="#E6E6E6" offset="0%"></stop>
            <stop stop-color="#F7F8FA" offset="100%"></stop>
        </linearGradient>
        <path d="M44.332012,57.8433147 C27.1762923,62.440176 10.298504,55.0812474 6.6344168,41.4066877 C2.97032958,27.7321281 13.9074587,12.9202148 31.0631784,8.32335358 C48.2188982,3.72649233 65.0966864,11.0854209 68.7607737,24.7599806 C72.4248609,38.4345403 61.4877318,53.2464535 44.332012,57.8433147 Z" id="path-25"></path>
        <linearGradient x1="89.6543553%" y1="28.210649%" x2="22.582315%" y2="73.2055376%" id="linearGradient-27">
            <stop stop-color="#DCDCDC" offset="0%"></stop>
            <stop stop-color="#EBEBEC" offset="100%"></stop>
        </linearGradient>
        <path d="M2.01362126,5.32399628 C4.52287748,-0.180845426 8.40066267,-0.447242885 13.6469768,4.52480391 C19.2678105,4.71947798 29.7627201,12.4014994 20.1637227,13.6985157 C12.9077021,14.4858102 6.18646114,14.8794575 0,14.8794575 L2.01362126,5.32399628 Z" id="path-28"></path>
        <path d="M4.7192308,6.95317606 C-1.0102028,22.2077012 -1.14761149,30.9089022 4.30700474,33.056779 C12.4889291,36.2785942 33.4431019,34.7685342 41.5746024,33.056779 C42.4391788,28.5593303 35.8124305,24.5239928 21.6943574,20.9507666 L28.1105643,8.67289288 L12.1421443,2.84217094e-14 L4.7192308,6.95317606 Z" id="path-30"></path>
        <path d="M6.87273317,6.95317606 C-0.917300974,22.2077012 -2.08500993,30.9089022 3.3696063,33.056779 C11.5515306,36.2785942 33.8352941,34.7685342 41.9667947,33.056779 C42.3278872,31.178408 42.6955309,27.8508044 40.8773665,26.4922155 C39.6652569,25.5864896 33.9887546,23.73934 23.8478598,20.9507666 L33.1970928,6.95317606 L14.2956467,3.06031093e-14 L6.87273317,6.95317606 Z" id="path-32"></path>
        <path d="M2.52437329,28.7400442 C1.08971439,28.3501973 0.242726913,26.8711431 0.632573817,25.4364842 C1.02242072,24.0018253 2.50147491,23.1548378 3.93613382,23.5446847 C12.9008978,25.9807241 18.3171536,24.280848 21.1106496,18.5865746 C23.1150353,14.5008269 23.2293189,11.1878262 21.9636308,8.84996212 C20.9746318,7.02317304 19.1399301,5.92213152 17.3984315,5.92213152 C16.0674874,5.92213152 14.3467928,7.31611566 13.8106177,8.99378066 C13.2497827,10.748605 14.0703938,12.3236788 17.106704,13.586638 C18.479375,14.1576031 19.1292859,15.7332315 18.5583207,17.1059025 C17.9873556,18.4785734 16.4117272,19.1284844 15.0390562,18.5575192 C9.51572093,16.2600771 7.23523275,11.8829277 8.68239756,7.35482173 C9.90081897,3.54244239 13.6089541,0.538375592 17.3984315,0.538375592 C21.1228224,0.538375592 24.771362,2.72793787 26.6980795,6.28679543 C28.850313,10.2622056 28.6732675,15.3946277 25.9441022,20.9577693 C21.8776186,29.2469056 13.7624595,31.7938246 2.52437329,28.7400442 Z" id="path-34"></path>
        <path d="M3.76862915,1.07675118 C-0.515195329,2.71827363 -0.515195329,10.614449 3.76862915,24.7652773 C4.48947273,24.1886024 5.76374732,23.7316658 7.59145292,23.3944674 L10.9592169,56.7332927 C27.964566,66.2355926 47.5657957,66.7479751 69.7629059,58.2704401 C70.8396571,49.6564306 70.8396571,40.7358554 69.7629059,23.3944674 C71.9164083,18.0107115 77.974017,5.92824933 65.9408391,0.308781293 C55.1733273,2.46228366 34.4492573,2.71827363 3.76862915,1.07675118 Z" id="path-36"></path>
        <path d="M1.27824931,3.26659632 C0.142027701,10.6001738 -0.236712835,14.716947 0.142027701,15.6169159 C0.710138504,16.9668693 2.59377175,20.8783561 6.39027208,20.8783561 C7.6345071,21.3965576 11.8537084,22.0519036 13.0628037,20.8783561 C14.4152843,21.2361105 17.6632719,20.9070135 17.6632719,19.5945626 C17.6632719,18.7195954 18.0559135,15.6048215 18.8411965,10.2502409 L13.0628037,5.39187608 C11.7973952,2.67029057 10.5833268,1.30949781 9.42059827,1.30949781 C8.25786978,1.30949781 5.54375345,0.872998537 1.27824931,0 L1.27824931,3.26659632 Z" id="path-38"></path>
        <path d="M7.31251474,32.6122403 C8.02173472,34.0866948 8.9165913,34.1842788 9.99708451,32.9049923 C11.090737,33.9132007 12.1674882,33.9132007 13.2273381,32.9049923 C13.9451722,33.6228265 14.7721514,33.5252425 15.7082758,32.6122403 C17.1511163,33.3344621 18.1187224,33.073129 18.611094,31.8282412 C19.758417,32.3000642 20.7645964,31.8282412 20.7645964,30.75149 C20.7645964,29.6747388 15.044717,0.416327619 12.8912146,0.416327619 C10.7377122,0.416327619 3.23025355,-1.07675118 0,2.24140043 C0,6.54840517 6.24868478,30.4005587 7.31251474,32.6122403 Z" id="path-40"></path>
        <path d="M10.4185472,1.7216345 C13.5793122,2.45278611 15.904804,2.88355054 17.3950228,3.01392779 C19.630351,3.20949366 18.1407029,9.4014646 17.9970303,11.0436499 C17.9012486,12.1384402 16.8445812,14.3625449 14.8270282,17.7159641 C15.6000629,17.0180963 16.5284866,17.0753388 17.6122993,17.8876915 C19.2380184,19.1062207 15.7020431,22.0922376 14.0502969,22.5930764 C12.5876632,23.0365728 9.96891059,22.4981536 8.05159786,21.7014569 C5.84711772,20.7854341 3.20759741,17.5466862 1.99070465,15.7637746 C0.773811883,13.9808629 2.1727886,11.0436499 2.77618593,9.71199861 C3.17845081,8.82423106 5.72590458,6.16077635 10.4185472,1.7216345 Z" id="path-42"></path>
        <path d="M14.863424,1.16077139 L27.3249343,8.27882824 C17.8885832,26.9389894 12.703274,36.54055 11.7690067,37.08351 C11.0634564,37.4935487 10.3275992,37.7947333 9.8382912,36.7515918 C9.17759044,36.9558648 7.69075756,36.3630682 7.63443624,35.4495732 C6.08495881,35.7678689 5.13309905,34.5156878 5.01344397,33.7630513 C4.50268765,34.2615052 3.10390699,34.1144874 2.96113149,32.6270838 C1.1977365,33.3620043 0.229229642,31.8543494 0.626057106,30.8066645 C0.890608748,30.1082079 5.6363977,20.2262435 14.863424,1.16077139 Z" id="path-44"></path>
        <path d="M20.5011409,2.75169747 C24.2012254,1.2983099 53.6238572,-2.70538286 74.2958318,24.7652773 C89.4028334,44.8407329 88.2935972,63.5283199 83.9865924,73.2190806 C79.6795877,82.9098412 0.0428684213,19.9797164 2.19637079,18.9029652 C4.34987316,17.8262141 -9.92743263,-5.25582189 20.5011409,2.75169747 Z" id="path-46"></path>
        <path d="M3.23025355,20.4582725 C-5.08226559,2.92922634 4.75924024,-3.32287731 32.754771,1.70196155 C60.7503019,6.72680041 73.879488,22.6696647 72.1423294,49.5305545 L3.23025355,20.4582725 Z" id="path-48"></path>
        <path d="M40.5448116,20.9903541 C40.5448116,19.9136029 39.4680604,17.7601006 40.5448116,16.6833494 C41.6215628,17.7601006 42.698314,18.8368518 45.9285675,18.8368518 C44.8518163,15.6065982 43.7750651,4.83908635 57.7728305,0.53208161 C56.6960794,2.68558398 52.3890746,11.2995935 65.3100888,16.6833494 C65.3100888,15.6065982 65.3100888,14.529847 67.4635912,13.4530958 C67.4635912,15.6065982 67.0918578,19.3689334 75.0008495,20.9903541 C82.9098412,22.6117749 107.303385,36.0648707 119.147648,62.9836503 C124.531404,61.9068991 138.719277,57.9140206 148.410038,77.295542 C155.911014,96.5992913 136.434046,120.317821 110.474473,103.618415 C97.202593,107.70207 50.2847714,126.280649 11.4725296,97.4396882 C9.34975199,95.862275 8.24227604,95.2861859 3.9352713,90.9791811 C-0.236028737,86.8078811 -6.42726434,69.5069999 17.6403762,65.4864745 C15.7795343,47.9091337 14.7027832,37.1416219 40.5448116,20.9903541 Z" id="path-50"></path>
    </defs>
    <g id="404-505-8" stroke="none" stroke-width="1" fill="none" fill-rule="evenodd">
        <g id="404" transform="translate(-554.000000, -152.000000)">
            <g transform="translate(554.000000, 152.000000)">
                <path d="M207.854149,391.882694 C192.929356,406.281764 172.787909,415.111206 150.625071,415.111206 C135.940156,415.111206 122.142687,411.234834 110.162156,404.430358 C98.4620811,415.238982 82.8200252,421.843053 65.635506,421.843053 C29.386017,421.843053 0,392.457036 0,356.207547 C0,319.958058 29.386017,290.572041 65.635506,290.572041 C69.3086949,290.572041 72.9114101,290.873775 76.420218,291.453808 C90.2155242,263.954832 118.26568,245.132075 150.625071,245.132075 C187.246575,245.132075 218.348933,269.239725 229.516333,302.747984 C234.123639,301.394917 238.993208,300.669811 244.029445,300.669811 C272.843142,300.669811 296.201258,324.404671 296.201258,353.683105 C296.201258,382.961538 272.843142,406.696398 244.029445,406.696398 C229.983235,406.696398 217.233491,401.056035 207.854149,391.882694 Z" id="Combined-Shape-Copy-2" fill="url(#linearGradient-1)"></path>
                <path d="M483.855937,28.3802899 C420.542968,47.4746776 364.264773,100.73797 327.080965,164.050939 C305.200057,201.30762 311.231643,204.616468 335.120707,169.075778 C386.709053,101.407948 447.677098,56.8543768 503.955293,45.464742 L483.855937,28.3802899 Z" id="Path-9" fill="url(#linearGradient-2)" opacity="0.660714298" transform="translate(408.745639, 111.165994) rotate(-361.000000) translate(-408.745639, -111.165994) "></path>
                <g id="飞走了" transform="translate(485.385474, 0.241192)">
                    <mask id="mask-5" fill="white">
                        <use xlink:href="#path-4"></use>
                    </mask>
                    <use id="Mask" fill="url(#linearGradient-3)" xlink:href="#path-4"></use>
                    <polygon id="Path-8" fill="#B37700" mask="url(#mask-5)" points="11.0546455 18.0894199 72.3576796 0 22.109291 22.109291 16.0794844 34.1689043"></polygon>
                </g>
                <g id="Group-2" transform="translate(287.361702, 259.750617) rotate(-20.000000) translate(-287.361702, -259.750617) translate(193.861702, 170.250617)">
                    <g id="Rectangle-2-Copy-+-Rectangle-2-Mask" transform="translate(74.559575, 129.166588)">
                        <mask id="mask-7" fill="white">
                            <use xlink:href="#path-6"></use>
                        </mask>
                        <use id="Mask" fill="#A66F00" xlink:href="#path-6"></use>
                        <path d="M-1.31677789,28.6180105 C6.79784909,28.0207251 12.7988969,27.7220823 16.6863655,27.7220823 C20.5738342,27.7220823 25.9916153,28.0207251 32.939709,28.6180105 L32.939709,40.169494 L-1.31677789,40.169494 L-1.31677789,28.6180105 Z" id="Rectangle-2-Copy" fill="#8C5E00" mask="url(#mask-7)"></path>
                        <rect id="Rectangle-2" fill="#8C5E00" mask="url(#mask-7)" x="0" y="1.05013486" width="33.6043156" height="11.5514835"></rect>
                    </g>
                    <g id="Group" transform="translate(0.000000, -0.000000)">
                        <path d="M135.361928,0.633308814 L118.585594,13.4972252 L127.26508,22.9063705 L116.088489,27.9866392 L125.062856,40.3263945 L118.248054,47.1411963 L121.960842,50.8539837 L131.948198,40.8666277 L124.120407,30.103416 L136.046783,24.682336 L126.389067,14.2127231 L143.998121,0.633308814 L186.315139,0.633308814 L186.315139,129.799897 L181.064465,135.050571 L0.441268175,135.050571 L0.441268175,5.88398313 L5.69194249,0.633308814 L135.361928,0.633308814 Z M29.5335124,80.6139614 L29.5335124,89.503189 L56.9682858,89.503189 L56.9682858,99.2948762 L66.3989891,99.2948762 L66.3989891,89.503189 L71.633255,89.503189 L71.633255,80.6139614 L66.3989891,80.6139614 L66.3989891,61.7074318 L56.9682858,61.7074318 L56.9682858,80.6139614 L50.5934126,82.7640702 L39.7764295,80.6139614 L62.0220598,33.5055678 L51.5084049,33.5055678 L29.5335124,80.6139614 Z M106.323202,52.4572204 L106.323202,80.3432235 C106.142709,86.9913762 97.3718293,92.3590195 91.3854837,92.4191838 C85.369056,92.3590195 87.9882307,86.9913762 87.8679021,80.3432235 L87.8679021,52.4572204 C87.9246834,49.3484431 84.3943051,47.7585294 85.7639959,46.0899571 C87.2968955,44.2225622 93.8956289,42.4583426 97.0729905,42.3947953 C103.059336,42.5151239 106.142709,45.869232 106.323202,52.4572204 Z M78.4371988,51.8706216 L78.4371988,80.8846993 C78.4973631,86.9312092 80.4376319,91.5938708 84.2580635,94.8728239 C87.837838,98.1216949 92.1094377,99.7761877 97.0729905,99.8363519 C102.186954,99.7761877 106.533758,98.1216949 110.113532,94.8728239 C113.753471,91.5938708 115.633577,86.9312092 115.753905,80.8846993 L112.495704,52.3844265 C112.375375,46.3078345 113.753471,41.1163272 110.113532,37.8373741 C106.533758,34.5885031 102.186954,32.964092 97.0729905,32.964092 C92.1094377,32.964092 87.837838,34.5885031 84.2580635,37.8373741 C80.4376319,41.1163272 78.4973631,45.7940296 78.4371988,51.8706216 Z M122.557849,80.6139614 L122.557849,89.503189 L149.992622,89.503189 L149.992622,99.2948762 L159.423326,99.2948762 L159.423326,89.503189 L164.657592,89.503189 L164.657592,80.6139614 L159.423326,80.6139614 L159.423326,61.7074318 L149.992622,61.7074318 L149.992622,80.6139614 L143.606083,82.7602314 L132.800766,80.6139614 L155.046396,33.5055678 L144.532741,33.5055678 L122.557849,80.6139614 Z" id="Combined-Shape" fill="#A66F00"></path>
                        <path d="M124.034064,5.88398313 L113.855833,13.2349272 L121.206777,21.6360061 L110.705429,26.8866804 L119.106508,40.5384336 L113.855833,46.8392428 L120.156643,52.0899171 L131.948198,40.8666277 L124.120407,30.103416 L136.046783,24.682336 L126.389067,14.2127231 L137.189329,5.88398313 L181.064465,5.88398313 L181.064465,135.050571 L0.441268175,135.050571 L0.441268175,5.88398313 L124.034064,5.88398313 Z M23.1628234,82.765341 L23.1628234,91.6545685 L50.5975967,91.6545685 L50.5975967,101.446256 L60.0283001,101.446256 L60.0283001,91.6545685 L65.262566,91.6545685 L65.262566,82.765341 L60.0283001,82.765341 L60.0283001,63.8588114 L50.5975967,63.8588114 L50.5975967,82.765341 L33.4057404,82.765341 L55.6513708,35.6569473 L45.1377159,35.6569473 L23.1628234,82.765341 Z M99.9525129,54.6086 L99.9525129,82.4946031 C99.7720201,89.1427557 96.6886471,92.4968639 90.7023015,92.5570282 C84.6858738,92.4968639 81.6175417,89.1427557 81.4972131,82.4946031 L81.4972131,54.6086 C81.6175417,48.0206116 84.6858738,44.6665034 90.7023015,44.5461749 C96.6886471,44.6665034 99.7720201,48.0206116 99.9525129,54.6086 Z M72.0665098,54.0220012 L72.0665098,83.0360789 C72.1266741,89.0825888 74.0669429,93.7452503 77.8873745,97.0242034 C81.467149,100.273074 85.7387486,101.927567 90.7023015,101.987731 C95.8162651,101.927567 100.163069,100.273074 103.742843,97.0242034 C107.382782,93.7452503 109.262888,89.0825888 109.383216,83.0360789 L109.383216,54.0220012 C109.262888,47.9454092 107.382782,43.2677068 103.742843,39.9887537 C100.163069,36.7398827 95.8162651,35.1154716 90.7023015,35.1154716 C85.7387486,35.1154716 81.467149,36.7398827 77.8873745,39.9887537 C74.0669429,43.2677068 72.1266741,47.9454092 72.0665098,54.0220012 Z M116.18716,82.765341 L116.18716,91.6545685 L143.621933,91.6545685 L143.621933,101.446256 L153.052637,101.446256 L153.052637,91.6545685 L158.286903,91.6545685 L158.286903,82.765341 L153.052637,82.765341 L153.052637,63.8588114 L143.621933,63.8588114 L143.621933,82.765341 L126.430077,82.765341 L148.675707,35.6569473 L138.162052,35.6569473 L116.18716,82.765341 Z" id="合并形状" fill="url(#linearGradient-8)"></path>
                    </g>
                </g>
                <g id="Path" transform="translate(86.817610, 309.819706)">
                    <mask id="mask-11" fill="white">
                        <use xlink:href="#path-10"></use>
                    </mask>
                    <use id="Mask" fill="url(#linearGradient-9)" xlink:href="#path-10"></use>
                    <path d="M77.3825185,105.521616 C180.55921,39.8637216 278.041084,29.4790547 369.82814,74.3676152 C461.615197,119.256176 541.677629,116.911251 610.015438,67.3328408 L537.84048,31.0169599 C519.629246,62.4145894 466.975025,62.4145894 379.877818,31.0169599 C292.780611,-0.380669611 191.948845,20.0993555 77.3825185,92.4570351 L77.3825185,105.521616 Z" id="Path-10" fill="url(#linearGradient-12)" mask="url(#mask-11)"></path>
                    <path d="" id="Path-4" stroke="#979797" mask="url(#mask-11)"></path>
                    <path d="" id="Path-5" stroke="#979797" mask="url(#mask-11)"></path>
                </g>
                <g id="Path" transform="translate(254.242886, 353.989848)">
                    <mask id="mask-14" fill="white">
                        <use xlink:href="#path-13"></use>
                    </mask>
                    <use id="Mask" fill="#C9C9C9" xlink:href="#path-13"></use>
                    <path d="M48.740937,80.1374211 C70.6645578,80.1374211 88.437164,66.922412 88.437164,50.6208721 C88.437164,34.3193323 70.6645578,21.1043232 48.740937,21.1043232 C26.8173162,21.1043232 9.04470995,34.3193323 9.04470995,50.6208721 C9.04470995,66.922412 26.8173162,80.1374211 48.740937,80.1374211 Z" fill="url(#linearGradient-15)" mask="url(#mask-14)" transform="translate(48.740937, 50.620872) rotate(-30.000000) translate(-48.740937, -50.620872) "></path>
                </g>
                <g id="Path-Copy-4" transform="translate(605.981607, 430.367399)">
                    <mask id="mask-17" fill="white">
                        <use xlink:href="#path-16"></use>
                    </mask>
                    <use id="Mask" fill="#C9C9C9" xlink:href="#path-16"></use>
                    <path d="M12.9949547,57.3864689 C-2.50738622,41.884128 -6.48695584,20.7294369 4.10633719,10.1361438 C14.6996302,-0.457149206 35.8543213,3.52242042 51.3566623,19.0247614 C66.8590032,34.5271023 70.8385728,55.6817934 60.2452798,66.2750864 C49.6519868,76.8683795 28.4972957,72.8888098 12.9949547,57.3864689 Z" fill="url(#linearGradient-18)" mask="url(#mask-17)"></path>
                </g>
                <g id="Path-Copy" transform="translate(364.789341, 447.451851)">
                    <mask id="mask-20" fill="white">
                        <use xlink:href="#path-19"></use>
                    </mask>
                    <use id="Mask" fill="#C9C9C9" xlink:href="#path-19"></use>
                    <circle fill="url(#linearGradient-21)" mask="url(#mask-20)" cx="54.7707436" cy="61.805518" r="54.7707436"></circle>
                </g>
                <g id="Path-Copy-2" transform="translate(189.924949, 453.481658)">
                    <mask id="mask-23" fill="white">
                        <use xlink:href="#path-22"></use>
                    </mask>
                    <use id="Mask" fill="#C9C9C9" xlink:href="#path-22"></use>
                    <path d="M38.1887754,58.9200614 C53.7295699,58.9200614 66.327873,49.3298716 66.327873,37.4997729 C66.327873,25.6696742 53.7295699,16.0794844 38.1887754,16.0794844 C22.6479809,16.0794844 10.0496777,25.6696742 10.0496777,37.4997729 C10.0496777,49.3298716 22.6479809,58.9200614 38.1887754,58.9200614 Z" fill="url(#linearGradient-24)" mask="url(#mask-23)" transform="translate(38.188775, 37.499773) rotate(-30.000000) translate(-38.188775, -37.499773) "></path>
                </g>
                <g id="Path-Copy-3" transform="translate(443.176827, 369.064365)">
                    <mask id="mask-26" fill="white">
                        <use xlink:href="#path-25"></use>
                    </mask>
                    <use id="Mask" fill="#C9C9C9" xlink:href="#path-25"></use>
                    <path d="M34.6826919,61.7316556 C52.4435999,61.7316556 66.8416606,50.2551834 66.8416606,36.0982375 C66.8416606,21.9412916 52.4435999,10.4648194 34.6826919,10.4648194 C16.9217839,10.4648194 2.5237232,21.9412916 2.5237232,36.0982375 C2.5237232,50.2551834 16.9217839,61.7316556 34.6826919,61.7316556 Z" fill="url(#linearGradient-27)" mask="url(#mask-26)" transform="translate(34.682692, 36.098237) rotate(-15.000000) translate(-34.682692, -36.098237) "></path>
                </g>
                <path d="M286.215414,95.4647684 C279.404078,101.856153 270.288685,105.762808 260.272693,105.762808 C253.826995,105.762808 247.754275,104.144888 242.428581,101.288018 C237.174332,105.943723 230.217029,108.777712 222.586401,108.777712 C206.213064,108.777712 192.939852,95.7294692 192.939852,79.6336463 C192.939852,63.5378234 206.213064,50.4895809 222.586401,50.4895809 C223.63302,50.4895809 224.666971,50.5428965 225.685597,50.6469156 C231.782682,37.490327 244.977622,28.3802899 260.272693,28.3802899 C277.375346,28.3802899 291.852148,39.7708264 296.715813,55.4726758 C298.863798,54.8456851 301.135787,54.509452 303.486307,54.509452 C316.806988,54.509452 327.605534,65.3079975 327.605534,78.6286785 C327.605534,91.9493595 316.806988,102.747905 303.486307,102.747905 C296.715383,102.747905 290.596104,99.9578787 286.215414,95.4647684 Z" id="Combined-Shape" fill="url(#linearGradient-1)"></path>
                <path d="M761.345836,161.606408 C753.306733,168.149139 742.93047,172.090681 731.602578,172.090681 C724.32561,172.090681 717.441349,170.464125 711.317097,167.566337 C704.939075,172.88389 696.560515,176.110552 687.383996,176.110552 C667.402975,176.110552 651.205156,160.812613 651.205156,141.941648 C651.205156,123.070683 667.402975,107.772744 687.383996,107.772744 C688.261365,107.772744 689.13144,107.80224 689.993169,107.860239 C697.483995,92.9364906 713.30135,82.6485496 731.602578,82.6485496 C752.205581,82.6485496 769.660617,95.6870915 775.631624,113.699939 C777.941789,113.110764 780.362288,112.797583 782.855935,112.797583 C798.951757,112.797583 812,125.845825 812,141.941648 C812,158.037471 798.951757,171.085714 782.855935,171.085714 C774.338582,171.085714 766.6746,167.431996 761.345836,161.606408 Z" id="Combined-Shape-Copy" fill="url(#linearGradient-1)"></path>
                <path d="M633.578158,287.089555 C627.779646,291.831969 620.246013,294.69675 612.011413,294.69675 C606.808981,294.69675 601.886334,293.553294 597.504255,291.515311 C592.962726,295.367105 586.949739,297.711653 580.354928,297.711653 C566.201705,297.711653 554.72825,286.913107 554.72825,273.592426 C554.72825,260.271745 566.201705,249.4732 580.354928,249.4732 C580.912368,249.4732 581.465651,249.489951 582.01424,249.522948 C587.326191,238.801005 598.761362,231.38378 612.011413,231.38378 C626.706059,231.38378 639.168515,240.506504 643.522066,253.142361 C645.174339,252.7153 646.907006,252.488103 648.692737,252.488103 C660.070819,252.488103 669.294576,261.711861 669.294576,273.089943 C669.294576,284.468024 660.070819,293.691782 648.692737,293.691782 C642.720077,293.691782 637.341036,291.150192 633.578158,287.089555 Z" id="Combined-Shape-Copy-3" fill="url(#linearGradient-1)"></path>
                <g id="Group-5" transform="translate(454.231473, 166.060875)">
                    <g id="Path-25" transform="translate(95.830855, 171.203438)">
                        <mask id="mask-29" fill="white">
                            <use xlink:href="#path-28"></use>
                        </mask>
                        <use id="Mask" fill="#CC925C" xlink:href="#path-28"></use>
                        <path d="M-2.62054825,4.81540295 C1.15810472,4.40634863 4.53343986,5.00304073 7.50545716,6.60547924 C9.11748399,7.4746444 8.8863749,10.8980345 10.7081585,12.3327731 C12.7292452,13.9244721 16.8395171,13.5774497 19.3907919,15.5203503 C13.9221472,16.0181546 7.29523656,15.6208332 3.82910656,15.5203503 C0.698555935,15.4295958 -1.451329,15.1166344 -2.62054825,14.5814661 L-2.62054825,4.81540295 Z" fill="#B07F50" mask="url(#mask-29)"></path>
                    </g>
                    <g id="Path-27" transform="translate(31.225784, 152.898668)">
                        <mask id="mask-31" fill="white">
                            <use xlink:href="#path-30"></use>
                        </mask>
                        <use id="Mask" fill="#7E35CC" xlink:href="#path-30"></use>
                        <path d="M1.62535451,-3.38808359 L30.660083,1.26931503 C24.6426345,13.0605463 21.0172132,20.0877452 19.7838191,22.3509117 C19.7650907,22.3852766 17.7947889,27.6629942 21.4921607,31.2476939 C25.1895326,34.8323936 35.971474,35.2115731 35.464549,35.7074765 C32.1642498,38.9360206 4.3531901,34.7503825 1.62535451,33.3223817 C-8.7531172,27.8893319 -8.65702633,29.9168295 -6.11350902,24.0544644 C-4.41783081,20.146221 -1.83820964,10.998705 1.62535451,-3.38808359 Z" fill="#602B99" mask="url(#mask-31)"></path>
                        <path d="M31.2257844,13.6554932 C24.7762867,14.0272689 18.721401,14.8591937 13.0611273,16.1512678 C7.4008535,17.4433418 2.32931029,19.7247179 -2.15350237,22.995396 L1.07675118,3.23025355 L30.1490332,3.23025355 L31.2257844,13.6554932 Z" id="路径-5" fill="#58278C" mask="url(#mask-31)"></path>
                    </g>
                    <g id="Path-27" transform="translate(59.221315, 152.898668)">
                        <mask id="mask-33" fill="white">
                            <use xlink:href="#path-32"></use>
                        </mask>
                        <use id="Mask" fill="#7E35CC" xlink:href="#path-32"></use>
                        <path d="M3.77885688,-3.38808359 L36.1458364,1.9927175 C29.8901011,11.9037935 25.3179357,18.8772713 22.4293403,22.9131508 C21.1291792,24.7297062 17.7237295,29.6746016 24.6759338,32.3777817 C31.6281381,35.0809618 52.3306508,33.8641246 50.8021068,35.0809618 C48.4775249,36.9315059 7.05469213,38.0147218 5.40899523,37.1532122 C-4.96947648,31.7201624 -6.50352396,29.9168295 -3.96000665,24.0544644 C-2.26432844,20.146221 0.315292733,10.998705 3.77885688,-3.38808359 Z" fill="#602B99" mask="url(#mask-33)"></path>
                        <path d="M33.988992,14.7356525 C25.6863465,20.2421482 12.5757984,20.2421482 -5.34265233,14.7356525 C-5.34265233,10.4286478 -2.48501704,7.31134892 3.23025355,5.38375592 L30.1490332,2.15350237 C36.3238028,1.80023496 39.1900021,2.87698615 38.747631,5.38375592 C38.3052598,7.8905257 36.7190468,11.0078246 33.988992,14.7356525 Z" id="路径-6" fill="#58278C" mask="url(#mask-33)"></path>
                    </g>
                    <g id="尾巴" transform="translate(89.370348, 129.210142)">
                        <mask id="mask-35" fill="white">
                            <use xlink:href="#path-34"></use>
                        </mask>
                        <use id="Mask" fill="#CC925C" fill-rule="nonzero" xlink:href="#path-34"></use>
                        <path d="M8.14487245,18.9720105 C8.9342383,28.8672059 14.1555663,33.8148037 23.8088565,33.8148037 C10.7183437,33.1441265 1.46659074,30.2461907 -3.94640233,25.1209963 L8.14487245,18.9720105 Z" id="Path-24" fill="#B07F50" mask="url(#mask-35)"></path>
                    </g>
                    <g id="Path-20" transform="translate(24.765277, 103.368114)">
                        <mask id="mask-37" fill="white">
                            <use xlink:href="#path-36"></use>
                        </mask>
                        <use id="Mask" fill="#7E35CC" xlink:href="#path-36"></use>
                        <path d="M4.30700474,21.5350237 C25.1241943,47.3770521 49.1716374,60.6569834 76.4493341,61.3748175 C26.9187796,65.6818223 4.4272245,69.988827 2.27372213,65.6818223 C0.838053885,62.8104858 1.51581475,48.0948863 4.30700474,21.5350237 Z" id="路径-4" fill="#652DA1" mask="url(#mask-37)"></path>
                        <path d="M2.15350237,24.7652773 C11.485346,21.8939408 19.0226043,21.8939408 24.7652773,24.7652773 C23.329609,17.586936 22.2528578,12.2031801 21.5350237,8.61400948 L2.15350237,-1.07675118 L-4.30700474,21.5350237 L2.15350237,24.7652773 Z" fill="#682EA6" mask="url(#mask-37)"></path>
                        <path d="M66.467287,-0.650672868 C75.6472236,3.72896236 75.955467,13.4563834 67.3920172,28.5315904 C61.7874692,20.6873639 54.1603508,16.9948566 49.5305545,18.0200043 C52.0177045,12.7522117 55.4128214,6.02770953 59.7159052,-2.15350237 L66.467287,-0.650672868 Z" id="Path-22" fill="#682EA6" mask="url(#mask-37)"></path>
                        <path d="M-5.31543882,3.33645163 C18.683589,11.2486703 39.2244564,13.2282012 56.3071633,9.27504416 C63.3769105,7.63901418 69.9744364,8.52305979 70.3597659,13.2843155 C71.4256896,26.4552124 69.988276,23.998537 70.3597659,27.054298 C71.7750364,38.6958761 75.9858493,32.0981658 78.065517,30.9590815 C76.2001136,25.4587435 97.4036458,-1.49140616 78.065517,-8.26409967 C65.1556612,-12.7854522 14.8953851,3.51501505 -1.37297061,-2.35558834 C-2.85600594,1.27333112 -4.17016202,3.17067778 -5.31543882,3.33645163 Z" id="Path-30" fill="#58278C" mask="url(#mask-37)"></path>
                    </g>
                    <g id="Path-28" transform="translate(38.763043, 152.898668)">
                        <mask id="mask-39" fill="white">
                            <use xlink:href="#path-38"></use>
                        </mask>
                        <use id="Mask" fill="#EAD8CD" xlink:href="#path-38"></use>
                        <path d="M11.1103244,7.76819219 C9.26574663,7.44953002 4.26063895,7.43638143 2.32069444,8.75564769 C-0.293925189,10.5337292 -1.70756372,13.6763434 -1.92022115,18.1834903 L-0.799148929,3.92598933 L13.0305033,-4.13892225 C16.9835901,1.29718583 18.8124807,4.66710532 18.517175,5.9708362 C18.1254528,7.7002318 12.8986663,8.07713926 11.1103244,7.76819219 Z" fill="#D4C4BA" mask="url(#mask-39)"></path>
                    </g>
                    <g id="Path-26" transform="translate(31.225784, 124.903137)">
                        <mask id="mask-41" fill="white">
                            <use xlink:href="#path-40"></use>
                        </mask>
                        <use id="Mask" fill="#CC925C" xlink:href="#path-40"></use>
                        <path d="M-0.96987854,6.38043813 C9.86701743,5.67300119 16.8550058,8.02270245 19.9940865,13.4295419 C17.2018957,0.0920339075 10.2139074,-5.62584564 -0.96987854,-3.72409672 L-0.96987854,6.38043813 Z" fill="#B07F50" mask="url(#mask-41)"></path>
                    </g>
                    <g id="Path-13" transform="translate(52.760808, 151.821917)">
                        <mask id="mask-43" fill="white">
                            <use xlink:href="#path-42"></use>
                        </mask>
                        <use id="Mask" fill="#F2E3DA" xlink:href="#path-42"></use>
                        <path d="M8.05719921,2.93851489 C10.6029811,3.52591325 12.6820092,4.92123985 14.2942834,7.12449469 C16.7224187,10.4426652 23.1397279,10.0529415 23.1397279,12.8477618 C28.4180459,6.68822165 25.1480506,1.60607346 13.3297419,-2.39868273 L8.05719921,2.93851489 Z" fill="#D4C4BA" mask="url(#mask-43)"></path>
                    </g>
                    <g id="Path-32" transform="translate(61.374818, 121.672884)">
                        <mask id="mask-45" fill="white">
                            <use xlink:href="#path-44"></use>
                        </mask>
                        <use id="Mask" fill="#CC925C" xlink:href="#path-44"></use>
                        <path d="M11.2460467,5.03300668 C20.9794256,10.9041985 25.1071726,17.041155 23.6292875,23.4438761 C30.7326295,11.73186 31.5180323,0.0907269397 30.5755085,0.0907269397 C29.9471594,0.0907269397 24.6942167,-1.68663026 14.8166805,-5.24134465 L11.2460467,5.03300668 Z" fill="#B07F50" mask="url(#mask-45)"></path>
                    </g>
                    <path d="M74.3540151,120.913932 C74.806248,119.886609 88.51479,124.887019 92.3285199,129.210142 C93.3082977,130.320787 92.882568,131.46055 92.0961013,131.878425 C91.0384384,132.440396 89.0409066,129.773135 79.5855206,125.752514 C77.4535998,124.845978 75.0375668,124.07914 74.3540151,123.485729 C72.9587654,122.274474 74.1847782,121.298382 74.3540151,120.913932 Z" id="Path-23" fill="#FFF3EC"></path>
                    <path d="M28.568219,128.214801 C28.9233932,128.535878 29.072282,127.05664 36.6095403,127.05664 C40.916545,127.05664 51.6840569,129.249352 49.5305545,126.364443 C47.3770521,123.479534 30.2692529,122.238491 27.0389994,124.930369 C28.0217662,127.236205 28.2130449,127.893724 28.568219,128.214801 Z" id="Path-19" fill="#FFF3EC"></path>
                    <g id="Group-4">
                        <g id="Path-21" transform="translate(48.453803, 2.153502)">
                            <mask id="mask-47" fill="white">
                                <use xlink:href="#path-46"></use>
                            </mask>
                            <use id="Mask" fill="#7E35CC" xlink:href="#path-46"></use>
                            <path d="M92.2671936,59.2590368 C88.3419855,55.9420957 81.5370639,56.8623894 74.5685864,52.2438148 C67.6001089,47.6252402 60.4437615,21.5060025 50.5606308,19.2551059 C54.569695,35.8927684 46.6037866,54.5879198 60.8167619,61.7587385 C70.2920788,66.5392843 81.5855503,68.2363597 94.6971765,66.8499646 C95.6939934,64.0006402 94.8839991,61.4703309 92.2671936,59.2590368 Z" fill="#602B99" mask="url(#mask-47)"></path>
                        </g>
                        <path d="M35.9588545,24.0167602 C27.5453412,5.66000384 38.253449,-0.84134736 68.0831781,4.51270657 C97.9129071,9.8667605 111.680474,26.6937871 109.38588,54.9937865 L35.9588545,24.0167602 Z" id="Path-11" fill="#5B1F8C"></path>
                        <g id="Path-16" transform="translate(35.532789, 4.307005)">
                            <mask id="mask-49" fill="white">
                                <use xlink:href="#path-48"></use>
                            </mask>
                            <use id="Mask" fill="#7032B3" xlink:href="#path-48"></use>
                            <path d="M20.6404339,-0.131524193 C23.5606541,4.72272391 26.2700875,7.14984797 28.7687341,7.14984797 C30.5117204,7.14984797 30.2035538,4.36382194 34.3417885,6.25643677 C38.4800231,8.1490516 40.8066884,10.106656 51.3455786,18.3932767 C64.4793332,28.7202127 71.1599698,38.6534909 71.3874883,48.1931113 C25.6170359,30.659894 2.55298606,21.5722649 2.1953389,20.930224 C1.81724064,20.2514698 0.851664684,14.9890518 2.55201261,12.756433 C3.81797178,11.0941825 5.40207718,11.5119568 7.64763634,9.33090238 C9.8931955,7.14984797 8.1154135,4.41364001 13.3901372,0.66377407 C14.3445407,-0.0147231108 16.7613063,-0.279822532 20.6404339,-0.131524193 Z" fill="#58278C" mask="url(#mask-49)"></path>
                        </g>
                        <g id="Path-12">
                            <mask id="mask-51" fill="white">
                                <use xlink:href="#path-50"></use>
                            </mask>
                            <use id="Mask" fill="#CC925C" xlink:href="#path-50"></use>
                            <path d="M85.423946,101.214611 C91.5628409,101.932446 99.7894496,102.65028 110.103772,103.368114 C110.305112,107.515601 114.217288,111.282957 124.188059,116.431539 C100.63348,114.843817 87.7121091,114.078512 85.423946,114.135626 L85.423946,101.214611 Z" id="路径-2" fill="#B07F50" mask="url(#mask-51)"></path>
                            <path d="M33.1823951,16.7981693 C43.5735297,23.6171585 47.2750352,35.2457877 44.2869116,51.6840569 C28.9243343,43.971384 17.7752964,35.7224725 10.839798,26.9373222 L33.1823951,16.7981693 Z" id="路径" fill="#B07F50" mask="url(#mask-51)"></path>
                            <path d="M24.1287639,33.0945226 C35.6141099,28.7875179 42.7924511,34.8891079 45.6637876,51.3992928 C53.2010459,41.7085321 83.9865924,21.5350237 100.13786,52.7608081 C103.368114,60.2980664 102.7316,76.16457 79.0430744,82.6250771 C84.4268303,83.7018283 101.851125,92.6006019 90.4470995,107.390354 C79.0430744,122.180107 -2.79001568,119.234617 -10.327274,107.390354 C-17.8645323,95.5460913 4.74724261,35.248025 12.2845009,34.1712738 C17.3093398,33.4534397 21.2574274,33.0945226 24.1287639,33.0945226 Z" fill="#F2E3DA" mask="url(#mask-51)"></path>
                            <circle id="椭圆形" fill="#F2C1C0" mask="url(#mask-51)" cx="15.0745166" cy="74.2958318" r="9.69076066"></circle>
                            <circle id="椭圆形" fill="#F2C1C0" mask="url(#mask-51)" cx="76.4493341" cy="86.1400948" r="9.69076066"></circle>
                            <path d="M60.8180073,4.32972086 C59.6676167,9.95745122 60.5984355,13.3881917 63.6104639,14.6219423 C65.7841547,15.5123032 65.3946332,11.8975539 67.2950816,12.7634264 C70.2284543,14.0999147 70.4576943,17.3951384 72.8752226,18.7962921 C89.2770272,28.302468 96.9166691,36.856321 100.13786,41.1557689 C111.455025,56.2612256 108.006494,66.1034258 106.920277,72.1423294 C112.78255,63.8241724 126.032212,59.423258 133.517147,61.3748175 C127.985029,57.8243014 125.467168,41.0010631 110.103772,28.821293 C102.649438,22.9116574 86.2208501,14.7478 60.8180073,4.32972086 Z" id="路径-3" fill="#B07F50" mask="url(#mask-51)"></path>
                        </g>
                        <path d="M100.13786,52.7608081 C103.368114,60.2980664 102.7316,76.16457 79.0430744,82.6250771 C81.9729988,83.211062 88.4689783,86.1137009 91.9437393,91.0217469 C93.8838298,93.7620945 99.011224,87.8159858 107.325922,73.1834207 C108.541827,63.9065333 106.145806,57.0989957 100.13786,52.7608081 Z" id="Path-12" fill="#CC925C"></path>
                    </g>
                    <path d="M32.3025355,43.0700474 C30.1490332,43.0700474 24.7652773,43.0700474 21.5350237,47.3770521 C18.5516692,51.3548581 27.7847108,45.8096395 34.4560379,46.3003009 C39.2349976,46.6517829 34.4560379,43.0700474 32.3025355,43.0700474 Z" id="Path-3" fill="#B07F50" transform="translate(28.733067, 45.946406) rotate(-345.000000) translate(-28.733067, -45.946406) "></path>
                    <path d="M69.988827,52.7608081 C75.7315,54.9143104 79.6795877,57.7856469 81.8330901,61.3748175 C82.9098412,60.2980664 83.9865924,58.144564 81.8330901,55.9910616 C79.6795877,53.8375592 76.4493341,51.6840569 74.2958318,51.6840569 C72.8601635,51.6840569 71.4244953,52.0429739 69.988827,52.7608081 Z" id="Path-7" fill="#B07F50"></path>
                    <path d="M27.9955308,54.9143104 L39.9109783,65.8365988 C40.0331756,65.948613 40.0414307,66.1384789 39.9294165,66.2606761 C39.8513128,66.3458801 39.7312236,66.378666 39.620659,66.3449708 C31.580151,63.8945807 24.8337717,64.0324483 19.3815213,66.7585735" id="Path-14" stroke="#000000" stroke-width="2" stroke-linecap="round"></path>
                    <path d="M77.5260853,68.9120758 C69.780988,71.7834123 62.6026468,72.5012464 55.9910616,71.0655782 C46.0736839,68.9120758 74.2958318,80.7563389 74.2958318,83.9865924" id="Path-15" stroke="#000000" stroke-width="2" stroke-linecap="round"></path>
                    <ellipse id="Oval-2" fill="#9BE3E3" cx="25.8420284" cy="64.0666955" rx="3.23025355" ry="2.69187796"></ellipse>
                    <ellipse id="Oval-2-Copy-4" fill="#9BE3E3" transform="translate(66.654329, 76.252301) rotate(38.000000) translate(-66.654329, -76.252301) " cx="66.6543288" cy="76.2523008" rx="3.23025355" ry="2.69187796"></ellipse>
                    <circle id="Oval-2-Copy-2" fill="#9BE3E3" cx="11.3058874" cy="72.680705" r="2.69187796"></circle>
                    <circle id="Oval-2-Copy-6" fill="#9BE3E3" cx="78.0644609" cy="89.9087239" r="2.69187796"></circle>
                    <circle id="Oval-2-Copy-3" fill="#9BE3E3" cx="17.228019" cy="66.7585735" r="2.15350237"></circle>
                    <circle id="Oval-2-Copy-5" fill="#9BE3E3" cx="74.2958318" cy="81.8330901" r="2.15350237"></circle>
                    <path d="M41.1405923,81.7138492 C40.6467368,82.3862976 39.7106261,82.5762523 38.9892269,82.129354 C38.2309316,81.6595988 37.9970236,80.6640673 38.4667787,79.905772 C39.9966752,77.4361591 41.3495653,76.083269 42.9008346,75.919847 C45.0887136,75.6893599 48.1123913,77.6092449 49.7459047,79.7872628 C50.2811107,80.5008707 50.1364873,81.5132344 49.4228794,82.0484403 C48.7092715,82.5836462 47.6969078,82.4390228 47.1617019,81.7254149 C46.6222612,81.0061606 45.7900873,80.299806 45.0029246,79.8057421 C45.1441914,80.0924393 45.2235498,80.4151215 45.2235498,80.7563389 C45.2235498,81.9456854 44.2593939,82.9098412 43.0700474,82.9098412 C42.2246638,82.9098412 41.4930537,82.4227189 41.1405923,81.7138492 Z" id="Combined-Shape" fill="#694B2F" fill-rule="nonzero" transform="translate(44.146735, 79.405429) rotate(11.000000) translate(-44.146735, -79.405429) "></path>
                    <path d="M43.0700474,80.7563389 C41.6343791,84.7044265 41.6648683,86.7765961 42.4852502,90.0068496" id="Path-17" stroke="#694B2F" stroke-linecap="round"></path>
                    <path d="M34.4560379,94.8051231 C36.6095403,94.8051231 38.0452085,93.7283719 38.7630427,91.5748695 C39.8397938,88.344616 40.7888165,93.2538606 44.1467986,91.5748695 C47.5047807,89.8958785 44.1467986,95.8818742 51.6840569,96.9586254" id="Path-18" stroke="#A1473D" stroke-width="2" stroke-linecap="round"></path>
                    <path d="M112.78255,77.3935658 C116.24415,82.7323973 116.24415,87.6380153 112.78255,92.1104198 C116.535546,91.4040607 116.535546,92.9672201 119.415,95.8875458 C124.440982,100.846021 141.496363,101.423395 140.991088,84.0454878 C140.991088,76.3678775 130.842784,67.8532878 119.415,75.5308981 C117.316909,76.9404744 115.106092,77.5613636 112.78255,77.3935658 Z" id="Path-29" fill="#F2E3DA"></path>
                    <path d="M16.8688526,181.209534 C12.8994106,171.926609 14.8901353,164.012249 22.8410266,157.466455 C22.8410266,154.540335 15.380803,147.438663 17.7195957,155.661063 C15.5410391,154.509979 8.81897215,152.530246 9.67574464,155.661063 C10.2469263,157.748274 10.6663147,158.617955 10.9339098,158.270106 C5.44523882,158.322119 2.39144465,159.355676 1.77252726,161.370775 C0.844151181,164.393424 7.04139531,165.002734 6.26318182,166.459308 C5.48496833,167.915881 1.07675118,166.416392 1.07675118,170.395364 C1.51880401,172.746901 7.30977041,171.845555 4.39413188,174.791334 C0.307572085,178.150417 11.020459,177.548416 10.0348617,178.612659 C8.30277683,180.442267 5.94460695,183.419839 10.2467426,183.088382 C13.114833,182.867411 15.322203,182.241128 16.8688526,181.209534 Z" id="Path-31" fill="#FFF766"></path>
                </g>
            </g>
        </g>
    </g>
</svg>