<?xml version="1.0" encoding="UTF-8"?>
<svg width="12px" height="12px" viewBox="0 0 12 12" version="1.1" xmlns="http://www.w3.org/2000/svg" xmlns:xlink="http://www.w3.org/1999/xlink">
    <title>-mockplus-</title>
    <g id="页面-1" stroke="none" stroke-width="1" fill="none" fill-rule="evenodd">
        <g id="运单管理-查看运单资料-回单图片" transform="translate(-1061.000000, -231.000000)" fill="#8365F6">
            <g id="标题" transform="translate(176.000000, 109.000000)">
                <g id="编组-3" transform="translate(601.000000, 112.000000)">
                    <g id="Buttons/Default/icon-text-Copy-10备份" transform="translate(272.000000, 0.000000)">
                        <g id="custom-12-12" transform="translate(12.000000, 10.000000)">
                            <rect id="矩形" x="0" y="10.5" width="12" height="1.5" rx="0.75"></rect>
                            <rect id="矩形备份-6" transform="translate(0.750000, 9.500000) rotate(-270.000000) translate(-0.750000, -9.500000) " x="-1.75" y="8.75" width="5" height="1.5" rx="0.75"></rect>
                            <rect id="矩形备份-8" transform="translate(11.250000, 9.500000) rotate(-270.000000) translate(-11.250000, -9.500000) " x="8.75" y="8.75" width="5" height="1.5" rx="0.75"></rect>
                            <rect id="矩形备份-10" transform="translate(6.000000, 4.311692) rotate(-270.000000) translate(-6.000000, -4.311692) " x="1.68830845" y="3.56169155" width="8.62338309" height="1.5" rx="0.75"></rect>
                            <path d="M4.05545635,4.90371318 L6.53033009,7.37858691 C6.8232233,7.67148013 6.8232233,8.14635387 6.53033009,8.43924708 C6.23743687,8.7321403 5.76256313,8.7321403 5.46966991,8.43924708 L2.99479618,5.96437335 C2.70190296,5.67148013 2.70190296,5.1966064 2.99479618,4.90371318 C3.2876894,4.61081996 3.76256313,4.61081996 4.05545635,4.90371318 Z" id="矩形备份-7"></path>
                            <path d="M9.00520382,5.96437335 L6.53033009,8.43924708 C6.23743687,8.7321403 5.76256313,8.7321403 5.46966991,8.43924708 C5.1767767,8.14635387 5.1767767,7.67148013 5.46966991,7.37858691 L7.94454365,4.90371318 C8.23743687,4.61081996 8.7123106,4.61081996 9.00520382,4.90371318 C9.29809704,5.1966064 9.29809704,5.67148013 9.00520382,5.96437335 Z" id="矩形备份-9"></path>
                        </g>
                    </g>
                </g>
            </g>
        </g>
    </g>
</svg>