<?xml version="1.0" encoding="UTF-8"?>
<svg width="110px" height="110px" viewBox="0 0 110 110" version="1.1" xmlns="http://www.w3.org/2000/svg" xmlns:xlink="http://www.w3.org/1999/xlink">
    <title>编组 5</title>
    <defs>
        <rect id="path-1" x="31" y="36" width="50" height="36" rx="4"></rect>
        <filter x="-14.0%" y="-13.9%" width="128.0%" height="138.9%" filterUnits="objectBoundingBox" id="filter-2">
            <feOffset dx="0" dy="2" in="SourceAlpha" result="shadowOffsetOuter1"></feOffset>
            <feGaussianBlur stdDeviation="2" in="shadowOffsetOuter1" result="shadowBlurOuter1"></feGaussianBlur>
            <feComposite in="shadowBlurOuter1" in2="SourceAlpha" operator="out" result="shadowBlurOuter1"></feComposite>
            <feColorMatrix values="0 0 0 0 0   0 0 0 0 0   0 0 0 0 0  0 0 0 0.189821897 0" type="matrix" in="shadowBlurOuter1"></feColorMatrix>
        </filter>
        <rect id="path-3" x="0" y="0" width="50" height="36" rx="4"></rect>
        <filter x="-14.0%" y="-13.9%" width="128.0%" height="138.9%" filterUnits="objectBoundingBox" id="filter-4">
            <feOffset dx="0" dy="2" in="SourceAlpha" result="shadowOffsetOuter1"></feOffset>
            <feGaussianBlur stdDeviation="2" in="shadowOffsetOuter1" result="shadowBlurOuter1"></feGaussianBlur>
            <feComposite in="shadowBlurOuter1" in2="SourceAlpha" operator="out" result="shadowBlurOuter1"></feComposite>
            <feColorMatrix values="0 0 0 0 0   0 0 0 0 0   0 0 0 0 0  0 0 0 0.189821897 0" type="matrix" in="shadowBlurOuter1"></feColorMatrix>
        </filter>
    </defs>
    <g id="页面-1" stroke="none" stroke-width="1" fill="none" fill-rule="evenodd">
        <g id="运单管理-查看运单资料-查看运单联备份" transform="translate(-749.000000, -371.000000)">
            <g id="标题" transform="translate(176.000000, 109.000000)">
                <g id="编组-5" transform="translate(573.000000, 262.000000)">
                    <path d="M54.2102929,107 C83.1071164,107 91.226749,73.8105309 106.53262,55.0630831 C121.838492,36.3156354 61.3488842,22.445405 50.9323834,8.45150468 C40.5158827,-5.54239561 -5.96038368,25.6288159 1.88796544,55.0630831 C9.73631456,84.4973504 25.3134694,107 54.2102929,107 Z" id="椭圆形" fill="#E1EAFF" opacity="0.200000003"></path>
                    <path d="M54.4913351,92.3316544 C63.4902654,78.3570766 96,81.1180825 96,57.7240693 C96,34.3300562 77.4921598,1.62573062 54.4913351,20.7655127 C31.4905104,39.9052948 22.299583,25.785399 14.9414682,56.5485835 C7.58335349,87.3117681 45.4924047,106.306232 54.4913351,92.3316544 Z" id="椭圆形" fill="#D6DBFC" opacity="0.25"></path>
                    <polygon id="路径-15" fill="#72727B" transform="translate(20.988228, 43.635183) rotate(-10.000000) translate(-20.988228, -43.635183) " points="22.7046444 46.2703659 23.9764567 44.4282845 20.0449044 41 18 43.635183"></polygon>
                    <polygon id="路径-15备份" fill="#72727B" transform="translate(24.988228, 39.635183) rotate(36.000000) translate(-24.988228, -39.635183) " points="26.7046444 42.2703659 27.9764567 40.4282845 24.0449044 37 22 39.635183"></polygon>
                    <rect id="矩形" fill="#72727B" transform="translate(42.500000, 18.500000) rotate(-270.000000) translate(-42.500000, -18.500000) " x="41.5" y="15" width="2" height="7" rx="1"></rect>
                    <rect id="矩形备份-11" fill="#AF99FF" transform="translate(96.500000, 50.500000) rotate(-270.000000) translate(-96.500000, -50.500000) " x="95.5" y="47" width="2" height="7" rx="1"></rect>
                    <rect id="矩形备份-13" fill="#AF99FF" transform="translate(45.500000, 90.500000) rotate(-270.000000) translate(-45.500000, -90.500000) " x="44.5" y="87" width="2" height="7" rx="1"></rect>
                    <rect id="矩形" fill="#72727B" x="41.5" y="15" width="2" height="7" rx="1"></rect>
                    <rect id="矩形备份-12" fill="#AF99FF" x="95.5" y="47" width="2" height="7" rx="1"></rect>
                    <rect id="矩形备份-14" fill="#AF99FF" x="44.5" y="87" width="2" height="7" rx="1"></rect>
                    <g id="矩形" transform="translate(56.000000, 54.000000) rotate(7.000000) translate(-56.000000, -54.000000) ">
                        <use fill="black" fill-opacity="1" filter="url(#filter-2)" xlink:href="#path-1"></use>
                        <rect stroke="#72727B" stroke-width="2" stroke-linejoin="square" fill="#FFFFFF" fill-rule="evenodd" x="32" y="37" width="48" height="34" rx="4"></rect>
                    </g>
                    <rect id="矩形" fill="#AF99FF" transform="translate(45.500000, 43.000000) rotate(7.000000) translate(-45.500000, -43.000000) " x="41" y="41" width="9" height="4" rx="1"></rect>
                    <g id="编组-8" transform="translate(24.000000, 46.912564)">
                        <g id="矩形">
                            <use fill="black" fill-opacity="1" filter="url(#filter-4)" xlink:href="#path-3"></use>
                            <rect stroke="#72727B" stroke-width="2" stroke-linejoin="square" fill="#FFFFFF" fill-rule="evenodd" x="1" y="1" width="48" height="34" rx="4"></rect>
                        </g>
                        <rect id="矩形备份-5" fill="#AF99FF" x="12" y="16" width="21" height="4" rx="1"></rect>
                        <rect id="矩形备份-10" fill="#AF99FF" x="12" y="24" width="18" height="4" rx="1"></rect>
                        <circle id="椭圆形" fill="#72727B" cx="6.5" cy="7.5" r="1.5"></circle>
                        <circle id="椭圆形备份-9" fill="#72727B" cx="43.5" cy="7.5" r="1.5"></circle>
                        <circle id="椭圆形备份-6" fill="#72727B" cx="6.5" cy="14.5" r="1.5"></circle>
                        <circle id="椭圆形备份-10" fill="#72727B" cx="43.5" cy="14.5" r="1.5"></circle>
                        <circle id="椭圆形备份-7" fill="#72727B" cx="6.5" cy="21.5" r="1.5"></circle>
                        <circle id="椭圆形备份-11" fill="#72727B" cx="43.5" cy="21.5" r="1.5"></circle>
                        <circle id="椭圆形备份-8" fill="#72727B" cx="6.5" cy="28.5" r="1.5"></circle>
                        <circle id="椭圆形备份-12" fill="#72727B" cx="43.5" cy="28.5" r="1.5"></circle>
                    </g>
                    <g id="编组-11" transform="translate(58.000000, 61.000000)">
                        <circle id="椭圆形" stroke="#72727B" stroke-width="2" fill="#FFFFFF" cx="13" cy="13" r="12"></circle>
                        <circle id="椭圆形" stroke="#AF99FF" stroke-width="2" fill="#FFFFFF" cx="12" cy="12" r="4"></circle>
                        <rect id="矩形" fill="#AF99FF" transform="translate(16.646447, 16.414759) rotate(-45.000000) translate(-16.646447, -16.414759) " x="15.6464466" y="13.9147587" width="2" height="5" rx="1"></rect>
                    </g>
                    <g id="编组" transform="translate(68.500000, 25.000000) scale(-1, 1) translate(-68.500000, -25.000000) translate(62.000000, 18.000000)" stroke="#72727B" stroke-width="2">
                        <path d="M-1.23889082,-1.8241756 L15.4898146,7.39133228 L0.552909154,12.3308828 L-1.23889082,-1.8241756 Z" id="路径-3" fill="#FFFFFF"></path>
                        <path d="M0,0 L8,10.2740369 L8,13.4187345 C8,13.5291914 7.91045695,13.6187345 7.8,13.6187345 C7.73840366,13.6187345 7.68024337,13.5903517 7.64234265,13.5417961 L5.53419081,10.8409893 L5.53419081,10.8409893" id="路径-11" stroke-linecap="round"></path>
                    </g>
                    <path d="M50,55 C59.2157742,51.2828115 62.1863844,47.1719342 58.9118306,42.6673681 C55.6372769,38.162802 57.9376174,35.1168182 65.8128523,33.5294166" id="路径-12" stroke="#AF99FF" stroke-width="2" stroke-linecap="round"></path>
                </g>
            </g>
        </g>
    </g>
</svg>