<?xml version="1.0" encoding="UTF-8"?>
<svg width="12px" height="12px" viewBox="0 0 12 12" version="1.1" xmlns="http://www.w3.org/2000/svg" xmlns:xlink="http://www.w3.org/1999/xlink">
    <title>-mockplus-</title>
    <g id="页面-1" stroke="none" stroke-width="1" fill="none" fill-rule="evenodd">
        <g id="运单管理-查看运单资料-回单图片" transform="translate(-993.000000, -231.000000)" fill="#8365F6">
            <g id="标题" transform="translate(176.000000, 109.000000)">
                <g id="编组-3" transform="translate(601.000000, 112.000000)">
                    <g id="-mockplus-" transform="translate(204.000000, 0.000000)">
                        <g id="custom-12-12" transform="translate(12.000000, 10.000000)">
                            <path d="M6,5 L8.52436255,2.89700069 C7.83587312,2.33621858 6.95720059,2 6,2 C3.790861,2 2,3.790861 2,6 C2,8.209139 3.790861,10 6,10 C7.22915899,10 8.32882833,9.4455889 9.06258286,8.57319185 L10.3757103,10.1052876 C9.28112936,11.2715088 7.7256388,12 6,12 C2.6862915,12 0,9.3137085 0,6 C0,2.6862915 2.6862915,0 6,0 C7.5757495,0 9.00962525,0.607433708 10.0802421,1.60091597 L12,0 L12,6 L12,6 L6,5 Z" id="reset" transform="translate(6.000000, 6.000000) scale(-1, 1) translate(-6.000000, -6.000000) "></path>
                        </g>
                    </g>
                </g>
            </g>
        </g>
    </g>
</svg>