<?xml version="1.0" encoding="UTF-8"?>
<svg width="16px" height="16px" viewBox="0 0 16 16" version="1.1" xmlns="http://www.w3.org/2000/svg" xmlns:xlink="http://www.w3.org/1999/xlink">
    <title>-mockplus-</title>
    <g id="页面-1" stroke="none" stroke-width="1" fill="none" fill-rule="evenodd">
        <g id="运单管理-查看运单资料-回单图片" transform="translate(-1356.000000, -229.000000)" fill="#999999">
            <g id="标题" transform="translate(176.000000, 109.000000)">
                <g id="编组-3" transform="translate(601.000000, 112.000000)">
                    <g id="-mockplus-" transform="translate(452.000000, 4.000000)">
                        <g id="-mockplus-" transform="translate(127.000000, 4.000000)">
                            <g id="Page-selected-Copy-3" transform="translate(8.500000, 8.000000) scale(-1, 1) rotate(-360.000000) translate(-8.500000, -8.000000) translate(3.000000, 2.000000)">
                                <g id="Group" transform="translate(0.666667, 0.000000)">
                                    <path d="M0.437857904,1.5 L9.22882008,1.5 C10.1149683,1.5 10.8333333,2.30373342 10.8333333,3.29518883 C10.8333333,3.74177163 10.6845595,4.17232104 10.4160624,4.50276517 L6.02057028,9.91237485 C5.42448167,10.6459916 4.4097099,10.7000552 3.75401408,10.0331292 C3.71634519,9.9948151 3.68032741,9.95451698 3.64608297,9.91237153 L-0.749387096,4.50276186 C-1.34547406,3.76914343 -1.29715033,2.63377934 -0.641453026,1.96685517 C-0.346107294,1.66645252 0.038710179,1.5 0.437857904,1.5 Z" id="Rectangle-2" transform="translate(4.833333, 6.000000) rotate(-270.000000) translate(-4.833333, -6.000000) "></path>
                                </g>
                            </g>
                        </g>
                    </g>
                </g>
            </g>
        </g>
    </g>
</svg>