<?xml version="1.0" encoding="UTF-8"?>
<svg width="12px" height="12px" viewBox="0 0 12 12" version="1.1" xmlns="http://www.w3.org/2000/svg" xmlns:xlink="http://www.w3.org/1999/xlink">
    <title>-mockplus-</title>
    <g id="页面-1" stroke="none" stroke-width="1" fill="none" fill-rule="evenodd">
        <g id="运单管理-查看运单资料-回单图片" transform="translate(-925.000000, -231.000000)" fill="#8365F6">
            <g id="标题" transform="translate(176.000000, 109.000000)">
                <g id="编组-3" transform="translate(601.000000, 112.000000)">
                    <g id="-mockplus-" transform="translate(136.000000, 0.000000)">
                        <g id="custom-12-12" transform="translate(12.000000, 10.000000)">
                            <path d="M4.90131025,0 C7.60822915,0 9.8026205,2.19439134 9.8026205,4.90131025 C9.8026205,5.9003075 9.50374371,6.82949835 8.99052931,7.60434361 L11.7128879,10.326588 C12.095704,10.7094042 12.095704,11.3300718 11.7128879,11.7128879 C11.3595191,12.0662566 10.8034841,12.0934389 10.4189359,11.7944345 L10.326588,11.7128879 L7.60434361,8.99052931 C6.82949835,9.50374371 5.9003075,9.8026205 4.90131025,9.8026205 C2.19439134,9.8026205 0,7.60822915 0,4.90131025 C0,2.19439134 2.19439134,0 4.90131025,0 Z M4.90131025,1.9605241 C3.27715891,1.9605241 1.9605241,3.27715891 1.9605241,4.90131025 C1.9605241,6.52546159 3.27715891,7.8420964 4.90131025,7.8420964 C6.52546159,7.8420964 7.8420964,6.52546159 7.8420964,4.90131025 C7.8420964,3.27715891 6.52546159,1.9605241 4.90131025,1.9605241 Z M4.9000001,2.9000001 C5.17614247,2.9000001 5.4000001,3.12385772 5.4000001,3.4000001 L5.4000001,4.4000001 L6.4000001,4.4000001 C6.67614247,4.4000001 6.9000001,4.62385772 6.9000001,4.9000001 C6.9000001,5.17614247 6.67614247,5.4000001 6.4000001,5.4000001 L5.4000001,5.4000001 L5.4000001,6.4000001 C5.4000001,6.67614247 5.17614247,6.9000001 4.9000001,6.9000001 C4.62385772,6.9000001 4.4000001,6.67614247 4.4000001,6.4000001 L4.4000001,5.4000001 L3.4000001,5.4000001 C3.12385772,5.4000001 2.9000001,5.17614247 2.9000001,4.9000001 C2.9000001,4.62385772 3.12385772,4.4000001 3.4000001,4.4000001 L4.4000001,4.4000001 L4.4000001,3.4000001 C4.4000001,3.12385772 4.62385772,2.9000001 4.9000001,2.9000001 Z" id="形状结合"></path>
                        </g>
                    </g>
                </g>
            </g>
        </g>
    </g>
</svg>